%TF.GenerationSoftware,KiCad,Pcbnew,(5.1.6-0)*%
%TF.CreationDate,2023-07-07T17:58:43-07:00*%
%TF.ProjectId,psu_board_small,7073755f-626f-4617-9264-5f736d616c6c,rev?*%
%TF.SameCoordinates,Original*%
%TF.FileFunction,Legend,Bot*%
%TF.FilePolarity,Positive*%
%FSLAX46Y46*%
G04 Gerber Fmt 4.6, Leading zero omitted, Abs format (unit mm)*
G04 Created by KiCad (PCBNEW (5.1.6-0)) date 2023-07-07 17:58:43*
%MOMM*%
%LPD*%
G01*
G04 APERTURE LIST*
%ADD10C,0.150000*%
G04 APERTURE END LIST*
D10*
X31738095Y-78202380D02*
X31738095Y-78916666D01*
X31785714Y-79059523D01*
X31880952Y-79154761D01*
X32023809Y-79202380D01*
X32119047Y-79202380D01*
X30833333Y-78535714D02*
X30833333Y-79202380D01*
X31261904Y-78535714D02*
X31261904Y-79059523D01*
X31214285Y-79154761D01*
X31119047Y-79202380D01*
X30976190Y-79202380D01*
X30880952Y-79154761D01*
X30833333Y-79107142D01*
X30214285Y-79202380D02*
X30309523Y-79154761D01*
X30357142Y-79059523D01*
X30357142Y-78202380D01*
X29928571Y-78535714D02*
X29690476Y-79202380D01*
X29452380Y-78535714D02*
X29690476Y-79202380D01*
X29785714Y-79440476D01*
X29833333Y-79488095D01*
X29928571Y-79535714D01*
X28357142Y-78297619D02*
X28309523Y-78250000D01*
X28214285Y-78202380D01*
X27976190Y-78202380D01*
X27880952Y-78250000D01*
X27833333Y-78297619D01*
X27785714Y-78392857D01*
X27785714Y-78488095D01*
X27833333Y-78630952D01*
X28404761Y-79202380D01*
X27785714Y-79202380D01*
X27166666Y-78202380D02*
X27071428Y-78202380D01*
X26976190Y-78250000D01*
X26928571Y-78297619D01*
X26880952Y-78392857D01*
X26833333Y-78583333D01*
X26833333Y-78821428D01*
X26880952Y-79011904D01*
X26928571Y-79107142D01*
X26976190Y-79154761D01*
X27071428Y-79202380D01*
X27166666Y-79202380D01*
X27261904Y-79154761D01*
X27309523Y-79107142D01*
X27357142Y-79011904D01*
X27404761Y-78821428D01*
X27404761Y-78583333D01*
X27357142Y-78392857D01*
X27309523Y-78297619D01*
X27261904Y-78250000D01*
X27166666Y-78202380D01*
X26452380Y-78297619D02*
X26404761Y-78250000D01*
X26309523Y-78202380D01*
X26071428Y-78202380D01*
X25976190Y-78250000D01*
X25928571Y-78297619D01*
X25880952Y-78392857D01*
X25880952Y-78488095D01*
X25928571Y-78630952D01*
X26500000Y-79202380D01*
X25880952Y-79202380D01*
X25547619Y-78202380D02*
X24928571Y-78202380D01*
X25261904Y-78583333D01*
X25119047Y-78583333D01*
X25023809Y-78630952D01*
X24976190Y-78678571D01*
X24928571Y-78773809D01*
X24928571Y-79011904D01*
X24976190Y-79107142D01*
X25023809Y-79154761D01*
X25119047Y-79202380D01*
X25404761Y-79202380D01*
X25500000Y-79154761D01*
X25547619Y-79107142D01*
X30190476Y-77202380D02*
X30523809Y-76726190D01*
X30761904Y-77202380D02*
X30761904Y-76202380D01*
X30380952Y-76202380D01*
X30285714Y-76250000D01*
X30238095Y-76297619D01*
X30190476Y-76392857D01*
X30190476Y-76535714D01*
X30238095Y-76630952D01*
X30285714Y-76678571D01*
X30380952Y-76726190D01*
X30761904Y-76726190D01*
X29380952Y-77154761D02*
X29476190Y-77202380D01*
X29666666Y-77202380D01*
X29761904Y-77154761D01*
X29809523Y-77059523D01*
X29809523Y-76678571D01*
X29761904Y-76583333D01*
X29666666Y-76535714D01*
X29476190Y-76535714D01*
X29380952Y-76583333D01*
X29333333Y-76678571D01*
X29333333Y-76773809D01*
X29809523Y-76869047D01*
X29000000Y-76535714D02*
X28761904Y-77202380D01*
X28523809Y-76535714D01*
X27619047Y-77202380D02*
X28190476Y-77202380D01*
X27904761Y-77202380D02*
X27904761Y-76202380D01*
X28000000Y-76345238D01*
X28095238Y-76440476D01*
X28190476Y-76488095D01*
X27190476Y-77107142D02*
X27142857Y-77154761D01*
X27190476Y-77202380D01*
X27238095Y-77154761D01*
X27190476Y-77107142D01*
X27190476Y-77202380D01*
X26523809Y-76202380D02*
X26428571Y-76202380D01*
X26333333Y-76250000D01*
X26285714Y-76297619D01*
X26238095Y-76392857D01*
X26190476Y-76583333D01*
X26190476Y-76821428D01*
X26238095Y-77011904D01*
X26285714Y-77107142D01*
X26333333Y-77154761D01*
X26428571Y-77202380D01*
X26523809Y-77202380D01*
X26619047Y-77154761D01*
X26666666Y-77107142D01*
X26714285Y-77011904D01*
X26761904Y-76821428D01*
X26761904Y-76583333D01*
X26714285Y-76392857D01*
X26666666Y-76297619D01*
X26619047Y-76250000D01*
X26523809Y-76202380D01*
M02*
