%TF.GenerationSoftware,KiCad,Pcbnew,(5.1.6-0)*%
%TF.CreationDate,2023-07-07T17:58:43-07:00*%
%TF.ProjectId,psu_board_small,7073755f-626f-4617-9264-5f736d616c6c,rev?*%
%TF.SameCoordinates,Original*%
%TF.FileFunction,Copper,L1,Top*%
%TF.FilePolarity,Positive*%
%FSLAX46Y46*%
G04 Gerber Fmt 4.6, Leading zero omitted, Abs format (unit mm)*
G04 Created by KiCad (PCBNEW (5.1.6-0)) date 2023-07-07 17:58:43*
%MOMM*%
%LPD*%
G01*
G04 APERTURE LIST*
%TA.AperFunction,ComponentPad*%
%ADD10C,0.800000*%
%TD*%
%TA.AperFunction,ComponentPad*%
%ADD11C,6.400000*%
%TD*%
%TA.AperFunction,ComponentPad*%
%ADD12C,2.300000*%
%TD*%
%TA.AperFunction,ComponentPad*%
%ADD13R,2.300000X2.300000*%
%TD*%
%TA.AperFunction,ComponentPad*%
%ADD14C,1.800000*%
%TD*%
%TA.AperFunction,ComponentPad*%
%ADD15O,1.600000X1.600000*%
%TD*%
%TA.AperFunction,ComponentPad*%
%ADD16C,1.600000*%
%TD*%
%TA.AperFunction,ComponentPad*%
%ADD17C,2.600000*%
%TD*%
%TA.AperFunction,ComponentPad*%
%ADD18R,2.600000X2.600000*%
%TD*%
%TA.AperFunction,ComponentPad*%
%ADD19O,2.800000X2.800000*%
%TD*%
%TA.AperFunction,ComponentPad*%
%ADD20C,2.800000*%
%TD*%
%TA.AperFunction,ComponentPad*%
%ADD21O,1.800000X2.600000*%
%TD*%
%TA.AperFunction,ComponentPad*%
%ADD22C,4.000000*%
%TD*%
%TA.AperFunction,ComponentPad*%
%ADD23R,4.000000X4.000000*%
%TD*%
%TA.AperFunction,ViaPad*%
%ADD24C,0.800000*%
%TD*%
%TA.AperFunction,Conductor*%
%ADD25C,1.000000*%
%TD*%
%TA.AperFunction,Conductor*%
%ADD26C,3.000000*%
%TD*%
%TA.AperFunction,Conductor*%
%ADD27C,0.300000*%
%TD*%
G04 APERTURE END LIST*
D10*
%TO.P,H4,1*%
%TO.N,N/C*%
X160947056Y-113302944D03*
X159250000Y-112600000D03*
X157552944Y-113302944D03*
X156850000Y-115000000D03*
X157552944Y-116697056D03*
X159250000Y-117400000D03*
X160947056Y-116697056D03*
X161650000Y-115000000D03*
D11*
X159250000Y-115000000D03*
%TD*%
D10*
%TO.P,H3,1*%
%TO.N,N/C*%
X160947056Y-68302944D03*
X159250000Y-67600000D03*
X157552944Y-68302944D03*
X156850000Y-70000000D03*
X157552944Y-71697056D03*
X159250000Y-72400000D03*
X160947056Y-71697056D03*
X161650000Y-70000000D03*
D11*
X159250000Y-70000000D03*
%TD*%
D10*
%TO.P,H2,1*%
%TO.N,N/C*%
X27947056Y-68302944D03*
X26250000Y-67600000D03*
X24552944Y-68302944D03*
X23850000Y-70000000D03*
X24552944Y-71697056D03*
X26250000Y-72400000D03*
X27947056Y-71697056D03*
X28650000Y-70000000D03*
D11*
X26250000Y-70000000D03*
%TD*%
D10*
%TO.P,H1,1*%
%TO.N,N/C*%
X27947056Y-113302944D03*
X26250000Y-112600000D03*
X24552944Y-113302944D03*
X23850000Y-115000000D03*
X24552944Y-116697056D03*
X26250000Y-117400000D03*
X27947056Y-116697056D03*
X28650000Y-115000000D03*
D11*
X26250000Y-115000000D03*
%TD*%
D12*
%TO.P,J3,2*%
%TO.N,/OV-*%
X147250000Y-70500000D03*
D13*
%TO.P,J3,1*%
%TO.N,Net-(J3-Pad1)*%
X150750000Y-70500000D03*
%TD*%
D12*
%TO.P,J2,2*%
%TO.N,GND*%
X150500000Y-114500000D03*
D13*
%TO.P,J2,1*%
%TO.N,Net-(J2-Pad1)*%
X147000000Y-114500000D03*
%TD*%
D14*
%TO.P,RV1,2*%
%TO.N,/AC4*%
X41400000Y-88750000D03*
%TO.P,RV1,1*%
%TO.N,/AC1*%
X40000000Y-96250000D03*
%TD*%
D15*
%TO.P,R8,2*%
%TO.N,/OV-*%
X140750000Y-71340000D03*
D16*
%TO.P,R8,1*%
%TO.N,Net-(C14-Pad2)*%
X140750000Y-81500000D03*
%TD*%
D15*
%TO.P,R7,2*%
%TO.N,GND*%
X140750000Y-94590000D03*
D16*
%TO.P,R7,1*%
%TO.N,Net-(C13-Pad2)*%
X140750000Y-104750000D03*
%TD*%
D17*
%TO.P,J4,6*%
%TO.N,/OV-*%
X159500000Y-80000000D03*
%TO.P,J4,5*%
X159500000Y-85000000D03*
%TO.P,J4,4*%
%TO.N,GND*%
X159500000Y-90000000D03*
%TO.P,J4,3*%
X159500000Y-95000000D03*
%TO.P,J4,2*%
%TO.N,/OV+*%
X159500000Y-100000000D03*
D18*
%TO.P,J4,1*%
X159500000Y-105000000D03*
%TD*%
D17*
%TO.P,J1,4*%
%TO.N,/AC4*%
X28250000Y-85000000D03*
%TO.P,J1,3*%
%TO.N,GND*%
X28250000Y-90000000D03*
%TO.P,J1,2*%
X28250000Y-95000000D03*
D18*
%TO.P,J1,1*%
%TO.N,/AC1*%
X28250000Y-100000000D03*
%TD*%
D16*
%TO.P,C14,2*%
%TO.N,Net-(C14-Pad2)*%
X140750000Y-84750000D03*
%TO.P,C14,1*%
%TO.N,GND*%
X140750000Y-89750000D03*
%TD*%
%TO.P,C13,2*%
%TO.N,Net-(C13-Pad2)*%
X140750000Y-108000000D03*
%TO.P,C13,1*%
%TO.N,/OV+*%
X140750000Y-113000000D03*
%TD*%
%TO.P,C12,2*%
%TO.N,/OV-*%
X144000000Y-77500000D03*
%TO.P,C12,1*%
%TO.N,GND*%
X144000000Y-82500000D03*
%TD*%
%TO.P,C11,2*%
%TO.N,GND*%
X144000000Y-103000000D03*
%TO.P,C11,1*%
%TO.N,/OV+*%
X144000000Y-108000000D03*
%TD*%
D15*
%TO.P,R12,2*%
%TO.N,Net-(D3-Pad1)*%
X147250000Y-79840000D03*
D16*
%TO.P,R12,1*%
%TO.N,GND*%
X147250000Y-90000000D03*
%TD*%
D15*
%TO.P,R11,2*%
%TO.N,Net-(D2-Pad1)*%
X147250000Y-98090000D03*
D16*
%TO.P,R11,1*%
%TO.N,/OV+*%
X147250000Y-108250000D03*
%TD*%
D15*
%TO.P,R10,2*%
%TO.N,Net-(J3-Pad1)*%
X150500000Y-79840000D03*
D16*
%TO.P,R10,1*%
%TO.N,GND*%
X150500000Y-90000000D03*
%TD*%
D15*
%TO.P,R9,2*%
%TO.N,Net-(J2-Pad1)*%
X150500000Y-106660000D03*
D16*
%TO.P,R9,1*%
%TO.N,/OV+*%
X150500000Y-96500000D03*
%TD*%
D19*
%TO.P,R6,2*%
%TO.N,/RV-*%
X110000000Y-69680000D03*
D20*
%TO.P,R6,1*%
%TO.N,/OV-*%
X110000000Y-90000000D03*
%TD*%
D19*
%TO.P,R5,2*%
%TO.N,/RV-*%
X103500000Y-69680000D03*
D20*
%TO.P,R5,1*%
%TO.N,/OV-*%
X103500000Y-90000000D03*
%TD*%
D19*
%TO.P,R4,2*%
%TO.N,/RV+*%
X110000000Y-115320000D03*
D20*
%TO.P,R4,1*%
%TO.N,/OV+*%
X110000000Y-95000000D03*
%TD*%
D19*
%TO.P,R3,2*%
%TO.N,/RV+*%
X103500000Y-115320000D03*
D20*
%TO.P,R3,1*%
%TO.N,/OV+*%
X103500000Y-95000000D03*
%TD*%
D15*
%TO.P,R2,2*%
%TO.N,/RV-*%
X98500000Y-69590000D03*
D16*
%TO.P,R2,1*%
%TO.N,Net-(C8-Pad2)*%
X98500000Y-79750000D03*
%TD*%
D15*
%TO.P,R1,2*%
%TO.N,GND*%
X98500000Y-96840000D03*
D16*
%TO.P,R1,1*%
%TO.N,Net-(C7-Pad2)*%
X98500000Y-107000000D03*
%TD*%
%TO.P,D3,2*%
%TO.N,/OV-*%
%TA.AperFunction,SMDPad,CuDef*%
G36*
G01*
X147700001Y-75800000D02*
X146799999Y-75800000D01*
G75*
G02*
X146550000Y-75550001I0J249999D01*
G01*
X146550000Y-74899999D01*
G75*
G02*
X146799999Y-74650000I249999J0D01*
G01*
X147700001Y-74650000D01*
G75*
G02*
X147950000Y-74899999I0J-249999D01*
G01*
X147950000Y-75550001D01*
G75*
G02*
X147700001Y-75800000I-249999J0D01*
G01*
G37*
%TD.AperFunction*%
%TO.P,D3,1*%
%TO.N,Net-(D3-Pad1)*%
%TA.AperFunction,SMDPad,CuDef*%
G36*
G01*
X147700001Y-77850000D02*
X146799999Y-77850000D01*
G75*
G02*
X146550000Y-77600001I0J249999D01*
G01*
X146550000Y-76949999D01*
G75*
G02*
X146799999Y-76700000I249999J0D01*
G01*
X147700001Y-76700000D01*
G75*
G02*
X147950000Y-76949999I0J-249999D01*
G01*
X147950000Y-77600001D01*
G75*
G02*
X147700001Y-77850000I-249999J0D01*
G01*
G37*
%TD.AperFunction*%
%TD*%
%TO.P,D2,2*%
%TO.N,GND*%
%TA.AperFunction,SMDPad,CuDef*%
G36*
G01*
X147700001Y-94050000D02*
X146799999Y-94050000D01*
G75*
G02*
X146550000Y-93800001I0J249999D01*
G01*
X146550000Y-93149999D01*
G75*
G02*
X146799999Y-92900000I249999J0D01*
G01*
X147700001Y-92900000D01*
G75*
G02*
X147950000Y-93149999I0J-249999D01*
G01*
X147950000Y-93800001D01*
G75*
G02*
X147700001Y-94050000I-249999J0D01*
G01*
G37*
%TD.AperFunction*%
%TO.P,D2,1*%
%TO.N,Net-(D2-Pad1)*%
%TA.AperFunction,SMDPad,CuDef*%
G36*
G01*
X147700001Y-96100000D02*
X146799999Y-96100000D01*
G75*
G02*
X146550000Y-95850001I0J249999D01*
G01*
X146550000Y-95199999D01*
G75*
G02*
X146799999Y-94950000I249999J0D01*
G01*
X147700001Y-94950000D01*
G75*
G02*
X147950000Y-95199999I0J-249999D01*
G01*
X147950000Y-95850001D01*
G75*
G02*
X147700001Y-96100000I-249999J0D01*
G01*
G37*
%TD.AperFunction*%
%TD*%
D21*
%TO.P,D1,4*%
%TO.N,/RV-*%
X35500000Y-81250000D03*
%TO.P,D1,3*%
%TO.N,/AC4*%
X35500000Y-88750000D03*
%TO.P,D1,2*%
%TO.N,/AC1*%
X35500000Y-96250000D03*
%TO.P,D1,1*%
%TO.N,/RV+*%
X35500000Y-106250000D03*
%TD*%
D22*
%TO.P,C10,2*%
%TO.N,/OV-*%
X126250000Y-74500000D03*
D23*
%TO.P,C10,1*%
%TO.N,GND*%
X126250000Y-84500000D03*
%TD*%
D22*
%TO.P,C9,2*%
%TO.N,GND*%
X126250000Y-100500000D03*
D23*
%TO.P,C9,1*%
%TO.N,/OV+*%
X126250000Y-110500000D03*
%TD*%
D16*
%TO.P,C8,2*%
%TO.N,Net-(C8-Pad2)*%
X98500000Y-83000000D03*
%TO.P,C8,1*%
%TO.N,GND*%
X98500000Y-88000000D03*
%TD*%
%TO.P,C7,2*%
%TO.N,Net-(C7-Pad2)*%
X98500000Y-110250000D03*
%TO.P,C7,1*%
%TO.N,/RV+*%
X98500000Y-115250000D03*
%TD*%
%TO.P,C6,2*%
%TO.N,/RV-*%
X69500000Y-77000000D03*
%TO.P,C6,1*%
%TO.N,GND*%
X69500000Y-82000000D03*
%TD*%
%TO.P,C5,2*%
%TO.N,GND*%
X69500000Y-103000000D03*
%TO.P,C5,1*%
%TO.N,/RV+*%
X69500000Y-108000000D03*
%TD*%
D22*
%TO.P,C4,2*%
%TO.N,/RV-*%
X84000000Y-74500000D03*
D23*
%TO.P,C4,1*%
%TO.N,GND*%
X84000000Y-84500000D03*
%TD*%
D22*
%TO.P,C3,2*%
%TO.N,GND*%
X84000000Y-100500000D03*
D23*
%TO.P,C3,1*%
%TO.N,/RV+*%
X84000000Y-110500000D03*
%TD*%
D22*
%TO.P,C2,2*%
%TO.N,/RV-*%
X55000000Y-74500000D03*
D23*
%TO.P,C2,1*%
%TO.N,GND*%
X55000000Y-84500000D03*
%TD*%
D22*
%TO.P,C1,2*%
%TO.N,GND*%
X55000000Y-100500000D03*
D23*
%TO.P,C1,1*%
%TO.N,/RV+*%
X55000000Y-110500000D03*
%TD*%
D24*
%TO.N,GND*%
X147250000Y-92250000D03*
%TD*%
D25*
%TO.N,GND*%
X147250000Y-92250000D02*
X147250000Y-93475000D01*
%TO.N,Net-(D2-Pad1)*%
X147250000Y-95525000D02*
X147250000Y-98090000D01*
%TO.N,Net-(D3-Pad1)*%
X147250000Y-77275000D02*
X147250000Y-79840000D01*
%TO.N,Net-(C7-Pad2)*%
X98500000Y-107000000D02*
X98500000Y-110250000D01*
%TO.N,Net-(C8-Pad2)*%
X98500000Y-79750000D02*
X98500000Y-83000000D01*
%TO.N,Net-(C13-Pad2)*%
X140750000Y-104750000D02*
X140750000Y-108000000D01*
%TO.N,Net-(C14-Pad2)*%
X140750000Y-81500000D02*
X140750000Y-84750000D01*
D26*
%TO.N,/AC4*%
X41400000Y-88750000D02*
X35500000Y-88750000D01*
X31750000Y-85000000D02*
X35500000Y-88750000D01*
X28250000Y-85000000D02*
X31750000Y-85000000D01*
%TO.N,/AC1*%
X40000000Y-96250000D02*
X35500000Y-96250000D01*
X31750000Y-100000000D02*
X35500000Y-96250000D01*
X28250000Y-100000000D02*
X31750000Y-100000000D01*
%TD*%
D27*
%TO.N,/RV-*%
G36*
X114850000Y-74937868D02*
G01*
X112437868Y-77350000D01*
X98500000Y-77350000D01*
X98470736Y-77352882D01*
X98442597Y-77361418D01*
X98416664Y-77375280D01*
X98393934Y-77393934D01*
X93687868Y-82100000D01*
X86206262Y-82100000D01*
X86173041Y-82082243D01*
X86088215Y-82056511D01*
X86000000Y-82047823D01*
X82000000Y-82047823D01*
X81911785Y-82056511D01*
X81826959Y-82082243D01*
X81793738Y-82100000D01*
X70750000Y-82100000D01*
X70750000Y-81876886D01*
X70701963Y-81635389D01*
X70607735Y-81407903D01*
X70470938Y-81203172D01*
X70296828Y-81029062D01*
X70092097Y-80892265D01*
X69864611Y-80798037D01*
X69623114Y-80750000D01*
X69376886Y-80750000D01*
X69135389Y-80798037D01*
X68907903Y-80892265D01*
X68703172Y-81029062D01*
X68529062Y-81203172D01*
X68392265Y-81407903D01*
X68298037Y-81635389D01*
X68250000Y-81876886D01*
X68250000Y-82100000D01*
X57206262Y-82100000D01*
X57173041Y-82082243D01*
X57088215Y-82056511D01*
X57000000Y-82047823D01*
X53000000Y-82047823D01*
X52911785Y-82056511D01*
X52826959Y-82082243D01*
X52793738Y-82100000D01*
X52750000Y-82100000D01*
X52720736Y-82102882D01*
X52692597Y-82111418D01*
X52666664Y-82125280D01*
X52643934Y-82143934D01*
X50937868Y-83850000D01*
X34062132Y-83850000D01*
X33150000Y-82937868D01*
X33150000Y-81300000D01*
X34150000Y-81300000D01*
X34150000Y-81700000D01*
X34185694Y-81962411D01*
X34271896Y-82212816D01*
X34405294Y-82441593D01*
X34580761Y-82639949D01*
X34791553Y-82800262D01*
X35029571Y-82916371D01*
X35239574Y-82974643D01*
X35450000Y-82886489D01*
X35450000Y-81300000D01*
X35550000Y-81300000D01*
X35550000Y-82886489D01*
X35760426Y-82974643D01*
X35970429Y-82916371D01*
X36208447Y-82800262D01*
X36419239Y-82639949D01*
X36594706Y-82441593D01*
X36728104Y-82212816D01*
X36814306Y-81962411D01*
X36850000Y-81700000D01*
X36850000Y-81300000D01*
X35550000Y-81300000D01*
X35450000Y-81300000D01*
X34150000Y-81300000D01*
X33150000Y-81300000D01*
X33150000Y-80800000D01*
X34150000Y-80800000D01*
X34150000Y-81200000D01*
X35450000Y-81200000D01*
X35450000Y-79613511D01*
X35550000Y-79613511D01*
X35550000Y-81200000D01*
X36850000Y-81200000D01*
X36850000Y-80800000D01*
X36814306Y-80537589D01*
X36728104Y-80287184D01*
X36594706Y-80058407D01*
X36419239Y-79860051D01*
X36208447Y-79699738D01*
X35970429Y-79583629D01*
X35760426Y-79525357D01*
X35550000Y-79613511D01*
X35450000Y-79613511D01*
X35239574Y-79525357D01*
X35029571Y-79583629D01*
X34791553Y-79699738D01*
X34580761Y-79860051D01*
X34405294Y-80058407D01*
X34271896Y-80287184D01*
X34185694Y-80537589D01*
X34150000Y-80800000D01*
X33150000Y-80800000D01*
X33150000Y-77843192D01*
X68727518Y-77843192D01*
X68802750Y-78044748D01*
X69019967Y-78160701D01*
X69255632Y-78232049D01*
X69500689Y-78256049D01*
X69745718Y-78231780D01*
X69981305Y-78160174D01*
X70197250Y-78044748D01*
X70272482Y-77843192D01*
X69500000Y-77070711D01*
X68727518Y-77843192D01*
X33150000Y-77843192D01*
X33150000Y-77000689D01*
X68243951Y-77000689D01*
X68268220Y-77245718D01*
X68339826Y-77481305D01*
X68455252Y-77697250D01*
X68656808Y-77772482D01*
X69429289Y-77000000D01*
X69570711Y-77000000D01*
X70343192Y-77772482D01*
X70544748Y-77697250D01*
X70660701Y-77480033D01*
X70732049Y-77244368D01*
X70756049Y-76999311D01*
X70731780Y-76754282D01*
X70660174Y-76518695D01*
X70544748Y-76302750D01*
X70343192Y-76227518D01*
X69570711Y-77000000D01*
X69429289Y-77000000D01*
X68656808Y-76227518D01*
X68455252Y-76302750D01*
X68339299Y-76519967D01*
X68267951Y-76755632D01*
X68243951Y-77000689D01*
X33150000Y-77000689D01*
X33150000Y-76196224D01*
X53374487Y-76196224D01*
X53593707Y-76520661D01*
X54014940Y-76756189D01*
X54474029Y-76905013D01*
X54953330Y-76961413D01*
X55434424Y-76923223D01*
X55898825Y-76791910D01*
X56328683Y-76572520D01*
X56406293Y-76520661D01*
X56625513Y-76196224D01*
X56586097Y-76156808D01*
X68727518Y-76156808D01*
X69500000Y-76929289D01*
X70233065Y-76196224D01*
X82374487Y-76196224D01*
X82593707Y-76520661D01*
X83014940Y-76756189D01*
X83474029Y-76905013D01*
X83953330Y-76961413D01*
X84434424Y-76923223D01*
X84898825Y-76791910D01*
X85328683Y-76572520D01*
X85406293Y-76520661D01*
X85625513Y-76196224D01*
X84000000Y-74570711D01*
X82374487Y-76196224D01*
X70233065Y-76196224D01*
X70272482Y-76156808D01*
X70197250Y-75955252D01*
X69980033Y-75839299D01*
X69744368Y-75767951D01*
X69499311Y-75743951D01*
X69254282Y-75768220D01*
X69018695Y-75839826D01*
X68802750Y-75955252D01*
X68727518Y-76156808D01*
X56586097Y-76156808D01*
X55000000Y-74570711D01*
X53374487Y-76196224D01*
X33150000Y-76196224D01*
X33150000Y-75062132D01*
X33758802Y-74453330D01*
X52538587Y-74453330D01*
X52576777Y-74934424D01*
X52708090Y-75398825D01*
X52927480Y-75828683D01*
X52979339Y-75906293D01*
X53303776Y-76125513D01*
X54929289Y-74500000D01*
X55070711Y-74500000D01*
X56696224Y-76125513D01*
X57020661Y-75906293D01*
X57256189Y-75485060D01*
X57405013Y-75025971D01*
X57461413Y-74546670D01*
X57454004Y-74453330D01*
X81538587Y-74453330D01*
X81576777Y-74934424D01*
X81708090Y-75398825D01*
X81927480Y-75828683D01*
X81979339Y-75906293D01*
X82303776Y-76125513D01*
X83929289Y-74500000D01*
X84070711Y-74500000D01*
X85696224Y-76125513D01*
X86020661Y-75906293D01*
X86256189Y-75485060D01*
X86405013Y-75025971D01*
X86461413Y-74546670D01*
X86423223Y-74065576D01*
X86291910Y-73601175D01*
X86072520Y-73171317D01*
X86020661Y-73093707D01*
X85696224Y-72874487D01*
X84070711Y-74500000D01*
X83929289Y-74500000D01*
X82303776Y-72874487D01*
X81979339Y-73093707D01*
X81743811Y-73514940D01*
X81594987Y-73974029D01*
X81538587Y-74453330D01*
X57454004Y-74453330D01*
X57423223Y-74065576D01*
X57291910Y-73601175D01*
X57072520Y-73171317D01*
X57020661Y-73093707D01*
X56696224Y-72874487D01*
X55070711Y-74500000D01*
X54929289Y-74500000D01*
X53303776Y-72874487D01*
X52979339Y-73093707D01*
X52743811Y-73514940D01*
X52594987Y-73974029D01*
X52538587Y-74453330D01*
X33758802Y-74453330D01*
X35408356Y-72803776D01*
X53374487Y-72803776D01*
X55000000Y-74429289D01*
X56625513Y-72803776D01*
X82374487Y-72803776D01*
X84000000Y-74429289D01*
X85625513Y-72803776D01*
X85406293Y-72479339D01*
X84985060Y-72243811D01*
X84525971Y-72094987D01*
X84046670Y-72038587D01*
X83565576Y-72076777D01*
X83101175Y-72208090D01*
X82671317Y-72427480D01*
X82593707Y-72479339D01*
X82374487Y-72803776D01*
X56625513Y-72803776D01*
X56406293Y-72479339D01*
X55985060Y-72243811D01*
X55525971Y-72094987D01*
X55046670Y-72038587D01*
X54565576Y-72076777D01*
X54101175Y-72208090D01*
X53671317Y-72427480D01*
X53593707Y-72479339D01*
X53374487Y-72803776D01*
X35408356Y-72803776D01*
X38377361Y-69834771D01*
X97274197Y-69834771D01*
X97345503Y-70069210D01*
X97461176Y-70285233D01*
X97616770Y-70474539D01*
X97806306Y-70629852D01*
X98022500Y-70745205D01*
X98255229Y-70815801D01*
X98450000Y-70726401D01*
X98450000Y-69640000D01*
X98550000Y-69640000D01*
X98550000Y-70726401D01*
X98744771Y-70815801D01*
X98977500Y-70745205D01*
X99193694Y-70629852D01*
X99383230Y-70474539D01*
X99538824Y-70285233D01*
X99654497Y-70069210D01*
X99669865Y-70018683D01*
X101681264Y-70018683D01*
X101782284Y-70366993D01*
X101949315Y-70688902D01*
X102175938Y-70972040D01*
X102453444Y-71205525D01*
X102771168Y-71380385D01*
X103116901Y-71489901D01*
X103161318Y-71498734D01*
X103450000Y-71416780D01*
X103450000Y-69730000D01*
X103550000Y-69730000D01*
X103550000Y-71416780D01*
X103838682Y-71498734D01*
X103883099Y-71489901D01*
X104228832Y-71380385D01*
X104546556Y-71205525D01*
X104824062Y-70972040D01*
X105050685Y-70688902D01*
X105217716Y-70366993D01*
X105318736Y-70018683D01*
X108181264Y-70018683D01*
X108282284Y-70366993D01*
X108449315Y-70688902D01*
X108675938Y-70972040D01*
X108953444Y-71205525D01*
X109271168Y-71380385D01*
X109616901Y-71489901D01*
X109661318Y-71498734D01*
X109950000Y-71416780D01*
X109950000Y-69730000D01*
X110050000Y-69730000D01*
X110050000Y-71416780D01*
X110338682Y-71498734D01*
X110383099Y-71489901D01*
X110728832Y-71380385D01*
X111046556Y-71205525D01*
X111324062Y-70972040D01*
X111550685Y-70688902D01*
X111717716Y-70366993D01*
X111818736Y-70018683D01*
X111736826Y-69730000D01*
X110050000Y-69730000D01*
X109950000Y-69730000D01*
X108263174Y-69730000D01*
X108181264Y-70018683D01*
X105318736Y-70018683D01*
X105236826Y-69730000D01*
X103550000Y-69730000D01*
X103450000Y-69730000D01*
X101763174Y-69730000D01*
X101681264Y-70018683D01*
X99669865Y-70018683D01*
X99725803Y-69834771D01*
X99636502Y-69640000D01*
X98550000Y-69640000D01*
X98450000Y-69640000D01*
X97363498Y-69640000D01*
X97274197Y-69834771D01*
X38377361Y-69834771D01*
X38866903Y-69345229D01*
X97274197Y-69345229D01*
X97363498Y-69540000D01*
X98450000Y-69540000D01*
X98450000Y-68453599D01*
X98550000Y-68453599D01*
X98550000Y-69540000D01*
X99636502Y-69540000D01*
X99725803Y-69345229D01*
X99724614Y-69341317D01*
X101681264Y-69341317D01*
X101763174Y-69630000D01*
X103450000Y-69630000D01*
X103450000Y-67943220D01*
X103550000Y-67943220D01*
X103550000Y-69630000D01*
X105236826Y-69630000D01*
X105318736Y-69341317D01*
X108181264Y-69341317D01*
X108263174Y-69630000D01*
X109950000Y-69630000D01*
X109950000Y-67943220D01*
X110050000Y-67943220D01*
X110050000Y-69630000D01*
X111736826Y-69630000D01*
X111818736Y-69341317D01*
X111717716Y-68993007D01*
X111550685Y-68671098D01*
X111324062Y-68387960D01*
X111046556Y-68154475D01*
X110728832Y-67979615D01*
X110383099Y-67870099D01*
X110338682Y-67861266D01*
X110050000Y-67943220D01*
X109950000Y-67943220D01*
X109661318Y-67861266D01*
X109616901Y-67870099D01*
X109271168Y-67979615D01*
X108953444Y-68154475D01*
X108675938Y-68387960D01*
X108449315Y-68671098D01*
X108282284Y-68993007D01*
X108181264Y-69341317D01*
X105318736Y-69341317D01*
X105217716Y-68993007D01*
X105050685Y-68671098D01*
X104824062Y-68387960D01*
X104546556Y-68154475D01*
X104228832Y-67979615D01*
X103883099Y-67870099D01*
X103838682Y-67861266D01*
X103550000Y-67943220D01*
X103450000Y-67943220D01*
X103161318Y-67861266D01*
X103116901Y-67870099D01*
X102771168Y-67979615D01*
X102453444Y-68154475D01*
X102175938Y-68387960D01*
X101949315Y-68671098D01*
X101782284Y-68993007D01*
X101681264Y-69341317D01*
X99724614Y-69341317D01*
X99654497Y-69110790D01*
X99538824Y-68894767D01*
X99383230Y-68705461D01*
X99193694Y-68550148D01*
X98977500Y-68434795D01*
X98744771Y-68364199D01*
X98550000Y-68453599D01*
X98450000Y-68453599D01*
X98255229Y-68364199D01*
X98022500Y-68434795D01*
X97806306Y-68550148D01*
X97616770Y-68705461D01*
X97461176Y-68894767D01*
X97345503Y-69110790D01*
X97274197Y-69345229D01*
X38866903Y-69345229D01*
X41487132Y-66725000D01*
X114850000Y-66725000D01*
X114850000Y-74937868D01*
G37*
X114850000Y-74937868D02*
X112437868Y-77350000D01*
X98500000Y-77350000D01*
X98470736Y-77352882D01*
X98442597Y-77361418D01*
X98416664Y-77375280D01*
X98393934Y-77393934D01*
X93687868Y-82100000D01*
X86206262Y-82100000D01*
X86173041Y-82082243D01*
X86088215Y-82056511D01*
X86000000Y-82047823D01*
X82000000Y-82047823D01*
X81911785Y-82056511D01*
X81826959Y-82082243D01*
X81793738Y-82100000D01*
X70750000Y-82100000D01*
X70750000Y-81876886D01*
X70701963Y-81635389D01*
X70607735Y-81407903D01*
X70470938Y-81203172D01*
X70296828Y-81029062D01*
X70092097Y-80892265D01*
X69864611Y-80798037D01*
X69623114Y-80750000D01*
X69376886Y-80750000D01*
X69135389Y-80798037D01*
X68907903Y-80892265D01*
X68703172Y-81029062D01*
X68529062Y-81203172D01*
X68392265Y-81407903D01*
X68298037Y-81635389D01*
X68250000Y-81876886D01*
X68250000Y-82100000D01*
X57206262Y-82100000D01*
X57173041Y-82082243D01*
X57088215Y-82056511D01*
X57000000Y-82047823D01*
X53000000Y-82047823D01*
X52911785Y-82056511D01*
X52826959Y-82082243D01*
X52793738Y-82100000D01*
X52750000Y-82100000D01*
X52720736Y-82102882D01*
X52692597Y-82111418D01*
X52666664Y-82125280D01*
X52643934Y-82143934D01*
X50937868Y-83850000D01*
X34062132Y-83850000D01*
X33150000Y-82937868D01*
X33150000Y-81300000D01*
X34150000Y-81300000D01*
X34150000Y-81700000D01*
X34185694Y-81962411D01*
X34271896Y-82212816D01*
X34405294Y-82441593D01*
X34580761Y-82639949D01*
X34791553Y-82800262D01*
X35029571Y-82916371D01*
X35239574Y-82974643D01*
X35450000Y-82886489D01*
X35450000Y-81300000D01*
X35550000Y-81300000D01*
X35550000Y-82886489D01*
X35760426Y-82974643D01*
X35970429Y-82916371D01*
X36208447Y-82800262D01*
X36419239Y-82639949D01*
X36594706Y-82441593D01*
X36728104Y-82212816D01*
X36814306Y-81962411D01*
X36850000Y-81700000D01*
X36850000Y-81300000D01*
X35550000Y-81300000D01*
X35450000Y-81300000D01*
X34150000Y-81300000D01*
X33150000Y-81300000D01*
X33150000Y-80800000D01*
X34150000Y-80800000D01*
X34150000Y-81200000D01*
X35450000Y-81200000D01*
X35450000Y-79613511D01*
X35550000Y-79613511D01*
X35550000Y-81200000D01*
X36850000Y-81200000D01*
X36850000Y-80800000D01*
X36814306Y-80537589D01*
X36728104Y-80287184D01*
X36594706Y-80058407D01*
X36419239Y-79860051D01*
X36208447Y-79699738D01*
X35970429Y-79583629D01*
X35760426Y-79525357D01*
X35550000Y-79613511D01*
X35450000Y-79613511D01*
X35239574Y-79525357D01*
X35029571Y-79583629D01*
X34791553Y-79699738D01*
X34580761Y-79860051D01*
X34405294Y-80058407D01*
X34271896Y-80287184D01*
X34185694Y-80537589D01*
X34150000Y-80800000D01*
X33150000Y-80800000D01*
X33150000Y-77843192D01*
X68727518Y-77843192D01*
X68802750Y-78044748D01*
X69019967Y-78160701D01*
X69255632Y-78232049D01*
X69500689Y-78256049D01*
X69745718Y-78231780D01*
X69981305Y-78160174D01*
X70197250Y-78044748D01*
X70272482Y-77843192D01*
X69500000Y-77070711D01*
X68727518Y-77843192D01*
X33150000Y-77843192D01*
X33150000Y-77000689D01*
X68243951Y-77000689D01*
X68268220Y-77245718D01*
X68339826Y-77481305D01*
X68455252Y-77697250D01*
X68656808Y-77772482D01*
X69429289Y-77000000D01*
X69570711Y-77000000D01*
X70343192Y-77772482D01*
X70544748Y-77697250D01*
X70660701Y-77480033D01*
X70732049Y-77244368D01*
X70756049Y-76999311D01*
X70731780Y-76754282D01*
X70660174Y-76518695D01*
X70544748Y-76302750D01*
X70343192Y-76227518D01*
X69570711Y-77000000D01*
X69429289Y-77000000D01*
X68656808Y-76227518D01*
X68455252Y-76302750D01*
X68339299Y-76519967D01*
X68267951Y-76755632D01*
X68243951Y-77000689D01*
X33150000Y-77000689D01*
X33150000Y-76196224D01*
X53374487Y-76196224D01*
X53593707Y-76520661D01*
X54014940Y-76756189D01*
X54474029Y-76905013D01*
X54953330Y-76961413D01*
X55434424Y-76923223D01*
X55898825Y-76791910D01*
X56328683Y-76572520D01*
X56406293Y-76520661D01*
X56625513Y-76196224D01*
X56586097Y-76156808D01*
X68727518Y-76156808D01*
X69500000Y-76929289D01*
X70233065Y-76196224D01*
X82374487Y-76196224D01*
X82593707Y-76520661D01*
X83014940Y-76756189D01*
X83474029Y-76905013D01*
X83953330Y-76961413D01*
X84434424Y-76923223D01*
X84898825Y-76791910D01*
X85328683Y-76572520D01*
X85406293Y-76520661D01*
X85625513Y-76196224D01*
X84000000Y-74570711D01*
X82374487Y-76196224D01*
X70233065Y-76196224D01*
X70272482Y-76156808D01*
X70197250Y-75955252D01*
X69980033Y-75839299D01*
X69744368Y-75767951D01*
X69499311Y-75743951D01*
X69254282Y-75768220D01*
X69018695Y-75839826D01*
X68802750Y-75955252D01*
X68727518Y-76156808D01*
X56586097Y-76156808D01*
X55000000Y-74570711D01*
X53374487Y-76196224D01*
X33150000Y-76196224D01*
X33150000Y-75062132D01*
X33758802Y-74453330D01*
X52538587Y-74453330D01*
X52576777Y-74934424D01*
X52708090Y-75398825D01*
X52927480Y-75828683D01*
X52979339Y-75906293D01*
X53303776Y-76125513D01*
X54929289Y-74500000D01*
X55070711Y-74500000D01*
X56696224Y-76125513D01*
X57020661Y-75906293D01*
X57256189Y-75485060D01*
X57405013Y-75025971D01*
X57461413Y-74546670D01*
X57454004Y-74453330D01*
X81538587Y-74453330D01*
X81576777Y-74934424D01*
X81708090Y-75398825D01*
X81927480Y-75828683D01*
X81979339Y-75906293D01*
X82303776Y-76125513D01*
X83929289Y-74500000D01*
X84070711Y-74500000D01*
X85696224Y-76125513D01*
X86020661Y-75906293D01*
X86256189Y-75485060D01*
X86405013Y-75025971D01*
X86461413Y-74546670D01*
X86423223Y-74065576D01*
X86291910Y-73601175D01*
X86072520Y-73171317D01*
X86020661Y-73093707D01*
X85696224Y-72874487D01*
X84070711Y-74500000D01*
X83929289Y-74500000D01*
X82303776Y-72874487D01*
X81979339Y-73093707D01*
X81743811Y-73514940D01*
X81594987Y-73974029D01*
X81538587Y-74453330D01*
X57454004Y-74453330D01*
X57423223Y-74065576D01*
X57291910Y-73601175D01*
X57072520Y-73171317D01*
X57020661Y-73093707D01*
X56696224Y-72874487D01*
X55070711Y-74500000D01*
X54929289Y-74500000D01*
X53303776Y-72874487D01*
X52979339Y-73093707D01*
X52743811Y-73514940D01*
X52594987Y-73974029D01*
X52538587Y-74453330D01*
X33758802Y-74453330D01*
X35408356Y-72803776D01*
X53374487Y-72803776D01*
X55000000Y-74429289D01*
X56625513Y-72803776D01*
X82374487Y-72803776D01*
X84000000Y-74429289D01*
X85625513Y-72803776D01*
X85406293Y-72479339D01*
X84985060Y-72243811D01*
X84525971Y-72094987D01*
X84046670Y-72038587D01*
X83565576Y-72076777D01*
X83101175Y-72208090D01*
X82671317Y-72427480D01*
X82593707Y-72479339D01*
X82374487Y-72803776D01*
X56625513Y-72803776D01*
X56406293Y-72479339D01*
X55985060Y-72243811D01*
X55525971Y-72094987D01*
X55046670Y-72038587D01*
X54565576Y-72076777D01*
X54101175Y-72208090D01*
X53671317Y-72427480D01*
X53593707Y-72479339D01*
X53374487Y-72803776D01*
X35408356Y-72803776D01*
X38377361Y-69834771D01*
X97274197Y-69834771D01*
X97345503Y-70069210D01*
X97461176Y-70285233D01*
X97616770Y-70474539D01*
X97806306Y-70629852D01*
X98022500Y-70745205D01*
X98255229Y-70815801D01*
X98450000Y-70726401D01*
X98450000Y-69640000D01*
X98550000Y-69640000D01*
X98550000Y-70726401D01*
X98744771Y-70815801D01*
X98977500Y-70745205D01*
X99193694Y-70629852D01*
X99383230Y-70474539D01*
X99538824Y-70285233D01*
X99654497Y-70069210D01*
X99669865Y-70018683D01*
X101681264Y-70018683D01*
X101782284Y-70366993D01*
X101949315Y-70688902D01*
X102175938Y-70972040D01*
X102453444Y-71205525D01*
X102771168Y-71380385D01*
X103116901Y-71489901D01*
X103161318Y-71498734D01*
X103450000Y-71416780D01*
X103450000Y-69730000D01*
X103550000Y-69730000D01*
X103550000Y-71416780D01*
X103838682Y-71498734D01*
X103883099Y-71489901D01*
X104228832Y-71380385D01*
X104546556Y-71205525D01*
X104824062Y-70972040D01*
X105050685Y-70688902D01*
X105217716Y-70366993D01*
X105318736Y-70018683D01*
X108181264Y-70018683D01*
X108282284Y-70366993D01*
X108449315Y-70688902D01*
X108675938Y-70972040D01*
X108953444Y-71205525D01*
X109271168Y-71380385D01*
X109616901Y-71489901D01*
X109661318Y-71498734D01*
X109950000Y-71416780D01*
X109950000Y-69730000D01*
X110050000Y-69730000D01*
X110050000Y-71416780D01*
X110338682Y-71498734D01*
X110383099Y-71489901D01*
X110728832Y-71380385D01*
X111046556Y-71205525D01*
X111324062Y-70972040D01*
X111550685Y-70688902D01*
X111717716Y-70366993D01*
X111818736Y-70018683D01*
X111736826Y-69730000D01*
X110050000Y-69730000D01*
X109950000Y-69730000D01*
X108263174Y-69730000D01*
X108181264Y-70018683D01*
X105318736Y-70018683D01*
X105236826Y-69730000D01*
X103550000Y-69730000D01*
X103450000Y-69730000D01*
X101763174Y-69730000D01*
X101681264Y-70018683D01*
X99669865Y-70018683D01*
X99725803Y-69834771D01*
X99636502Y-69640000D01*
X98550000Y-69640000D01*
X98450000Y-69640000D01*
X97363498Y-69640000D01*
X97274197Y-69834771D01*
X38377361Y-69834771D01*
X38866903Y-69345229D01*
X97274197Y-69345229D01*
X97363498Y-69540000D01*
X98450000Y-69540000D01*
X98450000Y-68453599D01*
X98550000Y-68453599D01*
X98550000Y-69540000D01*
X99636502Y-69540000D01*
X99725803Y-69345229D01*
X99724614Y-69341317D01*
X101681264Y-69341317D01*
X101763174Y-69630000D01*
X103450000Y-69630000D01*
X103450000Y-67943220D01*
X103550000Y-67943220D01*
X103550000Y-69630000D01*
X105236826Y-69630000D01*
X105318736Y-69341317D01*
X108181264Y-69341317D01*
X108263174Y-69630000D01*
X109950000Y-69630000D01*
X109950000Y-67943220D01*
X110050000Y-67943220D01*
X110050000Y-69630000D01*
X111736826Y-69630000D01*
X111818736Y-69341317D01*
X111717716Y-68993007D01*
X111550685Y-68671098D01*
X111324062Y-68387960D01*
X111046556Y-68154475D01*
X110728832Y-67979615D01*
X110383099Y-67870099D01*
X110338682Y-67861266D01*
X110050000Y-67943220D01*
X109950000Y-67943220D01*
X109661318Y-67861266D01*
X109616901Y-67870099D01*
X109271168Y-67979615D01*
X108953444Y-68154475D01*
X108675938Y-68387960D01*
X108449315Y-68671098D01*
X108282284Y-68993007D01*
X108181264Y-69341317D01*
X105318736Y-69341317D01*
X105217716Y-68993007D01*
X105050685Y-68671098D01*
X104824062Y-68387960D01*
X104546556Y-68154475D01*
X104228832Y-67979615D01*
X103883099Y-67870099D01*
X103838682Y-67861266D01*
X103550000Y-67943220D01*
X103450000Y-67943220D01*
X103161318Y-67861266D01*
X103116901Y-67870099D01*
X102771168Y-67979615D01*
X102453444Y-68154475D01*
X102175938Y-68387960D01*
X101949315Y-68671098D01*
X101782284Y-68993007D01*
X101681264Y-69341317D01*
X99724614Y-69341317D01*
X99654497Y-69110790D01*
X99538824Y-68894767D01*
X99383230Y-68705461D01*
X99193694Y-68550148D01*
X98977500Y-68434795D01*
X98744771Y-68364199D01*
X98550000Y-68453599D01*
X98450000Y-68453599D01*
X98255229Y-68364199D01*
X98022500Y-68434795D01*
X97806306Y-68550148D01*
X97616770Y-68705461D01*
X97461176Y-68894767D01*
X97345503Y-69110790D01*
X97274197Y-69345229D01*
X38866903Y-69345229D01*
X41487132Y-66725000D01*
X114850000Y-66725000D01*
X114850000Y-74937868D01*
%TO.N,/OV-*%
G36*
X154850000Y-75000000D02*
G01*
X154852882Y-75029264D01*
X154861418Y-75057403D01*
X154875280Y-75083336D01*
X154893934Y-75106066D01*
X154916664Y-75124720D01*
X154942597Y-75138582D01*
X154970736Y-75147118D01*
X155000000Y-75150000D01*
X164525000Y-75150000D01*
X164525000Y-87350000D01*
X150062132Y-87350000D01*
X148910825Y-86198693D01*
X158372018Y-86198693D01*
X158507267Y-86451444D01*
X158809505Y-86617227D01*
X159138278Y-86720862D01*
X159480952Y-86758364D01*
X159824358Y-86728293D01*
X160155299Y-86631805D01*
X160461057Y-86472608D01*
X160492733Y-86451444D01*
X160627982Y-86198693D01*
X159500000Y-85070711D01*
X158372018Y-86198693D01*
X148910825Y-86198693D01*
X147693084Y-84980952D01*
X157741636Y-84980952D01*
X157771707Y-85324358D01*
X157868195Y-85655299D01*
X158027392Y-85961057D01*
X158048556Y-85992733D01*
X158301307Y-86127982D01*
X159429289Y-85000000D01*
X159570711Y-85000000D01*
X160698693Y-86127982D01*
X160951444Y-85992733D01*
X161117227Y-85690495D01*
X161220862Y-85361722D01*
X161258364Y-85019048D01*
X161228293Y-84675642D01*
X161131805Y-84344701D01*
X160972608Y-84038943D01*
X160951444Y-84007267D01*
X160698693Y-83872018D01*
X159570711Y-85000000D01*
X159429289Y-85000000D01*
X158301307Y-83872018D01*
X158048556Y-84007267D01*
X157882773Y-84309505D01*
X157779138Y-84638278D01*
X157741636Y-84980952D01*
X147693084Y-84980952D01*
X146513439Y-83801307D01*
X158372018Y-83801307D01*
X159500000Y-84929289D01*
X160627982Y-83801307D01*
X160492733Y-83548556D01*
X160190495Y-83382773D01*
X159861722Y-83279138D01*
X159519048Y-83241636D01*
X159175642Y-83271707D01*
X158844701Y-83368195D01*
X158538943Y-83527392D01*
X158507267Y-83548556D01*
X158372018Y-83801307D01*
X146513439Y-83801307D01*
X145250000Y-82537868D01*
X145250000Y-82376886D01*
X145201963Y-82135389D01*
X145107735Y-81907903D01*
X144970938Y-81703172D01*
X144796828Y-81529062D01*
X144592097Y-81392265D01*
X144364611Y-81298037D01*
X144123114Y-81250000D01*
X143876886Y-81250000D01*
X143635389Y-81298037D01*
X143407903Y-81392265D01*
X143203172Y-81529062D01*
X143029062Y-81703172D01*
X142892265Y-81907903D01*
X142798037Y-82135389D01*
X142755348Y-82350000D01*
X141700000Y-82350000D01*
X141700000Y-82317766D01*
X141720938Y-82296828D01*
X141857735Y-82092097D01*
X141951963Y-81864611D01*
X142000000Y-81623114D01*
X142000000Y-81376886D01*
X141964556Y-81198693D01*
X158372018Y-81198693D01*
X158507267Y-81451444D01*
X158809505Y-81617227D01*
X159138278Y-81720862D01*
X159480952Y-81758364D01*
X159824358Y-81728293D01*
X160155299Y-81631805D01*
X160461057Y-81472608D01*
X160492733Y-81451444D01*
X160627982Y-81198693D01*
X159500000Y-80070711D01*
X158372018Y-81198693D01*
X141964556Y-81198693D01*
X141951963Y-81135389D01*
X141857735Y-80907903D01*
X141720938Y-80703172D01*
X141546828Y-80529062D01*
X141342097Y-80392265D01*
X141114611Y-80298037D01*
X140873114Y-80250000D01*
X140626886Y-80250000D01*
X140385389Y-80298037D01*
X140157903Y-80392265D01*
X139953172Y-80529062D01*
X139779062Y-80703172D01*
X139642265Y-80907903D01*
X139548037Y-81135389D01*
X139500000Y-81376886D01*
X139500000Y-81623114D01*
X139548037Y-81864611D01*
X139642265Y-82092097D01*
X139779062Y-82296828D01*
X139800000Y-82317766D01*
X139800000Y-82350000D01*
X128674746Y-82350000D01*
X128667757Y-82326959D01*
X128625971Y-82248784D01*
X128569737Y-82180263D01*
X128501216Y-82124029D01*
X128423041Y-82082243D01*
X128338215Y-82056511D01*
X128250000Y-82047823D01*
X124250000Y-82047823D01*
X124161785Y-82056511D01*
X124076959Y-82082243D01*
X123998784Y-82124029D01*
X123930263Y-82180263D01*
X123874029Y-82248784D01*
X123832243Y-82326959D01*
X123806511Y-82411785D01*
X123797823Y-82500000D01*
X123797823Y-85490045D01*
X117437868Y-91850000D01*
X110079406Y-91850000D01*
X110340082Y-91827578D01*
X110690090Y-91726115D01*
X111013579Y-91558318D01*
X111051818Y-91532768D01*
X111199066Y-91269776D01*
X110000000Y-90070711D01*
X108800934Y-91269776D01*
X108948182Y-91532768D01*
X109267420Y-91708516D01*
X109614811Y-91818606D01*
X109897651Y-91850000D01*
X103579406Y-91850000D01*
X103840082Y-91827578D01*
X104190090Y-91726115D01*
X104513579Y-91558318D01*
X104551818Y-91532768D01*
X104699066Y-91269776D01*
X103500000Y-90070711D01*
X102300934Y-91269776D01*
X102448182Y-91532768D01*
X102767420Y-91708516D01*
X103114811Y-91818606D01*
X103397651Y-91850000D01*
X101062132Y-91850000D01*
X100150000Y-90937868D01*
X100150000Y-89977005D01*
X101641192Y-89977005D01*
X101672422Y-90340082D01*
X101773885Y-90690090D01*
X101941682Y-91013579D01*
X101967232Y-91051818D01*
X102230224Y-91199066D01*
X103429289Y-90000000D01*
X103570711Y-90000000D01*
X104769776Y-91199066D01*
X105032768Y-91051818D01*
X105208516Y-90732580D01*
X105318606Y-90385189D01*
X105358808Y-90022995D01*
X105354853Y-89977005D01*
X108141192Y-89977005D01*
X108172422Y-90340082D01*
X108273885Y-90690090D01*
X108441682Y-91013579D01*
X108467232Y-91051818D01*
X108730224Y-91199066D01*
X109929289Y-90000000D01*
X110070711Y-90000000D01*
X111269776Y-91199066D01*
X111532768Y-91051818D01*
X111708516Y-90732580D01*
X111818606Y-90385189D01*
X111858808Y-90022995D01*
X111827578Y-89659918D01*
X111726115Y-89309910D01*
X111558318Y-88986421D01*
X111532768Y-88948182D01*
X111269776Y-88800934D01*
X110070711Y-90000000D01*
X109929289Y-90000000D01*
X108730224Y-88800934D01*
X108467232Y-88948182D01*
X108291484Y-89267420D01*
X108181394Y-89614811D01*
X108141192Y-89977005D01*
X105354853Y-89977005D01*
X105327578Y-89659918D01*
X105226115Y-89309910D01*
X105058318Y-88986421D01*
X105032768Y-88948182D01*
X104769776Y-88800934D01*
X103570711Y-90000000D01*
X103429289Y-90000000D01*
X102230224Y-88800934D01*
X101967232Y-88948182D01*
X101791484Y-89267420D01*
X101681394Y-89614811D01*
X101641192Y-89977005D01*
X100150000Y-89977005D01*
X100150000Y-88730224D01*
X102300934Y-88730224D01*
X103500000Y-89929289D01*
X104699066Y-88730224D01*
X108800934Y-88730224D01*
X110000000Y-89929289D01*
X111199066Y-88730224D01*
X111051818Y-88467232D01*
X110732580Y-88291484D01*
X110385189Y-88181394D01*
X110022995Y-88141192D01*
X109659918Y-88172422D01*
X109309910Y-88273885D01*
X108986421Y-88441682D01*
X108948182Y-88467232D01*
X108800934Y-88730224D01*
X104699066Y-88730224D01*
X104551818Y-88467232D01*
X104232580Y-88291484D01*
X103885189Y-88181394D01*
X103522995Y-88141192D01*
X103159918Y-88172422D01*
X102809910Y-88273885D01*
X102486421Y-88441682D01*
X102448182Y-88467232D01*
X102300934Y-88730224D01*
X100150000Y-88730224D01*
X100150000Y-85062132D01*
X105062132Y-80150000D01*
X112500000Y-80150000D01*
X112529264Y-80147118D01*
X112557403Y-80138582D01*
X112583336Y-80124720D01*
X112606066Y-80106066D01*
X112995246Y-79716886D01*
X146000000Y-79716886D01*
X146000000Y-79963114D01*
X146048037Y-80204611D01*
X146142265Y-80432097D01*
X146279062Y-80636828D01*
X146453172Y-80810938D01*
X146657903Y-80947735D01*
X146885389Y-81041963D01*
X147126886Y-81090000D01*
X147373114Y-81090000D01*
X147614611Y-81041963D01*
X147842097Y-80947735D01*
X148046828Y-80810938D01*
X148220938Y-80636828D01*
X148357735Y-80432097D01*
X148451963Y-80204611D01*
X148500000Y-79963114D01*
X148500000Y-79716886D01*
X149250000Y-79716886D01*
X149250000Y-79963114D01*
X149298037Y-80204611D01*
X149392265Y-80432097D01*
X149529062Y-80636828D01*
X149703172Y-80810938D01*
X149907903Y-80947735D01*
X150135389Y-81041963D01*
X150376886Y-81090000D01*
X150623114Y-81090000D01*
X150864611Y-81041963D01*
X151092097Y-80947735D01*
X151296828Y-80810938D01*
X151470938Y-80636828D01*
X151607735Y-80432097D01*
X151701963Y-80204611D01*
X151746451Y-79980952D01*
X157741636Y-79980952D01*
X157771707Y-80324358D01*
X157868195Y-80655299D01*
X158027392Y-80961057D01*
X158048556Y-80992733D01*
X158301307Y-81127982D01*
X159429289Y-80000000D01*
X159570711Y-80000000D01*
X160698693Y-81127982D01*
X160951444Y-80992733D01*
X161117227Y-80690495D01*
X161220862Y-80361722D01*
X161258364Y-80019048D01*
X161228293Y-79675642D01*
X161131805Y-79344701D01*
X160972608Y-79038943D01*
X160951444Y-79007267D01*
X160698693Y-78872018D01*
X159570711Y-80000000D01*
X159429289Y-80000000D01*
X158301307Y-78872018D01*
X158048556Y-79007267D01*
X157882773Y-79309505D01*
X157779138Y-79638278D01*
X157741636Y-79980952D01*
X151746451Y-79980952D01*
X151750000Y-79963114D01*
X151750000Y-79716886D01*
X151701963Y-79475389D01*
X151607735Y-79247903D01*
X151470938Y-79043172D01*
X151296828Y-78869062D01*
X151195426Y-78801307D01*
X158372018Y-78801307D01*
X159500000Y-79929289D01*
X160627982Y-78801307D01*
X160492733Y-78548556D01*
X160190495Y-78382773D01*
X159861722Y-78279138D01*
X159519048Y-78241636D01*
X159175642Y-78271707D01*
X158844701Y-78368195D01*
X158538943Y-78527392D01*
X158507267Y-78548556D01*
X158372018Y-78801307D01*
X151195426Y-78801307D01*
X151092097Y-78732265D01*
X150864611Y-78638037D01*
X150623114Y-78590000D01*
X150376886Y-78590000D01*
X150135389Y-78638037D01*
X149907903Y-78732265D01*
X149703172Y-78869062D01*
X149529062Y-79043172D01*
X149392265Y-79247903D01*
X149298037Y-79475389D01*
X149250000Y-79716886D01*
X148500000Y-79716886D01*
X148451963Y-79475389D01*
X148357735Y-79247903D01*
X148220938Y-79043172D01*
X148200000Y-79022234D01*
X148200000Y-78092266D01*
X148283839Y-77990109D01*
X148348727Y-77868712D01*
X148388685Y-77736989D01*
X148402177Y-77600001D01*
X148402177Y-76949999D01*
X148388685Y-76813011D01*
X148348727Y-76681288D01*
X148283839Y-76559891D01*
X148196514Y-76453486D01*
X148090109Y-76366161D01*
X147968712Y-76301273D01*
X147836989Y-76261315D01*
X147735383Y-76251308D01*
X147950000Y-76252177D01*
X148038215Y-76243489D01*
X148123041Y-76217757D01*
X148201216Y-76175971D01*
X148269737Y-76119737D01*
X148325971Y-76051216D01*
X148367757Y-75973041D01*
X148393489Y-75888215D01*
X148402177Y-75800000D01*
X148400000Y-75387500D01*
X148287500Y-75275000D01*
X147300000Y-75275000D01*
X147300000Y-75295000D01*
X147200000Y-75295000D01*
X147200000Y-75275000D01*
X146212500Y-75275000D01*
X146100000Y-75387500D01*
X146097823Y-75800000D01*
X146106511Y-75888215D01*
X146132243Y-75973041D01*
X146174029Y-76051216D01*
X146230263Y-76119737D01*
X146298784Y-76175971D01*
X146376959Y-76217757D01*
X146461785Y-76243489D01*
X146550000Y-76252177D01*
X146764617Y-76251308D01*
X146663011Y-76261315D01*
X146531288Y-76301273D01*
X146409891Y-76366161D01*
X146303486Y-76453486D01*
X146216161Y-76559891D01*
X146151273Y-76681288D01*
X146111315Y-76813011D01*
X146097823Y-76949999D01*
X146097823Y-77600001D01*
X146111315Y-77736989D01*
X146151273Y-77868712D01*
X146216161Y-77990109D01*
X146300000Y-78092267D01*
X146300001Y-79022233D01*
X146279062Y-79043172D01*
X146142265Y-79247903D01*
X146048037Y-79475389D01*
X146000000Y-79716886D01*
X112995246Y-79716886D01*
X114368940Y-78343192D01*
X143227518Y-78343192D01*
X143302750Y-78544748D01*
X143519967Y-78660701D01*
X143755632Y-78732049D01*
X144000689Y-78756049D01*
X144245718Y-78731780D01*
X144481305Y-78660174D01*
X144697250Y-78544748D01*
X144772482Y-78343192D01*
X144000000Y-77570711D01*
X143227518Y-78343192D01*
X114368940Y-78343192D01*
X115211443Y-77500689D01*
X142743951Y-77500689D01*
X142768220Y-77745718D01*
X142839826Y-77981305D01*
X142955252Y-78197250D01*
X143156808Y-78272482D01*
X143929289Y-77500000D01*
X144070711Y-77500000D01*
X144843192Y-78272482D01*
X145044748Y-78197250D01*
X145160701Y-77980033D01*
X145232049Y-77744368D01*
X145256049Y-77499311D01*
X145231780Y-77254282D01*
X145160174Y-77018695D01*
X145044748Y-76802750D01*
X144843192Y-76727518D01*
X144070711Y-77500000D01*
X143929289Y-77500000D01*
X143156808Y-76727518D01*
X142955252Y-76802750D01*
X142839299Y-77019967D01*
X142767951Y-77255632D01*
X142743951Y-77500689D01*
X115211443Y-77500689D01*
X116515908Y-76196224D01*
X124624487Y-76196224D01*
X124843707Y-76520661D01*
X125264940Y-76756189D01*
X125724029Y-76905013D01*
X126203330Y-76961413D01*
X126684424Y-76923223D01*
X127148825Y-76791910D01*
X127413534Y-76656808D01*
X143227518Y-76656808D01*
X144000000Y-77429289D01*
X144772482Y-76656808D01*
X144697250Y-76455252D01*
X144480033Y-76339299D01*
X144244368Y-76267951D01*
X143999311Y-76243951D01*
X143754282Y-76268220D01*
X143518695Y-76339826D01*
X143302750Y-76455252D01*
X143227518Y-76656808D01*
X127413534Y-76656808D01*
X127578683Y-76572520D01*
X127656293Y-76520661D01*
X127875513Y-76196224D01*
X126250000Y-74570711D01*
X124624487Y-76196224D01*
X116515908Y-76196224D01*
X117606066Y-75106066D01*
X117624720Y-75083336D01*
X117638582Y-75057403D01*
X117647118Y-75029264D01*
X117650000Y-75000000D01*
X117650000Y-74453330D01*
X123788587Y-74453330D01*
X123826777Y-74934424D01*
X123958090Y-75398825D01*
X124177480Y-75828683D01*
X124229339Y-75906293D01*
X124553776Y-76125513D01*
X126179289Y-74500000D01*
X126320711Y-74500000D01*
X127946224Y-76125513D01*
X128270661Y-75906293D01*
X128506189Y-75485060D01*
X128655013Y-75025971D01*
X128699254Y-74650000D01*
X146097823Y-74650000D01*
X146100000Y-75062500D01*
X146212500Y-75175000D01*
X147200000Y-75175000D01*
X147200000Y-74312500D01*
X147300000Y-74312500D01*
X147300000Y-75175000D01*
X148287500Y-75175000D01*
X148400000Y-75062500D01*
X148402177Y-74650000D01*
X148393489Y-74561785D01*
X148367757Y-74476959D01*
X148325971Y-74398784D01*
X148269737Y-74330263D01*
X148201216Y-74274029D01*
X148123041Y-74232243D01*
X148038215Y-74206511D01*
X147950000Y-74197823D01*
X147412500Y-74200000D01*
X147300000Y-74312500D01*
X147200000Y-74312500D01*
X147087500Y-74200000D01*
X146550000Y-74197823D01*
X146461785Y-74206511D01*
X146376959Y-74232243D01*
X146298784Y-74274029D01*
X146230263Y-74330263D01*
X146174029Y-74398784D01*
X146132243Y-74476959D01*
X146106511Y-74561785D01*
X146097823Y-74650000D01*
X128699254Y-74650000D01*
X128711413Y-74546670D01*
X128673223Y-74065576D01*
X128541910Y-73601175D01*
X128322520Y-73171317D01*
X128270661Y-73093707D01*
X127946224Y-72874487D01*
X126320711Y-74500000D01*
X126179289Y-74500000D01*
X124553776Y-72874487D01*
X124229339Y-73093707D01*
X123993811Y-73514940D01*
X123844987Y-73974029D01*
X123788587Y-74453330D01*
X117650000Y-74453330D01*
X117650000Y-72803776D01*
X124624487Y-72803776D01*
X126250000Y-74429289D01*
X127875513Y-72803776D01*
X127656293Y-72479339D01*
X127235060Y-72243811D01*
X126775971Y-72094987D01*
X126296670Y-72038587D01*
X125815576Y-72076777D01*
X125351175Y-72208090D01*
X124921317Y-72427480D01*
X124843707Y-72479339D01*
X124624487Y-72803776D01*
X117650000Y-72803776D01*
X117650000Y-71584771D01*
X139524197Y-71584771D01*
X139595503Y-71819210D01*
X139711176Y-72035233D01*
X139866770Y-72224539D01*
X140056306Y-72379852D01*
X140272500Y-72495205D01*
X140505229Y-72565801D01*
X140700000Y-72476401D01*
X140700000Y-71390000D01*
X140800000Y-71390000D01*
X140800000Y-72476401D01*
X140994771Y-72565801D01*
X141227500Y-72495205D01*
X141443694Y-72379852D01*
X141633230Y-72224539D01*
X141788824Y-72035233D01*
X141904497Y-71819210D01*
X141973586Y-71592060D01*
X146228651Y-71592060D01*
X146345901Y-71829451D01*
X146622636Y-71980286D01*
X146923480Y-72074235D01*
X147236872Y-72107688D01*
X147550769Y-72079358D01*
X147853107Y-71990334D01*
X148132268Y-71844037D01*
X148154099Y-71829451D01*
X148271349Y-71592060D01*
X147250000Y-70570711D01*
X146228651Y-71592060D01*
X141973586Y-71592060D01*
X141975803Y-71584771D01*
X141886502Y-71390000D01*
X140800000Y-71390000D01*
X140700000Y-71390000D01*
X139613498Y-71390000D01*
X139524197Y-71584771D01*
X117650000Y-71584771D01*
X117650000Y-71095229D01*
X139524197Y-71095229D01*
X139613498Y-71290000D01*
X140700000Y-71290000D01*
X140700000Y-70203599D01*
X140800000Y-70203599D01*
X140800000Y-71290000D01*
X141886502Y-71290000D01*
X141975803Y-71095229D01*
X141904497Y-70860790D01*
X141788824Y-70644767D01*
X141659048Y-70486872D01*
X145642312Y-70486872D01*
X145670642Y-70800769D01*
X145759666Y-71103107D01*
X145905963Y-71382268D01*
X145920549Y-71404099D01*
X146157940Y-71521349D01*
X147179289Y-70500000D01*
X147320711Y-70500000D01*
X148342060Y-71521349D01*
X148579451Y-71404099D01*
X148730286Y-71127364D01*
X148824235Y-70826520D01*
X148857688Y-70513128D01*
X148829358Y-70199231D01*
X148740334Y-69896893D01*
X148594037Y-69617732D01*
X148579451Y-69595901D01*
X148342060Y-69478651D01*
X147320711Y-70500000D01*
X147179289Y-70500000D01*
X146157940Y-69478651D01*
X145920549Y-69595901D01*
X145769714Y-69872636D01*
X145675765Y-70173480D01*
X145642312Y-70486872D01*
X141659048Y-70486872D01*
X141633230Y-70455461D01*
X141443694Y-70300148D01*
X141227500Y-70184795D01*
X140994771Y-70114199D01*
X140800000Y-70203599D01*
X140700000Y-70203599D01*
X140505229Y-70114199D01*
X140272500Y-70184795D01*
X140056306Y-70300148D01*
X139866770Y-70455461D01*
X139711176Y-70644767D01*
X139595503Y-70860790D01*
X139524197Y-71095229D01*
X117650000Y-71095229D01*
X117650000Y-69407940D01*
X146228651Y-69407940D01*
X147250000Y-70429289D01*
X148271349Y-69407940D01*
X148242732Y-69350000D01*
X149147823Y-69350000D01*
X149147823Y-71650000D01*
X149156511Y-71738215D01*
X149182243Y-71823041D01*
X149224029Y-71901216D01*
X149280263Y-71969737D01*
X149348784Y-72025971D01*
X149426959Y-72067757D01*
X149511785Y-72093489D01*
X149600000Y-72102177D01*
X151900000Y-72102177D01*
X151988215Y-72093489D01*
X152073041Y-72067757D01*
X152151216Y-72025971D01*
X152219737Y-71969737D01*
X152275971Y-71901216D01*
X152317757Y-71823041D01*
X152343489Y-71738215D01*
X152352177Y-71650000D01*
X152352177Y-69350000D01*
X152343489Y-69261785D01*
X152317757Y-69176959D01*
X152275971Y-69098784D01*
X152219737Y-69030263D01*
X152151216Y-68974029D01*
X152073041Y-68932243D01*
X151988215Y-68906511D01*
X151900000Y-68897823D01*
X149600000Y-68897823D01*
X149511785Y-68906511D01*
X149426959Y-68932243D01*
X149348784Y-68974029D01*
X149280263Y-69030263D01*
X149224029Y-69098784D01*
X149182243Y-69176959D01*
X149156511Y-69261785D01*
X149147823Y-69350000D01*
X148242732Y-69350000D01*
X148154099Y-69170549D01*
X147877364Y-69019714D01*
X147576520Y-68925765D01*
X147263128Y-68892312D01*
X146949231Y-68920642D01*
X146646893Y-69009666D01*
X146367732Y-69155963D01*
X146345901Y-69170549D01*
X146228651Y-69407940D01*
X117650000Y-69407940D01*
X117650000Y-66725000D01*
X154850000Y-66725000D01*
X154850000Y-75000000D01*
G37*
X154850000Y-75000000D02*
X154852882Y-75029264D01*
X154861418Y-75057403D01*
X154875280Y-75083336D01*
X154893934Y-75106066D01*
X154916664Y-75124720D01*
X154942597Y-75138582D01*
X154970736Y-75147118D01*
X155000000Y-75150000D01*
X164525000Y-75150000D01*
X164525000Y-87350000D01*
X150062132Y-87350000D01*
X148910825Y-86198693D01*
X158372018Y-86198693D01*
X158507267Y-86451444D01*
X158809505Y-86617227D01*
X159138278Y-86720862D01*
X159480952Y-86758364D01*
X159824358Y-86728293D01*
X160155299Y-86631805D01*
X160461057Y-86472608D01*
X160492733Y-86451444D01*
X160627982Y-86198693D01*
X159500000Y-85070711D01*
X158372018Y-86198693D01*
X148910825Y-86198693D01*
X147693084Y-84980952D01*
X157741636Y-84980952D01*
X157771707Y-85324358D01*
X157868195Y-85655299D01*
X158027392Y-85961057D01*
X158048556Y-85992733D01*
X158301307Y-86127982D01*
X159429289Y-85000000D01*
X159570711Y-85000000D01*
X160698693Y-86127982D01*
X160951444Y-85992733D01*
X161117227Y-85690495D01*
X161220862Y-85361722D01*
X161258364Y-85019048D01*
X161228293Y-84675642D01*
X161131805Y-84344701D01*
X160972608Y-84038943D01*
X160951444Y-84007267D01*
X160698693Y-83872018D01*
X159570711Y-85000000D01*
X159429289Y-85000000D01*
X158301307Y-83872018D01*
X158048556Y-84007267D01*
X157882773Y-84309505D01*
X157779138Y-84638278D01*
X157741636Y-84980952D01*
X147693084Y-84980952D01*
X146513439Y-83801307D01*
X158372018Y-83801307D01*
X159500000Y-84929289D01*
X160627982Y-83801307D01*
X160492733Y-83548556D01*
X160190495Y-83382773D01*
X159861722Y-83279138D01*
X159519048Y-83241636D01*
X159175642Y-83271707D01*
X158844701Y-83368195D01*
X158538943Y-83527392D01*
X158507267Y-83548556D01*
X158372018Y-83801307D01*
X146513439Y-83801307D01*
X145250000Y-82537868D01*
X145250000Y-82376886D01*
X145201963Y-82135389D01*
X145107735Y-81907903D01*
X144970938Y-81703172D01*
X144796828Y-81529062D01*
X144592097Y-81392265D01*
X144364611Y-81298037D01*
X144123114Y-81250000D01*
X143876886Y-81250000D01*
X143635389Y-81298037D01*
X143407903Y-81392265D01*
X143203172Y-81529062D01*
X143029062Y-81703172D01*
X142892265Y-81907903D01*
X142798037Y-82135389D01*
X142755348Y-82350000D01*
X141700000Y-82350000D01*
X141700000Y-82317766D01*
X141720938Y-82296828D01*
X141857735Y-82092097D01*
X141951963Y-81864611D01*
X142000000Y-81623114D01*
X142000000Y-81376886D01*
X141964556Y-81198693D01*
X158372018Y-81198693D01*
X158507267Y-81451444D01*
X158809505Y-81617227D01*
X159138278Y-81720862D01*
X159480952Y-81758364D01*
X159824358Y-81728293D01*
X160155299Y-81631805D01*
X160461057Y-81472608D01*
X160492733Y-81451444D01*
X160627982Y-81198693D01*
X159500000Y-80070711D01*
X158372018Y-81198693D01*
X141964556Y-81198693D01*
X141951963Y-81135389D01*
X141857735Y-80907903D01*
X141720938Y-80703172D01*
X141546828Y-80529062D01*
X141342097Y-80392265D01*
X141114611Y-80298037D01*
X140873114Y-80250000D01*
X140626886Y-80250000D01*
X140385389Y-80298037D01*
X140157903Y-80392265D01*
X139953172Y-80529062D01*
X139779062Y-80703172D01*
X139642265Y-80907903D01*
X139548037Y-81135389D01*
X139500000Y-81376886D01*
X139500000Y-81623114D01*
X139548037Y-81864611D01*
X139642265Y-82092097D01*
X139779062Y-82296828D01*
X139800000Y-82317766D01*
X139800000Y-82350000D01*
X128674746Y-82350000D01*
X128667757Y-82326959D01*
X128625971Y-82248784D01*
X128569737Y-82180263D01*
X128501216Y-82124029D01*
X128423041Y-82082243D01*
X128338215Y-82056511D01*
X128250000Y-82047823D01*
X124250000Y-82047823D01*
X124161785Y-82056511D01*
X124076959Y-82082243D01*
X123998784Y-82124029D01*
X123930263Y-82180263D01*
X123874029Y-82248784D01*
X123832243Y-82326959D01*
X123806511Y-82411785D01*
X123797823Y-82500000D01*
X123797823Y-85490045D01*
X117437868Y-91850000D01*
X110079406Y-91850000D01*
X110340082Y-91827578D01*
X110690090Y-91726115D01*
X111013579Y-91558318D01*
X111051818Y-91532768D01*
X111199066Y-91269776D01*
X110000000Y-90070711D01*
X108800934Y-91269776D01*
X108948182Y-91532768D01*
X109267420Y-91708516D01*
X109614811Y-91818606D01*
X109897651Y-91850000D01*
X103579406Y-91850000D01*
X103840082Y-91827578D01*
X104190090Y-91726115D01*
X104513579Y-91558318D01*
X104551818Y-91532768D01*
X104699066Y-91269776D01*
X103500000Y-90070711D01*
X102300934Y-91269776D01*
X102448182Y-91532768D01*
X102767420Y-91708516D01*
X103114811Y-91818606D01*
X103397651Y-91850000D01*
X101062132Y-91850000D01*
X100150000Y-90937868D01*
X100150000Y-89977005D01*
X101641192Y-89977005D01*
X101672422Y-90340082D01*
X101773885Y-90690090D01*
X101941682Y-91013579D01*
X101967232Y-91051818D01*
X102230224Y-91199066D01*
X103429289Y-90000000D01*
X103570711Y-90000000D01*
X104769776Y-91199066D01*
X105032768Y-91051818D01*
X105208516Y-90732580D01*
X105318606Y-90385189D01*
X105358808Y-90022995D01*
X105354853Y-89977005D01*
X108141192Y-89977005D01*
X108172422Y-90340082D01*
X108273885Y-90690090D01*
X108441682Y-91013579D01*
X108467232Y-91051818D01*
X108730224Y-91199066D01*
X109929289Y-90000000D01*
X110070711Y-90000000D01*
X111269776Y-91199066D01*
X111532768Y-91051818D01*
X111708516Y-90732580D01*
X111818606Y-90385189D01*
X111858808Y-90022995D01*
X111827578Y-89659918D01*
X111726115Y-89309910D01*
X111558318Y-88986421D01*
X111532768Y-88948182D01*
X111269776Y-88800934D01*
X110070711Y-90000000D01*
X109929289Y-90000000D01*
X108730224Y-88800934D01*
X108467232Y-88948182D01*
X108291484Y-89267420D01*
X108181394Y-89614811D01*
X108141192Y-89977005D01*
X105354853Y-89977005D01*
X105327578Y-89659918D01*
X105226115Y-89309910D01*
X105058318Y-88986421D01*
X105032768Y-88948182D01*
X104769776Y-88800934D01*
X103570711Y-90000000D01*
X103429289Y-90000000D01*
X102230224Y-88800934D01*
X101967232Y-88948182D01*
X101791484Y-89267420D01*
X101681394Y-89614811D01*
X101641192Y-89977005D01*
X100150000Y-89977005D01*
X100150000Y-88730224D01*
X102300934Y-88730224D01*
X103500000Y-89929289D01*
X104699066Y-88730224D01*
X108800934Y-88730224D01*
X110000000Y-89929289D01*
X111199066Y-88730224D01*
X111051818Y-88467232D01*
X110732580Y-88291484D01*
X110385189Y-88181394D01*
X110022995Y-88141192D01*
X109659918Y-88172422D01*
X109309910Y-88273885D01*
X108986421Y-88441682D01*
X108948182Y-88467232D01*
X108800934Y-88730224D01*
X104699066Y-88730224D01*
X104551818Y-88467232D01*
X104232580Y-88291484D01*
X103885189Y-88181394D01*
X103522995Y-88141192D01*
X103159918Y-88172422D01*
X102809910Y-88273885D01*
X102486421Y-88441682D01*
X102448182Y-88467232D01*
X102300934Y-88730224D01*
X100150000Y-88730224D01*
X100150000Y-85062132D01*
X105062132Y-80150000D01*
X112500000Y-80150000D01*
X112529264Y-80147118D01*
X112557403Y-80138582D01*
X112583336Y-80124720D01*
X112606066Y-80106066D01*
X112995246Y-79716886D01*
X146000000Y-79716886D01*
X146000000Y-79963114D01*
X146048037Y-80204611D01*
X146142265Y-80432097D01*
X146279062Y-80636828D01*
X146453172Y-80810938D01*
X146657903Y-80947735D01*
X146885389Y-81041963D01*
X147126886Y-81090000D01*
X147373114Y-81090000D01*
X147614611Y-81041963D01*
X147842097Y-80947735D01*
X148046828Y-80810938D01*
X148220938Y-80636828D01*
X148357735Y-80432097D01*
X148451963Y-80204611D01*
X148500000Y-79963114D01*
X148500000Y-79716886D01*
X149250000Y-79716886D01*
X149250000Y-79963114D01*
X149298037Y-80204611D01*
X149392265Y-80432097D01*
X149529062Y-80636828D01*
X149703172Y-80810938D01*
X149907903Y-80947735D01*
X150135389Y-81041963D01*
X150376886Y-81090000D01*
X150623114Y-81090000D01*
X150864611Y-81041963D01*
X151092097Y-80947735D01*
X151296828Y-80810938D01*
X151470938Y-80636828D01*
X151607735Y-80432097D01*
X151701963Y-80204611D01*
X151746451Y-79980952D01*
X157741636Y-79980952D01*
X157771707Y-80324358D01*
X157868195Y-80655299D01*
X158027392Y-80961057D01*
X158048556Y-80992733D01*
X158301307Y-81127982D01*
X159429289Y-80000000D01*
X159570711Y-80000000D01*
X160698693Y-81127982D01*
X160951444Y-80992733D01*
X161117227Y-80690495D01*
X161220862Y-80361722D01*
X161258364Y-80019048D01*
X161228293Y-79675642D01*
X161131805Y-79344701D01*
X160972608Y-79038943D01*
X160951444Y-79007267D01*
X160698693Y-78872018D01*
X159570711Y-80000000D01*
X159429289Y-80000000D01*
X158301307Y-78872018D01*
X158048556Y-79007267D01*
X157882773Y-79309505D01*
X157779138Y-79638278D01*
X157741636Y-79980952D01*
X151746451Y-79980952D01*
X151750000Y-79963114D01*
X151750000Y-79716886D01*
X151701963Y-79475389D01*
X151607735Y-79247903D01*
X151470938Y-79043172D01*
X151296828Y-78869062D01*
X151195426Y-78801307D01*
X158372018Y-78801307D01*
X159500000Y-79929289D01*
X160627982Y-78801307D01*
X160492733Y-78548556D01*
X160190495Y-78382773D01*
X159861722Y-78279138D01*
X159519048Y-78241636D01*
X159175642Y-78271707D01*
X158844701Y-78368195D01*
X158538943Y-78527392D01*
X158507267Y-78548556D01*
X158372018Y-78801307D01*
X151195426Y-78801307D01*
X151092097Y-78732265D01*
X150864611Y-78638037D01*
X150623114Y-78590000D01*
X150376886Y-78590000D01*
X150135389Y-78638037D01*
X149907903Y-78732265D01*
X149703172Y-78869062D01*
X149529062Y-79043172D01*
X149392265Y-79247903D01*
X149298037Y-79475389D01*
X149250000Y-79716886D01*
X148500000Y-79716886D01*
X148451963Y-79475389D01*
X148357735Y-79247903D01*
X148220938Y-79043172D01*
X148200000Y-79022234D01*
X148200000Y-78092266D01*
X148283839Y-77990109D01*
X148348727Y-77868712D01*
X148388685Y-77736989D01*
X148402177Y-77600001D01*
X148402177Y-76949999D01*
X148388685Y-76813011D01*
X148348727Y-76681288D01*
X148283839Y-76559891D01*
X148196514Y-76453486D01*
X148090109Y-76366161D01*
X147968712Y-76301273D01*
X147836989Y-76261315D01*
X147735383Y-76251308D01*
X147950000Y-76252177D01*
X148038215Y-76243489D01*
X148123041Y-76217757D01*
X148201216Y-76175971D01*
X148269737Y-76119737D01*
X148325971Y-76051216D01*
X148367757Y-75973041D01*
X148393489Y-75888215D01*
X148402177Y-75800000D01*
X148400000Y-75387500D01*
X148287500Y-75275000D01*
X147300000Y-75275000D01*
X147300000Y-75295000D01*
X147200000Y-75295000D01*
X147200000Y-75275000D01*
X146212500Y-75275000D01*
X146100000Y-75387500D01*
X146097823Y-75800000D01*
X146106511Y-75888215D01*
X146132243Y-75973041D01*
X146174029Y-76051216D01*
X146230263Y-76119737D01*
X146298784Y-76175971D01*
X146376959Y-76217757D01*
X146461785Y-76243489D01*
X146550000Y-76252177D01*
X146764617Y-76251308D01*
X146663011Y-76261315D01*
X146531288Y-76301273D01*
X146409891Y-76366161D01*
X146303486Y-76453486D01*
X146216161Y-76559891D01*
X146151273Y-76681288D01*
X146111315Y-76813011D01*
X146097823Y-76949999D01*
X146097823Y-77600001D01*
X146111315Y-77736989D01*
X146151273Y-77868712D01*
X146216161Y-77990109D01*
X146300000Y-78092267D01*
X146300001Y-79022233D01*
X146279062Y-79043172D01*
X146142265Y-79247903D01*
X146048037Y-79475389D01*
X146000000Y-79716886D01*
X112995246Y-79716886D01*
X114368940Y-78343192D01*
X143227518Y-78343192D01*
X143302750Y-78544748D01*
X143519967Y-78660701D01*
X143755632Y-78732049D01*
X144000689Y-78756049D01*
X144245718Y-78731780D01*
X144481305Y-78660174D01*
X144697250Y-78544748D01*
X144772482Y-78343192D01*
X144000000Y-77570711D01*
X143227518Y-78343192D01*
X114368940Y-78343192D01*
X115211443Y-77500689D01*
X142743951Y-77500689D01*
X142768220Y-77745718D01*
X142839826Y-77981305D01*
X142955252Y-78197250D01*
X143156808Y-78272482D01*
X143929289Y-77500000D01*
X144070711Y-77500000D01*
X144843192Y-78272482D01*
X145044748Y-78197250D01*
X145160701Y-77980033D01*
X145232049Y-77744368D01*
X145256049Y-77499311D01*
X145231780Y-77254282D01*
X145160174Y-77018695D01*
X145044748Y-76802750D01*
X144843192Y-76727518D01*
X144070711Y-77500000D01*
X143929289Y-77500000D01*
X143156808Y-76727518D01*
X142955252Y-76802750D01*
X142839299Y-77019967D01*
X142767951Y-77255632D01*
X142743951Y-77500689D01*
X115211443Y-77500689D01*
X116515908Y-76196224D01*
X124624487Y-76196224D01*
X124843707Y-76520661D01*
X125264940Y-76756189D01*
X125724029Y-76905013D01*
X126203330Y-76961413D01*
X126684424Y-76923223D01*
X127148825Y-76791910D01*
X127413534Y-76656808D01*
X143227518Y-76656808D01*
X144000000Y-77429289D01*
X144772482Y-76656808D01*
X144697250Y-76455252D01*
X144480033Y-76339299D01*
X144244368Y-76267951D01*
X143999311Y-76243951D01*
X143754282Y-76268220D01*
X143518695Y-76339826D01*
X143302750Y-76455252D01*
X143227518Y-76656808D01*
X127413534Y-76656808D01*
X127578683Y-76572520D01*
X127656293Y-76520661D01*
X127875513Y-76196224D01*
X126250000Y-74570711D01*
X124624487Y-76196224D01*
X116515908Y-76196224D01*
X117606066Y-75106066D01*
X117624720Y-75083336D01*
X117638582Y-75057403D01*
X117647118Y-75029264D01*
X117650000Y-75000000D01*
X117650000Y-74453330D01*
X123788587Y-74453330D01*
X123826777Y-74934424D01*
X123958090Y-75398825D01*
X124177480Y-75828683D01*
X124229339Y-75906293D01*
X124553776Y-76125513D01*
X126179289Y-74500000D01*
X126320711Y-74500000D01*
X127946224Y-76125513D01*
X128270661Y-75906293D01*
X128506189Y-75485060D01*
X128655013Y-75025971D01*
X128699254Y-74650000D01*
X146097823Y-74650000D01*
X146100000Y-75062500D01*
X146212500Y-75175000D01*
X147200000Y-75175000D01*
X147200000Y-74312500D01*
X147300000Y-74312500D01*
X147300000Y-75175000D01*
X148287500Y-75175000D01*
X148400000Y-75062500D01*
X148402177Y-74650000D01*
X148393489Y-74561785D01*
X148367757Y-74476959D01*
X148325971Y-74398784D01*
X148269737Y-74330263D01*
X148201216Y-74274029D01*
X148123041Y-74232243D01*
X148038215Y-74206511D01*
X147950000Y-74197823D01*
X147412500Y-74200000D01*
X147300000Y-74312500D01*
X147200000Y-74312500D01*
X147087500Y-74200000D01*
X146550000Y-74197823D01*
X146461785Y-74206511D01*
X146376959Y-74232243D01*
X146298784Y-74274029D01*
X146230263Y-74330263D01*
X146174029Y-74398784D01*
X146132243Y-74476959D01*
X146106511Y-74561785D01*
X146097823Y-74650000D01*
X128699254Y-74650000D01*
X128711413Y-74546670D01*
X128673223Y-74065576D01*
X128541910Y-73601175D01*
X128322520Y-73171317D01*
X128270661Y-73093707D01*
X127946224Y-72874487D01*
X126320711Y-74500000D01*
X126179289Y-74500000D01*
X124553776Y-72874487D01*
X124229339Y-73093707D01*
X123993811Y-73514940D01*
X123844987Y-73974029D01*
X123788587Y-74453330D01*
X117650000Y-74453330D01*
X117650000Y-72803776D01*
X124624487Y-72803776D01*
X126250000Y-74429289D01*
X127875513Y-72803776D01*
X127656293Y-72479339D01*
X127235060Y-72243811D01*
X126775971Y-72094987D01*
X126296670Y-72038587D01*
X125815576Y-72076777D01*
X125351175Y-72208090D01*
X124921317Y-72427480D01*
X124843707Y-72479339D01*
X124624487Y-72803776D01*
X117650000Y-72803776D01*
X117650000Y-71584771D01*
X139524197Y-71584771D01*
X139595503Y-71819210D01*
X139711176Y-72035233D01*
X139866770Y-72224539D01*
X140056306Y-72379852D01*
X140272500Y-72495205D01*
X140505229Y-72565801D01*
X140700000Y-72476401D01*
X140700000Y-71390000D01*
X140800000Y-71390000D01*
X140800000Y-72476401D01*
X140994771Y-72565801D01*
X141227500Y-72495205D01*
X141443694Y-72379852D01*
X141633230Y-72224539D01*
X141788824Y-72035233D01*
X141904497Y-71819210D01*
X141973586Y-71592060D01*
X146228651Y-71592060D01*
X146345901Y-71829451D01*
X146622636Y-71980286D01*
X146923480Y-72074235D01*
X147236872Y-72107688D01*
X147550769Y-72079358D01*
X147853107Y-71990334D01*
X148132268Y-71844037D01*
X148154099Y-71829451D01*
X148271349Y-71592060D01*
X147250000Y-70570711D01*
X146228651Y-71592060D01*
X141973586Y-71592060D01*
X141975803Y-71584771D01*
X141886502Y-71390000D01*
X140800000Y-71390000D01*
X140700000Y-71390000D01*
X139613498Y-71390000D01*
X139524197Y-71584771D01*
X117650000Y-71584771D01*
X117650000Y-71095229D01*
X139524197Y-71095229D01*
X139613498Y-71290000D01*
X140700000Y-71290000D01*
X140700000Y-70203599D01*
X140800000Y-70203599D01*
X140800000Y-71290000D01*
X141886502Y-71290000D01*
X141975803Y-71095229D01*
X141904497Y-70860790D01*
X141788824Y-70644767D01*
X141659048Y-70486872D01*
X145642312Y-70486872D01*
X145670642Y-70800769D01*
X145759666Y-71103107D01*
X145905963Y-71382268D01*
X145920549Y-71404099D01*
X146157940Y-71521349D01*
X147179289Y-70500000D01*
X147320711Y-70500000D01*
X148342060Y-71521349D01*
X148579451Y-71404099D01*
X148730286Y-71127364D01*
X148824235Y-70826520D01*
X148857688Y-70513128D01*
X148829358Y-70199231D01*
X148740334Y-69896893D01*
X148594037Y-69617732D01*
X148579451Y-69595901D01*
X148342060Y-69478651D01*
X147320711Y-70500000D01*
X147179289Y-70500000D01*
X146157940Y-69478651D01*
X145920549Y-69595901D01*
X145769714Y-69872636D01*
X145675765Y-70173480D01*
X145642312Y-70486872D01*
X141659048Y-70486872D01*
X141633230Y-70455461D01*
X141443694Y-70300148D01*
X141227500Y-70184795D01*
X140994771Y-70114199D01*
X140800000Y-70203599D01*
X140700000Y-70203599D01*
X140505229Y-70114199D01*
X140272500Y-70184795D01*
X140056306Y-70300148D01*
X139866770Y-70455461D01*
X139711176Y-70644767D01*
X139595503Y-70860790D01*
X139524197Y-71095229D01*
X117650000Y-71095229D01*
X117650000Y-69407940D01*
X146228651Y-69407940D01*
X147250000Y-70429289D01*
X148271349Y-69407940D01*
X148242732Y-69350000D01*
X149147823Y-69350000D01*
X149147823Y-71650000D01*
X149156511Y-71738215D01*
X149182243Y-71823041D01*
X149224029Y-71901216D01*
X149280263Y-71969737D01*
X149348784Y-72025971D01*
X149426959Y-72067757D01*
X149511785Y-72093489D01*
X149600000Y-72102177D01*
X151900000Y-72102177D01*
X151988215Y-72093489D01*
X152073041Y-72067757D01*
X152151216Y-72025971D01*
X152219737Y-71969737D01*
X152275971Y-71901216D01*
X152317757Y-71823041D01*
X152343489Y-71738215D01*
X152352177Y-71650000D01*
X152352177Y-69350000D01*
X152343489Y-69261785D01*
X152317757Y-69176959D01*
X152275971Y-69098784D01*
X152219737Y-69030263D01*
X152151216Y-68974029D01*
X152073041Y-68932243D01*
X151988215Y-68906511D01*
X151900000Y-68897823D01*
X149600000Y-68897823D01*
X149511785Y-68906511D01*
X149426959Y-68932243D01*
X149348784Y-68974029D01*
X149280263Y-69030263D01*
X149224029Y-69098784D01*
X149182243Y-69176959D01*
X149156511Y-69261785D01*
X149147823Y-69350000D01*
X148242732Y-69350000D01*
X148154099Y-69170549D01*
X147877364Y-69019714D01*
X147576520Y-68925765D01*
X147263128Y-68892312D01*
X146949231Y-68920642D01*
X146646893Y-69009666D01*
X146367732Y-69155963D01*
X146345901Y-69170549D01*
X146228651Y-69407940D01*
X117650000Y-69407940D01*
X117650000Y-66725000D01*
X154850000Y-66725000D01*
X154850000Y-75000000D01*
%TO.N,/RV+*%
G36*
X68392265Y-103592097D02*
G01*
X68529062Y-103796828D01*
X68703172Y-103970938D01*
X68907903Y-104107735D01*
X69135389Y-104201963D01*
X69376886Y-104250000D01*
X69623114Y-104250000D01*
X69864611Y-104201963D01*
X70092097Y-104107735D01*
X70296828Y-103970938D01*
X70470938Y-103796828D01*
X70607735Y-103592097D01*
X70687304Y-103400000D01*
X105437868Y-103400000D01*
X114850000Y-112812132D01*
X114850000Y-118275000D01*
X32650000Y-118275000D01*
X32650000Y-116093192D01*
X97727518Y-116093192D01*
X97802750Y-116294748D01*
X98019967Y-116410701D01*
X98255632Y-116482049D01*
X98500689Y-116506049D01*
X98745718Y-116481780D01*
X98981305Y-116410174D01*
X99197250Y-116294748D01*
X99272482Y-116093192D01*
X98500000Y-115320711D01*
X97727518Y-116093192D01*
X32650000Y-116093192D01*
X32650000Y-115250689D01*
X97243951Y-115250689D01*
X97268220Y-115495718D01*
X97339826Y-115731305D01*
X97455252Y-115947250D01*
X97656808Y-116022482D01*
X98429289Y-115250000D01*
X98570711Y-115250000D01*
X99343192Y-116022482D01*
X99544748Y-115947250D01*
X99660701Y-115730033D01*
X99682302Y-115658683D01*
X101681264Y-115658683D01*
X101782284Y-116006993D01*
X101949315Y-116328902D01*
X102175938Y-116612040D01*
X102453444Y-116845525D01*
X102771168Y-117020385D01*
X103116901Y-117129901D01*
X103161318Y-117138734D01*
X103450000Y-117056780D01*
X103450000Y-115370000D01*
X103550000Y-115370000D01*
X103550000Y-117056780D01*
X103838682Y-117138734D01*
X103883099Y-117129901D01*
X104228832Y-117020385D01*
X104546556Y-116845525D01*
X104824062Y-116612040D01*
X105050685Y-116328902D01*
X105217716Y-116006993D01*
X105318736Y-115658683D01*
X108181264Y-115658683D01*
X108282284Y-116006993D01*
X108449315Y-116328902D01*
X108675938Y-116612040D01*
X108953444Y-116845525D01*
X109271168Y-117020385D01*
X109616901Y-117129901D01*
X109661318Y-117138734D01*
X109950000Y-117056780D01*
X109950000Y-115370000D01*
X110050000Y-115370000D01*
X110050000Y-117056780D01*
X110338682Y-117138734D01*
X110383099Y-117129901D01*
X110728832Y-117020385D01*
X111046556Y-116845525D01*
X111324062Y-116612040D01*
X111550685Y-116328902D01*
X111717716Y-116006993D01*
X111818736Y-115658683D01*
X111736826Y-115370000D01*
X110050000Y-115370000D01*
X109950000Y-115370000D01*
X108263174Y-115370000D01*
X108181264Y-115658683D01*
X105318736Y-115658683D01*
X105236826Y-115370000D01*
X103550000Y-115370000D01*
X103450000Y-115370000D01*
X101763174Y-115370000D01*
X101681264Y-115658683D01*
X99682302Y-115658683D01*
X99732049Y-115494368D01*
X99756049Y-115249311D01*
X99731780Y-115004282D01*
X99724800Y-114981317D01*
X101681264Y-114981317D01*
X101763174Y-115270000D01*
X103450000Y-115270000D01*
X103450000Y-113583220D01*
X103550000Y-113583220D01*
X103550000Y-115270000D01*
X105236826Y-115270000D01*
X105318736Y-114981317D01*
X108181264Y-114981317D01*
X108263174Y-115270000D01*
X109950000Y-115270000D01*
X109950000Y-113583220D01*
X110050000Y-113583220D01*
X110050000Y-115270000D01*
X111736826Y-115270000D01*
X111818736Y-114981317D01*
X111717716Y-114633007D01*
X111550685Y-114311098D01*
X111324062Y-114027960D01*
X111046556Y-113794475D01*
X110728832Y-113619615D01*
X110383099Y-113510099D01*
X110338682Y-113501266D01*
X110050000Y-113583220D01*
X109950000Y-113583220D01*
X109661318Y-113501266D01*
X109616901Y-113510099D01*
X109271168Y-113619615D01*
X108953444Y-113794475D01*
X108675938Y-114027960D01*
X108449315Y-114311098D01*
X108282284Y-114633007D01*
X108181264Y-114981317D01*
X105318736Y-114981317D01*
X105217716Y-114633007D01*
X105050685Y-114311098D01*
X104824062Y-114027960D01*
X104546556Y-113794475D01*
X104228832Y-113619615D01*
X103883099Y-113510099D01*
X103838682Y-113501266D01*
X103550000Y-113583220D01*
X103450000Y-113583220D01*
X103161318Y-113501266D01*
X103116901Y-113510099D01*
X102771168Y-113619615D01*
X102453444Y-113794475D01*
X102175938Y-114027960D01*
X101949315Y-114311098D01*
X101782284Y-114633007D01*
X101681264Y-114981317D01*
X99724800Y-114981317D01*
X99660174Y-114768695D01*
X99544748Y-114552750D01*
X99343192Y-114477518D01*
X98570711Y-115250000D01*
X98429289Y-115250000D01*
X97656808Y-114477518D01*
X97455252Y-114552750D01*
X97339299Y-114769967D01*
X97267951Y-115005632D01*
X97243951Y-115250689D01*
X32650000Y-115250689D01*
X32650000Y-114406808D01*
X97727518Y-114406808D01*
X98500000Y-115179289D01*
X99272482Y-114406808D01*
X99197250Y-114205252D01*
X98980033Y-114089299D01*
X98744368Y-114017951D01*
X98499311Y-113993951D01*
X98254282Y-114018220D01*
X98018695Y-114089826D01*
X97802750Y-114205252D01*
X97727518Y-114406808D01*
X32650000Y-114406808D01*
X32650000Y-112500000D01*
X52547823Y-112500000D01*
X52556511Y-112588215D01*
X52582243Y-112673041D01*
X52624029Y-112751216D01*
X52680263Y-112819737D01*
X52748784Y-112875971D01*
X52826959Y-112917757D01*
X52911785Y-112943489D01*
X53000000Y-112952177D01*
X54837500Y-112950000D01*
X54950000Y-112837500D01*
X54950000Y-110550000D01*
X55050000Y-110550000D01*
X55050000Y-112837500D01*
X55162500Y-112950000D01*
X57000000Y-112952177D01*
X57088215Y-112943489D01*
X57173041Y-112917757D01*
X57251216Y-112875971D01*
X57319737Y-112819737D01*
X57375971Y-112751216D01*
X57417757Y-112673041D01*
X57443489Y-112588215D01*
X57452177Y-112500000D01*
X81547823Y-112500000D01*
X81556511Y-112588215D01*
X81582243Y-112673041D01*
X81624029Y-112751216D01*
X81680263Y-112819737D01*
X81748784Y-112875971D01*
X81826959Y-112917757D01*
X81911785Y-112943489D01*
X82000000Y-112952177D01*
X83837500Y-112950000D01*
X83950000Y-112837500D01*
X83950000Y-110550000D01*
X84050000Y-110550000D01*
X84050000Y-112837500D01*
X84162500Y-112950000D01*
X86000000Y-112952177D01*
X86088215Y-112943489D01*
X86173041Y-112917757D01*
X86251216Y-112875971D01*
X86319737Y-112819737D01*
X86375971Y-112751216D01*
X86417757Y-112673041D01*
X86443489Y-112588215D01*
X86452177Y-112500000D01*
X86450000Y-110662500D01*
X86337500Y-110550000D01*
X84050000Y-110550000D01*
X83950000Y-110550000D01*
X81662500Y-110550000D01*
X81550000Y-110662500D01*
X81547823Y-112500000D01*
X57452177Y-112500000D01*
X57450000Y-110662500D01*
X57337500Y-110550000D01*
X55050000Y-110550000D01*
X54950000Y-110550000D01*
X52662500Y-110550000D01*
X52550000Y-110662500D01*
X52547823Y-112500000D01*
X32650000Y-112500000D01*
X32650000Y-108500000D01*
X52547823Y-108500000D01*
X52550000Y-110337500D01*
X52662500Y-110450000D01*
X54950000Y-110450000D01*
X54950000Y-108162500D01*
X55050000Y-108162500D01*
X55050000Y-110450000D01*
X57337500Y-110450000D01*
X57450000Y-110337500D01*
X57451770Y-108843192D01*
X68727518Y-108843192D01*
X68802750Y-109044748D01*
X69019967Y-109160701D01*
X69255632Y-109232049D01*
X69500689Y-109256049D01*
X69745718Y-109231780D01*
X69981305Y-109160174D01*
X70197250Y-109044748D01*
X70272482Y-108843192D01*
X69500000Y-108070711D01*
X68727518Y-108843192D01*
X57451770Y-108843192D01*
X57452177Y-108500000D01*
X57443489Y-108411785D01*
X57417757Y-108326959D01*
X57375971Y-108248784D01*
X57319737Y-108180263D01*
X57251216Y-108124029D01*
X57173041Y-108082243D01*
X57088215Y-108056511D01*
X57000000Y-108047823D01*
X55162500Y-108050000D01*
X55050000Y-108162500D01*
X54950000Y-108162500D01*
X54837500Y-108050000D01*
X53000000Y-108047823D01*
X52911785Y-108056511D01*
X52826959Y-108082243D01*
X52748784Y-108124029D01*
X52680263Y-108180263D01*
X52624029Y-108248784D01*
X52582243Y-108326959D01*
X52556511Y-108411785D01*
X52547823Y-108500000D01*
X32650000Y-108500000D01*
X32650000Y-108000689D01*
X68243951Y-108000689D01*
X68268220Y-108245718D01*
X68339826Y-108481305D01*
X68455252Y-108697250D01*
X68656808Y-108772482D01*
X69429289Y-108000000D01*
X69570711Y-108000000D01*
X70343192Y-108772482D01*
X70544748Y-108697250D01*
X70650042Y-108500000D01*
X81547823Y-108500000D01*
X81550000Y-110337500D01*
X81662500Y-110450000D01*
X83950000Y-110450000D01*
X83950000Y-108162500D01*
X84050000Y-108162500D01*
X84050000Y-110450000D01*
X86337500Y-110450000D01*
X86450000Y-110337500D01*
X86452177Y-108500000D01*
X86443489Y-108411785D01*
X86417757Y-108326959D01*
X86375971Y-108248784D01*
X86319737Y-108180263D01*
X86251216Y-108124029D01*
X86173041Y-108082243D01*
X86088215Y-108056511D01*
X86000000Y-108047823D01*
X84162500Y-108050000D01*
X84050000Y-108162500D01*
X83950000Y-108162500D01*
X83837500Y-108050000D01*
X82000000Y-108047823D01*
X81911785Y-108056511D01*
X81826959Y-108082243D01*
X81748784Y-108124029D01*
X81680263Y-108180263D01*
X81624029Y-108248784D01*
X81582243Y-108326959D01*
X81556511Y-108411785D01*
X81547823Y-108500000D01*
X70650042Y-108500000D01*
X70660701Y-108480033D01*
X70732049Y-108244368D01*
X70756049Y-107999311D01*
X70731780Y-107754282D01*
X70660174Y-107518695D01*
X70544748Y-107302750D01*
X70343192Y-107227518D01*
X69570711Y-108000000D01*
X69429289Y-108000000D01*
X68656808Y-107227518D01*
X68455252Y-107302750D01*
X68339299Y-107519967D01*
X68267951Y-107755632D01*
X68243951Y-108000689D01*
X32650000Y-108000689D01*
X32650000Y-106300000D01*
X34150000Y-106300000D01*
X34150000Y-106700000D01*
X34185694Y-106962411D01*
X34271896Y-107212816D01*
X34405294Y-107441593D01*
X34580761Y-107639949D01*
X34791553Y-107800262D01*
X35029571Y-107916371D01*
X35239574Y-107974643D01*
X35450000Y-107886489D01*
X35450000Y-106300000D01*
X35550000Y-106300000D01*
X35550000Y-107886489D01*
X35760426Y-107974643D01*
X35970429Y-107916371D01*
X36208447Y-107800262D01*
X36419239Y-107639949D01*
X36594706Y-107441593D01*
X36728104Y-107212816D01*
X36747384Y-107156808D01*
X68727518Y-107156808D01*
X69500000Y-107929289D01*
X70272482Y-107156808D01*
X70197250Y-106955252D01*
X70050446Y-106876886D01*
X97250000Y-106876886D01*
X97250000Y-107123114D01*
X97298037Y-107364611D01*
X97392265Y-107592097D01*
X97529062Y-107796828D01*
X97550000Y-107817766D01*
X97550001Y-109432233D01*
X97529062Y-109453172D01*
X97392265Y-109657903D01*
X97298037Y-109885389D01*
X97250000Y-110126886D01*
X97250000Y-110373114D01*
X97298037Y-110614611D01*
X97392265Y-110842097D01*
X97529062Y-111046828D01*
X97703172Y-111220938D01*
X97907903Y-111357735D01*
X98135389Y-111451963D01*
X98376886Y-111500000D01*
X98623114Y-111500000D01*
X98864611Y-111451963D01*
X99092097Y-111357735D01*
X99296828Y-111220938D01*
X99470938Y-111046828D01*
X99607735Y-110842097D01*
X99701963Y-110614611D01*
X99750000Y-110373114D01*
X99750000Y-110126886D01*
X99701963Y-109885389D01*
X99607735Y-109657903D01*
X99470938Y-109453172D01*
X99450000Y-109432234D01*
X99450000Y-107817766D01*
X99470938Y-107796828D01*
X99607735Y-107592097D01*
X99701963Y-107364611D01*
X99750000Y-107123114D01*
X99750000Y-106876886D01*
X99701963Y-106635389D01*
X99607735Y-106407903D01*
X99470938Y-106203172D01*
X99296828Y-106029062D01*
X99092097Y-105892265D01*
X98864611Y-105798037D01*
X98623114Y-105750000D01*
X98376886Y-105750000D01*
X98135389Y-105798037D01*
X97907903Y-105892265D01*
X97703172Y-106029062D01*
X97529062Y-106203172D01*
X97392265Y-106407903D01*
X97298037Y-106635389D01*
X97250000Y-106876886D01*
X70050446Y-106876886D01*
X69980033Y-106839299D01*
X69744368Y-106767951D01*
X69499311Y-106743951D01*
X69254282Y-106768220D01*
X69018695Y-106839826D01*
X68802750Y-106955252D01*
X68727518Y-107156808D01*
X36747384Y-107156808D01*
X36814306Y-106962411D01*
X36850000Y-106700000D01*
X36850000Y-106300000D01*
X35550000Y-106300000D01*
X35450000Y-106300000D01*
X34150000Y-106300000D01*
X32650000Y-106300000D01*
X32650000Y-105800000D01*
X34150000Y-105800000D01*
X34150000Y-106200000D01*
X35450000Y-106200000D01*
X35450000Y-104613511D01*
X35550000Y-104613511D01*
X35550000Y-106200000D01*
X36850000Y-106200000D01*
X36850000Y-105800000D01*
X36814306Y-105537589D01*
X36728104Y-105287184D01*
X36594706Y-105058407D01*
X36419239Y-104860051D01*
X36208447Y-104699738D01*
X35970429Y-104583629D01*
X35760426Y-104525357D01*
X35550000Y-104613511D01*
X35450000Y-104613511D01*
X35239574Y-104525357D01*
X35029571Y-104583629D01*
X34791553Y-104699738D01*
X34580761Y-104860051D01*
X34405294Y-105058407D01*
X34271896Y-105287184D01*
X34185694Y-105537589D01*
X34150000Y-105800000D01*
X32650000Y-105800000D01*
X32650000Y-104062132D01*
X33312132Y-103400000D01*
X68312696Y-103400000D01*
X68392265Y-103592097D01*
G37*
X68392265Y-103592097D02*
X68529062Y-103796828D01*
X68703172Y-103970938D01*
X68907903Y-104107735D01*
X69135389Y-104201963D01*
X69376886Y-104250000D01*
X69623114Y-104250000D01*
X69864611Y-104201963D01*
X70092097Y-104107735D01*
X70296828Y-103970938D01*
X70470938Y-103796828D01*
X70607735Y-103592097D01*
X70687304Y-103400000D01*
X105437868Y-103400000D01*
X114850000Y-112812132D01*
X114850000Y-118275000D01*
X32650000Y-118275000D01*
X32650000Y-116093192D01*
X97727518Y-116093192D01*
X97802750Y-116294748D01*
X98019967Y-116410701D01*
X98255632Y-116482049D01*
X98500689Y-116506049D01*
X98745718Y-116481780D01*
X98981305Y-116410174D01*
X99197250Y-116294748D01*
X99272482Y-116093192D01*
X98500000Y-115320711D01*
X97727518Y-116093192D01*
X32650000Y-116093192D01*
X32650000Y-115250689D01*
X97243951Y-115250689D01*
X97268220Y-115495718D01*
X97339826Y-115731305D01*
X97455252Y-115947250D01*
X97656808Y-116022482D01*
X98429289Y-115250000D01*
X98570711Y-115250000D01*
X99343192Y-116022482D01*
X99544748Y-115947250D01*
X99660701Y-115730033D01*
X99682302Y-115658683D01*
X101681264Y-115658683D01*
X101782284Y-116006993D01*
X101949315Y-116328902D01*
X102175938Y-116612040D01*
X102453444Y-116845525D01*
X102771168Y-117020385D01*
X103116901Y-117129901D01*
X103161318Y-117138734D01*
X103450000Y-117056780D01*
X103450000Y-115370000D01*
X103550000Y-115370000D01*
X103550000Y-117056780D01*
X103838682Y-117138734D01*
X103883099Y-117129901D01*
X104228832Y-117020385D01*
X104546556Y-116845525D01*
X104824062Y-116612040D01*
X105050685Y-116328902D01*
X105217716Y-116006993D01*
X105318736Y-115658683D01*
X108181264Y-115658683D01*
X108282284Y-116006993D01*
X108449315Y-116328902D01*
X108675938Y-116612040D01*
X108953444Y-116845525D01*
X109271168Y-117020385D01*
X109616901Y-117129901D01*
X109661318Y-117138734D01*
X109950000Y-117056780D01*
X109950000Y-115370000D01*
X110050000Y-115370000D01*
X110050000Y-117056780D01*
X110338682Y-117138734D01*
X110383099Y-117129901D01*
X110728832Y-117020385D01*
X111046556Y-116845525D01*
X111324062Y-116612040D01*
X111550685Y-116328902D01*
X111717716Y-116006993D01*
X111818736Y-115658683D01*
X111736826Y-115370000D01*
X110050000Y-115370000D01*
X109950000Y-115370000D01*
X108263174Y-115370000D01*
X108181264Y-115658683D01*
X105318736Y-115658683D01*
X105236826Y-115370000D01*
X103550000Y-115370000D01*
X103450000Y-115370000D01*
X101763174Y-115370000D01*
X101681264Y-115658683D01*
X99682302Y-115658683D01*
X99732049Y-115494368D01*
X99756049Y-115249311D01*
X99731780Y-115004282D01*
X99724800Y-114981317D01*
X101681264Y-114981317D01*
X101763174Y-115270000D01*
X103450000Y-115270000D01*
X103450000Y-113583220D01*
X103550000Y-113583220D01*
X103550000Y-115270000D01*
X105236826Y-115270000D01*
X105318736Y-114981317D01*
X108181264Y-114981317D01*
X108263174Y-115270000D01*
X109950000Y-115270000D01*
X109950000Y-113583220D01*
X110050000Y-113583220D01*
X110050000Y-115270000D01*
X111736826Y-115270000D01*
X111818736Y-114981317D01*
X111717716Y-114633007D01*
X111550685Y-114311098D01*
X111324062Y-114027960D01*
X111046556Y-113794475D01*
X110728832Y-113619615D01*
X110383099Y-113510099D01*
X110338682Y-113501266D01*
X110050000Y-113583220D01*
X109950000Y-113583220D01*
X109661318Y-113501266D01*
X109616901Y-113510099D01*
X109271168Y-113619615D01*
X108953444Y-113794475D01*
X108675938Y-114027960D01*
X108449315Y-114311098D01*
X108282284Y-114633007D01*
X108181264Y-114981317D01*
X105318736Y-114981317D01*
X105217716Y-114633007D01*
X105050685Y-114311098D01*
X104824062Y-114027960D01*
X104546556Y-113794475D01*
X104228832Y-113619615D01*
X103883099Y-113510099D01*
X103838682Y-113501266D01*
X103550000Y-113583220D01*
X103450000Y-113583220D01*
X103161318Y-113501266D01*
X103116901Y-113510099D01*
X102771168Y-113619615D01*
X102453444Y-113794475D01*
X102175938Y-114027960D01*
X101949315Y-114311098D01*
X101782284Y-114633007D01*
X101681264Y-114981317D01*
X99724800Y-114981317D01*
X99660174Y-114768695D01*
X99544748Y-114552750D01*
X99343192Y-114477518D01*
X98570711Y-115250000D01*
X98429289Y-115250000D01*
X97656808Y-114477518D01*
X97455252Y-114552750D01*
X97339299Y-114769967D01*
X97267951Y-115005632D01*
X97243951Y-115250689D01*
X32650000Y-115250689D01*
X32650000Y-114406808D01*
X97727518Y-114406808D01*
X98500000Y-115179289D01*
X99272482Y-114406808D01*
X99197250Y-114205252D01*
X98980033Y-114089299D01*
X98744368Y-114017951D01*
X98499311Y-113993951D01*
X98254282Y-114018220D01*
X98018695Y-114089826D01*
X97802750Y-114205252D01*
X97727518Y-114406808D01*
X32650000Y-114406808D01*
X32650000Y-112500000D01*
X52547823Y-112500000D01*
X52556511Y-112588215D01*
X52582243Y-112673041D01*
X52624029Y-112751216D01*
X52680263Y-112819737D01*
X52748784Y-112875971D01*
X52826959Y-112917757D01*
X52911785Y-112943489D01*
X53000000Y-112952177D01*
X54837500Y-112950000D01*
X54950000Y-112837500D01*
X54950000Y-110550000D01*
X55050000Y-110550000D01*
X55050000Y-112837500D01*
X55162500Y-112950000D01*
X57000000Y-112952177D01*
X57088215Y-112943489D01*
X57173041Y-112917757D01*
X57251216Y-112875971D01*
X57319737Y-112819737D01*
X57375971Y-112751216D01*
X57417757Y-112673041D01*
X57443489Y-112588215D01*
X57452177Y-112500000D01*
X81547823Y-112500000D01*
X81556511Y-112588215D01*
X81582243Y-112673041D01*
X81624029Y-112751216D01*
X81680263Y-112819737D01*
X81748784Y-112875971D01*
X81826959Y-112917757D01*
X81911785Y-112943489D01*
X82000000Y-112952177D01*
X83837500Y-112950000D01*
X83950000Y-112837500D01*
X83950000Y-110550000D01*
X84050000Y-110550000D01*
X84050000Y-112837500D01*
X84162500Y-112950000D01*
X86000000Y-112952177D01*
X86088215Y-112943489D01*
X86173041Y-112917757D01*
X86251216Y-112875971D01*
X86319737Y-112819737D01*
X86375971Y-112751216D01*
X86417757Y-112673041D01*
X86443489Y-112588215D01*
X86452177Y-112500000D01*
X86450000Y-110662500D01*
X86337500Y-110550000D01*
X84050000Y-110550000D01*
X83950000Y-110550000D01*
X81662500Y-110550000D01*
X81550000Y-110662500D01*
X81547823Y-112500000D01*
X57452177Y-112500000D01*
X57450000Y-110662500D01*
X57337500Y-110550000D01*
X55050000Y-110550000D01*
X54950000Y-110550000D01*
X52662500Y-110550000D01*
X52550000Y-110662500D01*
X52547823Y-112500000D01*
X32650000Y-112500000D01*
X32650000Y-108500000D01*
X52547823Y-108500000D01*
X52550000Y-110337500D01*
X52662500Y-110450000D01*
X54950000Y-110450000D01*
X54950000Y-108162500D01*
X55050000Y-108162500D01*
X55050000Y-110450000D01*
X57337500Y-110450000D01*
X57450000Y-110337500D01*
X57451770Y-108843192D01*
X68727518Y-108843192D01*
X68802750Y-109044748D01*
X69019967Y-109160701D01*
X69255632Y-109232049D01*
X69500689Y-109256049D01*
X69745718Y-109231780D01*
X69981305Y-109160174D01*
X70197250Y-109044748D01*
X70272482Y-108843192D01*
X69500000Y-108070711D01*
X68727518Y-108843192D01*
X57451770Y-108843192D01*
X57452177Y-108500000D01*
X57443489Y-108411785D01*
X57417757Y-108326959D01*
X57375971Y-108248784D01*
X57319737Y-108180263D01*
X57251216Y-108124029D01*
X57173041Y-108082243D01*
X57088215Y-108056511D01*
X57000000Y-108047823D01*
X55162500Y-108050000D01*
X55050000Y-108162500D01*
X54950000Y-108162500D01*
X54837500Y-108050000D01*
X53000000Y-108047823D01*
X52911785Y-108056511D01*
X52826959Y-108082243D01*
X52748784Y-108124029D01*
X52680263Y-108180263D01*
X52624029Y-108248784D01*
X52582243Y-108326959D01*
X52556511Y-108411785D01*
X52547823Y-108500000D01*
X32650000Y-108500000D01*
X32650000Y-108000689D01*
X68243951Y-108000689D01*
X68268220Y-108245718D01*
X68339826Y-108481305D01*
X68455252Y-108697250D01*
X68656808Y-108772482D01*
X69429289Y-108000000D01*
X69570711Y-108000000D01*
X70343192Y-108772482D01*
X70544748Y-108697250D01*
X70650042Y-108500000D01*
X81547823Y-108500000D01*
X81550000Y-110337500D01*
X81662500Y-110450000D01*
X83950000Y-110450000D01*
X83950000Y-108162500D01*
X84050000Y-108162500D01*
X84050000Y-110450000D01*
X86337500Y-110450000D01*
X86450000Y-110337500D01*
X86452177Y-108500000D01*
X86443489Y-108411785D01*
X86417757Y-108326959D01*
X86375971Y-108248784D01*
X86319737Y-108180263D01*
X86251216Y-108124029D01*
X86173041Y-108082243D01*
X86088215Y-108056511D01*
X86000000Y-108047823D01*
X84162500Y-108050000D01*
X84050000Y-108162500D01*
X83950000Y-108162500D01*
X83837500Y-108050000D01*
X82000000Y-108047823D01*
X81911785Y-108056511D01*
X81826959Y-108082243D01*
X81748784Y-108124029D01*
X81680263Y-108180263D01*
X81624029Y-108248784D01*
X81582243Y-108326959D01*
X81556511Y-108411785D01*
X81547823Y-108500000D01*
X70650042Y-108500000D01*
X70660701Y-108480033D01*
X70732049Y-108244368D01*
X70756049Y-107999311D01*
X70731780Y-107754282D01*
X70660174Y-107518695D01*
X70544748Y-107302750D01*
X70343192Y-107227518D01*
X69570711Y-108000000D01*
X69429289Y-108000000D01*
X68656808Y-107227518D01*
X68455252Y-107302750D01*
X68339299Y-107519967D01*
X68267951Y-107755632D01*
X68243951Y-108000689D01*
X32650000Y-108000689D01*
X32650000Y-106300000D01*
X34150000Y-106300000D01*
X34150000Y-106700000D01*
X34185694Y-106962411D01*
X34271896Y-107212816D01*
X34405294Y-107441593D01*
X34580761Y-107639949D01*
X34791553Y-107800262D01*
X35029571Y-107916371D01*
X35239574Y-107974643D01*
X35450000Y-107886489D01*
X35450000Y-106300000D01*
X35550000Y-106300000D01*
X35550000Y-107886489D01*
X35760426Y-107974643D01*
X35970429Y-107916371D01*
X36208447Y-107800262D01*
X36419239Y-107639949D01*
X36594706Y-107441593D01*
X36728104Y-107212816D01*
X36747384Y-107156808D01*
X68727518Y-107156808D01*
X69500000Y-107929289D01*
X70272482Y-107156808D01*
X70197250Y-106955252D01*
X70050446Y-106876886D01*
X97250000Y-106876886D01*
X97250000Y-107123114D01*
X97298037Y-107364611D01*
X97392265Y-107592097D01*
X97529062Y-107796828D01*
X97550000Y-107817766D01*
X97550001Y-109432233D01*
X97529062Y-109453172D01*
X97392265Y-109657903D01*
X97298037Y-109885389D01*
X97250000Y-110126886D01*
X97250000Y-110373114D01*
X97298037Y-110614611D01*
X97392265Y-110842097D01*
X97529062Y-111046828D01*
X97703172Y-111220938D01*
X97907903Y-111357735D01*
X98135389Y-111451963D01*
X98376886Y-111500000D01*
X98623114Y-111500000D01*
X98864611Y-111451963D01*
X99092097Y-111357735D01*
X99296828Y-111220938D01*
X99470938Y-111046828D01*
X99607735Y-110842097D01*
X99701963Y-110614611D01*
X99750000Y-110373114D01*
X99750000Y-110126886D01*
X99701963Y-109885389D01*
X99607735Y-109657903D01*
X99470938Y-109453172D01*
X99450000Y-109432234D01*
X99450000Y-107817766D01*
X99470938Y-107796828D01*
X99607735Y-107592097D01*
X99701963Y-107364611D01*
X99750000Y-107123114D01*
X99750000Y-106876886D01*
X99701963Y-106635389D01*
X99607735Y-106407903D01*
X99470938Y-106203172D01*
X99296828Y-106029062D01*
X99092097Y-105892265D01*
X98864611Y-105798037D01*
X98623114Y-105750000D01*
X98376886Y-105750000D01*
X98135389Y-105798037D01*
X97907903Y-105892265D01*
X97703172Y-106029062D01*
X97529062Y-106203172D01*
X97392265Y-106407903D01*
X97298037Y-106635389D01*
X97250000Y-106876886D01*
X70050446Y-106876886D01*
X69980033Y-106839299D01*
X69744368Y-106767951D01*
X69499311Y-106743951D01*
X69254282Y-106768220D01*
X69018695Y-106839826D01*
X68802750Y-106955252D01*
X68727518Y-107156808D01*
X36747384Y-107156808D01*
X36814306Y-106962411D01*
X36850000Y-106700000D01*
X36850000Y-106300000D01*
X35550000Y-106300000D01*
X35450000Y-106300000D01*
X34150000Y-106300000D01*
X32650000Y-106300000D01*
X32650000Y-105800000D01*
X34150000Y-105800000D01*
X34150000Y-106200000D01*
X35450000Y-106200000D01*
X35450000Y-104613511D01*
X35550000Y-104613511D01*
X35550000Y-106200000D01*
X36850000Y-106200000D01*
X36850000Y-105800000D01*
X36814306Y-105537589D01*
X36728104Y-105287184D01*
X36594706Y-105058407D01*
X36419239Y-104860051D01*
X36208447Y-104699738D01*
X35970429Y-104583629D01*
X35760426Y-104525357D01*
X35550000Y-104613511D01*
X35450000Y-104613511D01*
X35239574Y-104525357D01*
X35029571Y-104583629D01*
X34791553Y-104699738D01*
X34580761Y-104860051D01*
X34405294Y-105058407D01*
X34271896Y-105287184D01*
X34185694Y-105537589D01*
X34150000Y-105800000D01*
X32650000Y-105800000D01*
X32650000Y-104062132D01*
X33312132Y-103400000D01*
X68312696Y-103400000D01*
X68392265Y-103592097D01*
%TO.N,/OV+*%
G36*
X119893934Y-95106066D02*
G01*
X119916664Y-95124720D01*
X119942597Y-95138582D01*
X119970736Y-95147118D01*
X120000000Y-95150000D01*
X139628970Y-95150000D01*
X139642265Y-95182097D01*
X139779062Y-95386828D01*
X139953172Y-95560938D01*
X140157903Y-95697735D01*
X140385389Y-95791963D01*
X140626886Y-95840000D01*
X140873114Y-95840000D01*
X141114611Y-95791963D01*
X141342097Y-95697735D01*
X141546828Y-95560938D01*
X141720938Y-95386828D01*
X141857735Y-95182097D01*
X141871030Y-95150000D01*
X146102747Y-95150000D01*
X146097823Y-95199999D01*
X146097823Y-95850001D01*
X146111315Y-95986989D01*
X146151273Y-96118712D01*
X146216161Y-96240109D01*
X146300000Y-96342267D01*
X146300001Y-97272233D01*
X146279062Y-97293172D01*
X146142265Y-97497903D01*
X146048037Y-97725389D01*
X146000000Y-97966886D01*
X146000000Y-98213114D01*
X146048037Y-98454611D01*
X146142265Y-98682097D01*
X146279062Y-98886828D01*
X146453172Y-99060938D01*
X146657903Y-99197735D01*
X146885389Y-99291963D01*
X147126886Y-99340000D01*
X147373114Y-99340000D01*
X147614611Y-99291963D01*
X147842097Y-99197735D01*
X148046828Y-99060938D01*
X148220938Y-98886828D01*
X148278081Y-98801307D01*
X158372018Y-98801307D01*
X159500000Y-99929289D01*
X160627982Y-98801307D01*
X160492733Y-98548556D01*
X160190495Y-98382773D01*
X159861722Y-98279138D01*
X159519048Y-98241636D01*
X159175642Y-98271707D01*
X158844701Y-98368195D01*
X158538943Y-98527392D01*
X158507267Y-98548556D01*
X158372018Y-98801307D01*
X148278081Y-98801307D01*
X148357735Y-98682097D01*
X148451963Y-98454611D01*
X148500000Y-98213114D01*
X148500000Y-97966886D01*
X148451963Y-97725389D01*
X148357735Y-97497903D01*
X148254361Y-97343192D01*
X149727518Y-97343192D01*
X149802750Y-97544748D01*
X150019967Y-97660701D01*
X150255632Y-97732049D01*
X150500689Y-97756049D01*
X150745718Y-97731780D01*
X150981305Y-97660174D01*
X151197250Y-97544748D01*
X151272482Y-97343192D01*
X150500000Y-96570711D01*
X149727518Y-97343192D01*
X148254361Y-97343192D01*
X148220938Y-97293172D01*
X148200000Y-97272234D01*
X148200000Y-96500689D01*
X149243951Y-96500689D01*
X149268220Y-96745718D01*
X149339826Y-96981305D01*
X149455252Y-97197250D01*
X149656808Y-97272482D01*
X150429289Y-96500000D01*
X150570711Y-96500000D01*
X151343192Y-97272482D01*
X151544748Y-97197250D01*
X151660701Y-96980033D01*
X151732049Y-96744368D01*
X151756049Y-96499311D01*
X151731780Y-96254282D01*
X151660174Y-96018695D01*
X151544748Y-95802750D01*
X151343192Y-95727518D01*
X150570711Y-96500000D01*
X150429289Y-96500000D01*
X149656808Y-95727518D01*
X149455252Y-95802750D01*
X149339299Y-96019967D01*
X149267951Y-96255632D01*
X149243951Y-96500689D01*
X148200000Y-96500689D01*
X148200000Y-96342266D01*
X148283839Y-96240109D01*
X148348727Y-96118712D01*
X148388685Y-95986989D01*
X148402177Y-95850001D01*
X148402177Y-95656808D01*
X149727518Y-95656808D01*
X150500000Y-96429289D01*
X151272482Y-95656808D01*
X151197250Y-95455252D01*
X150980033Y-95339299D01*
X150744368Y-95267951D01*
X150499311Y-95243951D01*
X150254282Y-95268220D01*
X150018695Y-95339826D01*
X149802750Y-95455252D01*
X149727518Y-95656808D01*
X148402177Y-95656808D01*
X148402177Y-95199999D01*
X148397253Y-95150000D01*
X152437868Y-95150000D01*
X154893934Y-97606066D01*
X154916664Y-97624720D01*
X154942597Y-97638582D01*
X154970736Y-97647118D01*
X155000000Y-97650000D01*
X164525001Y-97650000D01*
X164525001Y-109850000D01*
X155000000Y-109850000D01*
X154970736Y-109852882D01*
X154942597Y-109861418D01*
X154916664Y-109875280D01*
X154893934Y-109893934D01*
X154875280Y-109916664D01*
X154861418Y-109942597D01*
X154852882Y-109970736D01*
X154850000Y-110000000D01*
X154850000Y-118275000D01*
X115900000Y-118275000D01*
X115900000Y-113843192D01*
X139977518Y-113843192D01*
X140052750Y-114044748D01*
X140269967Y-114160701D01*
X140505632Y-114232049D01*
X140750689Y-114256049D01*
X140995718Y-114231780D01*
X141231305Y-114160174D01*
X141447250Y-114044748D01*
X141522482Y-113843192D01*
X140750000Y-113070711D01*
X139977518Y-113843192D01*
X115900000Y-113843192D01*
X115900000Y-113000689D01*
X139493951Y-113000689D01*
X139518220Y-113245718D01*
X139589826Y-113481305D01*
X139705252Y-113697250D01*
X139906808Y-113772482D01*
X140679289Y-113000000D01*
X140820711Y-113000000D01*
X141593192Y-113772482D01*
X141794748Y-113697250D01*
X141910701Y-113480033D01*
X141950068Y-113350000D01*
X145397823Y-113350000D01*
X145397823Y-115650000D01*
X145406511Y-115738215D01*
X145432243Y-115823041D01*
X145474029Y-115901216D01*
X145530263Y-115969737D01*
X145598784Y-116025971D01*
X145676959Y-116067757D01*
X145761785Y-116093489D01*
X145850000Y-116102177D01*
X148150000Y-116102177D01*
X148238215Y-116093489D01*
X148323041Y-116067757D01*
X148401216Y-116025971D01*
X148469737Y-115969737D01*
X148525971Y-115901216D01*
X148567757Y-115823041D01*
X148593489Y-115738215D01*
X148602177Y-115650000D01*
X148602177Y-114342414D01*
X148900000Y-114342414D01*
X148900000Y-114657586D01*
X148961487Y-114966703D01*
X149082098Y-115257884D01*
X149257199Y-115519941D01*
X149480059Y-115742801D01*
X149742116Y-115917902D01*
X150033297Y-116038513D01*
X150342414Y-116100000D01*
X150657586Y-116100000D01*
X150966703Y-116038513D01*
X151257884Y-115917902D01*
X151519941Y-115742801D01*
X151742801Y-115519941D01*
X151917902Y-115257884D01*
X152038513Y-114966703D01*
X152100000Y-114657586D01*
X152100000Y-114342414D01*
X152038513Y-114033297D01*
X151917902Y-113742116D01*
X151742801Y-113480059D01*
X151519941Y-113257199D01*
X151257884Y-113082098D01*
X150966703Y-112961487D01*
X150657586Y-112900000D01*
X150342414Y-112900000D01*
X150033297Y-112961487D01*
X149742116Y-113082098D01*
X149480059Y-113257199D01*
X149257199Y-113480059D01*
X149082098Y-113742116D01*
X148961487Y-114033297D01*
X148900000Y-114342414D01*
X148602177Y-114342414D01*
X148602177Y-113350000D01*
X148593489Y-113261785D01*
X148567757Y-113176959D01*
X148525971Y-113098784D01*
X148469737Y-113030263D01*
X148401216Y-112974029D01*
X148323041Y-112932243D01*
X148238215Y-112906511D01*
X148150000Y-112897823D01*
X145850000Y-112897823D01*
X145761785Y-112906511D01*
X145676959Y-112932243D01*
X145598784Y-112974029D01*
X145530263Y-113030263D01*
X145474029Y-113098784D01*
X145432243Y-113176959D01*
X145406511Y-113261785D01*
X145397823Y-113350000D01*
X141950068Y-113350000D01*
X141982049Y-113244368D01*
X142006049Y-112999311D01*
X141981780Y-112754282D01*
X141910174Y-112518695D01*
X141794748Y-112302750D01*
X141593192Y-112227518D01*
X140820711Y-113000000D01*
X140679289Y-113000000D01*
X139906808Y-112227518D01*
X139705252Y-112302750D01*
X139589299Y-112519967D01*
X139517951Y-112755632D01*
X139493951Y-113000689D01*
X115900000Y-113000689D01*
X115900000Y-112500000D01*
X123797823Y-112500000D01*
X123806511Y-112588215D01*
X123832243Y-112673041D01*
X123874029Y-112751216D01*
X123930263Y-112819737D01*
X123998784Y-112875971D01*
X124076959Y-112917757D01*
X124161785Y-112943489D01*
X124250000Y-112952177D01*
X126087500Y-112950000D01*
X126200000Y-112837500D01*
X126200000Y-110550000D01*
X126300000Y-110550000D01*
X126300000Y-112837500D01*
X126412500Y-112950000D01*
X128250000Y-112952177D01*
X128338215Y-112943489D01*
X128423041Y-112917757D01*
X128501216Y-112875971D01*
X128569737Y-112819737D01*
X128625971Y-112751216D01*
X128667757Y-112673041D01*
X128693489Y-112588215D01*
X128702177Y-112500000D01*
X128701771Y-112156808D01*
X139977518Y-112156808D01*
X140750000Y-112929289D01*
X141522482Y-112156808D01*
X141447250Y-111955252D01*
X141230033Y-111839299D01*
X140994368Y-111767951D01*
X140749311Y-111743951D01*
X140504282Y-111768220D01*
X140268695Y-111839826D01*
X140052750Y-111955252D01*
X139977518Y-112156808D01*
X128701771Y-112156808D01*
X128700000Y-110662500D01*
X128587500Y-110550000D01*
X126300000Y-110550000D01*
X126200000Y-110550000D01*
X123912500Y-110550000D01*
X123800000Y-110662500D01*
X123797823Y-112500000D01*
X115900000Y-112500000D01*
X115897118Y-112470736D01*
X115888582Y-112442597D01*
X115874720Y-112416664D01*
X115856066Y-112393934D01*
X111962132Y-108500000D01*
X123797823Y-108500000D01*
X123800000Y-110337500D01*
X123912500Y-110450000D01*
X126200000Y-110450000D01*
X126200000Y-108162500D01*
X126300000Y-108162500D01*
X126300000Y-110450000D01*
X128587500Y-110450000D01*
X128700000Y-110337500D01*
X128702177Y-108500000D01*
X128693489Y-108411785D01*
X128667757Y-108326959D01*
X128625971Y-108248784D01*
X128569737Y-108180263D01*
X128501216Y-108124029D01*
X128423041Y-108082243D01*
X128338215Y-108056511D01*
X128250000Y-108047823D01*
X126412500Y-108050000D01*
X126300000Y-108162500D01*
X126200000Y-108162500D01*
X126087500Y-108050000D01*
X124250000Y-108047823D01*
X124161785Y-108056511D01*
X124076959Y-108082243D01*
X123998784Y-108124029D01*
X123930263Y-108180263D01*
X123874029Y-108248784D01*
X123832243Y-108326959D01*
X123806511Y-108411785D01*
X123797823Y-108500000D01*
X111962132Y-108500000D01*
X108089018Y-104626886D01*
X139500000Y-104626886D01*
X139500000Y-104873114D01*
X139548037Y-105114611D01*
X139642265Y-105342097D01*
X139779062Y-105546828D01*
X139800000Y-105567766D01*
X139800001Y-107182233D01*
X139779062Y-107203172D01*
X139642265Y-107407903D01*
X139548037Y-107635389D01*
X139500000Y-107876886D01*
X139500000Y-108123114D01*
X139548037Y-108364611D01*
X139642265Y-108592097D01*
X139779062Y-108796828D01*
X139953172Y-108970938D01*
X140157903Y-109107735D01*
X140385389Y-109201963D01*
X140626886Y-109250000D01*
X140873114Y-109250000D01*
X141114611Y-109201963D01*
X141342097Y-109107735D01*
X141546828Y-108970938D01*
X141674574Y-108843192D01*
X143227518Y-108843192D01*
X143302750Y-109044748D01*
X143519967Y-109160701D01*
X143755632Y-109232049D01*
X144000689Y-109256049D01*
X144245718Y-109231780D01*
X144481305Y-109160174D01*
X144606618Y-109093192D01*
X146477518Y-109093192D01*
X146552750Y-109294748D01*
X146769967Y-109410701D01*
X147005632Y-109482049D01*
X147250689Y-109506049D01*
X147495718Y-109481780D01*
X147731305Y-109410174D01*
X147947250Y-109294748D01*
X148022482Y-109093192D01*
X147250000Y-108320711D01*
X146477518Y-109093192D01*
X144606618Y-109093192D01*
X144697250Y-109044748D01*
X144772482Y-108843192D01*
X144000000Y-108070711D01*
X143227518Y-108843192D01*
X141674574Y-108843192D01*
X141720938Y-108796828D01*
X141857735Y-108592097D01*
X141951963Y-108364611D01*
X142000000Y-108123114D01*
X142000000Y-108000689D01*
X142743951Y-108000689D01*
X142768220Y-108245718D01*
X142839826Y-108481305D01*
X142955252Y-108697250D01*
X143156808Y-108772482D01*
X143929289Y-108000000D01*
X144070711Y-108000000D01*
X144843192Y-108772482D01*
X145044748Y-108697250D01*
X145160701Y-108480033D01*
X145230135Y-108250689D01*
X145993951Y-108250689D01*
X146018220Y-108495718D01*
X146089826Y-108731305D01*
X146205252Y-108947250D01*
X146406808Y-109022482D01*
X147179289Y-108250000D01*
X147320711Y-108250000D01*
X148093192Y-109022482D01*
X148294748Y-108947250D01*
X148410701Y-108730033D01*
X148482049Y-108494368D01*
X148506049Y-108249311D01*
X148481780Y-108004282D01*
X148410174Y-107768695D01*
X148294748Y-107552750D01*
X148093192Y-107477518D01*
X147320711Y-108250000D01*
X147179289Y-108250000D01*
X146406808Y-107477518D01*
X146205252Y-107552750D01*
X146089299Y-107769967D01*
X146017951Y-108005632D01*
X145993951Y-108250689D01*
X145230135Y-108250689D01*
X145232049Y-108244368D01*
X145256049Y-107999311D01*
X145231780Y-107754282D01*
X145160174Y-107518695D01*
X145100369Y-107406808D01*
X146477518Y-107406808D01*
X147250000Y-108179289D01*
X148022482Y-107406808D01*
X147947250Y-107205252D01*
X147730033Y-107089299D01*
X147494368Y-107017951D01*
X147249311Y-106993951D01*
X147004282Y-107018220D01*
X146768695Y-107089826D01*
X146552750Y-107205252D01*
X146477518Y-107406808D01*
X145100369Y-107406808D01*
X145044748Y-107302750D01*
X144843192Y-107227518D01*
X144070711Y-108000000D01*
X143929289Y-108000000D01*
X143156808Y-107227518D01*
X142955252Y-107302750D01*
X142839299Y-107519967D01*
X142767951Y-107755632D01*
X142743951Y-108000689D01*
X142000000Y-108000689D01*
X142000000Y-107876886D01*
X141951963Y-107635389D01*
X141857735Y-107407903D01*
X141720938Y-107203172D01*
X141700000Y-107182234D01*
X141700000Y-107156808D01*
X143227518Y-107156808D01*
X144000000Y-107929289D01*
X144772482Y-107156808D01*
X144697250Y-106955252D01*
X144480033Y-106839299D01*
X144244368Y-106767951D01*
X143999311Y-106743951D01*
X143754282Y-106768220D01*
X143518695Y-106839826D01*
X143302750Y-106955252D01*
X143227518Y-107156808D01*
X141700000Y-107156808D01*
X141700000Y-106536886D01*
X149250000Y-106536886D01*
X149250000Y-106783114D01*
X149298037Y-107024611D01*
X149392265Y-107252097D01*
X149529062Y-107456828D01*
X149703172Y-107630938D01*
X149907903Y-107767735D01*
X150135389Y-107861963D01*
X150376886Y-107910000D01*
X150623114Y-107910000D01*
X150864611Y-107861963D01*
X151092097Y-107767735D01*
X151296828Y-107630938D01*
X151470938Y-107456828D01*
X151607735Y-107252097D01*
X151701963Y-107024611D01*
X151750000Y-106783114D01*
X151750000Y-106536886D01*
X151702881Y-106300000D01*
X157747823Y-106300000D01*
X157756511Y-106388215D01*
X157782243Y-106473041D01*
X157824029Y-106551216D01*
X157880263Y-106619737D01*
X157948784Y-106675971D01*
X158026959Y-106717757D01*
X158111785Y-106743489D01*
X158200000Y-106752177D01*
X159337500Y-106750000D01*
X159450000Y-106637500D01*
X159450000Y-105050000D01*
X159550000Y-105050000D01*
X159550000Y-106637500D01*
X159662500Y-106750000D01*
X160800000Y-106752177D01*
X160888215Y-106743489D01*
X160973041Y-106717757D01*
X161051216Y-106675971D01*
X161119737Y-106619737D01*
X161175971Y-106551216D01*
X161217757Y-106473041D01*
X161243489Y-106388215D01*
X161252177Y-106300000D01*
X161250000Y-105162500D01*
X161137500Y-105050000D01*
X159550000Y-105050000D01*
X159450000Y-105050000D01*
X157862500Y-105050000D01*
X157750000Y-105162500D01*
X157747823Y-106300000D01*
X151702881Y-106300000D01*
X151701963Y-106295389D01*
X151607735Y-106067903D01*
X151470938Y-105863172D01*
X151296828Y-105689062D01*
X151092097Y-105552265D01*
X150864611Y-105458037D01*
X150623114Y-105410000D01*
X150376886Y-105410000D01*
X150135389Y-105458037D01*
X149907903Y-105552265D01*
X149703172Y-105689062D01*
X149529062Y-105863172D01*
X149392265Y-106067903D01*
X149298037Y-106295389D01*
X149250000Y-106536886D01*
X141700000Y-106536886D01*
X141700000Y-105567766D01*
X141720938Y-105546828D01*
X141857735Y-105342097D01*
X141951963Y-105114611D01*
X142000000Y-104873114D01*
X142000000Y-104626886D01*
X141951963Y-104385389D01*
X141857735Y-104157903D01*
X141720938Y-103953172D01*
X141546828Y-103779062D01*
X141342097Y-103642265D01*
X141114611Y-103548037D01*
X140873114Y-103500000D01*
X140626886Y-103500000D01*
X140385389Y-103548037D01*
X140157903Y-103642265D01*
X139953172Y-103779062D01*
X139779062Y-103953172D01*
X139642265Y-104157903D01*
X139548037Y-104385389D01*
X139500000Y-104626886D01*
X108089018Y-104626886D01*
X105606066Y-102143934D01*
X105583336Y-102125280D01*
X105557403Y-102111418D01*
X105529264Y-102102882D01*
X105500000Y-102100000D01*
X101562132Y-102100000D01*
X100150000Y-100687868D01*
X100150000Y-100258696D01*
X123800000Y-100258696D01*
X123800000Y-100741304D01*
X123894152Y-101214639D01*
X124078838Y-101660510D01*
X124346960Y-102061784D01*
X124688216Y-102403040D01*
X125089490Y-102671162D01*
X125535361Y-102855848D01*
X126008696Y-102950000D01*
X126491304Y-102950000D01*
X126858873Y-102876886D01*
X142750000Y-102876886D01*
X142750000Y-103123114D01*
X142798037Y-103364611D01*
X142892265Y-103592097D01*
X143029062Y-103796828D01*
X143203172Y-103970938D01*
X143407903Y-104107735D01*
X143635389Y-104201963D01*
X143876886Y-104250000D01*
X144123114Y-104250000D01*
X144364611Y-104201963D01*
X144592097Y-104107735D01*
X144796828Y-103970938D01*
X144970938Y-103796828D01*
X145035636Y-103700000D01*
X157747823Y-103700000D01*
X157750000Y-104837500D01*
X157862500Y-104950000D01*
X159450000Y-104950000D01*
X159450000Y-103362500D01*
X159550000Y-103362500D01*
X159550000Y-104950000D01*
X161137500Y-104950000D01*
X161250000Y-104837500D01*
X161252177Y-103700000D01*
X161243489Y-103611785D01*
X161217757Y-103526959D01*
X161175971Y-103448784D01*
X161119737Y-103380263D01*
X161051216Y-103324029D01*
X160973041Y-103282243D01*
X160888215Y-103256511D01*
X160800000Y-103247823D01*
X159662500Y-103250000D01*
X159550000Y-103362500D01*
X159450000Y-103362500D01*
X159337500Y-103250000D01*
X158200000Y-103247823D01*
X158111785Y-103256511D01*
X158026959Y-103282243D01*
X157948784Y-103324029D01*
X157880263Y-103380263D01*
X157824029Y-103448784D01*
X157782243Y-103526959D01*
X157756511Y-103611785D01*
X157747823Y-103700000D01*
X145035636Y-103700000D01*
X145107735Y-103592097D01*
X145201963Y-103364611D01*
X145250000Y-103123114D01*
X145250000Y-102876886D01*
X145201963Y-102635389D01*
X145107735Y-102407903D01*
X144970938Y-102203172D01*
X144796828Y-102029062D01*
X144592097Y-101892265D01*
X144364611Y-101798037D01*
X144123114Y-101750000D01*
X143876886Y-101750000D01*
X143635389Y-101798037D01*
X143407903Y-101892265D01*
X143203172Y-102029062D01*
X143029062Y-102203172D01*
X142892265Y-102407903D01*
X142798037Y-102635389D01*
X142750000Y-102876886D01*
X126858873Y-102876886D01*
X126964639Y-102855848D01*
X127410510Y-102671162D01*
X127811784Y-102403040D01*
X128153040Y-102061784D01*
X128421162Y-101660510D01*
X128605848Y-101214639D01*
X128609019Y-101198693D01*
X158372018Y-101198693D01*
X158507267Y-101451444D01*
X158809505Y-101617227D01*
X159138278Y-101720862D01*
X159480952Y-101758364D01*
X159824358Y-101728293D01*
X160155299Y-101631805D01*
X160461057Y-101472608D01*
X160492733Y-101451444D01*
X160627982Y-101198693D01*
X159500000Y-100070711D01*
X158372018Y-101198693D01*
X128609019Y-101198693D01*
X128700000Y-100741304D01*
X128700000Y-100258696D01*
X128644754Y-99980952D01*
X157741636Y-99980952D01*
X157771707Y-100324358D01*
X157868195Y-100655299D01*
X158027392Y-100961057D01*
X158048556Y-100992733D01*
X158301307Y-101127982D01*
X159429289Y-100000000D01*
X159570711Y-100000000D01*
X160698693Y-101127982D01*
X160951444Y-100992733D01*
X161117227Y-100690495D01*
X161220862Y-100361722D01*
X161258364Y-100019048D01*
X161228293Y-99675642D01*
X161131805Y-99344701D01*
X160972608Y-99038943D01*
X160951444Y-99007267D01*
X160698693Y-98872018D01*
X159570711Y-100000000D01*
X159429289Y-100000000D01*
X158301307Y-98872018D01*
X158048556Y-99007267D01*
X157882773Y-99309505D01*
X157779138Y-99638278D01*
X157741636Y-99980952D01*
X128644754Y-99980952D01*
X128605848Y-99785361D01*
X128421162Y-99339490D01*
X128153040Y-98938216D01*
X127811784Y-98596960D01*
X127410510Y-98328838D01*
X126964639Y-98144152D01*
X126491304Y-98050000D01*
X126008696Y-98050000D01*
X125535361Y-98144152D01*
X125089490Y-98328838D01*
X124688216Y-98596960D01*
X124346960Y-98938216D01*
X124078838Y-99339490D01*
X123894152Y-99785361D01*
X123800000Y-100258696D01*
X100150000Y-100258696D01*
X100150000Y-96269776D01*
X102300934Y-96269776D01*
X102448182Y-96532768D01*
X102767420Y-96708516D01*
X103114811Y-96818606D01*
X103477005Y-96858808D01*
X103840082Y-96827578D01*
X104190090Y-96726115D01*
X104513579Y-96558318D01*
X104551818Y-96532768D01*
X104699066Y-96269776D01*
X108800934Y-96269776D01*
X108948182Y-96532768D01*
X109267420Y-96708516D01*
X109614811Y-96818606D01*
X109977005Y-96858808D01*
X110340082Y-96827578D01*
X110690090Y-96726115D01*
X111013579Y-96558318D01*
X111051818Y-96532768D01*
X111199066Y-96269776D01*
X110000000Y-95070711D01*
X108800934Y-96269776D01*
X104699066Y-96269776D01*
X103500000Y-95070711D01*
X102300934Y-96269776D01*
X100150000Y-96269776D01*
X100150000Y-94977005D01*
X101641192Y-94977005D01*
X101672422Y-95340082D01*
X101773885Y-95690090D01*
X101941682Y-96013579D01*
X101967232Y-96051818D01*
X102230224Y-96199066D01*
X103429289Y-95000000D01*
X103570711Y-95000000D01*
X104769776Y-96199066D01*
X105032768Y-96051818D01*
X105208516Y-95732580D01*
X105318606Y-95385189D01*
X105358808Y-95022995D01*
X105354853Y-94977005D01*
X108141192Y-94977005D01*
X108172422Y-95340082D01*
X108273885Y-95690090D01*
X108441682Y-96013579D01*
X108467232Y-96051818D01*
X108730224Y-96199066D01*
X109929289Y-95000000D01*
X110070711Y-95000000D01*
X111269776Y-96199066D01*
X111532768Y-96051818D01*
X111708516Y-95732580D01*
X111818606Y-95385189D01*
X111858808Y-95022995D01*
X111827578Y-94659918D01*
X111726115Y-94309910D01*
X111558318Y-93986421D01*
X111532768Y-93948182D01*
X111269776Y-93800934D01*
X110070711Y-95000000D01*
X109929289Y-95000000D01*
X108730224Y-93800934D01*
X108467232Y-93948182D01*
X108291484Y-94267420D01*
X108181394Y-94614811D01*
X108141192Y-94977005D01*
X105354853Y-94977005D01*
X105327578Y-94659918D01*
X105226115Y-94309910D01*
X105058318Y-93986421D01*
X105032768Y-93948182D01*
X104769776Y-93800934D01*
X103570711Y-95000000D01*
X103429289Y-95000000D01*
X102230224Y-93800934D01*
X101967232Y-93948182D01*
X101791484Y-94267420D01*
X101681394Y-94614811D01*
X101641192Y-94977005D01*
X100150000Y-94977005D01*
X100150000Y-93812132D01*
X100231908Y-93730224D01*
X102300934Y-93730224D01*
X103500000Y-94929289D01*
X104699066Y-93730224D01*
X108800934Y-93730224D01*
X110000000Y-94929289D01*
X111199066Y-93730224D01*
X111051818Y-93467232D01*
X110732580Y-93291484D01*
X110385189Y-93181394D01*
X110022995Y-93141192D01*
X109659918Y-93172422D01*
X109309910Y-93273885D01*
X108986421Y-93441682D01*
X108948182Y-93467232D01*
X108800934Y-93730224D01*
X104699066Y-93730224D01*
X104551818Y-93467232D01*
X104232580Y-93291484D01*
X103885189Y-93181394D01*
X103522995Y-93141192D01*
X103159918Y-93172422D01*
X102809910Y-93273885D01*
X102486421Y-93441682D01*
X102448182Y-93467232D01*
X102300934Y-93730224D01*
X100231908Y-93730224D01*
X101062132Y-92900000D01*
X117687868Y-92900000D01*
X119893934Y-95106066D01*
G37*
X119893934Y-95106066D02*
X119916664Y-95124720D01*
X119942597Y-95138582D01*
X119970736Y-95147118D01*
X120000000Y-95150000D01*
X139628970Y-95150000D01*
X139642265Y-95182097D01*
X139779062Y-95386828D01*
X139953172Y-95560938D01*
X140157903Y-95697735D01*
X140385389Y-95791963D01*
X140626886Y-95840000D01*
X140873114Y-95840000D01*
X141114611Y-95791963D01*
X141342097Y-95697735D01*
X141546828Y-95560938D01*
X141720938Y-95386828D01*
X141857735Y-95182097D01*
X141871030Y-95150000D01*
X146102747Y-95150000D01*
X146097823Y-95199999D01*
X146097823Y-95850001D01*
X146111315Y-95986989D01*
X146151273Y-96118712D01*
X146216161Y-96240109D01*
X146300000Y-96342267D01*
X146300001Y-97272233D01*
X146279062Y-97293172D01*
X146142265Y-97497903D01*
X146048037Y-97725389D01*
X146000000Y-97966886D01*
X146000000Y-98213114D01*
X146048037Y-98454611D01*
X146142265Y-98682097D01*
X146279062Y-98886828D01*
X146453172Y-99060938D01*
X146657903Y-99197735D01*
X146885389Y-99291963D01*
X147126886Y-99340000D01*
X147373114Y-99340000D01*
X147614611Y-99291963D01*
X147842097Y-99197735D01*
X148046828Y-99060938D01*
X148220938Y-98886828D01*
X148278081Y-98801307D01*
X158372018Y-98801307D01*
X159500000Y-99929289D01*
X160627982Y-98801307D01*
X160492733Y-98548556D01*
X160190495Y-98382773D01*
X159861722Y-98279138D01*
X159519048Y-98241636D01*
X159175642Y-98271707D01*
X158844701Y-98368195D01*
X158538943Y-98527392D01*
X158507267Y-98548556D01*
X158372018Y-98801307D01*
X148278081Y-98801307D01*
X148357735Y-98682097D01*
X148451963Y-98454611D01*
X148500000Y-98213114D01*
X148500000Y-97966886D01*
X148451963Y-97725389D01*
X148357735Y-97497903D01*
X148254361Y-97343192D01*
X149727518Y-97343192D01*
X149802750Y-97544748D01*
X150019967Y-97660701D01*
X150255632Y-97732049D01*
X150500689Y-97756049D01*
X150745718Y-97731780D01*
X150981305Y-97660174D01*
X151197250Y-97544748D01*
X151272482Y-97343192D01*
X150500000Y-96570711D01*
X149727518Y-97343192D01*
X148254361Y-97343192D01*
X148220938Y-97293172D01*
X148200000Y-97272234D01*
X148200000Y-96500689D01*
X149243951Y-96500689D01*
X149268220Y-96745718D01*
X149339826Y-96981305D01*
X149455252Y-97197250D01*
X149656808Y-97272482D01*
X150429289Y-96500000D01*
X150570711Y-96500000D01*
X151343192Y-97272482D01*
X151544748Y-97197250D01*
X151660701Y-96980033D01*
X151732049Y-96744368D01*
X151756049Y-96499311D01*
X151731780Y-96254282D01*
X151660174Y-96018695D01*
X151544748Y-95802750D01*
X151343192Y-95727518D01*
X150570711Y-96500000D01*
X150429289Y-96500000D01*
X149656808Y-95727518D01*
X149455252Y-95802750D01*
X149339299Y-96019967D01*
X149267951Y-96255632D01*
X149243951Y-96500689D01*
X148200000Y-96500689D01*
X148200000Y-96342266D01*
X148283839Y-96240109D01*
X148348727Y-96118712D01*
X148388685Y-95986989D01*
X148402177Y-95850001D01*
X148402177Y-95656808D01*
X149727518Y-95656808D01*
X150500000Y-96429289D01*
X151272482Y-95656808D01*
X151197250Y-95455252D01*
X150980033Y-95339299D01*
X150744368Y-95267951D01*
X150499311Y-95243951D01*
X150254282Y-95268220D01*
X150018695Y-95339826D01*
X149802750Y-95455252D01*
X149727518Y-95656808D01*
X148402177Y-95656808D01*
X148402177Y-95199999D01*
X148397253Y-95150000D01*
X152437868Y-95150000D01*
X154893934Y-97606066D01*
X154916664Y-97624720D01*
X154942597Y-97638582D01*
X154970736Y-97647118D01*
X155000000Y-97650000D01*
X164525001Y-97650000D01*
X164525001Y-109850000D01*
X155000000Y-109850000D01*
X154970736Y-109852882D01*
X154942597Y-109861418D01*
X154916664Y-109875280D01*
X154893934Y-109893934D01*
X154875280Y-109916664D01*
X154861418Y-109942597D01*
X154852882Y-109970736D01*
X154850000Y-110000000D01*
X154850000Y-118275000D01*
X115900000Y-118275000D01*
X115900000Y-113843192D01*
X139977518Y-113843192D01*
X140052750Y-114044748D01*
X140269967Y-114160701D01*
X140505632Y-114232049D01*
X140750689Y-114256049D01*
X140995718Y-114231780D01*
X141231305Y-114160174D01*
X141447250Y-114044748D01*
X141522482Y-113843192D01*
X140750000Y-113070711D01*
X139977518Y-113843192D01*
X115900000Y-113843192D01*
X115900000Y-113000689D01*
X139493951Y-113000689D01*
X139518220Y-113245718D01*
X139589826Y-113481305D01*
X139705252Y-113697250D01*
X139906808Y-113772482D01*
X140679289Y-113000000D01*
X140820711Y-113000000D01*
X141593192Y-113772482D01*
X141794748Y-113697250D01*
X141910701Y-113480033D01*
X141950068Y-113350000D01*
X145397823Y-113350000D01*
X145397823Y-115650000D01*
X145406511Y-115738215D01*
X145432243Y-115823041D01*
X145474029Y-115901216D01*
X145530263Y-115969737D01*
X145598784Y-116025971D01*
X145676959Y-116067757D01*
X145761785Y-116093489D01*
X145850000Y-116102177D01*
X148150000Y-116102177D01*
X148238215Y-116093489D01*
X148323041Y-116067757D01*
X148401216Y-116025971D01*
X148469737Y-115969737D01*
X148525971Y-115901216D01*
X148567757Y-115823041D01*
X148593489Y-115738215D01*
X148602177Y-115650000D01*
X148602177Y-114342414D01*
X148900000Y-114342414D01*
X148900000Y-114657586D01*
X148961487Y-114966703D01*
X149082098Y-115257884D01*
X149257199Y-115519941D01*
X149480059Y-115742801D01*
X149742116Y-115917902D01*
X150033297Y-116038513D01*
X150342414Y-116100000D01*
X150657586Y-116100000D01*
X150966703Y-116038513D01*
X151257884Y-115917902D01*
X151519941Y-115742801D01*
X151742801Y-115519941D01*
X151917902Y-115257884D01*
X152038513Y-114966703D01*
X152100000Y-114657586D01*
X152100000Y-114342414D01*
X152038513Y-114033297D01*
X151917902Y-113742116D01*
X151742801Y-113480059D01*
X151519941Y-113257199D01*
X151257884Y-113082098D01*
X150966703Y-112961487D01*
X150657586Y-112900000D01*
X150342414Y-112900000D01*
X150033297Y-112961487D01*
X149742116Y-113082098D01*
X149480059Y-113257199D01*
X149257199Y-113480059D01*
X149082098Y-113742116D01*
X148961487Y-114033297D01*
X148900000Y-114342414D01*
X148602177Y-114342414D01*
X148602177Y-113350000D01*
X148593489Y-113261785D01*
X148567757Y-113176959D01*
X148525971Y-113098784D01*
X148469737Y-113030263D01*
X148401216Y-112974029D01*
X148323041Y-112932243D01*
X148238215Y-112906511D01*
X148150000Y-112897823D01*
X145850000Y-112897823D01*
X145761785Y-112906511D01*
X145676959Y-112932243D01*
X145598784Y-112974029D01*
X145530263Y-113030263D01*
X145474029Y-113098784D01*
X145432243Y-113176959D01*
X145406511Y-113261785D01*
X145397823Y-113350000D01*
X141950068Y-113350000D01*
X141982049Y-113244368D01*
X142006049Y-112999311D01*
X141981780Y-112754282D01*
X141910174Y-112518695D01*
X141794748Y-112302750D01*
X141593192Y-112227518D01*
X140820711Y-113000000D01*
X140679289Y-113000000D01*
X139906808Y-112227518D01*
X139705252Y-112302750D01*
X139589299Y-112519967D01*
X139517951Y-112755632D01*
X139493951Y-113000689D01*
X115900000Y-113000689D01*
X115900000Y-112500000D01*
X123797823Y-112500000D01*
X123806511Y-112588215D01*
X123832243Y-112673041D01*
X123874029Y-112751216D01*
X123930263Y-112819737D01*
X123998784Y-112875971D01*
X124076959Y-112917757D01*
X124161785Y-112943489D01*
X124250000Y-112952177D01*
X126087500Y-112950000D01*
X126200000Y-112837500D01*
X126200000Y-110550000D01*
X126300000Y-110550000D01*
X126300000Y-112837500D01*
X126412500Y-112950000D01*
X128250000Y-112952177D01*
X128338215Y-112943489D01*
X128423041Y-112917757D01*
X128501216Y-112875971D01*
X128569737Y-112819737D01*
X128625971Y-112751216D01*
X128667757Y-112673041D01*
X128693489Y-112588215D01*
X128702177Y-112500000D01*
X128701771Y-112156808D01*
X139977518Y-112156808D01*
X140750000Y-112929289D01*
X141522482Y-112156808D01*
X141447250Y-111955252D01*
X141230033Y-111839299D01*
X140994368Y-111767951D01*
X140749311Y-111743951D01*
X140504282Y-111768220D01*
X140268695Y-111839826D01*
X140052750Y-111955252D01*
X139977518Y-112156808D01*
X128701771Y-112156808D01*
X128700000Y-110662500D01*
X128587500Y-110550000D01*
X126300000Y-110550000D01*
X126200000Y-110550000D01*
X123912500Y-110550000D01*
X123800000Y-110662500D01*
X123797823Y-112500000D01*
X115900000Y-112500000D01*
X115897118Y-112470736D01*
X115888582Y-112442597D01*
X115874720Y-112416664D01*
X115856066Y-112393934D01*
X111962132Y-108500000D01*
X123797823Y-108500000D01*
X123800000Y-110337500D01*
X123912500Y-110450000D01*
X126200000Y-110450000D01*
X126200000Y-108162500D01*
X126300000Y-108162500D01*
X126300000Y-110450000D01*
X128587500Y-110450000D01*
X128700000Y-110337500D01*
X128702177Y-108500000D01*
X128693489Y-108411785D01*
X128667757Y-108326959D01*
X128625971Y-108248784D01*
X128569737Y-108180263D01*
X128501216Y-108124029D01*
X128423041Y-108082243D01*
X128338215Y-108056511D01*
X128250000Y-108047823D01*
X126412500Y-108050000D01*
X126300000Y-108162500D01*
X126200000Y-108162500D01*
X126087500Y-108050000D01*
X124250000Y-108047823D01*
X124161785Y-108056511D01*
X124076959Y-108082243D01*
X123998784Y-108124029D01*
X123930263Y-108180263D01*
X123874029Y-108248784D01*
X123832243Y-108326959D01*
X123806511Y-108411785D01*
X123797823Y-108500000D01*
X111962132Y-108500000D01*
X108089018Y-104626886D01*
X139500000Y-104626886D01*
X139500000Y-104873114D01*
X139548037Y-105114611D01*
X139642265Y-105342097D01*
X139779062Y-105546828D01*
X139800000Y-105567766D01*
X139800001Y-107182233D01*
X139779062Y-107203172D01*
X139642265Y-107407903D01*
X139548037Y-107635389D01*
X139500000Y-107876886D01*
X139500000Y-108123114D01*
X139548037Y-108364611D01*
X139642265Y-108592097D01*
X139779062Y-108796828D01*
X139953172Y-108970938D01*
X140157903Y-109107735D01*
X140385389Y-109201963D01*
X140626886Y-109250000D01*
X140873114Y-109250000D01*
X141114611Y-109201963D01*
X141342097Y-109107735D01*
X141546828Y-108970938D01*
X141674574Y-108843192D01*
X143227518Y-108843192D01*
X143302750Y-109044748D01*
X143519967Y-109160701D01*
X143755632Y-109232049D01*
X144000689Y-109256049D01*
X144245718Y-109231780D01*
X144481305Y-109160174D01*
X144606618Y-109093192D01*
X146477518Y-109093192D01*
X146552750Y-109294748D01*
X146769967Y-109410701D01*
X147005632Y-109482049D01*
X147250689Y-109506049D01*
X147495718Y-109481780D01*
X147731305Y-109410174D01*
X147947250Y-109294748D01*
X148022482Y-109093192D01*
X147250000Y-108320711D01*
X146477518Y-109093192D01*
X144606618Y-109093192D01*
X144697250Y-109044748D01*
X144772482Y-108843192D01*
X144000000Y-108070711D01*
X143227518Y-108843192D01*
X141674574Y-108843192D01*
X141720938Y-108796828D01*
X141857735Y-108592097D01*
X141951963Y-108364611D01*
X142000000Y-108123114D01*
X142000000Y-108000689D01*
X142743951Y-108000689D01*
X142768220Y-108245718D01*
X142839826Y-108481305D01*
X142955252Y-108697250D01*
X143156808Y-108772482D01*
X143929289Y-108000000D01*
X144070711Y-108000000D01*
X144843192Y-108772482D01*
X145044748Y-108697250D01*
X145160701Y-108480033D01*
X145230135Y-108250689D01*
X145993951Y-108250689D01*
X146018220Y-108495718D01*
X146089826Y-108731305D01*
X146205252Y-108947250D01*
X146406808Y-109022482D01*
X147179289Y-108250000D01*
X147320711Y-108250000D01*
X148093192Y-109022482D01*
X148294748Y-108947250D01*
X148410701Y-108730033D01*
X148482049Y-108494368D01*
X148506049Y-108249311D01*
X148481780Y-108004282D01*
X148410174Y-107768695D01*
X148294748Y-107552750D01*
X148093192Y-107477518D01*
X147320711Y-108250000D01*
X147179289Y-108250000D01*
X146406808Y-107477518D01*
X146205252Y-107552750D01*
X146089299Y-107769967D01*
X146017951Y-108005632D01*
X145993951Y-108250689D01*
X145230135Y-108250689D01*
X145232049Y-108244368D01*
X145256049Y-107999311D01*
X145231780Y-107754282D01*
X145160174Y-107518695D01*
X145100369Y-107406808D01*
X146477518Y-107406808D01*
X147250000Y-108179289D01*
X148022482Y-107406808D01*
X147947250Y-107205252D01*
X147730033Y-107089299D01*
X147494368Y-107017951D01*
X147249311Y-106993951D01*
X147004282Y-107018220D01*
X146768695Y-107089826D01*
X146552750Y-107205252D01*
X146477518Y-107406808D01*
X145100369Y-107406808D01*
X145044748Y-107302750D01*
X144843192Y-107227518D01*
X144070711Y-108000000D01*
X143929289Y-108000000D01*
X143156808Y-107227518D01*
X142955252Y-107302750D01*
X142839299Y-107519967D01*
X142767951Y-107755632D01*
X142743951Y-108000689D01*
X142000000Y-108000689D01*
X142000000Y-107876886D01*
X141951963Y-107635389D01*
X141857735Y-107407903D01*
X141720938Y-107203172D01*
X141700000Y-107182234D01*
X141700000Y-107156808D01*
X143227518Y-107156808D01*
X144000000Y-107929289D01*
X144772482Y-107156808D01*
X144697250Y-106955252D01*
X144480033Y-106839299D01*
X144244368Y-106767951D01*
X143999311Y-106743951D01*
X143754282Y-106768220D01*
X143518695Y-106839826D01*
X143302750Y-106955252D01*
X143227518Y-107156808D01*
X141700000Y-107156808D01*
X141700000Y-106536886D01*
X149250000Y-106536886D01*
X149250000Y-106783114D01*
X149298037Y-107024611D01*
X149392265Y-107252097D01*
X149529062Y-107456828D01*
X149703172Y-107630938D01*
X149907903Y-107767735D01*
X150135389Y-107861963D01*
X150376886Y-107910000D01*
X150623114Y-107910000D01*
X150864611Y-107861963D01*
X151092097Y-107767735D01*
X151296828Y-107630938D01*
X151470938Y-107456828D01*
X151607735Y-107252097D01*
X151701963Y-107024611D01*
X151750000Y-106783114D01*
X151750000Y-106536886D01*
X151702881Y-106300000D01*
X157747823Y-106300000D01*
X157756511Y-106388215D01*
X157782243Y-106473041D01*
X157824029Y-106551216D01*
X157880263Y-106619737D01*
X157948784Y-106675971D01*
X158026959Y-106717757D01*
X158111785Y-106743489D01*
X158200000Y-106752177D01*
X159337500Y-106750000D01*
X159450000Y-106637500D01*
X159450000Y-105050000D01*
X159550000Y-105050000D01*
X159550000Y-106637500D01*
X159662500Y-106750000D01*
X160800000Y-106752177D01*
X160888215Y-106743489D01*
X160973041Y-106717757D01*
X161051216Y-106675971D01*
X161119737Y-106619737D01*
X161175971Y-106551216D01*
X161217757Y-106473041D01*
X161243489Y-106388215D01*
X161252177Y-106300000D01*
X161250000Y-105162500D01*
X161137500Y-105050000D01*
X159550000Y-105050000D01*
X159450000Y-105050000D01*
X157862500Y-105050000D01*
X157750000Y-105162500D01*
X157747823Y-106300000D01*
X151702881Y-106300000D01*
X151701963Y-106295389D01*
X151607735Y-106067903D01*
X151470938Y-105863172D01*
X151296828Y-105689062D01*
X151092097Y-105552265D01*
X150864611Y-105458037D01*
X150623114Y-105410000D01*
X150376886Y-105410000D01*
X150135389Y-105458037D01*
X149907903Y-105552265D01*
X149703172Y-105689062D01*
X149529062Y-105863172D01*
X149392265Y-106067903D01*
X149298037Y-106295389D01*
X149250000Y-106536886D01*
X141700000Y-106536886D01*
X141700000Y-105567766D01*
X141720938Y-105546828D01*
X141857735Y-105342097D01*
X141951963Y-105114611D01*
X142000000Y-104873114D01*
X142000000Y-104626886D01*
X141951963Y-104385389D01*
X141857735Y-104157903D01*
X141720938Y-103953172D01*
X141546828Y-103779062D01*
X141342097Y-103642265D01*
X141114611Y-103548037D01*
X140873114Y-103500000D01*
X140626886Y-103500000D01*
X140385389Y-103548037D01*
X140157903Y-103642265D01*
X139953172Y-103779062D01*
X139779062Y-103953172D01*
X139642265Y-104157903D01*
X139548037Y-104385389D01*
X139500000Y-104626886D01*
X108089018Y-104626886D01*
X105606066Y-102143934D01*
X105583336Y-102125280D01*
X105557403Y-102111418D01*
X105529264Y-102102882D01*
X105500000Y-102100000D01*
X101562132Y-102100000D01*
X100150000Y-100687868D01*
X100150000Y-100258696D01*
X123800000Y-100258696D01*
X123800000Y-100741304D01*
X123894152Y-101214639D01*
X124078838Y-101660510D01*
X124346960Y-102061784D01*
X124688216Y-102403040D01*
X125089490Y-102671162D01*
X125535361Y-102855848D01*
X126008696Y-102950000D01*
X126491304Y-102950000D01*
X126858873Y-102876886D01*
X142750000Y-102876886D01*
X142750000Y-103123114D01*
X142798037Y-103364611D01*
X142892265Y-103592097D01*
X143029062Y-103796828D01*
X143203172Y-103970938D01*
X143407903Y-104107735D01*
X143635389Y-104201963D01*
X143876886Y-104250000D01*
X144123114Y-104250000D01*
X144364611Y-104201963D01*
X144592097Y-104107735D01*
X144796828Y-103970938D01*
X144970938Y-103796828D01*
X145035636Y-103700000D01*
X157747823Y-103700000D01*
X157750000Y-104837500D01*
X157862500Y-104950000D01*
X159450000Y-104950000D01*
X159450000Y-103362500D01*
X159550000Y-103362500D01*
X159550000Y-104950000D01*
X161137500Y-104950000D01*
X161250000Y-104837500D01*
X161252177Y-103700000D01*
X161243489Y-103611785D01*
X161217757Y-103526959D01*
X161175971Y-103448784D01*
X161119737Y-103380263D01*
X161051216Y-103324029D01*
X160973041Y-103282243D01*
X160888215Y-103256511D01*
X160800000Y-103247823D01*
X159662500Y-103250000D01*
X159550000Y-103362500D01*
X159450000Y-103362500D01*
X159337500Y-103250000D01*
X158200000Y-103247823D01*
X158111785Y-103256511D01*
X158026959Y-103282243D01*
X157948784Y-103324029D01*
X157880263Y-103380263D01*
X157824029Y-103448784D01*
X157782243Y-103526959D01*
X157756511Y-103611785D01*
X157747823Y-103700000D01*
X145035636Y-103700000D01*
X145107735Y-103592097D01*
X145201963Y-103364611D01*
X145250000Y-103123114D01*
X145250000Y-102876886D01*
X145201963Y-102635389D01*
X145107735Y-102407903D01*
X144970938Y-102203172D01*
X144796828Y-102029062D01*
X144592097Y-101892265D01*
X144364611Y-101798037D01*
X144123114Y-101750000D01*
X143876886Y-101750000D01*
X143635389Y-101798037D01*
X143407903Y-101892265D01*
X143203172Y-102029062D01*
X143029062Y-102203172D01*
X142892265Y-102407903D01*
X142798037Y-102635389D01*
X142750000Y-102876886D01*
X126858873Y-102876886D01*
X126964639Y-102855848D01*
X127410510Y-102671162D01*
X127811784Y-102403040D01*
X128153040Y-102061784D01*
X128421162Y-101660510D01*
X128605848Y-101214639D01*
X128609019Y-101198693D01*
X158372018Y-101198693D01*
X158507267Y-101451444D01*
X158809505Y-101617227D01*
X159138278Y-101720862D01*
X159480952Y-101758364D01*
X159824358Y-101728293D01*
X160155299Y-101631805D01*
X160461057Y-101472608D01*
X160492733Y-101451444D01*
X160627982Y-101198693D01*
X159500000Y-100070711D01*
X158372018Y-101198693D01*
X128609019Y-101198693D01*
X128700000Y-100741304D01*
X128700000Y-100258696D01*
X128644754Y-99980952D01*
X157741636Y-99980952D01*
X157771707Y-100324358D01*
X157868195Y-100655299D01*
X158027392Y-100961057D01*
X158048556Y-100992733D01*
X158301307Y-101127982D01*
X159429289Y-100000000D01*
X159570711Y-100000000D01*
X160698693Y-101127982D01*
X160951444Y-100992733D01*
X161117227Y-100690495D01*
X161220862Y-100361722D01*
X161258364Y-100019048D01*
X161228293Y-99675642D01*
X161131805Y-99344701D01*
X160972608Y-99038943D01*
X160951444Y-99007267D01*
X160698693Y-98872018D01*
X159570711Y-100000000D01*
X159429289Y-100000000D01*
X158301307Y-98872018D01*
X158048556Y-99007267D01*
X157882773Y-99309505D01*
X157779138Y-99638278D01*
X157741636Y-99980952D01*
X128644754Y-99980952D01*
X128605848Y-99785361D01*
X128421162Y-99339490D01*
X128153040Y-98938216D01*
X127811784Y-98596960D01*
X127410510Y-98328838D01*
X126964639Y-98144152D01*
X126491304Y-98050000D01*
X126008696Y-98050000D01*
X125535361Y-98144152D01*
X125089490Y-98328838D01*
X124688216Y-98596960D01*
X124346960Y-98938216D01*
X124078838Y-99339490D01*
X123894152Y-99785361D01*
X123800000Y-100258696D01*
X100150000Y-100258696D01*
X100150000Y-96269776D01*
X102300934Y-96269776D01*
X102448182Y-96532768D01*
X102767420Y-96708516D01*
X103114811Y-96818606D01*
X103477005Y-96858808D01*
X103840082Y-96827578D01*
X104190090Y-96726115D01*
X104513579Y-96558318D01*
X104551818Y-96532768D01*
X104699066Y-96269776D01*
X108800934Y-96269776D01*
X108948182Y-96532768D01*
X109267420Y-96708516D01*
X109614811Y-96818606D01*
X109977005Y-96858808D01*
X110340082Y-96827578D01*
X110690090Y-96726115D01*
X111013579Y-96558318D01*
X111051818Y-96532768D01*
X111199066Y-96269776D01*
X110000000Y-95070711D01*
X108800934Y-96269776D01*
X104699066Y-96269776D01*
X103500000Y-95070711D01*
X102300934Y-96269776D01*
X100150000Y-96269776D01*
X100150000Y-94977005D01*
X101641192Y-94977005D01*
X101672422Y-95340082D01*
X101773885Y-95690090D01*
X101941682Y-96013579D01*
X101967232Y-96051818D01*
X102230224Y-96199066D01*
X103429289Y-95000000D01*
X103570711Y-95000000D01*
X104769776Y-96199066D01*
X105032768Y-96051818D01*
X105208516Y-95732580D01*
X105318606Y-95385189D01*
X105358808Y-95022995D01*
X105354853Y-94977005D01*
X108141192Y-94977005D01*
X108172422Y-95340082D01*
X108273885Y-95690090D01*
X108441682Y-96013579D01*
X108467232Y-96051818D01*
X108730224Y-96199066D01*
X109929289Y-95000000D01*
X110070711Y-95000000D01*
X111269776Y-96199066D01*
X111532768Y-96051818D01*
X111708516Y-95732580D01*
X111818606Y-95385189D01*
X111858808Y-95022995D01*
X111827578Y-94659918D01*
X111726115Y-94309910D01*
X111558318Y-93986421D01*
X111532768Y-93948182D01*
X111269776Y-93800934D01*
X110070711Y-95000000D01*
X109929289Y-95000000D01*
X108730224Y-93800934D01*
X108467232Y-93948182D01*
X108291484Y-94267420D01*
X108181394Y-94614811D01*
X108141192Y-94977005D01*
X105354853Y-94977005D01*
X105327578Y-94659918D01*
X105226115Y-94309910D01*
X105058318Y-93986421D01*
X105032768Y-93948182D01*
X104769776Y-93800934D01*
X103570711Y-95000000D01*
X103429289Y-95000000D01*
X102230224Y-93800934D01*
X101967232Y-93948182D01*
X101791484Y-94267420D01*
X101681394Y-94614811D01*
X101641192Y-94977005D01*
X100150000Y-94977005D01*
X100150000Y-93812132D01*
X100231908Y-93730224D01*
X102300934Y-93730224D01*
X103500000Y-94929289D01*
X104699066Y-93730224D01*
X108800934Y-93730224D01*
X110000000Y-94929289D01*
X111199066Y-93730224D01*
X111051818Y-93467232D01*
X110732580Y-93291484D01*
X110385189Y-93181394D01*
X110022995Y-93141192D01*
X109659918Y-93172422D01*
X109309910Y-93273885D01*
X108986421Y-93441682D01*
X108948182Y-93467232D01*
X108800934Y-93730224D01*
X104699066Y-93730224D01*
X104551818Y-93467232D01*
X104232580Y-93291484D01*
X103885189Y-93181394D01*
X103522995Y-93141192D01*
X103159918Y-93172422D01*
X102809910Y-93273885D01*
X102486421Y-93441682D01*
X102448182Y-93467232D01*
X102300934Y-93730224D01*
X100231908Y-93730224D01*
X101062132Y-92900000D01*
X117687868Y-92900000D01*
X119893934Y-95106066D01*
%TD*%
M02*
