%TF.GenerationSoftware,KiCad,Pcbnew,(5.1.6-0)*%
%TF.CreationDate,2023-07-07T17:58:43-07:00*%
%TF.ProjectId,psu_board_small,7073755f-626f-4617-9264-5f736d616c6c,rev?*%
%TF.SameCoordinates,Original*%
%TF.FileFunction,Soldermask,Bot*%
%TF.FilePolarity,Negative*%
%FSLAX46Y46*%
G04 Gerber Fmt 4.6, Leading zero omitted, Abs format (unit mm)*
G04 Created by KiCad (PCBNEW (5.1.6-0)) date 2023-07-07 17:58:43*
%MOMM*%
%LPD*%
G01*
G04 APERTURE LIST*
%ADD10C,0.900000*%
%ADD11C,6.500000*%
%ADD12C,2.400000*%
%ADD13R,2.400000X2.400000*%
%ADD14C,1.900000*%
%ADD15O,1.700000X1.700000*%
%ADD16C,1.700000*%
%ADD17C,2.700000*%
%ADD18R,2.700000X2.700000*%
%ADD19O,2.900000X2.900000*%
%ADD20C,2.900000*%
%ADD21O,1.900000X2.700000*%
%ADD22C,4.100000*%
%ADD23R,4.100000X4.100000*%
G04 APERTURE END LIST*
D10*
%TO.C,H4*%
X160947056Y-113302944D03*
X159250000Y-112600000D03*
X157552944Y-113302944D03*
X156850000Y-115000000D03*
X157552944Y-116697056D03*
X159250000Y-117400000D03*
X160947056Y-116697056D03*
X161650000Y-115000000D03*
D11*
X159250000Y-115000000D03*
%TD*%
D10*
%TO.C,H3*%
X160947056Y-68302944D03*
X159250000Y-67600000D03*
X157552944Y-68302944D03*
X156850000Y-70000000D03*
X157552944Y-71697056D03*
X159250000Y-72400000D03*
X160947056Y-71697056D03*
X161650000Y-70000000D03*
D11*
X159250000Y-70000000D03*
%TD*%
D10*
%TO.C,H2*%
X27947056Y-68302944D03*
X26250000Y-67600000D03*
X24552944Y-68302944D03*
X23850000Y-70000000D03*
X24552944Y-71697056D03*
X26250000Y-72400000D03*
X27947056Y-71697056D03*
X28650000Y-70000000D03*
D11*
X26250000Y-70000000D03*
%TD*%
D10*
%TO.C,H1*%
X27947056Y-113302944D03*
X26250000Y-112600000D03*
X24552944Y-113302944D03*
X23850000Y-115000000D03*
X24552944Y-116697056D03*
X26250000Y-117400000D03*
X27947056Y-116697056D03*
X28650000Y-115000000D03*
D11*
X26250000Y-115000000D03*
%TD*%
D12*
%TO.C,J3*%
X147250000Y-70500000D03*
D13*
X150750000Y-70500000D03*
%TD*%
D12*
%TO.C,J2*%
X150500000Y-114500000D03*
D13*
X147000000Y-114500000D03*
%TD*%
D14*
%TO.C,RV1*%
X41400000Y-88750000D03*
X40000000Y-96250000D03*
%TD*%
D15*
%TO.C,R8*%
X140750000Y-71340000D03*
D16*
X140750000Y-81500000D03*
%TD*%
D15*
%TO.C,R7*%
X140750000Y-94590000D03*
D16*
X140750000Y-104750000D03*
%TD*%
D17*
%TO.C,J4*%
X159500000Y-80000000D03*
X159500000Y-85000000D03*
X159500000Y-90000000D03*
X159500000Y-95000000D03*
X159500000Y-100000000D03*
D18*
X159500000Y-105000000D03*
%TD*%
D17*
%TO.C,J1*%
X28250000Y-85000000D03*
X28250000Y-90000000D03*
X28250000Y-95000000D03*
D18*
X28250000Y-100000000D03*
%TD*%
D16*
%TO.C,C14*%
X140750000Y-84750000D03*
X140750000Y-89750000D03*
%TD*%
%TO.C,C13*%
X140750000Y-108000000D03*
X140750000Y-113000000D03*
%TD*%
%TO.C,C12*%
X144000000Y-77500000D03*
X144000000Y-82500000D03*
%TD*%
%TO.C,C11*%
X144000000Y-103000000D03*
X144000000Y-108000000D03*
%TD*%
D15*
%TO.C,R12*%
X147250000Y-79840000D03*
D16*
X147250000Y-90000000D03*
%TD*%
D15*
%TO.C,R11*%
X147250000Y-98090000D03*
D16*
X147250000Y-108250000D03*
%TD*%
D15*
%TO.C,R10*%
X150500000Y-79840000D03*
D16*
X150500000Y-90000000D03*
%TD*%
D15*
%TO.C,R9*%
X150500000Y-106660000D03*
D16*
X150500000Y-96500000D03*
%TD*%
D19*
%TO.C,R6*%
X110000000Y-69680000D03*
D20*
X110000000Y-90000000D03*
%TD*%
D19*
%TO.C,R5*%
X103500000Y-69680000D03*
D20*
X103500000Y-90000000D03*
%TD*%
D19*
%TO.C,R4*%
X110000000Y-115320000D03*
D20*
X110000000Y-95000000D03*
%TD*%
D19*
%TO.C,R3*%
X103500000Y-115320000D03*
D20*
X103500000Y-95000000D03*
%TD*%
D15*
%TO.C,R2*%
X98500000Y-69590000D03*
D16*
X98500000Y-79750000D03*
%TD*%
D15*
%TO.C,R1*%
X98500000Y-96840000D03*
D16*
X98500000Y-107000000D03*
%TD*%
D21*
%TO.C,D1*%
X35500000Y-81250000D03*
X35500000Y-88750000D03*
X35500000Y-96250000D03*
X35500000Y-106250000D03*
%TD*%
D22*
%TO.C,C10*%
X126250000Y-74500000D03*
D23*
X126250000Y-84500000D03*
%TD*%
D22*
%TO.C,C9*%
X126250000Y-100500000D03*
D23*
X126250000Y-110500000D03*
%TD*%
D16*
%TO.C,C8*%
X98500000Y-83000000D03*
X98500000Y-88000000D03*
%TD*%
%TO.C,C7*%
X98500000Y-110250000D03*
X98500000Y-115250000D03*
%TD*%
%TO.C,C6*%
X69500000Y-77000000D03*
X69500000Y-82000000D03*
%TD*%
%TO.C,C5*%
X69500000Y-103000000D03*
X69500000Y-108000000D03*
%TD*%
D22*
%TO.C,C4*%
X84000000Y-74500000D03*
D23*
X84000000Y-84500000D03*
%TD*%
D22*
%TO.C,C3*%
X84000000Y-100500000D03*
D23*
X84000000Y-110500000D03*
%TD*%
D22*
%TO.C,C2*%
X55000000Y-74500000D03*
D23*
X55000000Y-84500000D03*
%TD*%
D22*
%TO.C,C1*%
X55000000Y-100500000D03*
D23*
X55000000Y-110500000D03*
%TD*%
M02*
