%TF.GenerationSoftware,KiCad,Pcbnew,(5.1.6-0)*%
%TF.CreationDate,2023-07-07T17:58:43-07:00*%
%TF.ProjectId,psu_board_small,7073755f-626f-4617-9264-5f736d616c6c,rev?*%
%TF.SameCoordinates,Original*%
%TF.FileFunction,Copper,L2,Bot*%
%TF.FilePolarity,Positive*%
%FSLAX46Y46*%
G04 Gerber Fmt 4.6, Leading zero omitted, Abs format (unit mm)*
G04 Created by KiCad (PCBNEW (5.1.6-0)) date 2023-07-07 17:58:43*
%MOMM*%
%LPD*%
G01*
G04 APERTURE LIST*
%TA.AperFunction,ComponentPad*%
%ADD10C,0.800000*%
%TD*%
%TA.AperFunction,ComponentPad*%
%ADD11C,6.400000*%
%TD*%
%TA.AperFunction,ComponentPad*%
%ADD12C,2.300000*%
%TD*%
%TA.AperFunction,ComponentPad*%
%ADD13R,2.300000X2.300000*%
%TD*%
%TA.AperFunction,ComponentPad*%
%ADD14C,1.800000*%
%TD*%
%TA.AperFunction,ComponentPad*%
%ADD15O,1.600000X1.600000*%
%TD*%
%TA.AperFunction,ComponentPad*%
%ADD16C,1.600000*%
%TD*%
%TA.AperFunction,ComponentPad*%
%ADD17C,2.600000*%
%TD*%
%TA.AperFunction,ComponentPad*%
%ADD18R,2.600000X2.600000*%
%TD*%
%TA.AperFunction,ComponentPad*%
%ADD19O,2.800000X2.800000*%
%TD*%
%TA.AperFunction,ComponentPad*%
%ADD20C,2.800000*%
%TD*%
%TA.AperFunction,ComponentPad*%
%ADD21O,1.800000X2.600000*%
%TD*%
%TA.AperFunction,ComponentPad*%
%ADD22C,4.000000*%
%TD*%
%TA.AperFunction,ComponentPad*%
%ADD23R,4.000000X4.000000*%
%TD*%
%TA.AperFunction,ViaPad*%
%ADD24C,0.800000*%
%TD*%
%TA.AperFunction,Conductor*%
%ADD25C,1.000000*%
%TD*%
%TA.AperFunction,Conductor*%
%ADD26C,0.300000*%
%TD*%
G04 APERTURE END LIST*
D10*
%TO.P,H4,1*%
%TO.N,N/C*%
X160947056Y-113302944D03*
X159250000Y-112600000D03*
X157552944Y-113302944D03*
X156850000Y-115000000D03*
X157552944Y-116697056D03*
X159250000Y-117400000D03*
X160947056Y-116697056D03*
X161650000Y-115000000D03*
D11*
X159250000Y-115000000D03*
%TD*%
D10*
%TO.P,H3,1*%
%TO.N,N/C*%
X160947056Y-68302944D03*
X159250000Y-67600000D03*
X157552944Y-68302944D03*
X156850000Y-70000000D03*
X157552944Y-71697056D03*
X159250000Y-72400000D03*
X160947056Y-71697056D03*
X161650000Y-70000000D03*
D11*
X159250000Y-70000000D03*
%TD*%
D10*
%TO.P,H2,1*%
%TO.N,N/C*%
X27947056Y-68302944D03*
X26250000Y-67600000D03*
X24552944Y-68302944D03*
X23850000Y-70000000D03*
X24552944Y-71697056D03*
X26250000Y-72400000D03*
X27947056Y-71697056D03*
X28650000Y-70000000D03*
D11*
X26250000Y-70000000D03*
%TD*%
D10*
%TO.P,H1,1*%
%TO.N,N/C*%
X27947056Y-113302944D03*
X26250000Y-112600000D03*
X24552944Y-113302944D03*
X23850000Y-115000000D03*
X24552944Y-116697056D03*
X26250000Y-117400000D03*
X27947056Y-116697056D03*
X28650000Y-115000000D03*
D11*
X26250000Y-115000000D03*
%TD*%
D12*
%TO.P,J3,2*%
%TO.N,/OV-*%
X147250000Y-70500000D03*
D13*
%TO.P,J3,1*%
%TO.N,Net-(J3-Pad1)*%
X150750000Y-70500000D03*
%TD*%
D12*
%TO.P,J2,2*%
%TO.N,GND*%
X150500000Y-114500000D03*
D13*
%TO.P,J2,1*%
%TO.N,Net-(J2-Pad1)*%
X147000000Y-114500000D03*
%TD*%
D14*
%TO.P,RV1,2*%
%TO.N,/AC4*%
X41400000Y-88750000D03*
%TO.P,RV1,1*%
%TO.N,/AC1*%
X40000000Y-96250000D03*
%TD*%
D15*
%TO.P,R8,2*%
%TO.N,/OV-*%
X140750000Y-71340000D03*
D16*
%TO.P,R8,1*%
%TO.N,Net-(C14-Pad2)*%
X140750000Y-81500000D03*
%TD*%
D15*
%TO.P,R7,2*%
%TO.N,GND*%
X140750000Y-94590000D03*
D16*
%TO.P,R7,1*%
%TO.N,Net-(C13-Pad2)*%
X140750000Y-104750000D03*
%TD*%
D17*
%TO.P,J4,6*%
%TO.N,/OV-*%
X159500000Y-80000000D03*
%TO.P,J4,5*%
X159500000Y-85000000D03*
%TO.P,J4,4*%
%TO.N,GND*%
X159500000Y-90000000D03*
%TO.P,J4,3*%
X159500000Y-95000000D03*
%TO.P,J4,2*%
%TO.N,/OV+*%
X159500000Y-100000000D03*
D18*
%TO.P,J4,1*%
X159500000Y-105000000D03*
%TD*%
D17*
%TO.P,J1,4*%
%TO.N,/AC4*%
X28250000Y-85000000D03*
%TO.P,J1,3*%
%TO.N,GND*%
X28250000Y-90000000D03*
%TO.P,J1,2*%
X28250000Y-95000000D03*
D18*
%TO.P,J1,1*%
%TO.N,/AC1*%
X28250000Y-100000000D03*
%TD*%
D16*
%TO.P,C14,2*%
%TO.N,Net-(C14-Pad2)*%
X140750000Y-84750000D03*
%TO.P,C14,1*%
%TO.N,GND*%
X140750000Y-89750000D03*
%TD*%
%TO.P,C13,2*%
%TO.N,Net-(C13-Pad2)*%
X140750000Y-108000000D03*
%TO.P,C13,1*%
%TO.N,/OV+*%
X140750000Y-113000000D03*
%TD*%
%TO.P,C12,2*%
%TO.N,/OV-*%
X144000000Y-77500000D03*
%TO.P,C12,1*%
%TO.N,GND*%
X144000000Y-82500000D03*
%TD*%
%TO.P,C11,2*%
%TO.N,GND*%
X144000000Y-103000000D03*
%TO.P,C11,1*%
%TO.N,/OV+*%
X144000000Y-108000000D03*
%TD*%
D15*
%TO.P,R12,2*%
%TO.N,Net-(D3-Pad1)*%
X147250000Y-79840000D03*
D16*
%TO.P,R12,1*%
%TO.N,GND*%
X147250000Y-90000000D03*
%TD*%
D15*
%TO.P,R11,2*%
%TO.N,Net-(D2-Pad1)*%
X147250000Y-98090000D03*
D16*
%TO.P,R11,1*%
%TO.N,/OV+*%
X147250000Y-108250000D03*
%TD*%
D15*
%TO.P,R10,2*%
%TO.N,Net-(J3-Pad1)*%
X150500000Y-79840000D03*
D16*
%TO.P,R10,1*%
%TO.N,GND*%
X150500000Y-90000000D03*
%TD*%
D15*
%TO.P,R9,2*%
%TO.N,Net-(J2-Pad1)*%
X150500000Y-106660000D03*
D16*
%TO.P,R9,1*%
%TO.N,/OV+*%
X150500000Y-96500000D03*
%TD*%
D19*
%TO.P,R6,2*%
%TO.N,/RV-*%
X110000000Y-69680000D03*
D20*
%TO.P,R6,1*%
%TO.N,/OV-*%
X110000000Y-90000000D03*
%TD*%
D19*
%TO.P,R5,2*%
%TO.N,/RV-*%
X103500000Y-69680000D03*
D20*
%TO.P,R5,1*%
%TO.N,/OV-*%
X103500000Y-90000000D03*
%TD*%
D19*
%TO.P,R4,2*%
%TO.N,/RV+*%
X110000000Y-115320000D03*
D20*
%TO.P,R4,1*%
%TO.N,/OV+*%
X110000000Y-95000000D03*
%TD*%
D19*
%TO.P,R3,2*%
%TO.N,/RV+*%
X103500000Y-115320000D03*
D20*
%TO.P,R3,1*%
%TO.N,/OV+*%
X103500000Y-95000000D03*
%TD*%
D15*
%TO.P,R2,2*%
%TO.N,/RV-*%
X98500000Y-69590000D03*
D16*
%TO.P,R2,1*%
%TO.N,Net-(C8-Pad2)*%
X98500000Y-79750000D03*
%TD*%
D15*
%TO.P,R1,2*%
%TO.N,GND*%
X98500000Y-96840000D03*
D16*
%TO.P,R1,1*%
%TO.N,Net-(C7-Pad2)*%
X98500000Y-107000000D03*
%TD*%
D21*
%TO.P,D1,4*%
%TO.N,/RV-*%
X35500000Y-81250000D03*
%TO.P,D1,3*%
%TO.N,/AC4*%
X35500000Y-88750000D03*
%TO.P,D1,2*%
%TO.N,/AC1*%
X35500000Y-96250000D03*
%TO.P,D1,1*%
%TO.N,/RV+*%
X35500000Y-106250000D03*
%TD*%
D22*
%TO.P,C10,2*%
%TO.N,/OV-*%
X126250000Y-74500000D03*
D23*
%TO.P,C10,1*%
%TO.N,GND*%
X126250000Y-84500000D03*
%TD*%
D22*
%TO.P,C9,2*%
%TO.N,GND*%
X126250000Y-100500000D03*
D23*
%TO.P,C9,1*%
%TO.N,/OV+*%
X126250000Y-110500000D03*
%TD*%
D16*
%TO.P,C8,2*%
%TO.N,Net-(C8-Pad2)*%
X98500000Y-83000000D03*
%TO.P,C8,1*%
%TO.N,GND*%
X98500000Y-88000000D03*
%TD*%
%TO.P,C7,2*%
%TO.N,Net-(C7-Pad2)*%
X98500000Y-110250000D03*
%TO.P,C7,1*%
%TO.N,/RV+*%
X98500000Y-115250000D03*
%TD*%
%TO.P,C6,2*%
%TO.N,/RV-*%
X69500000Y-77000000D03*
%TO.P,C6,1*%
%TO.N,GND*%
X69500000Y-82000000D03*
%TD*%
%TO.P,C5,2*%
%TO.N,GND*%
X69500000Y-103000000D03*
%TO.P,C5,1*%
%TO.N,/RV+*%
X69500000Y-108000000D03*
%TD*%
D22*
%TO.P,C4,2*%
%TO.N,/RV-*%
X84000000Y-74500000D03*
D23*
%TO.P,C4,1*%
%TO.N,GND*%
X84000000Y-84500000D03*
%TD*%
D22*
%TO.P,C3,2*%
%TO.N,GND*%
X84000000Y-100500000D03*
D23*
%TO.P,C3,1*%
%TO.N,/RV+*%
X84000000Y-110500000D03*
%TD*%
D22*
%TO.P,C2,2*%
%TO.N,/RV-*%
X55000000Y-74500000D03*
D23*
%TO.P,C2,1*%
%TO.N,GND*%
X55000000Y-84500000D03*
%TD*%
D22*
%TO.P,C1,2*%
%TO.N,GND*%
X55000000Y-100500000D03*
D23*
%TO.P,C1,1*%
%TO.N,/RV+*%
X55000000Y-110500000D03*
%TD*%
D24*
%TO.N,GND*%
X147250000Y-92250000D03*
%TD*%
D25*
%TO.N,Net-(J2-Pad1)*%
X150500000Y-106660000D02*
X150500000Y-108500000D01*
X147000000Y-112000000D02*
X147000000Y-114500000D01*
X150500000Y-108500000D02*
X147000000Y-112000000D01*
%TO.N,Net-(J3-Pad1)*%
X150500000Y-70750000D02*
X150750000Y-70500000D01*
X150500000Y-79840000D02*
X150500000Y-70750000D01*
%TD*%
D26*
%TO.N,GND*%
G36*
X157521077Y-66765412D02*
G01*
X156923260Y-67164860D01*
X156414860Y-67673260D01*
X156015412Y-68271077D01*
X155740267Y-68935334D01*
X155600000Y-69640506D01*
X155600000Y-70359494D01*
X155740267Y-71064666D01*
X156015412Y-71728923D01*
X156414860Y-72326740D01*
X156923260Y-72835140D01*
X157521077Y-73234588D01*
X158185334Y-73509733D01*
X158890506Y-73650000D01*
X159609494Y-73650000D01*
X160314666Y-73509733D01*
X160978923Y-73234588D01*
X161576740Y-72835140D01*
X162085140Y-72326740D01*
X162484588Y-71728923D01*
X162759733Y-71064666D01*
X162900000Y-70359494D01*
X162900000Y-69640506D01*
X162759733Y-68935334D01*
X162484588Y-68271077D01*
X162085140Y-67673260D01*
X161576740Y-67164860D01*
X160978923Y-66765412D01*
X160881360Y-66725000D01*
X164525000Y-66725000D01*
X164525001Y-118275000D01*
X160881360Y-118275000D01*
X160978923Y-118234588D01*
X161576740Y-117835140D01*
X162085140Y-117326740D01*
X162484588Y-116728923D01*
X162759733Y-116064666D01*
X162900000Y-115359494D01*
X162900000Y-114640506D01*
X162759733Y-113935334D01*
X162484588Y-113271077D01*
X162085140Y-112673260D01*
X161576740Y-112164860D01*
X160978923Y-111765412D01*
X160314666Y-111490267D01*
X159609494Y-111350000D01*
X158890506Y-111350000D01*
X158185334Y-111490267D01*
X157521077Y-111765412D01*
X156923260Y-112164860D01*
X156414860Y-112673260D01*
X156015412Y-113271077D01*
X155740267Y-113935334D01*
X155600000Y-114640506D01*
X155600000Y-115359494D01*
X155740267Y-116064666D01*
X156015412Y-116728923D01*
X156414860Y-117326740D01*
X156923260Y-117835140D01*
X157521077Y-118234588D01*
X157618640Y-118275000D01*
X27881360Y-118275000D01*
X27978923Y-118234588D01*
X28576740Y-117835140D01*
X29085140Y-117326740D01*
X29484588Y-116728923D01*
X29759733Y-116064666D01*
X29900000Y-115359494D01*
X29900000Y-115126886D01*
X97250000Y-115126886D01*
X97250000Y-115373114D01*
X97298037Y-115614611D01*
X97392265Y-115842097D01*
X97529062Y-116046828D01*
X97703172Y-116220938D01*
X97907903Y-116357735D01*
X98135389Y-116451963D01*
X98376886Y-116500000D01*
X98623114Y-116500000D01*
X98864611Y-116451963D01*
X99092097Y-116357735D01*
X99296828Y-116220938D01*
X99470938Y-116046828D01*
X99607735Y-115842097D01*
X99701963Y-115614611D01*
X99750000Y-115373114D01*
X99750000Y-115137791D01*
X101650000Y-115137791D01*
X101650000Y-115502209D01*
X101721095Y-115859625D01*
X101860552Y-116196303D01*
X102063011Y-116499306D01*
X102320694Y-116756989D01*
X102623697Y-116959448D01*
X102960375Y-117098905D01*
X103317791Y-117170000D01*
X103682209Y-117170000D01*
X104039625Y-117098905D01*
X104376303Y-116959448D01*
X104679306Y-116756989D01*
X104936989Y-116499306D01*
X105139448Y-116196303D01*
X105278905Y-115859625D01*
X105350000Y-115502209D01*
X105350000Y-115137791D01*
X108150000Y-115137791D01*
X108150000Y-115502209D01*
X108221095Y-115859625D01*
X108360552Y-116196303D01*
X108563011Y-116499306D01*
X108820694Y-116756989D01*
X109123697Y-116959448D01*
X109460375Y-117098905D01*
X109817791Y-117170000D01*
X110182209Y-117170000D01*
X110539625Y-117098905D01*
X110876303Y-116959448D01*
X111179306Y-116756989D01*
X111436989Y-116499306D01*
X111639448Y-116196303D01*
X111778905Y-115859625D01*
X111850000Y-115502209D01*
X111850000Y-115137791D01*
X111778905Y-114780375D01*
X111639448Y-114443697D01*
X111436989Y-114140694D01*
X111179306Y-113883011D01*
X110876303Y-113680552D01*
X110539625Y-113541095D01*
X110182209Y-113470000D01*
X109817791Y-113470000D01*
X109460375Y-113541095D01*
X109123697Y-113680552D01*
X108820694Y-113883011D01*
X108563011Y-114140694D01*
X108360552Y-114443697D01*
X108221095Y-114780375D01*
X108150000Y-115137791D01*
X105350000Y-115137791D01*
X105278905Y-114780375D01*
X105139448Y-114443697D01*
X104936989Y-114140694D01*
X104679306Y-113883011D01*
X104376303Y-113680552D01*
X104039625Y-113541095D01*
X103682209Y-113470000D01*
X103317791Y-113470000D01*
X102960375Y-113541095D01*
X102623697Y-113680552D01*
X102320694Y-113883011D01*
X102063011Y-114140694D01*
X101860552Y-114443697D01*
X101721095Y-114780375D01*
X101650000Y-115137791D01*
X99750000Y-115137791D01*
X99750000Y-115126886D01*
X99701963Y-114885389D01*
X99607735Y-114657903D01*
X99470938Y-114453172D01*
X99296828Y-114279062D01*
X99092097Y-114142265D01*
X98864611Y-114048037D01*
X98623114Y-114000000D01*
X98376886Y-114000000D01*
X98135389Y-114048037D01*
X97907903Y-114142265D01*
X97703172Y-114279062D01*
X97529062Y-114453172D01*
X97392265Y-114657903D01*
X97298037Y-114885389D01*
X97250000Y-115126886D01*
X29900000Y-115126886D01*
X29900000Y-114640506D01*
X29759733Y-113935334D01*
X29484588Y-113271077D01*
X29085140Y-112673260D01*
X28576740Y-112164860D01*
X27978923Y-111765412D01*
X27314666Y-111490267D01*
X26609494Y-111350000D01*
X25890506Y-111350000D01*
X25185334Y-111490267D01*
X24521077Y-111765412D01*
X23923260Y-112164860D01*
X23414860Y-112673260D01*
X23015412Y-113271077D01*
X22975000Y-113368640D01*
X22975000Y-108500000D01*
X52547823Y-108500000D01*
X52547823Y-112500000D01*
X52556511Y-112588215D01*
X52582243Y-112673041D01*
X52624029Y-112751216D01*
X52680263Y-112819737D01*
X52748784Y-112875971D01*
X52826959Y-112917757D01*
X52911785Y-112943489D01*
X53000000Y-112952177D01*
X57000000Y-112952177D01*
X57088215Y-112943489D01*
X57173041Y-112917757D01*
X57251216Y-112875971D01*
X57319737Y-112819737D01*
X57375971Y-112751216D01*
X57417757Y-112673041D01*
X57443489Y-112588215D01*
X57452177Y-112500000D01*
X57452177Y-108500000D01*
X57443489Y-108411785D01*
X57417757Y-108326959D01*
X57375971Y-108248784D01*
X57319737Y-108180263D01*
X57251216Y-108124029D01*
X57173041Y-108082243D01*
X57088215Y-108056511D01*
X57000000Y-108047823D01*
X53000000Y-108047823D01*
X52911785Y-108056511D01*
X52826959Y-108082243D01*
X52748784Y-108124029D01*
X52680263Y-108180263D01*
X52624029Y-108248784D01*
X52582243Y-108326959D01*
X52556511Y-108411785D01*
X52547823Y-108500000D01*
X22975000Y-108500000D01*
X22975000Y-105783680D01*
X34150000Y-105783680D01*
X34150000Y-106716321D01*
X34169533Y-106914646D01*
X34246728Y-107169122D01*
X34372085Y-107403649D01*
X34540788Y-107609213D01*
X34746352Y-107777915D01*
X34980879Y-107903272D01*
X35235355Y-107980467D01*
X35500000Y-108006532D01*
X35764646Y-107980467D01*
X36019122Y-107903272D01*
X36068486Y-107876886D01*
X68250000Y-107876886D01*
X68250000Y-108123114D01*
X68298037Y-108364611D01*
X68392265Y-108592097D01*
X68529062Y-108796828D01*
X68703172Y-108970938D01*
X68907903Y-109107735D01*
X69135389Y-109201963D01*
X69376886Y-109250000D01*
X69623114Y-109250000D01*
X69864611Y-109201963D01*
X70092097Y-109107735D01*
X70296828Y-108970938D01*
X70470938Y-108796828D01*
X70607735Y-108592097D01*
X70645882Y-108500000D01*
X81547823Y-108500000D01*
X81547823Y-112500000D01*
X81556511Y-112588215D01*
X81582243Y-112673041D01*
X81624029Y-112751216D01*
X81680263Y-112819737D01*
X81748784Y-112875971D01*
X81826959Y-112917757D01*
X81911785Y-112943489D01*
X82000000Y-112952177D01*
X86000000Y-112952177D01*
X86088215Y-112943489D01*
X86173041Y-112917757D01*
X86251216Y-112875971D01*
X86319737Y-112819737D01*
X86375971Y-112751216D01*
X86417757Y-112673041D01*
X86443489Y-112588215D01*
X86452177Y-112500000D01*
X86452177Y-110126886D01*
X97250000Y-110126886D01*
X97250000Y-110373114D01*
X97298037Y-110614611D01*
X97392265Y-110842097D01*
X97529062Y-111046828D01*
X97703172Y-111220938D01*
X97907903Y-111357735D01*
X98135389Y-111451963D01*
X98376886Y-111500000D01*
X98623114Y-111500000D01*
X98864611Y-111451963D01*
X99092097Y-111357735D01*
X99296828Y-111220938D01*
X99470938Y-111046828D01*
X99607735Y-110842097D01*
X99701963Y-110614611D01*
X99750000Y-110373114D01*
X99750000Y-110126886D01*
X99701963Y-109885389D01*
X99607735Y-109657903D01*
X99470938Y-109453172D01*
X99296828Y-109279062D01*
X99092097Y-109142265D01*
X98864611Y-109048037D01*
X98623114Y-109000000D01*
X98376886Y-109000000D01*
X98135389Y-109048037D01*
X97907903Y-109142265D01*
X97703172Y-109279062D01*
X97529062Y-109453172D01*
X97392265Y-109657903D01*
X97298037Y-109885389D01*
X97250000Y-110126886D01*
X86452177Y-110126886D01*
X86452177Y-108500000D01*
X123797823Y-108500000D01*
X123797823Y-112500000D01*
X123806511Y-112588215D01*
X123832243Y-112673041D01*
X123874029Y-112751216D01*
X123930263Y-112819737D01*
X123998784Y-112875971D01*
X124076959Y-112917757D01*
X124161785Y-112943489D01*
X124250000Y-112952177D01*
X128250000Y-112952177D01*
X128338215Y-112943489D01*
X128423041Y-112917757D01*
X128499504Y-112876886D01*
X139500000Y-112876886D01*
X139500000Y-113123114D01*
X139548037Y-113364611D01*
X139642265Y-113592097D01*
X139779062Y-113796828D01*
X139953172Y-113970938D01*
X140157903Y-114107735D01*
X140385389Y-114201963D01*
X140626886Y-114250000D01*
X140873114Y-114250000D01*
X141114611Y-114201963D01*
X141342097Y-114107735D01*
X141546828Y-113970938D01*
X141720938Y-113796828D01*
X141857735Y-113592097D01*
X141951963Y-113364611D01*
X141954869Y-113350000D01*
X145397823Y-113350000D01*
X145397823Y-115650000D01*
X145406511Y-115738215D01*
X145432243Y-115823041D01*
X145474029Y-115901216D01*
X145530263Y-115969737D01*
X145598784Y-116025971D01*
X145676959Y-116067757D01*
X145761785Y-116093489D01*
X145850000Y-116102177D01*
X148150000Y-116102177D01*
X148238215Y-116093489D01*
X148323041Y-116067757D01*
X148401216Y-116025971D01*
X148469737Y-115969737D01*
X148525971Y-115901216D01*
X148567757Y-115823041D01*
X148593489Y-115738215D01*
X148602177Y-115650000D01*
X148602177Y-115592060D01*
X149478651Y-115592060D01*
X149595901Y-115829451D01*
X149872636Y-115980286D01*
X150173480Y-116074235D01*
X150486872Y-116107688D01*
X150800769Y-116079358D01*
X151103107Y-115990334D01*
X151382268Y-115844037D01*
X151404099Y-115829451D01*
X151521349Y-115592060D01*
X150500000Y-114570711D01*
X149478651Y-115592060D01*
X148602177Y-115592060D01*
X148602177Y-114486872D01*
X148892312Y-114486872D01*
X148920642Y-114800769D01*
X149009666Y-115103107D01*
X149155963Y-115382268D01*
X149170549Y-115404099D01*
X149407940Y-115521349D01*
X150429289Y-114500000D01*
X150570711Y-114500000D01*
X151592060Y-115521349D01*
X151829451Y-115404099D01*
X151980286Y-115127364D01*
X152074235Y-114826520D01*
X152107688Y-114513128D01*
X152079358Y-114199231D01*
X151990334Y-113896893D01*
X151844037Y-113617732D01*
X151829451Y-113595901D01*
X151592060Y-113478651D01*
X150570711Y-114500000D01*
X150429289Y-114500000D01*
X149407940Y-113478651D01*
X149170549Y-113595901D01*
X149019714Y-113872636D01*
X148925765Y-114173480D01*
X148892312Y-114486872D01*
X148602177Y-114486872D01*
X148602177Y-113407940D01*
X149478651Y-113407940D01*
X150500000Y-114429289D01*
X151521349Y-113407940D01*
X151404099Y-113170549D01*
X151127364Y-113019714D01*
X150826520Y-112925765D01*
X150513128Y-112892312D01*
X150199231Y-112920642D01*
X149896893Y-113009666D01*
X149617732Y-113155963D01*
X149595901Y-113170549D01*
X149478651Y-113407940D01*
X148602177Y-113407940D01*
X148602177Y-113350000D01*
X148593489Y-113261785D01*
X148567757Y-113176959D01*
X148525971Y-113098784D01*
X148469737Y-113030263D01*
X148401216Y-112974029D01*
X148323041Y-112932243D01*
X148238215Y-112906511D01*
X148150000Y-112897823D01*
X147950000Y-112897823D01*
X147950000Y-112393502D01*
X151138757Y-109204746D01*
X151175001Y-109175001D01*
X151293718Y-109030345D01*
X151381932Y-108865308D01*
X151436254Y-108686232D01*
X151450000Y-108546665D01*
X151450000Y-108546656D01*
X151454595Y-108500001D01*
X151450000Y-108453346D01*
X151450000Y-107477766D01*
X151470938Y-107456828D01*
X151607735Y-107252097D01*
X151701963Y-107024611D01*
X151750000Y-106783114D01*
X151750000Y-106536886D01*
X151701963Y-106295389D01*
X151607735Y-106067903D01*
X151470938Y-105863172D01*
X151296828Y-105689062D01*
X151092097Y-105552265D01*
X150864611Y-105458037D01*
X150623114Y-105410000D01*
X150376886Y-105410000D01*
X150135389Y-105458037D01*
X149907903Y-105552265D01*
X149703172Y-105689062D01*
X149529062Y-105863172D01*
X149392265Y-106067903D01*
X149298037Y-106295389D01*
X149250000Y-106536886D01*
X149250000Y-106783114D01*
X149298037Y-107024611D01*
X149392265Y-107252097D01*
X149529062Y-107456828D01*
X149550000Y-107477766D01*
X149550001Y-108106496D01*
X146361248Y-111295250D01*
X146324999Y-111324999D01*
X146206282Y-111469655D01*
X146118068Y-111634693D01*
X146063746Y-111813769D01*
X146050000Y-111953336D01*
X146050000Y-111953346D01*
X146045405Y-112000000D01*
X146050000Y-112046655D01*
X146050000Y-112897823D01*
X145850000Y-112897823D01*
X145761785Y-112906511D01*
X145676959Y-112932243D01*
X145598784Y-112974029D01*
X145530263Y-113030263D01*
X145474029Y-113098784D01*
X145432243Y-113176959D01*
X145406511Y-113261785D01*
X145397823Y-113350000D01*
X141954869Y-113350000D01*
X142000000Y-113123114D01*
X142000000Y-112876886D01*
X141951963Y-112635389D01*
X141857735Y-112407903D01*
X141720938Y-112203172D01*
X141546828Y-112029062D01*
X141342097Y-111892265D01*
X141114611Y-111798037D01*
X140873114Y-111750000D01*
X140626886Y-111750000D01*
X140385389Y-111798037D01*
X140157903Y-111892265D01*
X139953172Y-112029062D01*
X139779062Y-112203172D01*
X139642265Y-112407903D01*
X139548037Y-112635389D01*
X139500000Y-112876886D01*
X128499504Y-112876886D01*
X128501216Y-112875971D01*
X128569737Y-112819737D01*
X128625971Y-112751216D01*
X128667757Y-112673041D01*
X128693489Y-112588215D01*
X128702177Y-112500000D01*
X128702177Y-108500000D01*
X128693489Y-108411785D01*
X128667757Y-108326959D01*
X128625971Y-108248784D01*
X128569737Y-108180263D01*
X128501216Y-108124029D01*
X128423041Y-108082243D01*
X128338215Y-108056511D01*
X128250000Y-108047823D01*
X124250000Y-108047823D01*
X124161785Y-108056511D01*
X124076959Y-108082243D01*
X123998784Y-108124029D01*
X123930263Y-108180263D01*
X123874029Y-108248784D01*
X123832243Y-108326959D01*
X123806511Y-108411785D01*
X123797823Y-108500000D01*
X86452177Y-108500000D01*
X86443489Y-108411785D01*
X86417757Y-108326959D01*
X86375971Y-108248784D01*
X86319737Y-108180263D01*
X86251216Y-108124029D01*
X86173041Y-108082243D01*
X86088215Y-108056511D01*
X86000000Y-108047823D01*
X82000000Y-108047823D01*
X81911785Y-108056511D01*
X81826959Y-108082243D01*
X81748784Y-108124029D01*
X81680263Y-108180263D01*
X81624029Y-108248784D01*
X81582243Y-108326959D01*
X81556511Y-108411785D01*
X81547823Y-108500000D01*
X70645882Y-108500000D01*
X70701963Y-108364611D01*
X70750000Y-108123114D01*
X70750000Y-107876886D01*
X70701963Y-107635389D01*
X70607735Y-107407903D01*
X70470938Y-107203172D01*
X70296828Y-107029062D01*
X70092097Y-106892265D01*
X70054969Y-106876886D01*
X97250000Y-106876886D01*
X97250000Y-107123114D01*
X97298037Y-107364611D01*
X97392265Y-107592097D01*
X97529062Y-107796828D01*
X97703172Y-107970938D01*
X97907903Y-108107735D01*
X98135389Y-108201963D01*
X98376886Y-108250000D01*
X98623114Y-108250000D01*
X98864611Y-108201963D01*
X99092097Y-108107735D01*
X99296828Y-107970938D01*
X99390880Y-107876886D01*
X139500000Y-107876886D01*
X139500000Y-108123114D01*
X139548037Y-108364611D01*
X139642265Y-108592097D01*
X139779062Y-108796828D01*
X139953172Y-108970938D01*
X140157903Y-109107735D01*
X140385389Y-109201963D01*
X140626886Y-109250000D01*
X140873114Y-109250000D01*
X141114611Y-109201963D01*
X141342097Y-109107735D01*
X141546828Y-108970938D01*
X141720938Y-108796828D01*
X141857735Y-108592097D01*
X141951963Y-108364611D01*
X142000000Y-108123114D01*
X142000000Y-107876886D01*
X142750000Y-107876886D01*
X142750000Y-108123114D01*
X142798037Y-108364611D01*
X142892265Y-108592097D01*
X143029062Y-108796828D01*
X143203172Y-108970938D01*
X143407903Y-109107735D01*
X143635389Y-109201963D01*
X143876886Y-109250000D01*
X144123114Y-109250000D01*
X144364611Y-109201963D01*
X144592097Y-109107735D01*
X144796828Y-108970938D01*
X144970938Y-108796828D01*
X145107735Y-108592097D01*
X145201963Y-108364611D01*
X145249249Y-108126886D01*
X146000000Y-108126886D01*
X146000000Y-108373114D01*
X146048037Y-108614611D01*
X146142265Y-108842097D01*
X146279062Y-109046828D01*
X146453172Y-109220938D01*
X146657903Y-109357735D01*
X146885389Y-109451963D01*
X147126886Y-109500000D01*
X147373114Y-109500000D01*
X147614611Y-109451963D01*
X147842097Y-109357735D01*
X148046828Y-109220938D01*
X148220938Y-109046828D01*
X148357735Y-108842097D01*
X148451963Y-108614611D01*
X148500000Y-108373114D01*
X148500000Y-108126886D01*
X148451963Y-107885389D01*
X148357735Y-107657903D01*
X148220938Y-107453172D01*
X148046828Y-107279062D01*
X147842097Y-107142265D01*
X147614611Y-107048037D01*
X147373114Y-107000000D01*
X147126886Y-107000000D01*
X146885389Y-107048037D01*
X146657903Y-107142265D01*
X146453172Y-107279062D01*
X146279062Y-107453172D01*
X146142265Y-107657903D01*
X146048037Y-107885389D01*
X146000000Y-108126886D01*
X145249249Y-108126886D01*
X145250000Y-108123114D01*
X145250000Y-107876886D01*
X145201963Y-107635389D01*
X145107735Y-107407903D01*
X144970938Y-107203172D01*
X144796828Y-107029062D01*
X144592097Y-106892265D01*
X144364611Y-106798037D01*
X144123114Y-106750000D01*
X143876886Y-106750000D01*
X143635389Y-106798037D01*
X143407903Y-106892265D01*
X143203172Y-107029062D01*
X143029062Y-107203172D01*
X142892265Y-107407903D01*
X142798037Y-107635389D01*
X142750000Y-107876886D01*
X142000000Y-107876886D01*
X141951963Y-107635389D01*
X141857735Y-107407903D01*
X141720938Y-107203172D01*
X141546828Y-107029062D01*
X141342097Y-106892265D01*
X141114611Y-106798037D01*
X140873114Y-106750000D01*
X140626886Y-106750000D01*
X140385389Y-106798037D01*
X140157903Y-106892265D01*
X139953172Y-107029062D01*
X139779062Y-107203172D01*
X139642265Y-107407903D01*
X139548037Y-107635389D01*
X139500000Y-107876886D01*
X99390880Y-107876886D01*
X99470938Y-107796828D01*
X99607735Y-107592097D01*
X99701963Y-107364611D01*
X99750000Y-107123114D01*
X99750000Y-106876886D01*
X99701963Y-106635389D01*
X99607735Y-106407903D01*
X99470938Y-106203172D01*
X99296828Y-106029062D01*
X99092097Y-105892265D01*
X98864611Y-105798037D01*
X98623114Y-105750000D01*
X98376886Y-105750000D01*
X98135389Y-105798037D01*
X97907903Y-105892265D01*
X97703172Y-106029062D01*
X97529062Y-106203172D01*
X97392265Y-106407903D01*
X97298037Y-106635389D01*
X97250000Y-106876886D01*
X70054969Y-106876886D01*
X69864611Y-106798037D01*
X69623114Y-106750000D01*
X69376886Y-106750000D01*
X69135389Y-106798037D01*
X68907903Y-106892265D01*
X68703172Y-107029062D01*
X68529062Y-107203172D01*
X68392265Y-107407903D01*
X68298037Y-107635389D01*
X68250000Y-107876886D01*
X36068486Y-107876886D01*
X36253649Y-107777915D01*
X36459213Y-107609213D01*
X36627915Y-107403649D01*
X36753272Y-107169122D01*
X36830467Y-106914646D01*
X36850000Y-106716320D01*
X36850000Y-105783679D01*
X36830467Y-105585354D01*
X36753272Y-105330878D01*
X36627915Y-105096351D01*
X36459212Y-104890787D01*
X36253648Y-104722085D01*
X36075543Y-104626886D01*
X139500000Y-104626886D01*
X139500000Y-104873114D01*
X139548037Y-105114611D01*
X139642265Y-105342097D01*
X139779062Y-105546828D01*
X139953172Y-105720938D01*
X140157903Y-105857735D01*
X140385389Y-105951963D01*
X140626886Y-106000000D01*
X140873114Y-106000000D01*
X141114611Y-105951963D01*
X141342097Y-105857735D01*
X141546828Y-105720938D01*
X141720938Y-105546828D01*
X141857735Y-105342097D01*
X141951963Y-105114611D01*
X142000000Y-104873114D01*
X142000000Y-104626886D01*
X141951963Y-104385389D01*
X141857735Y-104157903D01*
X141720938Y-103953172D01*
X141610958Y-103843192D01*
X143227518Y-103843192D01*
X143302750Y-104044748D01*
X143519967Y-104160701D01*
X143755632Y-104232049D01*
X144000689Y-104256049D01*
X144245718Y-104231780D01*
X144481305Y-104160174D01*
X144697250Y-104044748D01*
X144772482Y-103843192D01*
X144000000Y-103070711D01*
X143227518Y-103843192D01*
X141610958Y-103843192D01*
X141546828Y-103779062D01*
X141342097Y-103642265D01*
X141114611Y-103548037D01*
X140873114Y-103500000D01*
X140626886Y-103500000D01*
X140385389Y-103548037D01*
X140157903Y-103642265D01*
X139953172Y-103779062D01*
X139779062Y-103953172D01*
X139642265Y-104157903D01*
X139548037Y-104385389D01*
X139500000Y-104626886D01*
X36075543Y-104626886D01*
X36019121Y-104596728D01*
X35764645Y-104519533D01*
X35500000Y-104493468D01*
X35235354Y-104519533D01*
X34980878Y-104596728D01*
X34746351Y-104722085D01*
X34540787Y-104890788D01*
X34372085Y-105096352D01*
X34246728Y-105330879D01*
X34169533Y-105585355D01*
X34150000Y-105783680D01*
X22975000Y-105783680D01*
X22975000Y-103843192D01*
X68727518Y-103843192D01*
X68802750Y-104044748D01*
X69019967Y-104160701D01*
X69255632Y-104232049D01*
X69500689Y-104256049D01*
X69745718Y-104231780D01*
X69981305Y-104160174D01*
X70197250Y-104044748D01*
X70272482Y-103843192D01*
X69500000Y-103070711D01*
X68727518Y-103843192D01*
X22975000Y-103843192D01*
X22975000Y-103000689D01*
X68243951Y-103000689D01*
X68268220Y-103245718D01*
X68339826Y-103481305D01*
X68455252Y-103697250D01*
X68656808Y-103772482D01*
X69429289Y-103000000D01*
X69570711Y-103000000D01*
X70343192Y-103772482D01*
X70544748Y-103697250D01*
X70660701Y-103480033D01*
X70732049Y-103244368D01*
X70755914Y-103000689D01*
X142743951Y-103000689D01*
X142768220Y-103245718D01*
X142839826Y-103481305D01*
X142955252Y-103697250D01*
X143156808Y-103772482D01*
X143929289Y-103000000D01*
X144070711Y-103000000D01*
X144843192Y-103772482D01*
X145037380Y-103700000D01*
X157747823Y-103700000D01*
X157747823Y-106300000D01*
X157756511Y-106388215D01*
X157782243Y-106473041D01*
X157824029Y-106551216D01*
X157880263Y-106619737D01*
X157948784Y-106675971D01*
X158026959Y-106717757D01*
X158111785Y-106743489D01*
X158200000Y-106752177D01*
X160800000Y-106752177D01*
X160888215Y-106743489D01*
X160973041Y-106717757D01*
X161051216Y-106675971D01*
X161119737Y-106619737D01*
X161175971Y-106551216D01*
X161217757Y-106473041D01*
X161243489Y-106388215D01*
X161252177Y-106300000D01*
X161252177Y-103700000D01*
X161243489Y-103611785D01*
X161217757Y-103526959D01*
X161175971Y-103448784D01*
X161119737Y-103380263D01*
X161051216Y-103324029D01*
X160973041Y-103282243D01*
X160888215Y-103256511D01*
X160800000Y-103247823D01*
X158200000Y-103247823D01*
X158111785Y-103256511D01*
X158026959Y-103282243D01*
X157948784Y-103324029D01*
X157880263Y-103380263D01*
X157824029Y-103448784D01*
X157782243Y-103526959D01*
X157756511Y-103611785D01*
X157747823Y-103700000D01*
X145037380Y-103700000D01*
X145044748Y-103697250D01*
X145160701Y-103480033D01*
X145232049Y-103244368D01*
X145256049Y-102999311D01*
X145231780Y-102754282D01*
X145160174Y-102518695D01*
X145044748Y-102302750D01*
X144843192Y-102227518D01*
X144070711Y-103000000D01*
X143929289Y-103000000D01*
X143156808Y-102227518D01*
X142955252Y-102302750D01*
X142839299Y-102519967D01*
X142767951Y-102755632D01*
X142743951Y-103000689D01*
X70755914Y-103000689D01*
X70756049Y-102999311D01*
X70731780Y-102754282D01*
X70660174Y-102518695D01*
X70544748Y-102302750D01*
X70343192Y-102227518D01*
X69570711Y-103000000D01*
X69429289Y-103000000D01*
X68656808Y-102227518D01*
X68455252Y-102302750D01*
X68339299Y-102519967D01*
X68267951Y-102755632D01*
X68243951Y-103000689D01*
X22975000Y-103000689D01*
X22975000Y-102196224D01*
X53374487Y-102196224D01*
X53593707Y-102520661D01*
X54014940Y-102756189D01*
X54474029Y-102905013D01*
X54953330Y-102961413D01*
X55434424Y-102923223D01*
X55898825Y-102791910D01*
X56328683Y-102572520D01*
X56406293Y-102520661D01*
X56625513Y-102196224D01*
X56586097Y-102156808D01*
X68727518Y-102156808D01*
X69500000Y-102929289D01*
X70233065Y-102196224D01*
X82374487Y-102196224D01*
X82593707Y-102520661D01*
X83014940Y-102756189D01*
X83474029Y-102905013D01*
X83953330Y-102961413D01*
X84434424Y-102923223D01*
X84898825Y-102791910D01*
X85328683Y-102572520D01*
X85406293Y-102520661D01*
X85625513Y-102196224D01*
X124624487Y-102196224D01*
X124843707Y-102520661D01*
X125264940Y-102756189D01*
X125724029Y-102905013D01*
X126203330Y-102961413D01*
X126684424Y-102923223D01*
X127148825Y-102791910D01*
X127578683Y-102572520D01*
X127656293Y-102520661D01*
X127875513Y-102196224D01*
X127836097Y-102156808D01*
X143227518Y-102156808D01*
X144000000Y-102929289D01*
X144772482Y-102156808D01*
X144697250Y-101955252D01*
X144480033Y-101839299D01*
X144244368Y-101767951D01*
X143999311Y-101743951D01*
X143754282Y-101768220D01*
X143518695Y-101839826D01*
X143302750Y-101955252D01*
X143227518Y-102156808D01*
X127836097Y-102156808D01*
X126250000Y-100570711D01*
X124624487Y-102196224D01*
X85625513Y-102196224D01*
X84000000Y-100570711D01*
X82374487Y-102196224D01*
X70233065Y-102196224D01*
X70272482Y-102156808D01*
X70197250Y-101955252D01*
X69980033Y-101839299D01*
X69744368Y-101767951D01*
X69499311Y-101743951D01*
X69254282Y-101768220D01*
X69018695Y-101839826D01*
X68802750Y-101955252D01*
X68727518Y-102156808D01*
X56586097Y-102156808D01*
X55000000Y-100570711D01*
X53374487Y-102196224D01*
X22975000Y-102196224D01*
X22975000Y-98700000D01*
X26497823Y-98700000D01*
X26497823Y-101300000D01*
X26506511Y-101388215D01*
X26532243Y-101473041D01*
X26574029Y-101551216D01*
X26630263Y-101619737D01*
X26698784Y-101675971D01*
X26776959Y-101717757D01*
X26861785Y-101743489D01*
X26950000Y-101752177D01*
X29550000Y-101752177D01*
X29638215Y-101743489D01*
X29723041Y-101717757D01*
X29801216Y-101675971D01*
X29869737Y-101619737D01*
X29925971Y-101551216D01*
X29967757Y-101473041D01*
X29993489Y-101388215D01*
X30002177Y-101300000D01*
X30002177Y-100453330D01*
X52538587Y-100453330D01*
X52576777Y-100934424D01*
X52708090Y-101398825D01*
X52927480Y-101828683D01*
X52979339Y-101906293D01*
X53303776Y-102125513D01*
X54929289Y-100500000D01*
X55070711Y-100500000D01*
X56696224Y-102125513D01*
X57020661Y-101906293D01*
X57256189Y-101485060D01*
X57405013Y-101025971D01*
X57461413Y-100546670D01*
X57454004Y-100453330D01*
X81538587Y-100453330D01*
X81576777Y-100934424D01*
X81708090Y-101398825D01*
X81927480Y-101828683D01*
X81979339Y-101906293D01*
X82303776Y-102125513D01*
X83929289Y-100500000D01*
X84070711Y-100500000D01*
X85696224Y-102125513D01*
X86020661Y-101906293D01*
X86256189Y-101485060D01*
X86405013Y-101025971D01*
X86461413Y-100546670D01*
X86454004Y-100453330D01*
X123788587Y-100453330D01*
X123826777Y-100934424D01*
X123958090Y-101398825D01*
X124177480Y-101828683D01*
X124229339Y-101906293D01*
X124553776Y-102125513D01*
X126179289Y-100500000D01*
X126320711Y-100500000D01*
X127946224Y-102125513D01*
X128270661Y-101906293D01*
X128506189Y-101485060D01*
X128655013Y-101025971D01*
X128711413Y-100546670D01*
X128673223Y-100065576D01*
X128605945Y-99827640D01*
X157750000Y-99827640D01*
X157750000Y-100172360D01*
X157817251Y-100510456D01*
X157949170Y-100828936D01*
X158140686Y-101115560D01*
X158384440Y-101359314D01*
X158671064Y-101550830D01*
X158989544Y-101682749D01*
X159327640Y-101750000D01*
X159672360Y-101750000D01*
X160010456Y-101682749D01*
X160328936Y-101550830D01*
X160615560Y-101359314D01*
X160859314Y-101115560D01*
X161050830Y-100828936D01*
X161182749Y-100510456D01*
X161250000Y-100172360D01*
X161250000Y-99827640D01*
X161182749Y-99489544D01*
X161050830Y-99171064D01*
X160859314Y-98884440D01*
X160615560Y-98640686D01*
X160328936Y-98449170D01*
X160010456Y-98317251D01*
X159672360Y-98250000D01*
X159327640Y-98250000D01*
X158989544Y-98317251D01*
X158671064Y-98449170D01*
X158384440Y-98640686D01*
X158140686Y-98884440D01*
X157949170Y-99171064D01*
X157817251Y-99489544D01*
X157750000Y-99827640D01*
X128605945Y-99827640D01*
X128541910Y-99601175D01*
X128322520Y-99171317D01*
X128270661Y-99093707D01*
X127946224Y-98874487D01*
X126320711Y-100500000D01*
X126179289Y-100500000D01*
X124553776Y-98874487D01*
X124229339Y-99093707D01*
X123993811Y-99514940D01*
X123844987Y-99974029D01*
X123788587Y-100453330D01*
X86454004Y-100453330D01*
X86423223Y-100065576D01*
X86291910Y-99601175D01*
X86072520Y-99171317D01*
X86020661Y-99093707D01*
X85696224Y-98874487D01*
X84070711Y-100500000D01*
X83929289Y-100500000D01*
X82303776Y-98874487D01*
X81979339Y-99093707D01*
X81743811Y-99514940D01*
X81594987Y-99974029D01*
X81538587Y-100453330D01*
X57454004Y-100453330D01*
X57423223Y-100065576D01*
X57291910Y-99601175D01*
X57072520Y-99171317D01*
X57020661Y-99093707D01*
X56696224Y-98874487D01*
X55070711Y-100500000D01*
X54929289Y-100500000D01*
X53303776Y-98874487D01*
X52979339Y-99093707D01*
X52743811Y-99514940D01*
X52594987Y-99974029D01*
X52538587Y-100453330D01*
X30002177Y-100453330D01*
X30002177Y-98803776D01*
X53374487Y-98803776D01*
X55000000Y-100429289D01*
X56625513Y-98803776D01*
X82374487Y-98803776D01*
X84000000Y-100429289D01*
X85625513Y-98803776D01*
X124624487Y-98803776D01*
X126250000Y-100429289D01*
X127875513Y-98803776D01*
X127656293Y-98479339D01*
X127235060Y-98243811D01*
X126775971Y-98094987D01*
X126296670Y-98038587D01*
X125815576Y-98076777D01*
X125351175Y-98208090D01*
X124921317Y-98427480D01*
X124843707Y-98479339D01*
X124624487Y-98803776D01*
X85625513Y-98803776D01*
X85406293Y-98479339D01*
X84985060Y-98243811D01*
X84525971Y-98094987D01*
X84046670Y-98038587D01*
X83565576Y-98076777D01*
X83101175Y-98208090D01*
X82671317Y-98427480D01*
X82593707Y-98479339D01*
X82374487Y-98803776D01*
X56625513Y-98803776D01*
X56406293Y-98479339D01*
X55985060Y-98243811D01*
X55525971Y-98094987D01*
X55046670Y-98038587D01*
X54565576Y-98076777D01*
X54101175Y-98208090D01*
X53671317Y-98427480D01*
X53593707Y-98479339D01*
X53374487Y-98803776D01*
X30002177Y-98803776D01*
X30002177Y-98700000D01*
X29993489Y-98611785D01*
X29967757Y-98526959D01*
X29925971Y-98448784D01*
X29869737Y-98380263D01*
X29801216Y-98324029D01*
X29723041Y-98282243D01*
X29638215Y-98256511D01*
X29550000Y-98247823D01*
X26950000Y-98247823D01*
X26861785Y-98256511D01*
X26776959Y-98282243D01*
X26698784Y-98324029D01*
X26630263Y-98380263D01*
X26574029Y-98448784D01*
X26532243Y-98526959D01*
X26506511Y-98611785D01*
X26497823Y-98700000D01*
X22975000Y-98700000D01*
X22975000Y-96198693D01*
X27122018Y-96198693D01*
X27257267Y-96451444D01*
X27559505Y-96617227D01*
X27888278Y-96720862D01*
X28230952Y-96758364D01*
X28574358Y-96728293D01*
X28905299Y-96631805D01*
X29211057Y-96472608D01*
X29242733Y-96451444D01*
X29377982Y-96198693D01*
X28250000Y-95070711D01*
X27122018Y-96198693D01*
X22975000Y-96198693D01*
X22975000Y-94980952D01*
X26491636Y-94980952D01*
X26521707Y-95324358D01*
X26618195Y-95655299D01*
X26777392Y-95961057D01*
X26798556Y-95992733D01*
X27051307Y-96127982D01*
X28179289Y-95000000D01*
X28320711Y-95000000D01*
X29448693Y-96127982D01*
X29701444Y-95992733D01*
X29816113Y-95783680D01*
X34150000Y-95783680D01*
X34150000Y-96716321D01*
X34169533Y-96914646D01*
X34246728Y-97169122D01*
X34372085Y-97403649D01*
X34540788Y-97609213D01*
X34746352Y-97777915D01*
X34980879Y-97903272D01*
X35235355Y-97980467D01*
X35500000Y-98006532D01*
X35764646Y-97980467D01*
X36019122Y-97903272D01*
X36253649Y-97777915D01*
X36459213Y-97609213D01*
X36627915Y-97403649D01*
X36753272Y-97169122D01*
X36830467Y-96914646D01*
X36850000Y-96716320D01*
X36850000Y-96117037D01*
X38650000Y-96117037D01*
X38650000Y-96382963D01*
X38701880Y-96643780D01*
X38803646Y-96889465D01*
X38951387Y-97110575D01*
X39139425Y-97298613D01*
X39360535Y-97446354D01*
X39606220Y-97548120D01*
X39867037Y-97600000D01*
X40132963Y-97600000D01*
X40393780Y-97548120D01*
X40639465Y-97446354D01*
X40860575Y-97298613D01*
X41048613Y-97110575D01*
X41065854Y-97084771D01*
X97274197Y-97084771D01*
X97345503Y-97319210D01*
X97461176Y-97535233D01*
X97616770Y-97724539D01*
X97806306Y-97879852D01*
X98022500Y-97995205D01*
X98255229Y-98065801D01*
X98450000Y-97976401D01*
X98450000Y-96890000D01*
X98550000Y-96890000D01*
X98550000Y-97976401D01*
X98744771Y-98065801D01*
X98977500Y-97995205D01*
X99030575Y-97966886D01*
X146000000Y-97966886D01*
X146000000Y-98213114D01*
X146048037Y-98454611D01*
X146142265Y-98682097D01*
X146279062Y-98886828D01*
X146453172Y-99060938D01*
X146657903Y-99197735D01*
X146885389Y-99291963D01*
X147126886Y-99340000D01*
X147373114Y-99340000D01*
X147614611Y-99291963D01*
X147842097Y-99197735D01*
X148046828Y-99060938D01*
X148220938Y-98886828D01*
X148357735Y-98682097D01*
X148451963Y-98454611D01*
X148500000Y-98213114D01*
X148500000Y-97966886D01*
X148451963Y-97725389D01*
X148357735Y-97497903D01*
X148220938Y-97293172D01*
X148046828Y-97119062D01*
X147842097Y-96982265D01*
X147614611Y-96888037D01*
X147373114Y-96840000D01*
X147126886Y-96840000D01*
X146885389Y-96888037D01*
X146657903Y-96982265D01*
X146453172Y-97119062D01*
X146279062Y-97293172D01*
X146142265Y-97497903D01*
X146048037Y-97725389D01*
X146000000Y-97966886D01*
X99030575Y-97966886D01*
X99193694Y-97879852D01*
X99383230Y-97724539D01*
X99538824Y-97535233D01*
X99654497Y-97319210D01*
X99725803Y-97084771D01*
X99636502Y-96890000D01*
X98550000Y-96890000D01*
X98450000Y-96890000D01*
X97363498Y-96890000D01*
X97274197Y-97084771D01*
X41065854Y-97084771D01*
X41196354Y-96889465D01*
X41298120Y-96643780D01*
X41307777Y-96595229D01*
X97274197Y-96595229D01*
X97363498Y-96790000D01*
X98450000Y-96790000D01*
X98450000Y-95703599D01*
X98550000Y-95703599D01*
X98550000Y-96790000D01*
X99636502Y-96790000D01*
X99725803Y-96595229D01*
X99654497Y-96360790D01*
X99538824Y-96144767D01*
X99383230Y-95955461D01*
X99193694Y-95800148D01*
X98977500Y-95684795D01*
X98744771Y-95614199D01*
X98550000Y-95703599D01*
X98450000Y-95703599D01*
X98255229Y-95614199D01*
X98022500Y-95684795D01*
X97806306Y-95800148D01*
X97616770Y-95955461D01*
X97461176Y-96144767D01*
X97345503Y-96360790D01*
X97274197Y-96595229D01*
X41307777Y-96595229D01*
X41350000Y-96382963D01*
X41350000Y-96117037D01*
X41298120Y-95856220D01*
X41196354Y-95610535D01*
X41048613Y-95389425D01*
X40860575Y-95201387D01*
X40639465Y-95053646D01*
X40393780Y-94951880D01*
X40132963Y-94900000D01*
X39867037Y-94900000D01*
X39606220Y-94951880D01*
X39360535Y-95053646D01*
X39139425Y-95201387D01*
X38951387Y-95389425D01*
X38803646Y-95610535D01*
X38701880Y-95856220D01*
X38650000Y-96117037D01*
X36850000Y-96117037D01*
X36850000Y-95783679D01*
X36830467Y-95585354D01*
X36753272Y-95330878D01*
X36627915Y-95096351D01*
X36459212Y-94890787D01*
X36370267Y-94817791D01*
X101650000Y-94817791D01*
X101650000Y-95182209D01*
X101721095Y-95539625D01*
X101860552Y-95876303D01*
X102063011Y-96179306D01*
X102320694Y-96436989D01*
X102623697Y-96639448D01*
X102960375Y-96778905D01*
X103317791Y-96850000D01*
X103682209Y-96850000D01*
X104039625Y-96778905D01*
X104376303Y-96639448D01*
X104679306Y-96436989D01*
X104936989Y-96179306D01*
X105139448Y-95876303D01*
X105278905Y-95539625D01*
X105350000Y-95182209D01*
X105350000Y-94817791D01*
X108150000Y-94817791D01*
X108150000Y-95182209D01*
X108221095Y-95539625D01*
X108360552Y-95876303D01*
X108563011Y-96179306D01*
X108820694Y-96436989D01*
X109123697Y-96639448D01*
X109460375Y-96778905D01*
X109817791Y-96850000D01*
X110182209Y-96850000D01*
X110539625Y-96778905D01*
X110876303Y-96639448D01*
X111179306Y-96436989D01*
X111239409Y-96376886D01*
X149250000Y-96376886D01*
X149250000Y-96623114D01*
X149298037Y-96864611D01*
X149392265Y-97092097D01*
X149529062Y-97296828D01*
X149703172Y-97470938D01*
X149907903Y-97607735D01*
X150135389Y-97701963D01*
X150376886Y-97750000D01*
X150623114Y-97750000D01*
X150864611Y-97701963D01*
X151092097Y-97607735D01*
X151296828Y-97470938D01*
X151470938Y-97296828D01*
X151607735Y-97092097D01*
X151701963Y-96864611D01*
X151750000Y-96623114D01*
X151750000Y-96376886D01*
X151714556Y-96198693D01*
X158372018Y-96198693D01*
X158507267Y-96451444D01*
X158809505Y-96617227D01*
X159138278Y-96720862D01*
X159480952Y-96758364D01*
X159824358Y-96728293D01*
X160155299Y-96631805D01*
X160461057Y-96472608D01*
X160492733Y-96451444D01*
X160627982Y-96198693D01*
X159500000Y-95070711D01*
X158372018Y-96198693D01*
X151714556Y-96198693D01*
X151701963Y-96135389D01*
X151607735Y-95907903D01*
X151470938Y-95703172D01*
X151296828Y-95529062D01*
X151092097Y-95392265D01*
X150864611Y-95298037D01*
X150623114Y-95250000D01*
X150376886Y-95250000D01*
X150135389Y-95298037D01*
X149907903Y-95392265D01*
X149703172Y-95529062D01*
X149529062Y-95703172D01*
X149392265Y-95907903D01*
X149298037Y-96135389D01*
X149250000Y-96376886D01*
X111239409Y-96376886D01*
X111436989Y-96179306D01*
X111639448Y-95876303D01*
X111778905Y-95539625D01*
X111850000Y-95182209D01*
X111850000Y-94834771D01*
X139524197Y-94834771D01*
X139595503Y-95069210D01*
X139711176Y-95285233D01*
X139866770Y-95474539D01*
X140056306Y-95629852D01*
X140272500Y-95745205D01*
X140505229Y-95815801D01*
X140700000Y-95726401D01*
X140700000Y-94640000D01*
X140800000Y-94640000D01*
X140800000Y-95726401D01*
X140994771Y-95815801D01*
X141227500Y-95745205D01*
X141443694Y-95629852D01*
X141633230Y-95474539D01*
X141788824Y-95285233D01*
X141904497Y-95069210D01*
X141931341Y-94980952D01*
X157741636Y-94980952D01*
X157771707Y-95324358D01*
X157868195Y-95655299D01*
X158027392Y-95961057D01*
X158048556Y-95992733D01*
X158301307Y-96127982D01*
X159429289Y-95000000D01*
X159570711Y-95000000D01*
X160698693Y-96127982D01*
X160951444Y-95992733D01*
X161117227Y-95690495D01*
X161220862Y-95361722D01*
X161258364Y-95019048D01*
X161228293Y-94675642D01*
X161131805Y-94344701D01*
X160972608Y-94038943D01*
X160951444Y-94007267D01*
X160698693Y-93872018D01*
X159570711Y-95000000D01*
X159429289Y-95000000D01*
X158301307Y-93872018D01*
X158048556Y-94007267D01*
X157882773Y-94309505D01*
X157779138Y-94638278D01*
X157741636Y-94980952D01*
X141931341Y-94980952D01*
X141975803Y-94834771D01*
X141886502Y-94640000D01*
X140800000Y-94640000D01*
X140700000Y-94640000D01*
X139613498Y-94640000D01*
X139524197Y-94834771D01*
X111850000Y-94834771D01*
X111850000Y-94817791D01*
X111778905Y-94460375D01*
X111731210Y-94345229D01*
X139524197Y-94345229D01*
X139613498Y-94540000D01*
X140700000Y-94540000D01*
X140700000Y-93453599D01*
X140800000Y-93453599D01*
X140800000Y-94540000D01*
X141886502Y-94540000D01*
X141975803Y-94345229D01*
X141904497Y-94110790D01*
X141788824Y-93894767D01*
X141712008Y-93801307D01*
X158372018Y-93801307D01*
X159500000Y-94929289D01*
X160627982Y-93801307D01*
X160492733Y-93548556D01*
X160190495Y-93382773D01*
X159861722Y-93279138D01*
X159519048Y-93241636D01*
X159175642Y-93271707D01*
X158844701Y-93368195D01*
X158538943Y-93527392D01*
X158507267Y-93548556D01*
X158372018Y-93801307D01*
X141712008Y-93801307D01*
X141633230Y-93705461D01*
X141443694Y-93550148D01*
X141227500Y-93434795D01*
X140994771Y-93364199D01*
X140800000Y-93453599D01*
X140700000Y-93453599D01*
X140505229Y-93364199D01*
X140272500Y-93434795D01*
X140056306Y-93550148D01*
X139866770Y-93705461D01*
X139711176Y-93894767D01*
X139595503Y-94110790D01*
X139524197Y-94345229D01*
X111731210Y-94345229D01*
X111639448Y-94123697D01*
X111436989Y-93820694D01*
X111179306Y-93563011D01*
X110876303Y-93360552D01*
X110539625Y-93221095D01*
X110182209Y-93150000D01*
X109817791Y-93150000D01*
X109460375Y-93221095D01*
X109123697Y-93360552D01*
X108820694Y-93563011D01*
X108563011Y-93820694D01*
X108360552Y-94123697D01*
X108221095Y-94460375D01*
X108150000Y-94817791D01*
X105350000Y-94817791D01*
X105278905Y-94460375D01*
X105139448Y-94123697D01*
X104936989Y-93820694D01*
X104679306Y-93563011D01*
X104376303Y-93360552D01*
X104039625Y-93221095D01*
X103682209Y-93150000D01*
X103317791Y-93150000D01*
X102960375Y-93221095D01*
X102623697Y-93360552D01*
X102320694Y-93563011D01*
X102063011Y-93820694D01*
X101860552Y-94123697D01*
X101721095Y-94460375D01*
X101650000Y-94817791D01*
X36370267Y-94817791D01*
X36253648Y-94722085D01*
X36019121Y-94596728D01*
X35764645Y-94519533D01*
X35500000Y-94493468D01*
X35235354Y-94519533D01*
X34980878Y-94596728D01*
X34746351Y-94722085D01*
X34540787Y-94890788D01*
X34372085Y-95096352D01*
X34246728Y-95330879D01*
X34169533Y-95585355D01*
X34150000Y-95783680D01*
X29816113Y-95783680D01*
X29867227Y-95690495D01*
X29970862Y-95361722D01*
X30008364Y-95019048D01*
X29978293Y-94675642D01*
X29881805Y-94344701D01*
X29722608Y-94038943D01*
X29701444Y-94007267D01*
X29448693Y-93872018D01*
X28320711Y-95000000D01*
X28179289Y-95000000D01*
X27051307Y-93872018D01*
X26798556Y-94007267D01*
X26632773Y-94309505D01*
X26529138Y-94638278D01*
X26491636Y-94980952D01*
X22975000Y-94980952D01*
X22975000Y-93801307D01*
X27122018Y-93801307D01*
X28250000Y-94929289D01*
X29377982Y-93801307D01*
X29242733Y-93548556D01*
X28940495Y-93382773D01*
X28611722Y-93279138D01*
X28269048Y-93241636D01*
X27925642Y-93271707D01*
X27594701Y-93368195D01*
X27288943Y-93527392D01*
X27257267Y-93548556D01*
X27122018Y-93801307D01*
X22975000Y-93801307D01*
X22975000Y-91198693D01*
X27122018Y-91198693D01*
X27257267Y-91451444D01*
X27559505Y-91617227D01*
X27888278Y-91720862D01*
X28230952Y-91758364D01*
X28574358Y-91728293D01*
X28905299Y-91631805D01*
X29211057Y-91472608D01*
X29242733Y-91451444D01*
X29377982Y-91198693D01*
X28250000Y-90070711D01*
X27122018Y-91198693D01*
X22975000Y-91198693D01*
X22975000Y-89980952D01*
X26491636Y-89980952D01*
X26521707Y-90324358D01*
X26618195Y-90655299D01*
X26777392Y-90961057D01*
X26798556Y-90992733D01*
X27051307Y-91127982D01*
X28179289Y-90000000D01*
X28320711Y-90000000D01*
X29448693Y-91127982D01*
X29701444Y-90992733D01*
X29867227Y-90690495D01*
X29970862Y-90361722D01*
X30008364Y-90019048D01*
X29978293Y-89675642D01*
X29881805Y-89344701D01*
X29722608Y-89038943D01*
X29701444Y-89007267D01*
X29448693Y-88872018D01*
X28320711Y-90000000D01*
X28179289Y-90000000D01*
X27051307Y-88872018D01*
X26798556Y-89007267D01*
X26632773Y-89309505D01*
X26529138Y-89638278D01*
X26491636Y-89980952D01*
X22975000Y-89980952D01*
X22975000Y-88801307D01*
X27122018Y-88801307D01*
X28250000Y-89929289D01*
X29377982Y-88801307D01*
X29242733Y-88548556D01*
X28940495Y-88382773D01*
X28626132Y-88283680D01*
X34150000Y-88283680D01*
X34150000Y-89216321D01*
X34169533Y-89414646D01*
X34246728Y-89669122D01*
X34372085Y-89903649D01*
X34540788Y-90109213D01*
X34746352Y-90277915D01*
X34980879Y-90403272D01*
X35235355Y-90480467D01*
X35500000Y-90506532D01*
X35764646Y-90480467D01*
X36019122Y-90403272D01*
X36253649Y-90277915D01*
X36459213Y-90109213D01*
X36627915Y-89903649D01*
X36753272Y-89669122D01*
X36830467Y-89414646D01*
X36850000Y-89216320D01*
X36850000Y-88617037D01*
X40050000Y-88617037D01*
X40050000Y-88882963D01*
X40101880Y-89143780D01*
X40203646Y-89389465D01*
X40351387Y-89610575D01*
X40539425Y-89798613D01*
X40760535Y-89946354D01*
X41006220Y-90048120D01*
X41267037Y-90100000D01*
X41532963Y-90100000D01*
X41793780Y-90048120D01*
X42039465Y-89946354D01*
X42231873Y-89817791D01*
X101650000Y-89817791D01*
X101650000Y-90182209D01*
X101721095Y-90539625D01*
X101860552Y-90876303D01*
X102063011Y-91179306D01*
X102320694Y-91436989D01*
X102623697Y-91639448D01*
X102960375Y-91778905D01*
X103317791Y-91850000D01*
X103682209Y-91850000D01*
X104039625Y-91778905D01*
X104376303Y-91639448D01*
X104679306Y-91436989D01*
X104936989Y-91179306D01*
X105139448Y-90876303D01*
X105278905Y-90539625D01*
X105350000Y-90182209D01*
X105350000Y-89817791D01*
X108150000Y-89817791D01*
X108150000Y-90182209D01*
X108221095Y-90539625D01*
X108360552Y-90876303D01*
X108563011Y-91179306D01*
X108820694Y-91436989D01*
X109123697Y-91639448D01*
X109460375Y-91778905D01*
X109817791Y-91850000D01*
X110182209Y-91850000D01*
X110539625Y-91778905D01*
X110876303Y-91639448D01*
X111179306Y-91436989D01*
X111436989Y-91179306D01*
X111639448Y-90876303D01*
X111756716Y-90593192D01*
X139977518Y-90593192D01*
X140052750Y-90794748D01*
X140269967Y-90910701D01*
X140505632Y-90982049D01*
X140750689Y-91006049D01*
X140995718Y-90981780D01*
X141231305Y-90910174D01*
X141356618Y-90843192D01*
X146477518Y-90843192D01*
X146552750Y-91044748D01*
X146769967Y-91160701D01*
X147005632Y-91232049D01*
X147250689Y-91256049D01*
X147495718Y-91231780D01*
X147731305Y-91160174D01*
X147947250Y-91044748D01*
X148022482Y-90843192D01*
X149727518Y-90843192D01*
X149802750Y-91044748D01*
X150019967Y-91160701D01*
X150255632Y-91232049D01*
X150500689Y-91256049D01*
X150745718Y-91231780D01*
X150854575Y-91198693D01*
X158372018Y-91198693D01*
X158507267Y-91451444D01*
X158809505Y-91617227D01*
X159138278Y-91720862D01*
X159480952Y-91758364D01*
X159824358Y-91728293D01*
X160155299Y-91631805D01*
X160461057Y-91472608D01*
X160492733Y-91451444D01*
X160627982Y-91198693D01*
X159500000Y-90070711D01*
X158372018Y-91198693D01*
X150854575Y-91198693D01*
X150981305Y-91160174D01*
X151197250Y-91044748D01*
X151272482Y-90843192D01*
X150500000Y-90070711D01*
X149727518Y-90843192D01*
X148022482Y-90843192D01*
X147250000Y-90070711D01*
X146477518Y-90843192D01*
X141356618Y-90843192D01*
X141447250Y-90794748D01*
X141522482Y-90593192D01*
X140750000Y-89820711D01*
X139977518Y-90593192D01*
X111756716Y-90593192D01*
X111778905Y-90539625D01*
X111850000Y-90182209D01*
X111850000Y-89817791D01*
X111836653Y-89750689D01*
X139493951Y-89750689D01*
X139518220Y-89995718D01*
X139589826Y-90231305D01*
X139705252Y-90447250D01*
X139906808Y-90522482D01*
X140679289Y-89750000D01*
X140820711Y-89750000D01*
X141593192Y-90522482D01*
X141794748Y-90447250D01*
X141910701Y-90230033D01*
X141980135Y-90000689D01*
X145993951Y-90000689D01*
X146018220Y-90245718D01*
X146089826Y-90481305D01*
X146205252Y-90697250D01*
X146406808Y-90772482D01*
X147179289Y-90000000D01*
X147320711Y-90000000D01*
X148093192Y-90772482D01*
X148294748Y-90697250D01*
X148410701Y-90480033D01*
X148482049Y-90244368D01*
X148505914Y-90000689D01*
X149243951Y-90000689D01*
X149268220Y-90245718D01*
X149339826Y-90481305D01*
X149455252Y-90697250D01*
X149656808Y-90772482D01*
X150429289Y-90000000D01*
X150570711Y-90000000D01*
X151343192Y-90772482D01*
X151544748Y-90697250D01*
X151660701Y-90480033D01*
X151732049Y-90244368D01*
X151756049Y-89999311D01*
X151754231Y-89980952D01*
X157741636Y-89980952D01*
X157771707Y-90324358D01*
X157868195Y-90655299D01*
X158027392Y-90961057D01*
X158048556Y-90992733D01*
X158301307Y-91127982D01*
X159429289Y-90000000D01*
X159570711Y-90000000D01*
X160698693Y-91127982D01*
X160951444Y-90992733D01*
X161117227Y-90690495D01*
X161220862Y-90361722D01*
X161258364Y-90019048D01*
X161228293Y-89675642D01*
X161131805Y-89344701D01*
X160972608Y-89038943D01*
X160951444Y-89007267D01*
X160698693Y-88872018D01*
X159570711Y-90000000D01*
X159429289Y-90000000D01*
X158301307Y-88872018D01*
X158048556Y-89007267D01*
X157882773Y-89309505D01*
X157779138Y-89638278D01*
X157741636Y-89980952D01*
X151754231Y-89980952D01*
X151731780Y-89754282D01*
X151660174Y-89518695D01*
X151544748Y-89302750D01*
X151343192Y-89227518D01*
X150570711Y-90000000D01*
X150429289Y-90000000D01*
X149656808Y-89227518D01*
X149455252Y-89302750D01*
X149339299Y-89519967D01*
X149267951Y-89755632D01*
X149243951Y-90000689D01*
X148505914Y-90000689D01*
X148506049Y-89999311D01*
X148481780Y-89754282D01*
X148410174Y-89518695D01*
X148294748Y-89302750D01*
X148093192Y-89227518D01*
X147320711Y-90000000D01*
X147179289Y-90000000D01*
X146406808Y-89227518D01*
X146205252Y-89302750D01*
X146089299Y-89519967D01*
X146017951Y-89755632D01*
X145993951Y-90000689D01*
X141980135Y-90000689D01*
X141982049Y-89994368D01*
X142006049Y-89749311D01*
X141981780Y-89504282D01*
X141910174Y-89268695D01*
X141850369Y-89156808D01*
X146477518Y-89156808D01*
X147250000Y-89929289D01*
X148022482Y-89156808D01*
X149727518Y-89156808D01*
X150500000Y-89929289D01*
X151272482Y-89156808D01*
X151197250Y-88955252D01*
X150980033Y-88839299D01*
X150854545Y-88801307D01*
X158372018Y-88801307D01*
X159500000Y-89929289D01*
X160627982Y-88801307D01*
X160492733Y-88548556D01*
X160190495Y-88382773D01*
X159861722Y-88279138D01*
X159519048Y-88241636D01*
X159175642Y-88271707D01*
X158844701Y-88368195D01*
X158538943Y-88527392D01*
X158507267Y-88548556D01*
X158372018Y-88801307D01*
X150854545Y-88801307D01*
X150744368Y-88767951D01*
X150499311Y-88743951D01*
X150254282Y-88768220D01*
X150018695Y-88839826D01*
X149802750Y-88955252D01*
X149727518Y-89156808D01*
X148022482Y-89156808D01*
X147947250Y-88955252D01*
X147730033Y-88839299D01*
X147494368Y-88767951D01*
X147249311Y-88743951D01*
X147004282Y-88768220D01*
X146768695Y-88839826D01*
X146552750Y-88955252D01*
X146477518Y-89156808D01*
X141850369Y-89156808D01*
X141794748Y-89052750D01*
X141593192Y-88977518D01*
X140820711Y-89750000D01*
X140679289Y-89750000D01*
X139906808Y-88977518D01*
X139705252Y-89052750D01*
X139589299Y-89269967D01*
X139517951Y-89505632D01*
X139493951Y-89750689D01*
X111836653Y-89750689D01*
X111778905Y-89460375D01*
X111639448Y-89123697D01*
X111494529Y-88906808D01*
X139977518Y-88906808D01*
X140750000Y-89679289D01*
X141522482Y-88906808D01*
X141447250Y-88705252D01*
X141230033Y-88589299D01*
X140994368Y-88517951D01*
X140749311Y-88493951D01*
X140504282Y-88518220D01*
X140268695Y-88589826D01*
X140052750Y-88705252D01*
X139977518Y-88906808D01*
X111494529Y-88906808D01*
X111436989Y-88820694D01*
X111179306Y-88563011D01*
X110876303Y-88360552D01*
X110539625Y-88221095D01*
X110182209Y-88150000D01*
X109817791Y-88150000D01*
X109460375Y-88221095D01*
X109123697Y-88360552D01*
X108820694Y-88563011D01*
X108563011Y-88820694D01*
X108360552Y-89123697D01*
X108221095Y-89460375D01*
X108150000Y-89817791D01*
X105350000Y-89817791D01*
X105278905Y-89460375D01*
X105139448Y-89123697D01*
X104936989Y-88820694D01*
X104679306Y-88563011D01*
X104376303Y-88360552D01*
X104039625Y-88221095D01*
X103682209Y-88150000D01*
X103317791Y-88150000D01*
X102960375Y-88221095D01*
X102623697Y-88360552D01*
X102320694Y-88563011D01*
X102063011Y-88820694D01*
X101860552Y-89123697D01*
X101721095Y-89460375D01*
X101650000Y-89817791D01*
X42231873Y-89817791D01*
X42260575Y-89798613D01*
X42448613Y-89610575D01*
X42596354Y-89389465D01*
X42698120Y-89143780D01*
X42750000Y-88882963D01*
X42750000Y-88843192D01*
X97727518Y-88843192D01*
X97802750Y-89044748D01*
X98019967Y-89160701D01*
X98255632Y-89232049D01*
X98500689Y-89256049D01*
X98745718Y-89231780D01*
X98981305Y-89160174D01*
X99197250Y-89044748D01*
X99272482Y-88843192D01*
X98500000Y-88070711D01*
X97727518Y-88843192D01*
X42750000Y-88843192D01*
X42750000Y-88617037D01*
X42698120Y-88356220D01*
X42596354Y-88110535D01*
X42522958Y-88000689D01*
X97243951Y-88000689D01*
X97268220Y-88245718D01*
X97339826Y-88481305D01*
X97455252Y-88697250D01*
X97656808Y-88772482D01*
X98429289Y-88000000D01*
X98570711Y-88000000D01*
X99343192Y-88772482D01*
X99544748Y-88697250D01*
X99660701Y-88480033D01*
X99732049Y-88244368D01*
X99756049Y-87999311D01*
X99731780Y-87754282D01*
X99660174Y-87518695D01*
X99544748Y-87302750D01*
X99343192Y-87227518D01*
X98570711Y-88000000D01*
X98429289Y-88000000D01*
X97656808Y-87227518D01*
X97455252Y-87302750D01*
X97339299Y-87519967D01*
X97267951Y-87755632D01*
X97243951Y-88000689D01*
X42522958Y-88000689D01*
X42448613Y-87889425D01*
X42260575Y-87701387D01*
X42039465Y-87553646D01*
X41793780Y-87451880D01*
X41532963Y-87400000D01*
X41267037Y-87400000D01*
X41006220Y-87451880D01*
X40760535Y-87553646D01*
X40539425Y-87701387D01*
X40351387Y-87889425D01*
X40203646Y-88110535D01*
X40101880Y-88356220D01*
X40050000Y-88617037D01*
X36850000Y-88617037D01*
X36850000Y-88283679D01*
X36830467Y-88085354D01*
X36753272Y-87830878D01*
X36627915Y-87596351D01*
X36459212Y-87390787D01*
X36253648Y-87222085D01*
X36131524Y-87156808D01*
X97727518Y-87156808D01*
X98500000Y-87929289D01*
X99272482Y-87156808D01*
X99197250Y-86955252D01*
X98980033Y-86839299D01*
X98744368Y-86767951D01*
X98499311Y-86743951D01*
X98254282Y-86768220D01*
X98018695Y-86839826D01*
X97802750Y-86955252D01*
X97727518Y-87156808D01*
X36131524Y-87156808D01*
X36019121Y-87096728D01*
X35764645Y-87019533D01*
X35500000Y-86993468D01*
X35235354Y-87019533D01*
X34980878Y-87096728D01*
X34746351Y-87222085D01*
X34540787Y-87390788D01*
X34372085Y-87596352D01*
X34246728Y-87830879D01*
X34169533Y-88085355D01*
X34150000Y-88283680D01*
X28626132Y-88283680D01*
X28611722Y-88279138D01*
X28269048Y-88241636D01*
X27925642Y-88271707D01*
X27594701Y-88368195D01*
X27288943Y-88527392D01*
X27257267Y-88548556D01*
X27122018Y-88801307D01*
X22975000Y-88801307D01*
X22975000Y-84827640D01*
X26500000Y-84827640D01*
X26500000Y-85172360D01*
X26567251Y-85510456D01*
X26699170Y-85828936D01*
X26890686Y-86115560D01*
X27134440Y-86359314D01*
X27421064Y-86550830D01*
X27739544Y-86682749D01*
X28077640Y-86750000D01*
X28422360Y-86750000D01*
X28760456Y-86682749D01*
X29078936Y-86550830D01*
X29155008Y-86500000D01*
X52547823Y-86500000D01*
X52556511Y-86588215D01*
X52582243Y-86673041D01*
X52624029Y-86751216D01*
X52680263Y-86819737D01*
X52748784Y-86875971D01*
X52826959Y-86917757D01*
X52911785Y-86943489D01*
X53000000Y-86952177D01*
X54837500Y-86950000D01*
X54950000Y-86837500D01*
X54950000Y-84550000D01*
X55050000Y-84550000D01*
X55050000Y-86837500D01*
X55162500Y-86950000D01*
X57000000Y-86952177D01*
X57088215Y-86943489D01*
X57173041Y-86917757D01*
X57251216Y-86875971D01*
X57319737Y-86819737D01*
X57375971Y-86751216D01*
X57417757Y-86673041D01*
X57443489Y-86588215D01*
X57452177Y-86500000D01*
X81547823Y-86500000D01*
X81556511Y-86588215D01*
X81582243Y-86673041D01*
X81624029Y-86751216D01*
X81680263Y-86819737D01*
X81748784Y-86875971D01*
X81826959Y-86917757D01*
X81911785Y-86943489D01*
X82000000Y-86952177D01*
X83837500Y-86950000D01*
X83950000Y-86837500D01*
X83950000Y-84550000D01*
X84050000Y-84550000D01*
X84050000Y-86837500D01*
X84162500Y-86950000D01*
X86000000Y-86952177D01*
X86088215Y-86943489D01*
X86173041Y-86917757D01*
X86251216Y-86875971D01*
X86319737Y-86819737D01*
X86375971Y-86751216D01*
X86417757Y-86673041D01*
X86443489Y-86588215D01*
X86452177Y-86500000D01*
X123797823Y-86500000D01*
X123806511Y-86588215D01*
X123832243Y-86673041D01*
X123874029Y-86751216D01*
X123930263Y-86819737D01*
X123998784Y-86875971D01*
X124076959Y-86917757D01*
X124161785Y-86943489D01*
X124250000Y-86952177D01*
X126087500Y-86950000D01*
X126200000Y-86837500D01*
X126200000Y-84550000D01*
X126300000Y-84550000D01*
X126300000Y-86837500D01*
X126412500Y-86950000D01*
X128250000Y-86952177D01*
X128338215Y-86943489D01*
X128423041Y-86917757D01*
X128501216Y-86875971D01*
X128569737Y-86819737D01*
X128625971Y-86751216D01*
X128667757Y-86673041D01*
X128693489Y-86588215D01*
X128702177Y-86500000D01*
X128700000Y-84662500D01*
X128664386Y-84626886D01*
X139500000Y-84626886D01*
X139500000Y-84873114D01*
X139548037Y-85114611D01*
X139642265Y-85342097D01*
X139779062Y-85546828D01*
X139953172Y-85720938D01*
X140157903Y-85857735D01*
X140385389Y-85951963D01*
X140626886Y-86000000D01*
X140873114Y-86000000D01*
X141114611Y-85951963D01*
X141342097Y-85857735D01*
X141546828Y-85720938D01*
X141720938Y-85546828D01*
X141857735Y-85342097D01*
X141951963Y-85114611D01*
X142000000Y-84873114D01*
X142000000Y-84827640D01*
X157750000Y-84827640D01*
X157750000Y-85172360D01*
X157817251Y-85510456D01*
X157949170Y-85828936D01*
X158140686Y-86115560D01*
X158384440Y-86359314D01*
X158671064Y-86550830D01*
X158989544Y-86682749D01*
X159327640Y-86750000D01*
X159672360Y-86750000D01*
X160010456Y-86682749D01*
X160328936Y-86550830D01*
X160615560Y-86359314D01*
X160859314Y-86115560D01*
X161050830Y-85828936D01*
X161182749Y-85510456D01*
X161250000Y-85172360D01*
X161250000Y-84827640D01*
X161182749Y-84489544D01*
X161050830Y-84171064D01*
X160859314Y-83884440D01*
X160615560Y-83640686D01*
X160328936Y-83449170D01*
X160010456Y-83317251D01*
X159672360Y-83250000D01*
X159327640Y-83250000D01*
X158989544Y-83317251D01*
X158671064Y-83449170D01*
X158384440Y-83640686D01*
X158140686Y-83884440D01*
X157949170Y-84171064D01*
X157817251Y-84489544D01*
X157750000Y-84827640D01*
X142000000Y-84827640D01*
X142000000Y-84626886D01*
X141951963Y-84385389D01*
X141857735Y-84157903D01*
X141720938Y-83953172D01*
X141546828Y-83779062D01*
X141342097Y-83642265D01*
X141114611Y-83548037D01*
X140873114Y-83500000D01*
X140626886Y-83500000D01*
X140385389Y-83548037D01*
X140157903Y-83642265D01*
X139953172Y-83779062D01*
X139779062Y-83953172D01*
X139642265Y-84157903D01*
X139548037Y-84385389D01*
X139500000Y-84626886D01*
X128664386Y-84626886D01*
X128587500Y-84550000D01*
X126300000Y-84550000D01*
X126200000Y-84550000D01*
X123912500Y-84550000D01*
X123800000Y-84662500D01*
X123797823Y-86500000D01*
X86452177Y-86500000D01*
X86450000Y-84662500D01*
X86337500Y-84550000D01*
X84050000Y-84550000D01*
X83950000Y-84550000D01*
X81662500Y-84550000D01*
X81550000Y-84662500D01*
X81547823Y-86500000D01*
X57452177Y-86500000D01*
X57450000Y-84662500D01*
X57337500Y-84550000D01*
X55050000Y-84550000D01*
X54950000Y-84550000D01*
X52662500Y-84550000D01*
X52550000Y-84662500D01*
X52547823Y-86500000D01*
X29155008Y-86500000D01*
X29365560Y-86359314D01*
X29609314Y-86115560D01*
X29800830Y-85828936D01*
X29932749Y-85510456D01*
X30000000Y-85172360D01*
X30000000Y-84827640D01*
X29932749Y-84489544D01*
X29800830Y-84171064D01*
X29609314Y-83884440D01*
X29365560Y-83640686D01*
X29078936Y-83449170D01*
X28760456Y-83317251D01*
X28422360Y-83250000D01*
X28077640Y-83250000D01*
X27739544Y-83317251D01*
X27421064Y-83449170D01*
X27134440Y-83640686D01*
X26890686Y-83884440D01*
X26699170Y-84171064D01*
X26567251Y-84489544D01*
X26500000Y-84827640D01*
X22975000Y-84827640D01*
X22975000Y-80783680D01*
X34150000Y-80783680D01*
X34150000Y-81716321D01*
X34169533Y-81914646D01*
X34246728Y-82169122D01*
X34372085Y-82403649D01*
X34540788Y-82609213D01*
X34746352Y-82777915D01*
X34980879Y-82903272D01*
X35235355Y-82980467D01*
X35500000Y-83006532D01*
X35764646Y-82980467D01*
X36019122Y-82903272D01*
X36253649Y-82777915D01*
X36459213Y-82609213D01*
X36548841Y-82500000D01*
X52547823Y-82500000D01*
X52550000Y-84337500D01*
X52662500Y-84450000D01*
X54950000Y-84450000D01*
X54950000Y-82162500D01*
X55050000Y-82162500D01*
X55050000Y-84450000D01*
X57337500Y-84450000D01*
X57450000Y-84337500D01*
X57451770Y-82843192D01*
X68727518Y-82843192D01*
X68802750Y-83044748D01*
X69019967Y-83160701D01*
X69255632Y-83232049D01*
X69500689Y-83256049D01*
X69745718Y-83231780D01*
X69981305Y-83160174D01*
X70197250Y-83044748D01*
X70272482Y-82843192D01*
X69500000Y-82070711D01*
X68727518Y-82843192D01*
X57451770Y-82843192D01*
X57452177Y-82500000D01*
X57443489Y-82411785D01*
X57417757Y-82326959D01*
X57375971Y-82248784D01*
X57319737Y-82180263D01*
X57251216Y-82124029D01*
X57173041Y-82082243D01*
X57088215Y-82056511D01*
X57000000Y-82047823D01*
X55162500Y-82050000D01*
X55050000Y-82162500D01*
X54950000Y-82162500D01*
X54837500Y-82050000D01*
X53000000Y-82047823D01*
X52911785Y-82056511D01*
X52826959Y-82082243D01*
X52748784Y-82124029D01*
X52680263Y-82180263D01*
X52624029Y-82248784D01*
X52582243Y-82326959D01*
X52556511Y-82411785D01*
X52547823Y-82500000D01*
X36548841Y-82500000D01*
X36627915Y-82403649D01*
X36753272Y-82169122D01*
X36804365Y-82000689D01*
X68243951Y-82000689D01*
X68268220Y-82245718D01*
X68339826Y-82481305D01*
X68455252Y-82697250D01*
X68656808Y-82772482D01*
X69429289Y-82000000D01*
X69570711Y-82000000D01*
X70343192Y-82772482D01*
X70544748Y-82697250D01*
X70650042Y-82500000D01*
X81547823Y-82500000D01*
X81550000Y-84337500D01*
X81662500Y-84450000D01*
X83950000Y-84450000D01*
X83950000Y-82162500D01*
X84050000Y-82162500D01*
X84050000Y-84450000D01*
X86337500Y-84450000D01*
X86450000Y-84337500D01*
X86451730Y-82876886D01*
X97250000Y-82876886D01*
X97250000Y-83123114D01*
X97298037Y-83364611D01*
X97392265Y-83592097D01*
X97529062Y-83796828D01*
X97703172Y-83970938D01*
X97907903Y-84107735D01*
X98135389Y-84201963D01*
X98376886Y-84250000D01*
X98623114Y-84250000D01*
X98864611Y-84201963D01*
X99092097Y-84107735D01*
X99296828Y-83970938D01*
X99470938Y-83796828D01*
X99607735Y-83592097D01*
X99701963Y-83364611D01*
X99750000Y-83123114D01*
X99750000Y-82876886D01*
X99701963Y-82635389D01*
X99645883Y-82500000D01*
X123797823Y-82500000D01*
X123800000Y-84337500D01*
X123912500Y-84450000D01*
X126200000Y-84450000D01*
X126200000Y-82162500D01*
X126300000Y-82162500D01*
X126300000Y-84450000D01*
X128587500Y-84450000D01*
X128700000Y-84337500D01*
X128701178Y-83343192D01*
X143227518Y-83343192D01*
X143302750Y-83544748D01*
X143519967Y-83660701D01*
X143755632Y-83732049D01*
X144000689Y-83756049D01*
X144245718Y-83731780D01*
X144481305Y-83660174D01*
X144697250Y-83544748D01*
X144772482Y-83343192D01*
X144000000Y-82570711D01*
X143227518Y-83343192D01*
X128701178Y-83343192D01*
X128702177Y-82500000D01*
X128693489Y-82411785D01*
X128667757Y-82326959D01*
X128625971Y-82248784D01*
X128569737Y-82180263D01*
X128501216Y-82124029D01*
X128423041Y-82082243D01*
X128338215Y-82056511D01*
X128250000Y-82047823D01*
X126412500Y-82050000D01*
X126300000Y-82162500D01*
X126200000Y-82162500D01*
X126087500Y-82050000D01*
X124250000Y-82047823D01*
X124161785Y-82056511D01*
X124076959Y-82082243D01*
X123998784Y-82124029D01*
X123930263Y-82180263D01*
X123874029Y-82248784D01*
X123832243Y-82326959D01*
X123806511Y-82411785D01*
X123797823Y-82500000D01*
X99645883Y-82500000D01*
X99607735Y-82407903D01*
X99470938Y-82203172D01*
X99296828Y-82029062D01*
X99092097Y-81892265D01*
X98864611Y-81798037D01*
X98623114Y-81750000D01*
X98376886Y-81750000D01*
X98135389Y-81798037D01*
X97907903Y-81892265D01*
X97703172Y-82029062D01*
X97529062Y-82203172D01*
X97392265Y-82407903D01*
X97298037Y-82635389D01*
X97250000Y-82876886D01*
X86451730Y-82876886D01*
X86452177Y-82500000D01*
X86443489Y-82411785D01*
X86417757Y-82326959D01*
X86375971Y-82248784D01*
X86319737Y-82180263D01*
X86251216Y-82124029D01*
X86173041Y-82082243D01*
X86088215Y-82056511D01*
X86000000Y-82047823D01*
X84162500Y-82050000D01*
X84050000Y-82162500D01*
X83950000Y-82162500D01*
X83837500Y-82050000D01*
X82000000Y-82047823D01*
X81911785Y-82056511D01*
X81826959Y-82082243D01*
X81748784Y-82124029D01*
X81680263Y-82180263D01*
X81624029Y-82248784D01*
X81582243Y-82326959D01*
X81556511Y-82411785D01*
X81547823Y-82500000D01*
X70650042Y-82500000D01*
X70660701Y-82480033D01*
X70732049Y-82244368D01*
X70756049Y-81999311D01*
X70731780Y-81754282D01*
X70660174Y-81518695D01*
X70584375Y-81376886D01*
X139500000Y-81376886D01*
X139500000Y-81623114D01*
X139548037Y-81864611D01*
X139642265Y-82092097D01*
X139779062Y-82296828D01*
X139953172Y-82470938D01*
X140157903Y-82607735D01*
X140385389Y-82701963D01*
X140626886Y-82750000D01*
X140873114Y-82750000D01*
X141114611Y-82701963D01*
X141342097Y-82607735D01*
X141502302Y-82500689D01*
X142743951Y-82500689D01*
X142768220Y-82745718D01*
X142839826Y-82981305D01*
X142955252Y-83197250D01*
X143156808Y-83272482D01*
X143929289Y-82500000D01*
X144070711Y-82500000D01*
X144843192Y-83272482D01*
X145044748Y-83197250D01*
X145160701Y-82980033D01*
X145232049Y-82744368D01*
X145256049Y-82499311D01*
X145231780Y-82254282D01*
X145160174Y-82018695D01*
X145044748Y-81802750D01*
X144843192Y-81727518D01*
X144070711Y-82500000D01*
X143929289Y-82500000D01*
X143156808Y-81727518D01*
X142955252Y-81802750D01*
X142839299Y-82019967D01*
X142767951Y-82255632D01*
X142743951Y-82500689D01*
X141502302Y-82500689D01*
X141546828Y-82470938D01*
X141720938Y-82296828D01*
X141857735Y-82092097D01*
X141951963Y-81864611D01*
X141993297Y-81656808D01*
X143227518Y-81656808D01*
X144000000Y-82429289D01*
X144772482Y-81656808D01*
X144697250Y-81455252D01*
X144480033Y-81339299D01*
X144244368Y-81267951D01*
X143999311Y-81243951D01*
X143754282Y-81268220D01*
X143518695Y-81339826D01*
X143302750Y-81455252D01*
X143227518Y-81656808D01*
X141993297Y-81656808D01*
X142000000Y-81623114D01*
X142000000Y-81376886D01*
X141951963Y-81135389D01*
X141857735Y-80907903D01*
X141720938Y-80703172D01*
X141546828Y-80529062D01*
X141342097Y-80392265D01*
X141114611Y-80298037D01*
X140873114Y-80250000D01*
X140626886Y-80250000D01*
X140385389Y-80298037D01*
X140157903Y-80392265D01*
X139953172Y-80529062D01*
X139779062Y-80703172D01*
X139642265Y-80907903D01*
X139548037Y-81135389D01*
X139500000Y-81376886D01*
X70584375Y-81376886D01*
X70544748Y-81302750D01*
X70343192Y-81227518D01*
X69570711Y-82000000D01*
X69429289Y-82000000D01*
X68656808Y-81227518D01*
X68455252Y-81302750D01*
X68339299Y-81519967D01*
X68267951Y-81755632D01*
X68243951Y-82000689D01*
X36804365Y-82000689D01*
X36830467Y-81914646D01*
X36850000Y-81716320D01*
X36850000Y-81156808D01*
X68727518Y-81156808D01*
X69500000Y-81929289D01*
X70272482Y-81156808D01*
X70197250Y-80955252D01*
X69980033Y-80839299D01*
X69744368Y-80767951D01*
X69499311Y-80743951D01*
X69254282Y-80768220D01*
X69018695Y-80839826D01*
X68802750Y-80955252D01*
X68727518Y-81156808D01*
X36850000Y-81156808D01*
X36850000Y-80783679D01*
X36830467Y-80585354D01*
X36753272Y-80330878D01*
X36627915Y-80096351D01*
X36459212Y-79890787D01*
X36253648Y-79722085D01*
X36075543Y-79626886D01*
X97250000Y-79626886D01*
X97250000Y-79873114D01*
X97298037Y-80114611D01*
X97392265Y-80342097D01*
X97529062Y-80546828D01*
X97703172Y-80720938D01*
X97907903Y-80857735D01*
X98135389Y-80951963D01*
X98376886Y-81000000D01*
X98623114Y-81000000D01*
X98864611Y-80951963D01*
X99092097Y-80857735D01*
X99296828Y-80720938D01*
X99470938Y-80546828D01*
X99607735Y-80342097D01*
X99701963Y-80114611D01*
X99750000Y-79873114D01*
X99750000Y-79716886D01*
X146000000Y-79716886D01*
X146000000Y-79963114D01*
X146048037Y-80204611D01*
X146142265Y-80432097D01*
X146279062Y-80636828D01*
X146453172Y-80810938D01*
X146657903Y-80947735D01*
X146885389Y-81041963D01*
X147126886Y-81090000D01*
X147373114Y-81090000D01*
X147614611Y-81041963D01*
X147842097Y-80947735D01*
X148046828Y-80810938D01*
X148220938Y-80636828D01*
X148357735Y-80432097D01*
X148451963Y-80204611D01*
X148500000Y-79963114D01*
X148500000Y-79716886D01*
X148451963Y-79475389D01*
X148357735Y-79247903D01*
X148220938Y-79043172D01*
X148046828Y-78869062D01*
X147842097Y-78732265D01*
X147614611Y-78638037D01*
X147373114Y-78590000D01*
X147126886Y-78590000D01*
X146885389Y-78638037D01*
X146657903Y-78732265D01*
X146453172Y-78869062D01*
X146279062Y-79043172D01*
X146142265Y-79247903D01*
X146048037Y-79475389D01*
X146000000Y-79716886D01*
X99750000Y-79716886D01*
X99750000Y-79626886D01*
X99701963Y-79385389D01*
X99607735Y-79157903D01*
X99470938Y-78953172D01*
X99296828Y-78779062D01*
X99092097Y-78642265D01*
X98864611Y-78548037D01*
X98623114Y-78500000D01*
X98376886Y-78500000D01*
X98135389Y-78548037D01*
X97907903Y-78642265D01*
X97703172Y-78779062D01*
X97529062Y-78953172D01*
X97392265Y-79157903D01*
X97298037Y-79385389D01*
X97250000Y-79626886D01*
X36075543Y-79626886D01*
X36019121Y-79596728D01*
X35764645Y-79519533D01*
X35500000Y-79493468D01*
X35235354Y-79519533D01*
X34980878Y-79596728D01*
X34746351Y-79722085D01*
X34540787Y-79890788D01*
X34372085Y-80096352D01*
X34246728Y-80330879D01*
X34169533Y-80585355D01*
X34150000Y-80783680D01*
X22975000Y-80783680D01*
X22975000Y-74258696D01*
X52550000Y-74258696D01*
X52550000Y-74741304D01*
X52644152Y-75214639D01*
X52828838Y-75660510D01*
X53096960Y-76061784D01*
X53438216Y-76403040D01*
X53839490Y-76671162D01*
X54285361Y-76855848D01*
X54758696Y-76950000D01*
X55241304Y-76950000D01*
X55608873Y-76876886D01*
X68250000Y-76876886D01*
X68250000Y-77123114D01*
X68298037Y-77364611D01*
X68392265Y-77592097D01*
X68529062Y-77796828D01*
X68703172Y-77970938D01*
X68907903Y-78107735D01*
X69135389Y-78201963D01*
X69376886Y-78250000D01*
X69623114Y-78250000D01*
X69864611Y-78201963D01*
X70092097Y-78107735D01*
X70296828Y-77970938D01*
X70470938Y-77796828D01*
X70607735Y-77592097D01*
X70696878Y-77376886D01*
X142750000Y-77376886D01*
X142750000Y-77623114D01*
X142798037Y-77864611D01*
X142892265Y-78092097D01*
X143029062Y-78296828D01*
X143203172Y-78470938D01*
X143407903Y-78607735D01*
X143635389Y-78701963D01*
X143876886Y-78750000D01*
X144123114Y-78750000D01*
X144364611Y-78701963D01*
X144592097Y-78607735D01*
X144796828Y-78470938D01*
X144970938Y-78296828D01*
X145107735Y-78092097D01*
X145201963Y-77864611D01*
X145250000Y-77623114D01*
X145250000Y-77376886D01*
X145201963Y-77135389D01*
X145107735Y-76907903D01*
X144970938Y-76703172D01*
X144796828Y-76529062D01*
X144592097Y-76392265D01*
X144364611Y-76298037D01*
X144123114Y-76250000D01*
X143876886Y-76250000D01*
X143635389Y-76298037D01*
X143407903Y-76392265D01*
X143203172Y-76529062D01*
X143029062Y-76703172D01*
X142892265Y-76907903D01*
X142798037Y-77135389D01*
X142750000Y-77376886D01*
X70696878Y-77376886D01*
X70701963Y-77364611D01*
X70750000Y-77123114D01*
X70750000Y-76876886D01*
X70701963Y-76635389D01*
X70607735Y-76407903D01*
X70470938Y-76203172D01*
X70296828Y-76029062D01*
X70092097Y-75892265D01*
X69864611Y-75798037D01*
X69623114Y-75750000D01*
X69376886Y-75750000D01*
X69135389Y-75798037D01*
X68907903Y-75892265D01*
X68703172Y-76029062D01*
X68529062Y-76203172D01*
X68392265Y-76407903D01*
X68298037Y-76635389D01*
X68250000Y-76876886D01*
X55608873Y-76876886D01*
X55714639Y-76855848D01*
X56160510Y-76671162D01*
X56561784Y-76403040D01*
X56903040Y-76061784D01*
X57171162Y-75660510D01*
X57355848Y-75214639D01*
X57450000Y-74741304D01*
X57450000Y-74258696D01*
X81550000Y-74258696D01*
X81550000Y-74741304D01*
X81644152Y-75214639D01*
X81828838Y-75660510D01*
X82096960Y-76061784D01*
X82438216Y-76403040D01*
X82839490Y-76671162D01*
X83285361Y-76855848D01*
X83758696Y-76950000D01*
X84241304Y-76950000D01*
X84714639Y-76855848D01*
X85160510Y-76671162D01*
X85561784Y-76403040D01*
X85903040Y-76061784D01*
X86171162Y-75660510D01*
X86355848Y-75214639D01*
X86450000Y-74741304D01*
X86450000Y-74258696D01*
X123800000Y-74258696D01*
X123800000Y-74741304D01*
X123894152Y-75214639D01*
X124078838Y-75660510D01*
X124346960Y-76061784D01*
X124688216Y-76403040D01*
X125089490Y-76671162D01*
X125535361Y-76855848D01*
X126008696Y-76950000D01*
X126491304Y-76950000D01*
X126964639Y-76855848D01*
X127410510Y-76671162D01*
X127811784Y-76403040D01*
X128153040Y-76061784D01*
X128421162Y-75660510D01*
X128605848Y-75214639D01*
X128700000Y-74741304D01*
X128700000Y-74258696D01*
X128605848Y-73785361D01*
X128421162Y-73339490D01*
X128153040Y-72938216D01*
X127811784Y-72596960D01*
X127410510Y-72328838D01*
X126964639Y-72144152D01*
X126491304Y-72050000D01*
X126008696Y-72050000D01*
X125535361Y-72144152D01*
X125089490Y-72328838D01*
X124688216Y-72596960D01*
X124346960Y-72938216D01*
X124078838Y-73339490D01*
X123894152Y-73785361D01*
X123800000Y-74258696D01*
X86450000Y-74258696D01*
X86355848Y-73785361D01*
X86171162Y-73339490D01*
X85903040Y-72938216D01*
X85561784Y-72596960D01*
X85160510Y-72328838D01*
X84714639Y-72144152D01*
X84241304Y-72050000D01*
X83758696Y-72050000D01*
X83285361Y-72144152D01*
X82839490Y-72328838D01*
X82438216Y-72596960D01*
X82096960Y-72938216D01*
X81828838Y-73339490D01*
X81644152Y-73785361D01*
X81550000Y-74258696D01*
X57450000Y-74258696D01*
X57355848Y-73785361D01*
X57171162Y-73339490D01*
X56903040Y-72938216D01*
X56561784Y-72596960D01*
X56160510Y-72328838D01*
X55714639Y-72144152D01*
X55241304Y-72050000D01*
X54758696Y-72050000D01*
X54285361Y-72144152D01*
X53839490Y-72328838D01*
X53438216Y-72596960D01*
X53096960Y-72938216D01*
X52828838Y-73339490D01*
X52644152Y-73785361D01*
X52550000Y-74258696D01*
X22975000Y-74258696D01*
X22975000Y-71631360D01*
X23015412Y-71728923D01*
X23414860Y-72326740D01*
X23923260Y-72835140D01*
X24521077Y-73234588D01*
X25185334Y-73509733D01*
X25890506Y-73650000D01*
X26609494Y-73650000D01*
X27314666Y-73509733D01*
X27978923Y-73234588D01*
X28576740Y-72835140D01*
X29085140Y-72326740D01*
X29484588Y-71728923D01*
X29759733Y-71064666D01*
X29900000Y-70359494D01*
X29900000Y-69640506D01*
X29865465Y-69466886D01*
X97250000Y-69466886D01*
X97250000Y-69713114D01*
X97298037Y-69954611D01*
X97392265Y-70182097D01*
X97529062Y-70386828D01*
X97703172Y-70560938D01*
X97907903Y-70697735D01*
X98135389Y-70791963D01*
X98376886Y-70840000D01*
X98623114Y-70840000D01*
X98864611Y-70791963D01*
X99092097Y-70697735D01*
X99296828Y-70560938D01*
X99470938Y-70386828D01*
X99607735Y-70182097D01*
X99701963Y-69954611D01*
X99750000Y-69713114D01*
X99750000Y-69497791D01*
X101650000Y-69497791D01*
X101650000Y-69862209D01*
X101721095Y-70219625D01*
X101860552Y-70556303D01*
X102063011Y-70859306D01*
X102320694Y-71116989D01*
X102623697Y-71319448D01*
X102960375Y-71458905D01*
X103317791Y-71530000D01*
X103682209Y-71530000D01*
X104039625Y-71458905D01*
X104376303Y-71319448D01*
X104679306Y-71116989D01*
X104936989Y-70859306D01*
X105139448Y-70556303D01*
X105278905Y-70219625D01*
X105350000Y-69862209D01*
X105350000Y-69497791D01*
X108150000Y-69497791D01*
X108150000Y-69862209D01*
X108221095Y-70219625D01*
X108360552Y-70556303D01*
X108563011Y-70859306D01*
X108820694Y-71116989D01*
X109123697Y-71319448D01*
X109460375Y-71458905D01*
X109817791Y-71530000D01*
X110182209Y-71530000D01*
X110539625Y-71458905D01*
X110876303Y-71319448D01*
X111029798Y-71216886D01*
X139500000Y-71216886D01*
X139500000Y-71463114D01*
X139548037Y-71704611D01*
X139642265Y-71932097D01*
X139779062Y-72136828D01*
X139953172Y-72310938D01*
X140157903Y-72447735D01*
X140385389Y-72541963D01*
X140626886Y-72590000D01*
X140873114Y-72590000D01*
X141114611Y-72541963D01*
X141342097Y-72447735D01*
X141546828Y-72310938D01*
X141720938Y-72136828D01*
X141857735Y-71932097D01*
X141951963Y-71704611D01*
X142000000Y-71463114D01*
X142000000Y-71216886D01*
X141951963Y-70975389D01*
X141857735Y-70747903D01*
X141720938Y-70543172D01*
X141546828Y-70369062D01*
X141506947Y-70342414D01*
X145650000Y-70342414D01*
X145650000Y-70657586D01*
X145711487Y-70966703D01*
X145832098Y-71257884D01*
X146007199Y-71519941D01*
X146230059Y-71742801D01*
X146492116Y-71917902D01*
X146783297Y-72038513D01*
X147092414Y-72100000D01*
X147407586Y-72100000D01*
X147716703Y-72038513D01*
X148007884Y-71917902D01*
X148269941Y-71742801D01*
X148492801Y-71519941D01*
X148667902Y-71257884D01*
X148788513Y-70966703D01*
X148850000Y-70657586D01*
X148850000Y-70342414D01*
X148788513Y-70033297D01*
X148667902Y-69742116D01*
X148492801Y-69480059D01*
X148362742Y-69350000D01*
X149147823Y-69350000D01*
X149147823Y-71650000D01*
X149156511Y-71738215D01*
X149182243Y-71823041D01*
X149224029Y-71901216D01*
X149280263Y-71969737D01*
X149348784Y-72025971D01*
X149426959Y-72067757D01*
X149511785Y-72093489D01*
X149550001Y-72097253D01*
X149550000Y-79022234D01*
X149529062Y-79043172D01*
X149392265Y-79247903D01*
X149298037Y-79475389D01*
X149250000Y-79716886D01*
X149250000Y-79963114D01*
X149298037Y-80204611D01*
X149392265Y-80432097D01*
X149529062Y-80636828D01*
X149703172Y-80810938D01*
X149907903Y-80947735D01*
X150135389Y-81041963D01*
X150376886Y-81090000D01*
X150623114Y-81090000D01*
X150864611Y-81041963D01*
X151092097Y-80947735D01*
X151296828Y-80810938D01*
X151470938Y-80636828D01*
X151607735Y-80432097D01*
X151701963Y-80204611D01*
X151750000Y-79963114D01*
X151750000Y-79827640D01*
X157750000Y-79827640D01*
X157750000Y-80172360D01*
X157817251Y-80510456D01*
X157949170Y-80828936D01*
X158140686Y-81115560D01*
X158384440Y-81359314D01*
X158671064Y-81550830D01*
X158989544Y-81682749D01*
X159327640Y-81750000D01*
X159672360Y-81750000D01*
X160010456Y-81682749D01*
X160328936Y-81550830D01*
X160615560Y-81359314D01*
X160859314Y-81115560D01*
X161050830Y-80828936D01*
X161182749Y-80510456D01*
X161250000Y-80172360D01*
X161250000Y-79827640D01*
X161182749Y-79489544D01*
X161050830Y-79171064D01*
X160859314Y-78884440D01*
X160615560Y-78640686D01*
X160328936Y-78449170D01*
X160010456Y-78317251D01*
X159672360Y-78250000D01*
X159327640Y-78250000D01*
X158989544Y-78317251D01*
X158671064Y-78449170D01*
X158384440Y-78640686D01*
X158140686Y-78884440D01*
X157949170Y-79171064D01*
X157817251Y-79489544D01*
X157750000Y-79827640D01*
X151750000Y-79827640D01*
X151750000Y-79716886D01*
X151701963Y-79475389D01*
X151607735Y-79247903D01*
X151470938Y-79043172D01*
X151450000Y-79022234D01*
X151450000Y-72102177D01*
X151900000Y-72102177D01*
X151988215Y-72093489D01*
X152073041Y-72067757D01*
X152151216Y-72025971D01*
X152219737Y-71969737D01*
X152275971Y-71901216D01*
X152317757Y-71823041D01*
X152343489Y-71738215D01*
X152352177Y-71650000D01*
X152352177Y-69350000D01*
X152343489Y-69261785D01*
X152317757Y-69176959D01*
X152275971Y-69098784D01*
X152219737Y-69030263D01*
X152151216Y-68974029D01*
X152073041Y-68932243D01*
X151988215Y-68906511D01*
X151900000Y-68897823D01*
X149600000Y-68897823D01*
X149511785Y-68906511D01*
X149426959Y-68932243D01*
X149348784Y-68974029D01*
X149280263Y-69030263D01*
X149224029Y-69098784D01*
X149182243Y-69176959D01*
X149156511Y-69261785D01*
X149147823Y-69350000D01*
X148362742Y-69350000D01*
X148269941Y-69257199D01*
X148007884Y-69082098D01*
X147716703Y-68961487D01*
X147407586Y-68900000D01*
X147092414Y-68900000D01*
X146783297Y-68961487D01*
X146492116Y-69082098D01*
X146230059Y-69257199D01*
X146007199Y-69480059D01*
X145832098Y-69742116D01*
X145711487Y-70033297D01*
X145650000Y-70342414D01*
X141506947Y-70342414D01*
X141342097Y-70232265D01*
X141114611Y-70138037D01*
X140873114Y-70090000D01*
X140626886Y-70090000D01*
X140385389Y-70138037D01*
X140157903Y-70232265D01*
X139953172Y-70369062D01*
X139779062Y-70543172D01*
X139642265Y-70747903D01*
X139548037Y-70975389D01*
X139500000Y-71216886D01*
X111029798Y-71216886D01*
X111179306Y-71116989D01*
X111436989Y-70859306D01*
X111639448Y-70556303D01*
X111778905Y-70219625D01*
X111850000Y-69862209D01*
X111850000Y-69497791D01*
X111778905Y-69140375D01*
X111639448Y-68803697D01*
X111436989Y-68500694D01*
X111179306Y-68243011D01*
X110876303Y-68040552D01*
X110539625Y-67901095D01*
X110182209Y-67830000D01*
X109817791Y-67830000D01*
X109460375Y-67901095D01*
X109123697Y-68040552D01*
X108820694Y-68243011D01*
X108563011Y-68500694D01*
X108360552Y-68803697D01*
X108221095Y-69140375D01*
X108150000Y-69497791D01*
X105350000Y-69497791D01*
X105278905Y-69140375D01*
X105139448Y-68803697D01*
X104936989Y-68500694D01*
X104679306Y-68243011D01*
X104376303Y-68040552D01*
X104039625Y-67901095D01*
X103682209Y-67830000D01*
X103317791Y-67830000D01*
X102960375Y-67901095D01*
X102623697Y-68040552D01*
X102320694Y-68243011D01*
X102063011Y-68500694D01*
X101860552Y-68803697D01*
X101721095Y-69140375D01*
X101650000Y-69497791D01*
X99750000Y-69497791D01*
X99750000Y-69466886D01*
X99701963Y-69225389D01*
X99607735Y-68997903D01*
X99470938Y-68793172D01*
X99296828Y-68619062D01*
X99092097Y-68482265D01*
X98864611Y-68388037D01*
X98623114Y-68340000D01*
X98376886Y-68340000D01*
X98135389Y-68388037D01*
X97907903Y-68482265D01*
X97703172Y-68619062D01*
X97529062Y-68793172D01*
X97392265Y-68997903D01*
X97298037Y-69225389D01*
X97250000Y-69466886D01*
X29865465Y-69466886D01*
X29759733Y-68935334D01*
X29484588Y-68271077D01*
X29085140Y-67673260D01*
X28576740Y-67164860D01*
X27978923Y-66765412D01*
X27881360Y-66725000D01*
X157618640Y-66725000D01*
X157521077Y-66765412D01*
G37*
X157521077Y-66765412D02*
X156923260Y-67164860D01*
X156414860Y-67673260D01*
X156015412Y-68271077D01*
X155740267Y-68935334D01*
X155600000Y-69640506D01*
X155600000Y-70359494D01*
X155740267Y-71064666D01*
X156015412Y-71728923D01*
X156414860Y-72326740D01*
X156923260Y-72835140D01*
X157521077Y-73234588D01*
X158185334Y-73509733D01*
X158890506Y-73650000D01*
X159609494Y-73650000D01*
X160314666Y-73509733D01*
X160978923Y-73234588D01*
X161576740Y-72835140D01*
X162085140Y-72326740D01*
X162484588Y-71728923D01*
X162759733Y-71064666D01*
X162900000Y-70359494D01*
X162900000Y-69640506D01*
X162759733Y-68935334D01*
X162484588Y-68271077D01*
X162085140Y-67673260D01*
X161576740Y-67164860D01*
X160978923Y-66765412D01*
X160881360Y-66725000D01*
X164525000Y-66725000D01*
X164525001Y-118275000D01*
X160881360Y-118275000D01*
X160978923Y-118234588D01*
X161576740Y-117835140D01*
X162085140Y-117326740D01*
X162484588Y-116728923D01*
X162759733Y-116064666D01*
X162900000Y-115359494D01*
X162900000Y-114640506D01*
X162759733Y-113935334D01*
X162484588Y-113271077D01*
X162085140Y-112673260D01*
X161576740Y-112164860D01*
X160978923Y-111765412D01*
X160314666Y-111490267D01*
X159609494Y-111350000D01*
X158890506Y-111350000D01*
X158185334Y-111490267D01*
X157521077Y-111765412D01*
X156923260Y-112164860D01*
X156414860Y-112673260D01*
X156015412Y-113271077D01*
X155740267Y-113935334D01*
X155600000Y-114640506D01*
X155600000Y-115359494D01*
X155740267Y-116064666D01*
X156015412Y-116728923D01*
X156414860Y-117326740D01*
X156923260Y-117835140D01*
X157521077Y-118234588D01*
X157618640Y-118275000D01*
X27881360Y-118275000D01*
X27978923Y-118234588D01*
X28576740Y-117835140D01*
X29085140Y-117326740D01*
X29484588Y-116728923D01*
X29759733Y-116064666D01*
X29900000Y-115359494D01*
X29900000Y-115126886D01*
X97250000Y-115126886D01*
X97250000Y-115373114D01*
X97298037Y-115614611D01*
X97392265Y-115842097D01*
X97529062Y-116046828D01*
X97703172Y-116220938D01*
X97907903Y-116357735D01*
X98135389Y-116451963D01*
X98376886Y-116500000D01*
X98623114Y-116500000D01*
X98864611Y-116451963D01*
X99092097Y-116357735D01*
X99296828Y-116220938D01*
X99470938Y-116046828D01*
X99607735Y-115842097D01*
X99701963Y-115614611D01*
X99750000Y-115373114D01*
X99750000Y-115137791D01*
X101650000Y-115137791D01*
X101650000Y-115502209D01*
X101721095Y-115859625D01*
X101860552Y-116196303D01*
X102063011Y-116499306D01*
X102320694Y-116756989D01*
X102623697Y-116959448D01*
X102960375Y-117098905D01*
X103317791Y-117170000D01*
X103682209Y-117170000D01*
X104039625Y-117098905D01*
X104376303Y-116959448D01*
X104679306Y-116756989D01*
X104936989Y-116499306D01*
X105139448Y-116196303D01*
X105278905Y-115859625D01*
X105350000Y-115502209D01*
X105350000Y-115137791D01*
X108150000Y-115137791D01*
X108150000Y-115502209D01*
X108221095Y-115859625D01*
X108360552Y-116196303D01*
X108563011Y-116499306D01*
X108820694Y-116756989D01*
X109123697Y-116959448D01*
X109460375Y-117098905D01*
X109817791Y-117170000D01*
X110182209Y-117170000D01*
X110539625Y-117098905D01*
X110876303Y-116959448D01*
X111179306Y-116756989D01*
X111436989Y-116499306D01*
X111639448Y-116196303D01*
X111778905Y-115859625D01*
X111850000Y-115502209D01*
X111850000Y-115137791D01*
X111778905Y-114780375D01*
X111639448Y-114443697D01*
X111436989Y-114140694D01*
X111179306Y-113883011D01*
X110876303Y-113680552D01*
X110539625Y-113541095D01*
X110182209Y-113470000D01*
X109817791Y-113470000D01*
X109460375Y-113541095D01*
X109123697Y-113680552D01*
X108820694Y-113883011D01*
X108563011Y-114140694D01*
X108360552Y-114443697D01*
X108221095Y-114780375D01*
X108150000Y-115137791D01*
X105350000Y-115137791D01*
X105278905Y-114780375D01*
X105139448Y-114443697D01*
X104936989Y-114140694D01*
X104679306Y-113883011D01*
X104376303Y-113680552D01*
X104039625Y-113541095D01*
X103682209Y-113470000D01*
X103317791Y-113470000D01*
X102960375Y-113541095D01*
X102623697Y-113680552D01*
X102320694Y-113883011D01*
X102063011Y-114140694D01*
X101860552Y-114443697D01*
X101721095Y-114780375D01*
X101650000Y-115137791D01*
X99750000Y-115137791D01*
X99750000Y-115126886D01*
X99701963Y-114885389D01*
X99607735Y-114657903D01*
X99470938Y-114453172D01*
X99296828Y-114279062D01*
X99092097Y-114142265D01*
X98864611Y-114048037D01*
X98623114Y-114000000D01*
X98376886Y-114000000D01*
X98135389Y-114048037D01*
X97907903Y-114142265D01*
X97703172Y-114279062D01*
X97529062Y-114453172D01*
X97392265Y-114657903D01*
X97298037Y-114885389D01*
X97250000Y-115126886D01*
X29900000Y-115126886D01*
X29900000Y-114640506D01*
X29759733Y-113935334D01*
X29484588Y-113271077D01*
X29085140Y-112673260D01*
X28576740Y-112164860D01*
X27978923Y-111765412D01*
X27314666Y-111490267D01*
X26609494Y-111350000D01*
X25890506Y-111350000D01*
X25185334Y-111490267D01*
X24521077Y-111765412D01*
X23923260Y-112164860D01*
X23414860Y-112673260D01*
X23015412Y-113271077D01*
X22975000Y-113368640D01*
X22975000Y-108500000D01*
X52547823Y-108500000D01*
X52547823Y-112500000D01*
X52556511Y-112588215D01*
X52582243Y-112673041D01*
X52624029Y-112751216D01*
X52680263Y-112819737D01*
X52748784Y-112875971D01*
X52826959Y-112917757D01*
X52911785Y-112943489D01*
X53000000Y-112952177D01*
X57000000Y-112952177D01*
X57088215Y-112943489D01*
X57173041Y-112917757D01*
X57251216Y-112875971D01*
X57319737Y-112819737D01*
X57375971Y-112751216D01*
X57417757Y-112673041D01*
X57443489Y-112588215D01*
X57452177Y-112500000D01*
X57452177Y-108500000D01*
X57443489Y-108411785D01*
X57417757Y-108326959D01*
X57375971Y-108248784D01*
X57319737Y-108180263D01*
X57251216Y-108124029D01*
X57173041Y-108082243D01*
X57088215Y-108056511D01*
X57000000Y-108047823D01*
X53000000Y-108047823D01*
X52911785Y-108056511D01*
X52826959Y-108082243D01*
X52748784Y-108124029D01*
X52680263Y-108180263D01*
X52624029Y-108248784D01*
X52582243Y-108326959D01*
X52556511Y-108411785D01*
X52547823Y-108500000D01*
X22975000Y-108500000D01*
X22975000Y-105783680D01*
X34150000Y-105783680D01*
X34150000Y-106716321D01*
X34169533Y-106914646D01*
X34246728Y-107169122D01*
X34372085Y-107403649D01*
X34540788Y-107609213D01*
X34746352Y-107777915D01*
X34980879Y-107903272D01*
X35235355Y-107980467D01*
X35500000Y-108006532D01*
X35764646Y-107980467D01*
X36019122Y-107903272D01*
X36068486Y-107876886D01*
X68250000Y-107876886D01*
X68250000Y-108123114D01*
X68298037Y-108364611D01*
X68392265Y-108592097D01*
X68529062Y-108796828D01*
X68703172Y-108970938D01*
X68907903Y-109107735D01*
X69135389Y-109201963D01*
X69376886Y-109250000D01*
X69623114Y-109250000D01*
X69864611Y-109201963D01*
X70092097Y-109107735D01*
X70296828Y-108970938D01*
X70470938Y-108796828D01*
X70607735Y-108592097D01*
X70645882Y-108500000D01*
X81547823Y-108500000D01*
X81547823Y-112500000D01*
X81556511Y-112588215D01*
X81582243Y-112673041D01*
X81624029Y-112751216D01*
X81680263Y-112819737D01*
X81748784Y-112875971D01*
X81826959Y-112917757D01*
X81911785Y-112943489D01*
X82000000Y-112952177D01*
X86000000Y-112952177D01*
X86088215Y-112943489D01*
X86173041Y-112917757D01*
X86251216Y-112875971D01*
X86319737Y-112819737D01*
X86375971Y-112751216D01*
X86417757Y-112673041D01*
X86443489Y-112588215D01*
X86452177Y-112500000D01*
X86452177Y-110126886D01*
X97250000Y-110126886D01*
X97250000Y-110373114D01*
X97298037Y-110614611D01*
X97392265Y-110842097D01*
X97529062Y-111046828D01*
X97703172Y-111220938D01*
X97907903Y-111357735D01*
X98135389Y-111451963D01*
X98376886Y-111500000D01*
X98623114Y-111500000D01*
X98864611Y-111451963D01*
X99092097Y-111357735D01*
X99296828Y-111220938D01*
X99470938Y-111046828D01*
X99607735Y-110842097D01*
X99701963Y-110614611D01*
X99750000Y-110373114D01*
X99750000Y-110126886D01*
X99701963Y-109885389D01*
X99607735Y-109657903D01*
X99470938Y-109453172D01*
X99296828Y-109279062D01*
X99092097Y-109142265D01*
X98864611Y-109048037D01*
X98623114Y-109000000D01*
X98376886Y-109000000D01*
X98135389Y-109048037D01*
X97907903Y-109142265D01*
X97703172Y-109279062D01*
X97529062Y-109453172D01*
X97392265Y-109657903D01*
X97298037Y-109885389D01*
X97250000Y-110126886D01*
X86452177Y-110126886D01*
X86452177Y-108500000D01*
X123797823Y-108500000D01*
X123797823Y-112500000D01*
X123806511Y-112588215D01*
X123832243Y-112673041D01*
X123874029Y-112751216D01*
X123930263Y-112819737D01*
X123998784Y-112875971D01*
X124076959Y-112917757D01*
X124161785Y-112943489D01*
X124250000Y-112952177D01*
X128250000Y-112952177D01*
X128338215Y-112943489D01*
X128423041Y-112917757D01*
X128499504Y-112876886D01*
X139500000Y-112876886D01*
X139500000Y-113123114D01*
X139548037Y-113364611D01*
X139642265Y-113592097D01*
X139779062Y-113796828D01*
X139953172Y-113970938D01*
X140157903Y-114107735D01*
X140385389Y-114201963D01*
X140626886Y-114250000D01*
X140873114Y-114250000D01*
X141114611Y-114201963D01*
X141342097Y-114107735D01*
X141546828Y-113970938D01*
X141720938Y-113796828D01*
X141857735Y-113592097D01*
X141951963Y-113364611D01*
X141954869Y-113350000D01*
X145397823Y-113350000D01*
X145397823Y-115650000D01*
X145406511Y-115738215D01*
X145432243Y-115823041D01*
X145474029Y-115901216D01*
X145530263Y-115969737D01*
X145598784Y-116025971D01*
X145676959Y-116067757D01*
X145761785Y-116093489D01*
X145850000Y-116102177D01*
X148150000Y-116102177D01*
X148238215Y-116093489D01*
X148323041Y-116067757D01*
X148401216Y-116025971D01*
X148469737Y-115969737D01*
X148525971Y-115901216D01*
X148567757Y-115823041D01*
X148593489Y-115738215D01*
X148602177Y-115650000D01*
X148602177Y-115592060D01*
X149478651Y-115592060D01*
X149595901Y-115829451D01*
X149872636Y-115980286D01*
X150173480Y-116074235D01*
X150486872Y-116107688D01*
X150800769Y-116079358D01*
X151103107Y-115990334D01*
X151382268Y-115844037D01*
X151404099Y-115829451D01*
X151521349Y-115592060D01*
X150500000Y-114570711D01*
X149478651Y-115592060D01*
X148602177Y-115592060D01*
X148602177Y-114486872D01*
X148892312Y-114486872D01*
X148920642Y-114800769D01*
X149009666Y-115103107D01*
X149155963Y-115382268D01*
X149170549Y-115404099D01*
X149407940Y-115521349D01*
X150429289Y-114500000D01*
X150570711Y-114500000D01*
X151592060Y-115521349D01*
X151829451Y-115404099D01*
X151980286Y-115127364D01*
X152074235Y-114826520D01*
X152107688Y-114513128D01*
X152079358Y-114199231D01*
X151990334Y-113896893D01*
X151844037Y-113617732D01*
X151829451Y-113595901D01*
X151592060Y-113478651D01*
X150570711Y-114500000D01*
X150429289Y-114500000D01*
X149407940Y-113478651D01*
X149170549Y-113595901D01*
X149019714Y-113872636D01*
X148925765Y-114173480D01*
X148892312Y-114486872D01*
X148602177Y-114486872D01*
X148602177Y-113407940D01*
X149478651Y-113407940D01*
X150500000Y-114429289D01*
X151521349Y-113407940D01*
X151404099Y-113170549D01*
X151127364Y-113019714D01*
X150826520Y-112925765D01*
X150513128Y-112892312D01*
X150199231Y-112920642D01*
X149896893Y-113009666D01*
X149617732Y-113155963D01*
X149595901Y-113170549D01*
X149478651Y-113407940D01*
X148602177Y-113407940D01*
X148602177Y-113350000D01*
X148593489Y-113261785D01*
X148567757Y-113176959D01*
X148525971Y-113098784D01*
X148469737Y-113030263D01*
X148401216Y-112974029D01*
X148323041Y-112932243D01*
X148238215Y-112906511D01*
X148150000Y-112897823D01*
X147950000Y-112897823D01*
X147950000Y-112393502D01*
X151138757Y-109204746D01*
X151175001Y-109175001D01*
X151293718Y-109030345D01*
X151381932Y-108865308D01*
X151436254Y-108686232D01*
X151450000Y-108546665D01*
X151450000Y-108546656D01*
X151454595Y-108500001D01*
X151450000Y-108453346D01*
X151450000Y-107477766D01*
X151470938Y-107456828D01*
X151607735Y-107252097D01*
X151701963Y-107024611D01*
X151750000Y-106783114D01*
X151750000Y-106536886D01*
X151701963Y-106295389D01*
X151607735Y-106067903D01*
X151470938Y-105863172D01*
X151296828Y-105689062D01*
X151092097Y-105552265D01*
X150864611Y-105458037D01*
X150623114Y-105410000D01*
X150376886Y-105410000D01*
X150135389Y-105458037D01*
X149907903Y-105552265D01*
X149703172Y-105689062D01*
X149529062Y-105863172D01*
X149392265Y-106067903D01*
X149298037Y-106295389D01*
X149250000Y-106536886D01*
X149250000Y-106783114D01*
X149298037Y-107024611D01*
X149392265Y-107252097D01*
X149529062Y-107456828D01*
X149550000Y-107477766D01*
X149550001Y-108106496D01*
X146361248Y-111295250D01*
X146324999Y-111324999D01*
X146206282Y-111469655D01*
X146118068Y-111634693D01*
X146063746Y-111813769D01*
X146050000Y-111953336D01*
X146050000Y-111953346D01*
X146045405Y-112000000D01*
X146050000Y-112046655D01*
X146050000Y-112897823D01*
X145850000Y-112897823D01*
X145761785Y-112906511D01*
X145676959Y-112932243D01*
X145598784Y-112974029D01*
X145530263Y-113030263D01*
X145474029Y-113098784D01*
X145432243Y-113176959D01*
X145406511Y-113261785D01*
X145397823Y-113350000D01*
X141954869Y-113350000D01*
X142000000Y-113123114D01*
X142000000Y-112876886D01*
X141951963Y-112635389D01*
X141857735Y-112407903D01*
X141720938Y-112203172D01*
X141546828Y-112029062D01*
X141342097Y-111892265D01*
X141114611Y-111798037D01*
X140873114Y-111750000D01*
X140626886Y-111750000D01*
X140385389Y-111798037D01*
X140157903Y-111892265D01*
X139953172Y-112029062D01*
X139779062Y-112203172D01*
X139642265Y-112407903D01*
X139548037Y-112635389D01*
X139500000Y-112876886D01*
X128499504Y-112876886D01*
X128501216Y-112875971D01*
X128569737Y-112819737D01*
X128625971Y-112751216D01*
X128667757Y-112673041D01*
X128693489Y-112588215D01*
X128702177Y-112500000D01*
X128702177Y-108500000D01*
X128693489Y-108411785D01*
X128667757Y-108326959D01*
X128625971Y-108248784D01*
X128569737Y-108180263D01*
X128501216Y-108124029D01*
X128423041Y-108082243D01*
X128338215Y-108056511D01*
X128250000Y-108047823D01*
X124250000Y-108047823D01*
X124161785Y-108056511D01*
X124076959Y-108082243D01*
X123998784Y-108124029D01*
X123930263Y-108180263D01*
X123874029Y-108248784D01*
X123832243Y-108326959D01*
X123806511Y-108411785D01*
X123797823Y-108500000D01*
X86452177Y-108500000D01*
X86443489Y-108411785D01*
X86417757Y-108326959D01*
X86375971Y-108248784D01*
X86319737Y-108180263D01*
X86251216Y-108124029D01*
X86173041Y-108082243D01*
X86088215Y-108056511D01*
X86000000Y-108047823D01*
X82000000Y-108047823D01*
X81911785Y-108056511D01*
X81826959Y-108082243D01*
X81748784Y-108124029D01*
X81680263Y-108180263D01*
X81624029Y-108248784D01*
X81582243Y-108326959D01*
X81556511Y-108411785D01*
X81547823Y-108500000D01*
X70645882Y-108500000D01*
X70701963Y-108364611D01*
X70750000Y-108123114D01*
X70750000Y-107876886D01*
X70701963Y-107635389D01*
X70607735Y-107407903D01*
X70470938Y-107203172D01*
X70296828Y-107029062D01*
X70092097Y-106892265D01*
X70054969Y-106876886D01*
X97250000Y-106876886D01*
X97250000Y-107123114D01*
X97298037Y-107364611D01*
X97392265Y-107592097D01*
X97529062Y-107796828D01*
X97703172Y-107970938D01*
X97907903Y-108107735D01*
X98135389Y-108201963D01*
X98376886Y-108250000D01*
X98623114Y-108250000D01*
X98864611Y-108201963D01*
X99092097Y-108107735D01*
X99296828Y-107970938D01*
X99390880Y-107876886D01*
X139500000Y-107876886D01*
X139500000Y-108123114D01*
X139548037Y-108364611D01*
X139642265Y-108592097D01*
X139779062Y-108796828D01*
X139953172Y-108970938D01*
X140157903Y-109107735D01*
X140385389Y-109201963D01*
X140626886Y-109250000D01*
X140873114Y-109250000D01*
X141114611Y-109201963D01*
X141342097Y-109107735D01*
X141546828Y-108970938D01*
X141720938Y-108796828D01*
X141857735Y-108592097D01*
X141951963Y-108364611D01*
X142000000Y-108123114D01*
X142000000Y-107876886D01*
X142750000Y-107876886D01*
X142750000Y-108123114D01*
X142798037Y-108364611D01*
X142892265Y-108592097D01*
X143029062Y-108796828D01*
X143203172Y-108970938D01*
X143407903Y-109107735D01*
X143635389Y-109201963D01*
X143876886Y-109250000D01*
X144123114Y-109250000D01*
X144364611Y-109201963D01*
X144592097Y-109107735D01*
X144796828Y-108970938D01*
X144970938Y-108796828D01*
X145107735Y-108592097D01*
X145201963Y-108364611D01*
X145249249Y-108126886D01*
X146000000Y-108126886D01*
X146000000Y-108373114D01*
X146048037Y-108614611D01*
X146142265Y-108842097D01*
X146279062Y-109046828D01*
X146453172Y-109220938D01*
X146657903Y-109357735D01*
X146885389Y-109451963D01*
X147126886Y-109500000D01*
X147373114Y-109500000D01*
X147614611Y-109451963D01*
X147842097Y-109357735D01*
X148046828Y-109220938D01*
X148220938Y-109046828D01*
X148357735Y-108842097D01*
X148451963Y-108614611D01*
X148500000Y-108373114D01*
X148500000Y-108126886D01*
X148451963Y-107885389D01*
X148357735Y-107657903D01*
X148220938Y-107453172D01*
X148046828Y-107279062D01*
X147842097Y-107142265D01*
X147614611Y-107048037D01*
X147373114Y-107000000D01*
X147126886Y-107000000D01*
X146885389Y-107048037D01*
X146657903Y-107142265D01*
X146453172Y-107279062D01*
X146279062Y-107453172D01*
X146142265Y-107657903D01*
X146048037Y-107885389D01*
X146000000Y-108126886D01*
X145249249Y-108126886D01*
X145250000Y-108123114D01*
X145250000Y-107876886D01*
X145201963Y-107635389D01*
X145107735Y-107407903D01*
X144970938Y-107203172D01*
X144796828Y-107029062D01*
X144592097Y-106892265D01*
X144364611Y-106798037D01*
X144123114Y-106750000D01*
X143876886Y-106750000D01*
X143635389Y-106798037D01*
X143407903Y-106892265D01*
X143203172Y-107029062D01*
X143029062Y-107203172D01*
X142892265Y-107407903D01*
X142798037Y-107635389D01*
X142750000Y-107876886D01*
X142000000Y-107876886D01*
X141951963Y-107635389D01*
X141857735Y-107407903D01*
X141720938Y-107203172D01*
X141546828Y-107029062D01*
X141342097Y-106892265D01*
X141114611Y-106798037D01*
X140873114Y-106750000D01*
X140626886Y-106750000D01*
X140385389Y-106798037D01*
X140157903Y-106892265D01*
X139953172Y-107029062D01*
X139779062Y-107203172D01*
X139642265Y-107407903D01*
X139548037Y-107635389D01*
X139500000Y-107876886D01*
X99390880Y-107876886D01*
X99470938Y-107796828D01*
X99607735Y-107592097D01*
X99701963Y-107364611D01*
X99750000Y-107123114D01*
X99750000Y-106876886D01*
X99701963Y-106635389D01*
X99607735Y-106407903D01*
X99470938Y-106203172D01*
X99296828Y-106029062D01*
X99092097Y-105892265D01*
X98864611Y-105798037D01*
X98623114Y-105750000D01*
X98376886Y-105750000D01*
X98135389Y-105798037D01*
X97907903Y-105892265D01*
X97703172Y-106029062D01*
X97529062Y-106203172D01*
X97392265Y-106407903D01*
X97298037Y-106635389D01*
X97250000Y-106876886D01*
X70054969Y-106876886D01*
X69864611Y-106798037D01*
X69623114Y-106750000D01*
X69376886Y-106750000D01*
X69135389Y-106798037D01*
X68907903Y-106892265D01*
X68703172Y-107029062D01*
X68529062Y-107203172D01*
X68392265Y-107407903D01*
X68298037Y-107635389D01*
X68250000Y-107876886D01*
X36068486Y-107876886D01*
X36253649Y-107777915D01*
X36459213Y-107609213D01*
X36627915Y-107403649D01*
X36753272Y-107169122D01*
X36830467Y-106914646D01*
X36850000Y-106716320D01*
X36850000Y-105783679D01*
X36830467Y-105585354D01*
X36753272Y-105330878D01*
X36627915Y-105096351D01*
X36459212Y-104890787D01*
X36253648Y-104722085D01*
X36075543Y-104626886D01*
X139500000Y-104626886D01*
X139500000Y-104873114D01*
X139548037Y-105114611D01*
X139642265Y-105342097D01*
X139779062Y-105546828D01*
X139953172Y-105720938D01*
X140157903Y-105857735D01*
X140385389Y-105951963D01*
X140626886Y-106000000D01*
X140873114Y-106000000D01*
X141114611Y-105951963D01*
X141342097Y-105857735D01*
X141546828Y-105720938D01*
X141720938Y-105546828D01*
X141857735Y-105342097D01*
X141951963Y-105114611D01*
X142000000Y-104873114D01*
X142000000Y-104626886D01*
X141951963Y-104385389D01*
X141857735Y-104157903D01*
X141720938Y-103953172D01*
X141610958Y-103843192D01*
X143227518Y-103843192D01*
X143302750Y-104044748D01*
X143519967Y-104160701D01*
X143755632Y-104232049D01*
X144000689Y-104256049D01*
X144245718Y-104231780D01*
X144481305Y-104160174D01*
X144697250Y-104044748D01*
X144772482Y-103843192D01*
X144000000Y-103070711D01*
X143227518Y-103843192D01*
X141610958Y-103843192D01*
X141546828Y-103779062D01*
X141342097Y-103642265D01*
X141114611Y-103548037D01*
X140873114Y-103500000D01*
X140626886Y-103500000D01*
X140385389Y-103548037D01*
X140157903Y-103642265D01*
X139953172Y-103779062D01*
X139779062Y-103953172D01*
X139642265Y-104157903D01*
X139548037Y-104385389D01*
X139500000Y-104626886D01*
X36075543Y-104626886D01*
X36019121Y-104596728D01*
X35764645Y-104519533D01*
X35500000Y-104493468D01*
X35235354Y-104519533D01*
X34980878Y-104596728D01*
X34746351Y-104722085D01*
X34540787Y-104890788D01*
X34372085Y-105096352D01*
X34246728Y-105330879D01*
X34169533Y-105585355D01*
X34150000Y-105783680D01*
X22975000Y-105783680D01*
X22975000Y-103843192D01*
X68727518Y-103843192D01*
X68802750Y-104044748D01*
X69019967Y-104160701D01*
X69255632Y-104232049D01*
X69500689Y-104256049D01*
X69745718Y-104231780D01*
X69981305Y-104160174D01*
X70197250Y-104044748D01*
X70272482Y-103843192D01*
X69500000Y-103070711D01*
X68727518Y-103843192D01*
X22975000Y-103843192D01*
X22975000Y-103000689D01*
X68243951Y-103000689D01*
X68268220Y-103245718D01*
X68339826Y-103481305D01*
X68455252Y-103697250D01*
X68656808Y-103772482D01*
X69429289Y-103000000D01*
X69570711Y-103000000D01*
X70343192Y-103772482D01*
X70544748Y-103697250D01*
X70660701Y-103480033D01*
X70732049Y-103244368D01*
X70755914Y-103000689D01*
X142743951Y-103000689D01*
X142768220Y-103245718D01*
X142839826Y-103481305D01*
X142955252Y-103697250D01*
X143156808Y-103772482D01*
X143929289Y-103000000D01*
X144070711Y-103000000D01*
X144843192Y-103772482D01*
X145037380Y-103700000D01*
X157747823Y-103700000D01*
X157747823Y-106300000D01*
X157756511Y-106388215D01*
X157782243Y-106473041D01*
X157824029Y-106551216D01*
X157880263Y-106619737D01*
X157948784Y-106675971D01*
X158026959Y-106717757D01*
X158111785Y-106743489D01*
X158200000Y-106752177D01*
X160800000Y-106752177D01*
X160888215Y-106743489D01*
X160973041Y-106717757D01*
X161051216Y-106675971D01*
X161119737Y-106619737D01*
X161175971Y-106551216D01*
X161217757Y-106473041D01*
X161243489Y-106388215D01*
X161252177Y-106300000D01*
X161252177Y-103700000D01*
X161243489Y-103611785D01*
X161217757Y-103526959D01*
X161175971Y-103448784D01*
X161119737Y-103380263D01*
X161051216Y-103324029D01*
X160973041Y-103282243D01*
X160888215Y-103256511D01*
X160800000Y-103247823D01*
X158200000Y-103247823D01*
X158111785Y-103256511D01*
X158026959Y-103282243D01*
X157948784Y-103324029D01*
X157880263Y-103380263D01*
X157824029Y-103448784D01*
X157782243Y-103526959D01*
X157756511Y-103611785D01*
X157747823Y-103700000D01*
X145037380Y-103700000D01*
X145044748Y-103697250D01*
X145160701Y-103480033D01*
X145232049Y-103244368D01*
X145256049Y-102999311D01*
X145231780Y-102754282D01*
X145160174Y-102518695D01*
X145044748Y-102302750D01*
X144843192Y-102227518D01*
X144070711Y-103000000D01*
X143929289Y-103000000D01*
X143156808Y-102227518D01*
X142955252Y-102302750D01*
X142839299Y-102519967D01*
X142767951Y-102755632D01*
X142743951Y-103000689D01*
X70755914Y-103000689D01*
X70756049Y-102999311D01*
X70731780Y-102754282D01*
X70660174Y-102518695D01*
X70544748Y-102302750D01*
X70343192Y-102227518D01*
X69570711Y-103000000D01*
X69429289Y-103000000D01*
X68656808Y-102227518D01*
X68455252Y-102302750D01*
X68339299Y-102519967D01*
X68267951Y-102755632D01*
X68243951Y-103000689D01*
X22975000Y-103000689D01*
X22975000Y-102196224D01*
X53374487Y-102196224D01*
X53593707Y-102520661D01*
X54014940Y-102756189D01*
X54474029Y-102905013D01*
X54953330Y-102961413D01*
X55434424Y-102923223D01*
X55898825Y-102791910D01*
X56328683Y-102572520D01*
X56406293Y-102520661D01*
X56625513Y-102196224D01*
X56586097Y-102156808D01*
X68727518Y-102156808D01*
X69500000Y-102929289D01*
X70233065Y-102196224D01*
X82374487Y-102196224D01*
X82593707Y-102520661D01*
X83014940Y-102756189D01*
X83474029Y-102905013D01*
X83953330Y-102961413D01*
X84434424Y-102923223D01*
X84898825Y-102791910D01*
X85328683Y-102572520D01*
X85406293Y-102520661D01*
X85625513Y-102196224D01*
X124624487Y-102196224D01*
X124843707Y-102520661D01*
X125264940Y-102756189D01*
X125724029Y-102905013D01*
X126203330Y-102961413D01*
X126684424Y-102923223D01*
X127148825Y-102791910D01*
X127578683Y-102572520D01*
X127656293Y-102520661D01*
X127875513Y-102196224D01*
X127836097Y-102156808D01*
X143227518Y-102156808D01*
X144000000Y-102929289D01*
X144772482Y-102156808D01*
X144697250Y-101955252D01*
X144480033Y-101839299D01*
X144244368Y-101767951D01*
X143999311Y-101743951D01*
X143754282Y-101768220D01*
X143518695Y-101839826D01*
X143302750Y-101955252D01*
X143227518Y-102156808D01*
X127836097Y-102156808D01*
X126250000Y-100570711D01*
X124624487Y-102196224D01*
X85625513Y-102196224D01*
X84000000Y-100570711D01*
X82374487Y-102196224D01*
X70233065Y-102196224D01*
X70272482Y-102156808D01*
X70197250Y-101955252D01*
X69980033Y-101839299D01*
X69744368Y-101767951D01*
X69499311Y-101743951D01*
X69254282Y-101768220D01*
X69018695Y-101839826D01*
X68802750Y-101955252D01*
X68727518Y-102156808D01*
X56586097Y-102156808D01*
X55000000Y-100570711D01*
X53374487Y-102196224D01*
X22975000Y-102196224D01*
X22975000Y-98700000D01*
X26497823Y-98700000D01*
X26497823Y-101300000D01*
X26506511Y-101388215D01*
X26532243Y-101473041D01*
X26574029Y-101551216D01*
X26630263Y-101619737D01*
X26698784Y-101675971D01*
X26776959Y-101717757D01*
X26861785Y-101743489D01*
X26950000Y-101752177D01*
X29550000Y-101752177D01*
X29638215Y-101743489D01*
X29723041Y-101717757D01*
X29801216Y-101675971D01*
X29869737Y-101619737D01*
X29925971Y-101551216D01*
X29967757Y-101473041D01*
X29993489Y-101388215D01*
X30002177Y-101300000D01*
X30002177Y-100453330D01*
X52538587Y-100453330D01*
X52576777Y-100934424D01*
X52708090Y-101398825D01*
X52927480Y-101828683D01*
X52979339Y-101906293D01*
X53303776Y-102125513D01*
X54929289Y-100500000D01*
X55070711Y-100500000D01*
X56696224Y-102125513D01*
X57020661Y-101906293D01*
X57256189Y-101485060D01*
X57405013Y-101025971D01*
X57461413Y-100546670D01*
X57454004Y-100453330D01*
X81538587Y-100453330D01*
X81576777Y-100934424D01*
X81708090Y-101398825D01*
X81927480Y-101828683D01*
X81979339Y-101906293D01*
X82303776Y-102125513D01*
X83929289Y-100500000D01*
X84070711Y-100500000D01*
X85696224Y-102125513D01*
X86020661Y-101906293D01*
X86256189Y-101485060D01*
X86405013Y-101025971D01*
X86461413Y-100546670D01*
X86454004Y-100453330D01*
X123788587Y-100453330D01*
X123826777Y-100934424D01*
X123958090Y-101398825D01*
X124177480Y-101828683D01*
X124229339Y-101906293D01*
X124553776Y-102125513D01*
X126179289Y-100500000D01*
X126320711Y-100500000D01*
X127946224Y-102125513D01*
X128270661Y-101906293D01*
X128506189Y-101485060D01*
X128655013Y-101025971D01*
X128711413Y-100546670D01*
X128673223Y-100065576D01*
X128605945Y-99827640D01*
X157750000Y-99827640D01*
X157750000Y-100172360D01*
X157817251Y-100510456D01*
X157949170Y-100828936D01*
X158140686Y-101115560D01*
X158384440Y-101359314D01*
X158671064Y-101550830D01*
X158989544Y-101682749D01*
X159327640Y-101750000D01*
X159672360Y-101750000D01*
X160010456Y-101682749D01*
X160328936Y-101550830D01*
X160615560Y-101359314D01*
X160859314Y-101115560D01*
X161050830Y-100828936D01*
X161182749Y-100510456D01*
X161250000Y-100172360D01*
X161250000Y-99827640D01*
X161182749Y-99489544D01*
X161050830Y-99171064D01*
X160859314Y-98884440D01*
X160615560Y-98640686D01*
X160328936Y-98449170D01*
X160010456Y-98317251D01*
X159672360Y-98250000D01*
X159327640Y-98250000D01*
X158989544Y-98317251D01*
X158671064Y-98449170D01*
X158384440Y-98640686D01*
X158140686Y-98884440D01*
X157949170Y-99171064D01*
X157817251Y-99489544D01*
X157750000Y-99827640D01*
X128605945Y-99827640D01*
X128541910Y-99601175D01*
X128322520Y-99171317D01*
X128270661Y-99093707D01*
X127946224Y-98874487D01*
X126320711Y-100500000D01*
X126179289Y-100500000D01*
X124553776Y-98874487D01*
X124229339Y-99093707D01*
X123993811Y-99514940D01*
X123844987Y-99974029D01*
X123788587Y-100453330D01*
X86454004Y-100453330D01*
X86423223Y-100065576D01*
X86291910Y-99601175D01*
X86072520Y-99171317D01*
X86020661Y-99093707D01*
X85696224Y-98874487D01*
X84070711Y-100500000D01*
X83929289Y-100500000D01*
X82303776Y-98874487D01*
X81979339Y-99093707D01*
X81743811Y-99514940D01*
X81594987Y-99974029D01*
X81538587Y-100453330D01*
X57454004Y-100453330D01*
X57423223Y-100065576D01*
X57291910Y-99601175D01*
X57072520Y-99171317D01*
X57020661Y-99093707D01*
X56696224Y-98874487D01*
X55070711Y-100500000D01*
X54929289Y-100500000D01*
X53303776Y-98874487D01*
X52979339Y-99093707D01*
X52743811Y-99514940D01*
X52594987Y-99974029D01*
X52538587Y-100453330D01*
X30002177Y-100453330D01*
X30002177Y-98803776D01*
X53374487Y-98803776D01*
X55000000Y-100429289D01*
X56625513Y-98803776D01*
X82374487Y-98803776D01*
X84000000Y-100429289D01*
X85625513Y-98803776D01*
X124624487Y-98803776D01*
X126250000Y-100429289D01*
X127875513Y-98803776D01*
X127656293Y-98479339D01*
X127235060Y-98243811D01*
X126775971Y-98094987D01*
X126296670Y-98038587D01*
X125815576Y-98076777D01*
X125351175Y-98208090D01*
X124921317Y-98427480D01*
X124843707Y-98479339D01*
X124624487Y-98803776D01*
X85625513Y-98803776D01*
X85406293Y-98479339D01*
X84985060Y-98243811D01*
X84525971Y-98094987D01*
X84046670Y-98038587D01*
X83565576Y-98076777D01*
X83101175Y-98208090D01*
X82671317Y-98427480D01*
X82593707Y-98479339D01*
X82374487Y-98803776D01*
X56625513Y-98803776D01*
X56406293Y-98479339D01*
X55985060Y-98243811D01*
X55525971Y-98094987D01*
X55046670Y-98038587D01*
X54565576Y-98076777D01*
X54101175Y-98208090D01*
X53671317Y-98427480D01*
X53593707Y-98479339D01*
X53374487Y-98803776D01*
X30002177Y-98803776D01*
X30002177Y-98700000D01*
X29993489Y-98611785D01*
X29967757Y-98526959D01*
X29925971Y-98448784D01*
X29869737Y-98380263D01*
X29801216Y-98324029D01*
X29723041Y-98282243D01*
X29638215Y-98256511D01*
X29550000Y-98247823D01*
X26950000Y-98247823D01*
X26861785Y-98256511D01*
X26776959Y-98282243D01*
X26698784Y-98324029D01*
X26630263Y-98380263D01*
X26574029Y-98448784D01*
X26532243Y-98526959D01*
X26506511Y-98611785D01*
X26497823Y-98700000D01*
X22975000Y-98700000D01*
X22975000Y-96198693D01*
X27122018Y-96198693D01*
X27257267Y-96451444D01*
X27559505Y-96617227D01*
X27888278Y-96720862D01*
X28230952Y-96758364D01*
X28574358Y-96728293D01*
X28905299Y-96631805D01*
X29211057Y-96472608D01*
X29242733Y-96451444D01*
X29377982Y-96198693D01*
X28250000Y-95070711D01*
X27122018Y-96198693D01*
X22975000Y-96198693D01*
X22975000Y-94980952D01*
X26491636Y-94980952D01*
X26521707Y-95324358D01*
X26618195Y-95655299D01*
X26777392Y-95961057D01*
X26798556Y-95992733D01*
X27051307Y-96127982D01*
X28179289Y-95000000D01*
X28320711Y-95000000D01*
X29448693Y-96127982D01*
X29701444Y-95992733D01*
X29816113Y-95783680D01*
X34150000Y-95783680D01*
X34150000Y-96716321D01*
X34169533Y-96914646D01*
X34246728Y-97169122D01*
X34372085Y-97403649D01*
X34540788Y-97609213D01*
X34746352Y-97777915D01*
X34980879Y-97903272D01*
X35235355Y-97980467D01*
X35500000Y-98006532D01*
X35764646Y-97980467D01*
X36019122Y-97903272D01*
X36253649Y-97777915D01*
X36459213Y-97609213D01*
X36627915Y-97403649D01*
X36753272Y-97169122D01*
X36830467Y-96914646D01*
X36850000Y-96716320D01*
X36850000Y-96117037D01*
X38650000Y-96117037D01*
X38650000Y-96382963D01*
X38701880Y-96643780D01*
X38803646Y-96889465D01*
X38951387Y-97110575D01*
X39139425Y-97298613D01*
X39360535Y-97446354D01*
X39606220Y-97548120D01*
X39867037Y-97600000D01*
X40132963Y-97600000D01*
X40393780Y-97548120D01*
X40639465Y-97446354D01*
X40860575Y-97298613D01*
X41048613Y-97110575D01*
X41065854Y-97084771D01*
X97274197Y-97084771D01*
X97345503Y-97319210D01*
X97461176Y-97535233D01*
X97616770Y-97724539D01*
X97806306Y-97879852D01*
X98022500Y-97995205D01*
X98255229Y-98065801D01*
X98450000Y-97976401D01*
X98450000Y-96890000D01*
X98550000Y-96890000D01*
X98550000Y-97976401D01*
X98744771Y-98065801D01*
X98977500Y-97995205D01*
X99030575Y-97966886D01*
X146000000Y-97966886D01*
X146000000Y-98213114D01*
X146048037Y-98454611D01*
X146142265Y-98682097D01*
X146279062Y-98886828D01*
X146453172Y-99060938D01*
X146657903Y-99197735D01*
X146885389Y-99291963D01*
X147126886Y-99340000D01*
X147373114Y-99340000D01*
X147614611Y-99291963D01*
X147842097Y-99197735D01*
X148046828Y-99060938D01*
X148220938Y-98886828D01*
X148357735Y-98682097D01*
X148451963Y-98454611D01*
X148500000Y-98213114D01*
X148500000Y-97966886D01*
X148451963Y-97725389D01*
X148357735Y-97497903D01*
X148220938Y-97293172D01*
X148046828Y-97119062D01*
X147842097Y-96982265D01*
X147614611Y-96888037D01*
X147373114Y-96840000D01*
X147126886Y-96840000D01*
X146885389Y-96888037D01*
X146657903Y-96982265D01*
X146453172Y-97119062D01*
X146279062Y-97293172D01*
X146142265Y-97497903D01*
X146048037Y-97725389D01*
X146000000Y-97966886D01*
X99030575Y-97966886D01*
X99193694Y-97879852D01*
X99383230Y-97724539D01*
X99538824Y-97535233D01*
X99654497Y-97319210D01*
X99725803Y-97084771D01*
X99636502Y-96890000D01*
X98550000Y-96890000D01*
X98450000Y-96890000D01*
X97363498Y-96890000D01*
X97274197Y-97084771D01*
X41065854Y-97084771D01*
X41196354Y-96889465D01*
X41298120Y-96643780D01*
X41307777Y-96595229D01*
X97274197Y-96595229D01*
X97363498Y-96790000D01*
X98450000Y-96790000D01*
X98450000Y-95703599D01*
X98550000Y-95703599D01*
X98550000Y-96790000D01*
X99636502Y-96790000D01*
X99725803Y-96595229D01*
X99654497Y-96360790D01*
X99538824Y-96144767D01*
X99383230Y-95955461D01*
X99193694Y-95800148D01*
X98977500Y-95684795D01*
X98744771Y-95614199D01*
X98550000Y-95703599D01*
X98450000Y-95703599D01*
X98255229Y-95614199D01*
X98022500Y-95684795D01*
X97806306Y-95800148D01*
X97616770Y-95955461D01*
X97461176Y-96144767D01*
X97345503Y-96360790D01*
X97274197Y-96595229D01*
X41307777Y-96595229D01*
X41350000Y-96382963D01*
X41350000Y-96117037D01*
X41298120Y-95856220D01*
X41196354Y-95610535D01*
X41048613Y-95389425D01*
X40860575Y-95201387D01*
X40639465Y-95053646D01*
X40393780Y-94951880D01*
X40132963Y-94900000D01*
X39867037Y-94900000D01*
X39606220Y-94951880D01*
X39360535Y-95053646D01*
X39139425Y-95201387D01*
X38951387Y-95389425D01*
X38803646Y-95610535D01*
X38701880Y-95856220D01*
X38650000Y-96117037D01*
X36850000Y-96117037D01*
X36850000Y-95783679D01*
X36830467Y-95585354D01*
X36753272Y-95330878D01*
X36627915Y-95096351D01*
X36459212Y-94890787D01*
X36370267Y-94817791D01*
X101650000Y-94817791D01*
X101650000Y-95182209D01*
X101721095Y-95539625D01*
X101860552Y-95876303D01*
X102063011Y-96179306D01*
X102320694Y-96436989D01*
X102623697Y-96639448D01*
X102960375Y-96778905D01*
X103317791Y-96850000D01*
X103682209Y-96850000D01*
X104039625Y-96778905D01*
X104376303Y-96639448D01*
X104679306Y-96436989D01*
X104936989Y-96179306D01*
X105139448Y-95876303D01*
X105278905Y-95539625D01*
X105350000Y-95182209D01*
X105350000Y-94817791D01*
X108150000Y-94817791D01*
X108150000Y-95182209D01*
X108221095Y-95539625D01*
X108360552Y-95876303D01*
X108563011Y-96179306D01*
X108820694Y-96436989D01*
X109123697Y-96639448D01*
X109460375Y-96778905D01*
X109817791Y-96850000D01*
X110182209Y-96850000D01*
X110539625Y-96778905D01*
X110876303Y-96639448D01*
X111179306Y-96436989D01*
X111239409Y-96376886D01*
X149250000Y-96376886D01*
X149250000Y-96623114D01*
X149298037Y-96864611D01*
X149392265Y-97092097D01*
X149529062Y-97296828D01*
X149703172Y-97470938D01*
X149907903Y-97607735D01*
X150135389Y-97701963D01*
X150376886Y-97750000D01*
X150623114Y-97750000D01*
X150864611Y-97701963D01*
X151092097Y-97607735D01*
X151296828Y-97470938D01*
X151470938Y-97296828D01*
X151607735Y-97092097D01*
X151701963Y-96864611D01*
X151750000Y-96623114D01*
X151750000Y-96376886D01*
X151714556Y-96198693D01*
X158372018Y-96198693D01*
X158507267Y-96451444D01*
X158809505Y-96617227D01*
X159138278Y-96720862D01*
X159480952Y-96758364D01*
X159824358Y-96728293D01*
X160155299Y-96631805D01*
X160461057Y-96472608D01*
X160492733Y-96451444D01*
X160627982Y-96198693D01*
X159500000Y-95070711D01*
X158372018Y-96198693D01*
X151714556Y-96198693D01*
X151701963Y-96135389D01*
X151607735Y-95907903D01*
X151470938Y-95703172D01*
X151296828Y-95529062D01*
X151092097Y-95392265D01*
X150864611Y-95298037D01*
X150623114Y-95250000D01*
X150376886Y-95250000D01*
X150135389Y-95298037D01*
X149907903Y-95392265D01*
X149703172Y-95529062D01*
X149529062Y-95703172D01*
X149392265Y-95907903D01*
X149298037Y-96135389D01*
X149250000Y-96376886D01*
X111239409Y-96376886D01*
X111436989Y-96179306D01*
X111639448Y-95876303D01*
X111778905Y-95539625D01*
X111850000Y-95182209D01*
X111850000Y-94834771D01*
X139524197Y-94834771D01*
X139595503Y-95069210D01*
X139711176Y-95285233D01*
X139866770Y-95474539D01*
X140056306Y-95629852D01*
X140272500Y-95745205D01*
X140505229Y-95815801D01*
X140700000Y-95726401D01*
X140700000Y-94640000D01*
X140800000Y-94640000D01*
X140800000Y-95726401D01*
X140994771Y-95815801D01*
X141227500Y-95745205D01*
X141443694Y-95629852D01*
X141633230Y-95474539D01*
X141788824Y-95285233D01*
X141904497Y-95069210D01*
X141931341Y-94980952D01*
X157741636Y-94980952D01*
X157771707Y-95324358D01*
X157868195Y-95655299D01*
X158027392Y-95961057D01*
X158048556Y-95992733D01*
X158301307Y-96127982D01*
X159429289Y-95000000D01*
X159570711Y-95000000D01*
X160698693Y-96127982D01*
X160951444Y-95992733D01*
X161117227Y-95690495D01*
X161220862Y-95361722D01*
X161258364Y-95019048D01*
X161228293Y-94675642D01*
X161131805Y-94344701D01*
X160972608Y-94038943D01*
X160951444Y-94007267D01*
X160698693Y-93872018D01*
X159570711Y-95000000D01*
X159429289Y-95000000D01*
X158301307Y-93872018D01*
X158048556Y-94007267D01*
X157882773Y-94309505D01*
X157779138Y-94638278D01*
X157741636Y-94980952D01*
X141931341Y-94980952D01*
X141975803Y-94834771D01*
X141886502Y-94640000D01*
X140800000Y-94640000D01*
X140700000Y-94640000D01*
X139613498Y-94640000D01*
X139524197Y-94834771D01*
X111850000Y-94834771D01*
X111850000Y-94817791D01*
X111778905Y-94460375D01*
X111731210Y-94345229D01*
X139524197Y-94345229D01*
X139613498Y-94540000D01*
X140700000Y-94540000D01*
X140700000Y-93453599D01*
X140800000Y-93453599D01*
X140800000Y-94540000D01*
X141886502Y-94540000D01*
X141975803Y-94345229D01*
X141904497Y-94110790D01*
X141788824Y-93894767D01*
X141712008Y-93801307D01*
X158372018Y-93801307D01*
X159500000Y-94929289D01*
X160627982Y-93801307D01*
X160492733Y-93548556D01*
X160190495Y-93382773D01*
X159861722Y-93279138D01*
X159519048Y-93241636D01*
X159175642Y-93271707D01*
X158844701Y-93368195D01*
X158538943Y-93527392D01*
X158507267Y-93548556D01*
X158372018Y-93801307D01*
X141712008Y-93801307D01*
X141633230Y-93705461D01*
X141443694Y-93550148D01*
X141227500Y-93434795D01*
X140994771Y-93364199D01*
X140800000Y-93453599D01*
X140700000Y-93453599D01*
X140505229Y-93364199D01*
X140272500Y-93434795D01*
X140056306Y-93550148D01*
X139866770Y-93705461D01*
X139711176Y-93894767D01*
X139595503Y-94110790D01*
X139524197Y-94345229D01*
X111731210Y-94345229D01*
X111639448Y-94123697D01*
X111436989Y-93820694D01*
X111179306Y-93563011D01*
X110876303Y-93360552D01*
X110539625Y-93221095D01*
X110182209Y-93150000D01*
X109817791Y-93150000D01*
X109460375Y-93221095D01*
X109123697Y-93360552D01*
X108820694Y-93563011D01*
X108563011Y-93820694D01*
X108360552Y-94123697D01*
X108221095Y-94460375D01*
X108150000Y-94817791D01*
X105350000Y-94817791D01*
X105278905Y-94460375D01*
X105139448Y-94123697D01*
X104936989Y-93820694D01*
X104679306Y-93563011D01*
X104376303Y-93360552D01*
X104039625Y-93221095D01*
X103682209Y-93150000D01*
X103317791Y-93150000D01*
X102960375Y-93221095D01*
X102623697Y-93360552D01*
X102320694Y-93563011D01*
X102063011Y-93820694D01*
X101860552Y-94123697D01*
X101721095Y-94460375D01*
X101650000Y-94817791D01*
X36370267Y-94817791D01*
X36253648Y-94722085D01*
X36019121Y-94596728D01*
X35764645Y-94519533D01*
X35500000Y-94493468D01*
X35235354Y-94519533D01*
X34980878Y-94596728D01*
X34746351Y-94722085D01*
X34540787Y-94890788D01*
X34372085Y-95096352D01*
X34246728Y-95330879D01*
X34169533Y-95585355D01*
X34150000Y-95783680D01*
X29816113Y-95783680D01*
X29867227Y-95690495D01*
X29970862Y-95361722D01*
X30008364Y-95019048D01*
X29978293Y-94675642D01*
X29881805Y-94344701D01*
X29722608Y-94038943D01*
X29701444Y-94007267D01*
X29448693Y-93872018D01*
X28320711Y-95000000D01*
X28179289Y-95000000D01*
X27051307Y-93872018D01*
X26798556Y-94007267D01*
X26632773Y-94309505D01*
X26529138Y-94638278D01*
X26491636Y-94980952D01*
X22975000Y-94980952D01*
X22975000Y-93801307D01*
X27122018Y-93801307D01*
X28250000Y-94929289D01*
X29377982Y-93801307D01*
X29242733Y-93548556D01*
X28940495Y-93382773D01*
X28611722Y-93279138D01*
X28269048Y-93241636D01*
X27925642Y-93271707D01*
X27594701Y-93368195D01*
X27288943Y-93527392D01*
X27257267Y-93548556D01*
X27122018Y-93801307D01*
X22975000Y-93801307D01*
X22975000Y-91198693D01*
X27122018Y-91198693D01*
X27257267Y-91451444D01*
X27559505Y-91617227D01*
X27888278Y-91720862D01*
X28230952Y-91758364D01*
X28574358Y-91728293D01*
X28905299Y-91631805D01*
X29211057Y-91472608D01*
X29242733Y-91451444D01*
X29377982Y-91198693D01*
X28250000Y-90070711D01*
X27122018Y-91198693D01*
X22975000Y-91198693D01*
X22975000Y-89980952D01*
X26491636Y-89980952D01*
X26521707Y-90324358D01*
X26618195Y-90655299D01*
X26777392Y-90961057D01*
X26798556Y-90992733D01*
X27051307Y-91127982D01*
X28179289Y-90000000D01*
X28320711Y-90000000D01*
X29448693Y-91127982D01*
X29701444Y-90992733D01*
X29867227Y-90690495D01*
X29970862Y-90361722D01*
X30008364Y-90019048D01*
X29978293Y-89675642D01*
X29881805Y-89344701D01*
X29722608Y-89038943D01*
X29701444Y-89007267D01*
X29448693Y-88872018D01*
X28320711Y-90000000D01*
X28179289Y-90000000D01*
X27051307Y-88872018D01*
X26798556Y-89007267D01*
X26632773Y-89309505D01*
X26529138Y-89638278D01*
X26491636Y-89980952D01*
X22975000Y-89980952D01*
X22975000Y-88801307D01*
X27122018Y-88801307D01*
X28250000Y-89929289D01*
X29377982Y-88801307D01*
X29242733Y-88548556D01*
X28940495Y-88382773D01*
X28626132Y-88283680D01*
X34150000Y-88283680D01*
X34150000Y-89216321D01*
X34169533Y-89414646D01*
X34246728Y-89669122D01*
X34372085Y-89903649D01*
X34540788Y-90109213D01*
X34746352Y-90277915D01*
X34980879Y-90403272D01*
X35235355Y-90480467D01*
X35500000Y-90506532D01*
X35764646Y-90480467D01*
X36019122Y-90403272D01*
X36253649Y-90277915D01*
X36459213Y-90109213D01*
X36627915Y-89903649D01*
X36753272Y-89669122D01*
X36830467Y-89414646D01*
X36850000Y-89216320D01*
X36850000Y-88617037D01*
X40050000Y-88617037D01*
X40050000Y-88882963D01*
X40101880Y-89143780D01*
X40203646Y-89389465D01*
X40351387Y-89610575D01*
X40539425Y-89798613D01*
X40760535Y-89946354D01*
X41006220Y-90048120D01*
X41267037Y-90100000D01*
X41532963Y-90100000D01*
X41793780Y-90048120D01*
X42039465Y-89946354D01*
X42231873Y-89817791D01*
X101650000Y-89817791D01*
X101650000Y-90182209D01*
X101721095Y-90539625D01*
X101860552Y-90876303D01*
X102063011Y-91179306D01*
X102320694Y-91436989D01*
X102623697Y-91639448D01*
X102960375Y-91778905D01*
X103317791Y-91850000D01*
X103682209Y-91850000D01*
X104039625Y-91778905D01*
X104376303Y-91639448D01*
X104679306Y-91436989D01*
X104936989Y-91179306D01*
X105139448Y-90876303D01*
X105278905Y-90539625D01*
X105350000Y-90182209D01*
X105350000Y-89817791D01*
X108150000Y-89817791D01*
X108150000Y-90182209D01*
X108221095Y-90539625D01*
X108360552Y-90876303D01*
X108563011Y-91179306D01*
X108820694Y-91436989D01*
X109123697Y-91639448D01*
X109460375Y-91778905D01*
X109817791Y-91850000D01*
X110182209Y-91850000D01*
X110539625Y-91778905D01*
X110876303Y-91639448D01*
X111179306Y-91436989D01*
X111436989Y-91179306D01*
X111639448Y-90876303D01*
X111756716Y-90593192D01*
X139977518Y-90593192D01*
X140052750Y-90794748D01*
X140269967Y-90910701D01*
X140505632Y-90982049D01*
X140750689Y-91006049D01*
X140995718Y-90981780D01*
X141231305Y-90910174D01*
X141356618Y-90843192D01*
X146477518Y-90843192D01*
X146552750Y-91044748D01*
X146769967Y-91160701D01*
X147005632Y-91232049D01*
X147250689Y-91256049D01*
X147495718Y-91231780D01*
X147731305Y-91160174D01*
X147947250Y-91044748D01*
X148022482Y-90843192D01*
X149727518Y-90843192D01*
X149802750Y-91044748D01*
X150019967Y-91160701D01*
X150255632Y-91232049D01*
X150500689Y-91256049D01*
X150745718Y-91231780D01*
X150854575Y-91198693D01*
X158372018Y-91198693D01*
X158507267Y-91451444D01*
X158809505Y-91617227D01*
X159138278Y-91720862D01*
X159480952Y-91758364D01*
X159824358Y-91728293D01*
X160155299Y-91631805D01*
X160461057Y-91472608D01*
X160492733Y-91451444D01*
X160627982Y-91198693D01*
X159500000Y-90070711D01*
X158372018Y-91198693D01*
X150854575Y-91198693D01*
X150981305Y-91160174D01*
X151197250Y-91044748D01*
X151272482Y-90843192D01*
X150500000Y-90070711D01*
X149727518Y-90843192D01*
X148022482Y-90843192D01*
X147250000Y-90070711D01*
X146477518Y-90843192D01*
X141356618Y-90843192D01*
X141447250Y-90794748D01*
X141522482Y-90593192D01*
X140750000Y-89820711D01*
X139977518Y-90593192D01*
X111756716Y-90593192D01*
X111778905Y-90539625D01*
X111850000Y-90182209D01*
X111850000Y-89817791D01*
X111836653Y-89750689D01*
X139493951Y-89750689D01*
X139518220Y-89995718D01*
X139589826Y-90231305D01*
X139705252Y-90447250D01*
X139906808Y-90522482D01*
X140679289Y-89750000D01*
X140820711Y-89750000D01*
X141593192Y-90522482D01*
X141794748Y-90447250D01*
X141910701Y-90230033D01*
X141980135Y-90000689D01*
X145993951Y-90000689D01*
X146018220Y-90245718D01*
X146089826Y-90481305D01*
X146205252Y-90697250D01*
X146406808Y-90772482D01*
X147179289Y-90000000D01*
X147320711Y-90000000D01*
X148093192Y-90772482D01*
X148294748Y-90697250D01*
X148410701Y-90480033D01*
X148482049Y-90244368D01*
X148505914Y-90000689D01*
X149243951Y-90000689D01*
X149268220Y-90245718D01*
X149339826Y-90481305D01*
X149455252Y-90697250D01*
X149656808Y-90772482D01*
X150429289Y-90000000D01*
X150570711Y-90000000D01*
X151343192Y-90772482D01*
X151544748Y-90697250D01*
X151660701Y-90480033D01*
X151732049Y-90244368D01*
X151756049Y-89999311D01*
X151754231Y-89980952D01*
X157741636Y-89980952D01*
X157771707Y-90324358D01*
X157868195Y-90655299D01*
X158027392Y-90961057D01*
X158048556Y-90992733D01*
X158301307Y-91127982D01*
X159429289Y-90000000D01*
X159570711Y-90000000D01*
X160698693Y-91127982D01*
X160951444Y-90992733D01*
X161117227Y-90690495D01*
X161220862Y-90361722D01*
X161258364Y-90019048D01*
X161228293Y-89675642D01*
X161131805Y-89344701D01*
X160972608Y-89038943D01*
X160951444Y-89007267D01*
X160698693Y-88872018D01*
X159570711Y-90000000D01*
X159429289Y-90000000D01*
X158301307Y-88872018D01*
X158048556Y-89007267D01*
X157882773Y-89309505D01*
X157779138Y-89638278D01*
X157741636Y-89980952D01*
X151754231Y-89980952D01*
X151731780Y-89754282D01*
X151660174Y-89518695D01*
X151544748Y-89302750D01*
X151343192Y-89227518D01*
X150570711Y-90000000D01*
X150429289Y-90000000D01*
X149656808Y-89227518D01*
X149455252Y-89302750D01*
X149339299Y-89519967D01*
X149267951Y-89755632D01*
X149243951Y-90000689D01*
X148505914Y-90000689D01*
X148506049Y-89999311D01*
X148481780Y-89754282D01*
X148410174Y-89518695D01*
X148294748Y-89302750D01*
X148093192Y-89227518D01*
X147320711Y-90000000D01*
X147179289Y-90000000D01*
X146406808Y-89227518D01*
X146205252Y-89302750D01*
X146089299Y-89519967D01*
X146017951Y-89755632D01*
X145993951Y-90000689D01*
X141980135Y-90000689D01*
X141982049Y-89994368D01*
X142006049Y-89749311D01*
X141981780Y-89504282D01*
X141910174Y-89268695D01*
X141850369Y-89156808D01*
X146477518Y-89156808D01*
X147250000Y-89929289D01*
X148022482Y-89156808D01*
X149727518Y-89156808D01*
X150500000Y-89929289D01*
X151272482Y-89156808D01*
X151197250Y-88955252D01*
X150980033Y-88839299D01*
X150854545Y-88801307D01*
X158372018Y-88801307D01*
X159500000Y-89929289D01*
X160627982Y-88801307D01*
X160492733Y-88548556D01*
X160190495Y-88382773D01*
X159861722Y-88279138D01*
X159519048Y-88241636D01*
X159175642Y-88271707D01*
X158844701Y-88368195D01*
X158538943Y-88527392D01*
X158507267Y-88548556D01*
X158372018Y-88801307D01*
X150854545Y-88801307D01*
X150744368Y-88767951D01*
X150499311Y-88743951D01*
X150254282Y-88768220D01*
X150018695Y-88839826D01*
X149802750Y-88955252D01*
X149727518Y-89156808D01*
X148022482Y-89156808D01*
X147947250Y-88955252D01*
X147730033Y-88839299D01*
X147494368Y-88767951D01*
X147249311Y-88743951D01*
X147004282Y-88768220D01*
X146768695Y-88839826D01*
X146552750Y-88955252D01*
X146477518Y-89156808D01*
X141850369Y-89156808D01*
X141794748Y-89052750D01*
X141593192Y-88977518D01*
X140820711Y-89750000D01*
X140679289Y-89750000D01*
X139906808Y-88977518D01*
X139705252Y-89052750D01*
X139589299Y-89269967D01*
X139517951Y-89505632D01*
X139493951Y-89750689D01*
X111836653Y-89750689D01*
X111778905Y-89460375D01*
X111639448Y-89123697D01*
X111494529Y-88906808D01*
X139977518Y-88906808D01*
X140750000Y-89679289D01*
X141522482Y-88906808D01*
X141447250Y-88705252D01*
X141230033Y-88589299D01*
X140994368Y-88517951D01*
X140749311Y-88493951D01*
X140504282Y-88518220D01*
X140268695Y-88589826D01*
X140052750Y-88705252D01*
X139977518Y-88906808D01*
X111494529Y-88906808D01*
X111436989Y-88820694D01*
X111179306Y-88563011D01*
X110876303Y-88360552D01*
X110539625Y-88221095D01*
X110182209Y-88150000D01*
X109817791Y-88150000D01*
X109460375Y-88221095D01*
X109123697Y-88360552D01*
X108820694Y-88563011D01*
X108563011Y-88820694D01*
X108360552Y-89123697D01*
X108221095Y-89460375D01*
X108150000Y-89817791D01*
X105350000Y-89817791D01*
X105278905Y-89460375D01*
X105139448Y-89123697D01*
X104936989Y-88820694D01*
X104679306Y-88563011D01*
X104376303Y-88360552D01*
X104039625Y-88221095D01*
X103682209Y-88150000D01*
X103317791Y-88150000D01*
X102960375Y-88221095D01*
X102623697Y-88360552D01*
X102320694Y-88563011D01*
X102063011Y-88820694D01*
X101860552Y-89123697D01*
X101721095Y-89460375D01*
X101650000Y-89817791D01*
X42231873Y-89817791D01*
X42260575Y-89798613D01*
X42448613Y-89610575D01*
X42596354Y-89389465D01*
X42698120Y-89143780D01*
X42750000Y-88882963D01*
X42750000Y-88843192D01*
X97727518Y-88843192D01*
X97802750Y-89044748D01*
X98019967Y-89160701D01*
X98255632Y-89232049D01*
X98500689Y-89256049D01*
X98745718Y-89231780D01*
X98981305Y-89160174D01*
X99197250Y-89044748D01*
X99272482Y-88843192D01*
X98500000Y-88070711D01*
X97727518Y-88843192D01*
X42750000Y-88843192D01*
X42750000Y-88617037D01*
X42698120Y-88356220D01*
X42596354Y-88110535D01*
X42522958Y-88000689D01*
X97243951Y-88000689D01*
X97268220Y-88245718D01*
X97339826Y-88481305D01*
X97455252Y-88697250D01*
X97656808Y-88772482D01*
X98429289Y-88000000D01*
X98570711Y-88000000D01*
X99343192Y-88772482D01*
X99544748Y-88697250D01*
X99660701Y-88480033D01*
X99732049Y-88244368D01*
X99756049Y-87999311D01*
X99731780Y-87754282D01*
X99660174Y-87518695D01*
X99544748Y-87302750D01*
X99343192Y-87227518D01*
X98570711Y-88000000D01*
X98429289Y-88000000D01*
X97656808Y-87227518D01*
X97455252Y-87302750D01*
X97339299Y-87519967D01*
X97267951Y-87755632D01*
X97243951Y-88000689D01*
X42522958Y-88000689D01*
X42448613Y-87889425D01*
X42260575Y-87701387D01*
X42039465Y-87553646D01*
X41793780Y-87451880D01*
X41532963Y-87400000D01*
X41267037Y-87400000D01*
X41006220Y-87451880D01*
X40760535Y-87553646D01*
X40539425Y-87701387D01*
X40351387Y-87889425D01*
X40203646Y-88110535D01*
X40101880Y-88356220D01*
X40050000Y-88617037D01*
X36850000Y-88617037D01*
X36850000Y-88283679D01*
X36830467Y-88085354D01*
X36753272Y-87830878D01*
X36627915Y-87596351D01*
X36459212Y-87390787D01*
X36253648Y-87222085D01*
X36131524Y-87156808D01*
X97727518Y-87156808D01*
X98500000Y-87929289D01*
X99272482Y-87156808D01*
X99197250Y-86955252D01*
X98980033Y-86839299D01*
X98744368Y-86767951D01*
X98499311Y-86743951D01*
X98254282Y-86768220D01*
X98018695Y-86839826D01*
X97802750Y-86955252D01*
X97727518Y-87156808D01*
X36131524Y-87156808D01*
X36019121Y-87096728D01*
X35764645Y-87019533D01*
X35500000Y-86993468D01*
X35235354Y-87019533D01*
X34980878Y-87096728D01*
X34746351Y-87222085D01*
X34540787Y-87390788D01*
X34372085Y-87596352D01*
X34246728Y-87830879D01*
X34169533Y-88085355D01*
X34150000Y-88283680D01*
X28626132Y-88283680D01*
X28611722Y-88279138D01*
X28269048Y-88241636D01*
X27925642Y-88271707D01*
X27594701Y-88368195D01*
X27288943Y-88527392D01*
X27257267Y-88548556D01*
X27122018Y-88801307D01*
X22975000Y-88801307D01*
X22975000Y-84827640D01*
X26500000Y-84827640D01*
X26500000Y-85172360D01*
X26567251Y-85510456D01*
X26699170Y-85828936D01*
X26890686Y-86115560D01*
X27134440Y-86359314D01*
X27421064Y-86550830D01*
X27739544Y-86682749D01*
X28077640Y-86750000D01*
X28422360Y-86750000D01*
X28760456Y-86682749D01*
X29078936Y-86550830D01*
X29155008Y-86500000D01*
X52547823Y-86500000D01*
X52556511Y-86588215D01*
X52582243Y-86673041D01*
X52624029Y-86751216D01*
X52680263Y-86819737D01*
X52748784Y-86875971D01*
X52826959Y-86917757D01*
X52911785Y-86943489D01*
X53000000Y-86952177D01*
X54837500Y-86950000D01*
X54950000Y-86837500D01*
X54950000Y-84550000D01*
X55050000Y-84550000D01*
X55050000Y-86837500D01*
X55162500Y-86950000D01*
X57000000Y-86952177D01*
X57088215Y-86943489D01*
X57173041Y-86917757D01*
X57251216Y-86875971D01*
X57319737Y-86819737D01*
X57375971Y-86751216D01*
X57417757Y-86673041D01*
X57443489Y-86588215D01*
X57452177Y-86500000D01*
X81547823Y-86500000D01*
X81556511Y-86588215D01*
X81582243Y-86673041D01*
X81624029Y-86751216D01*
X81680263Y-86819737D01*
X81748784Y-86875971D01*
X81826959Y-86917757D01*
X81911785Y-86943489D01*
X82000000Y-86952177D01*
X83837500Y-86950000D01*
X83950000Y-86837500D01*
X83950000Y-84550000D01*
X84050000Y-84550000D01*
X84050000Y-86837500D01*
X84162500Y-86950000D01*
X86000000Y-86952177D01*
X86088215Y-86943489D01*
X86173041Y-86917757D01*
X86251216Y-86875971D01*
X86319737Y-86819737D01*
X86375971Y-86751216D01*
X86417757Y-86673041D01*
X86443489Y-86588215D01*
X86452177Y-86500000D01*
X123797823Y-86500000D01*
X123806511Y-86588215D01*
X123832243Y-86673041D01*
X123874029Y-86751216D01*
X123930263Y-86819737D01*
X123998784Y-86875971D01*
X124076959Y-86917757D01*
X124161785Y-86943489D01*
X124250000Y-86952177D01*
X126087500Y-86950000D01*
X126200000Y-86837500D01*
X126200000Y-84550000D01*
X126300000Y-84550000D01*
X126300000Y-86837500D01*
X126412500Y-86950000D01*
X128250000Y-86952177D01*
X128338215Y-86943489D01*
X128423041Y-86917757D01*
X128501216Y-86875971D01*
X128569737Y-86819737D01*
X128625971Y-86751216D01*
X128667757Y-86673041D01*
X128693489Y-86588215D01*
X128702177Y-86500000D01*
X128700000Y-84662500D01*
X128664386Y-84626886D01*
X139500000Y-84626886D01*
X139500000Y-84873114D01*
X139548037Y-85114611D01*
X139642265Y-85342097D01*
X139779062Y-85546828D01*
X139953172Y-85720938D01*
X140157903Y-85857735D01*
X140385389Y-85951963D01*
X140626886Y-86000000D01*
X140873114Y-86000000D01*
X141114611Y-85951963D01*
X141342097Y-85857735D01*
X141546828Y-85720938D01*
X141720938Y-85546828D01*
X141857735Y-85342097D01*
X141951963Y-85114611D01*
X142000000Y-84873114D01*
X142000000Y-84827640D01*
X157750000Y-84827640D01*
X157750000Y-85172360D01*
X157817251Y-85510456D01*
X157949170Y-85828936D01*
X158140686Y-86115560D01*
X158384440Y-86359314D01*
X158671064Y-86550830D01*
X158989544Y-86682749D01*
X159327640Y-86750000D01*
X159672360Y-86750000D01*
X160010456Y-86682749D01*
X160328936Y-86550830D01*
X160615560Y-86359314D01*
X160859314Y-86115560D01*
X161050830Y-85828936D01*
X161182749Y-85510456D01*
X161250000Y-85172360D01*
X161250000Y-84827640D01*
X161182749Y-84489544D01*
X161050830Y-84171064D01*
X160859314Y-83884440D01*
X160615560Y-83640686D01*
X160328936Y-83449170D01*
X160010456Y-83317251D01*
X159672360Y-83250000D01*
X159327640Y-83250000D01*
X158989544Y-83317251D01*
X158671064Y-83449170D01*
X158384440Y-83640686D01*
X158140686Y-83884440D01*
X157949170Y-84171064D01*
X157817251Y-84489544D01*
X157750000Y-84827640D01*
X142000000Y-84827640D01*
X142000000Y-84626886D01*
X141951963Y-84385389D01*
X141857735Y-84157903D01*
X141720938Y-83953172D01*
X141546828Y-83779062D01*
X141342097Y-83642265D01*
X141114611Y-83548037D01*
X140873114Y-83500000D01*
X140626886Y-83500000D01*
X140385389Y-83548037D01*
X140157903Y-83642265D01*
X139953172Y-83779062D01*
X139779062Y-83953172D01*
X139642265Y-84157903D01*
X139548037Y-84385389D01*
X139500000Y-84626886D01*
X128664386Y-84626886D01*
X128587500Y-84550000D01*
X126300000Y-84550000D01*
X126200000Y-84550000D01*
X123912500Y-84550000D01*
X123800000Y-84662500D01*
X123797823Y-86500000D01*
X86452177Y-86500000D01*
X86450000Y-84662500D01*
X86337500Y-84550000D01*
X84050000Y-84550000D01*
X83950000Y-84550000D01*
X81662500Y-84550000D01*
X81550000Y-84662500D01*
X81547823Y-86500000D01*
X57452177Y-86500000D01*
X57450000Y-84662500D01*
X57337500Y-84550000D01*
X55050000Y-84550000D01*
X54950000Y-84550000D01*
X52662500Y-84550000D01*
X52550000Y-84662500D01*
X52547823Y-86500000D01*
X29155008Y-86500000D01*
X29365560Y-86359314D01*
X29609314Y-86115560D01*
X29800830Y-85828936D01*
X29932749Y-85510456D01*
X30000000Y-85172360D01*
X30000000Y-84827640D01*
X29932749Y-84489544D01*
X29800830Y-84171064D01*
X29609314Y-83884440D01*
X29365560Y-83640686D01*
X29078936Y-83449170D01*
X28760456Y-83317251D01*
X28422360Y-83250000D01*
X28077640Y-83250000D01*
X27739544Y-83317251D01*
X27421064Y-83449170D01*
X27134440Y-83640686D01*
X26890686Y-83884440D01*
X26699170Y-84171064D01*
X26567251Y-84489544D01*
X26500000Y-84827640D01*
X22975000Y-84827640D01*
X22975000Y-80783680D01*
X34150000Y-80783680D01*
X34150000Y-81716321D01*
X34169533Y-81914646D01*
X34246728Y-82169122D01*
X34372085Y-82403649D01*
X34540788Y-82609213D01*
X34746352Y-82777915D01*
X34980879Y-82903272D01*
X35235355Y-82980467D01*
X35500000Y-83006532D01*
X35764646Y-82980467D01*
X36019122Y-82903272D01*
X36253649Y-82777915D01*
X36459213Y-82609213D01*
X36548841Y-82500000D01*
X52547823Y-82500000D01*
X52550000Y-84337500D01*
X52662500Y-84450000D01*
X54950000Y-84450000D01*
X54950000Y-82162500D01*
X55050000Y-82162500D01*
X55050000Y-84450000D01*
X57337500Y-84450000D01*
X57450000Y-84337500D01*
X57451770Y-82843192D01*
X68727518Y-82843192D01*
X68802750Y-83044748D01*
X69019967Y-83160701D01*
X69255632Y-83232049D01*
X69500689Y-83256049D01*
X69745718Y-83231780D01*
X69981305Y-83160174D01*
X70197250Y-83044748D01*
X70272482Y-82843192D01*
X69500000Y-82070711D01*
X68727518Y-82843192D01*
X57451770Y-82843192D01*
X57452177Y-82500000D01*
X57443489Y-82411785D01*
X57417757Y-82326959D01*
X57375971Y-82248784D01*
X57319737Y-82180263D01*
X57251216Y-82124029D01*
X57173041Y-82082243D01*
X57088215Y-82056511D01*
X57000000Y-82047823D01*
X55162500Y-82050000D01*
X55050000Y-82162500D01*
X54950000Y-82162500D01*
X54837500Y-82050000D01*
X53000000Y-82047823D01*
X52911785Y-82056511D01*
X52826959Y-82082243D01*
X52748784Y-82124029D01*
X52680263Y-82180263D01*
X52624029Y-82248784D01*
X52582243Y-82326959D01*
X52556511Y-82411785D01*
X52547823Y-82500000D01*
X36548841Y-82500000D01*
X36627915Y-82403649D01*
X36753272Y-82169122D01*
X36804365Y-82000689D01*
X68243951Y-82000689D01*
X68268220Y-82245718D01*
X68339826Y-82481305D01*
X68455252Y-82697250D01*
X68656808Y-82772482D01*
X69429289Y-82000000D01*
X69570711Y-82000000D01*
X70343192Y-82772482D01*
X70544748Y-82697250D01*
X70650042Y-82500000D01*
X81547823Y-82500000D01*
X81550000Y-84337500D01*
X81662500Y-84450000D01*
X83950000Y-84450000D01*
X83950000Y-82162500D01*
X84050000Y-82162500D01*
X84050000Y-84450000D01*
X86337500Y-84450000D01*
X86450000Y-84337500D01*
X86451730Y-82876886D01*
X97250000Y-82876886D01*
X97250000Y-83123114D01*
X97298037Y-83364611D01*
X97392265Y-83592097D01*
X97529062Y-83796828D01*
X97703172Y-83970938D01*
X97907903Y-84107735D01*
X98135389Y-84201963D01*
X98376886Y-84250000D01*
X98623114Y-84250000D01*
X98864611Y-84201963D01*
X99092097Y-84107735D01*
X99296828Y-83970938D01*
X99470938Y-83796828D01*
X99607735Y-83592097D01*
X99701963Y-83364611D01*
X99750000Y-83123114D01*
X99750000Y-82876886D01*
X99701963Y-82635389D01*
X99645883Y-82500000D01*
X123797823Y-82500000D01*
X123800000Y-84337500D01*
X123912500Y-84450000D01*
X126200000Y-84450000D01*
X126200000Y-82162500D01*
X126300000Y-82162500D01*
X126300000Y-84450000D01*
X128587500Y-84450000D01*
X128700000Y-84337500D01*
X128701178Y-83343192D01*
X143227518Y-83343192D01*
X143302750Y-83544748D01*
X143519967Y-83660701D01*
X143755632Y-83732049D01*
X144000689Y-83756049D01*
X144245718Y-83731780D01*
X144481305Y-83660174D01*
X144697250Y-83544748D01*
X144772482Y-83343192D01*
X144000000Y-82570711D01*
X143227518Y-83343192D01*
X128701178Y-83343192D01*
X128702177Y-82500000D01*
X128693489Y-82411785D01*
X128667757Y-82326959D01*
X128625971Y-82248784D01*
X128569737Y-82180263D01*
X128501216Y-82124029D01*
X128423041Y-82082243D01*
X128338215Y-82056511D01*
X128250000Y-82047823D01*
X126412500Y-82050000D01*
X126300000Y-82162500D01*
X126200000Y-82162500D01*
X126087500Y-82050000D01*
X124250000Y-82047823D01*
X124161785Y-82056511D01*
X124076959Y-82082243D01*
X123998784Y-82124029D01*
X123930263Y-82180263D01*
X123874029Y-82248784D01*
X123832243Y-82326959D01*
X123806511Y-82411785D01*
X123797823Y-82500000D01*
X99645883Y-82500000D01*
X99607735Y-82407903D01*
X99470938Y-82203172D01*
X99296828Y-82029062D01*
X99092097Y-81892265D01*
X98864611Y-81798037D01*
X98623114Y-81750000D01*
X98376886Y-81750000D01*
X98135389Y-81798037D01*
X97907903Y-81892265D01*
X97703172Y-82029062D01*
X97529062Y-82203172D01*
X97392265Y-82407903D01*
X97298037Y-82635389D01*
X97250000Y-82876886D01*
X86451730Y-82876886D01*
X86452177Y-82500000D01*
X86443489Y-82411785D01*
X86417757Y-82326959D01*
X86375971Y-82248784D01*
X86319737Y-82180263D01*
X86251216Y-82124029D01*
X86173041Y-82082243D01*
X86088215Y-82056511D01*
X86000000Y-82047823D01*
X84162500Y-82050000D01*
X84050000Y-82162500D01*
X83950000Y-82162500D01*
X83837500Y-82050000D01*
X82000000Y-82047823D01*
X81911785Y-82056511D01*
X81826959Y-82082243D01*
X81748784Y-82124029D01*
X81680263Y-82180263D01*
X81624029Y-82248784D01*
X81582243Y-82326959D01*
X81556511Y-82411785D01*
X81547823Y-82500000D01*
X70650042Y-82500000D01*
X70660701Y-82480033D01*
X70732049Y-82244368D01*
X70756049Y-81999311D01*
X70731780Y-81754282D01*
X70660174Y-81518695D01*
X70584375Y-81376886D01*
X139500000Y-81376886D01*
X139500000Y-81623114D01*
X139548037Y-81864611D01*
X139642265Y-82092097D01*
X139779062Y-82296828D01*
X139953172Y-82470938D01*
X140157903Y-82607735D01*
X140385389Y-82701963D01*
X140626886Y-82750000D01*
X140873114Y-82750000D01*
X141114611Y-82701963D01*
X141342097Y-82607735D01*
X141502302Y-82500689D01*
X142743951Y-82500689D01*
X142768220Y-82745718D01*
X142839826Y-82981305D01*
X142955252Y-83197250D01*
X143156808Y-83272482D01*
X143929289Y-82500000D01*
X144070711Y-82500000D01*
X144843192Y-83272482D01*
X145044748Y-83197250D01*
X145160701Y-82980033D01*
X145232049Y-82744368D01*
X145256049Y-82499311D01*
X145231780Y-82254282D01*
X145160174Y-82018695D01*
X145044748Y-81802750D01*
X144843192Y-81727518D01*
X144070711Y-82500000D01*
X143929289Y-82500000D01*
X143156808Y-81727518D01*
X142955252Y-81802750D01*
X142839299Y-82019967D01*
X142767951Y-82255632D01*
X142743951Y-82500689D01*
X141502302Y-82500689D01*
X141546828Y-82470938D01*
X141720938Y-82296828D01*
X141857735Y-82092097D01*
X141951963Y-81864611D01*
X141993297Y-81656808D01*
X143227518Y-81656808D01*
X144000000Y-82429289D01*
X144772482Y-81656808D01*
X144697250Y-81455252D01*
X144480033Y-81339299D01*
X144244368Y-81267951D01*
X143999311Y-81243951D01*
X143754282Y-81268220D01*
X143518695Y-81339826D01*
X143302750Y-81455252D01*
X143227518Y-81656808D01*
X141993297Y-81656808D01*
X142000000Y-81623114D01*
X142000000Y-81376886D01*
X141951963Y-81135389D01*
X141857735Y-80907903D01*
X141720938Y-80703172D01*
X141546828Y-80529062D01*
X141342097Y-80392265D01*
X141114611Y-80298037D01*
X140873114Y-80250000D01*
X140626886Y-80250000D01*
X140385389Y-80298037D01*
X140157903Y-80392265D01*
X139953172Y-80529062D01*
X139779062Y-80703172D01*
X139642265Y-80907903D01*
X139548037Y-81135389D01*
X139500000Y-81376886D01*
X70584375Y-81376886D01*
X70544748Y-81302750D01*
X70343192Y-81227518D01*
X69570711Y-82000000D01*
X69429289Y-82000000D01*
X68656808Y-81227518D01*
X68455252Y-81302750D01*
X68339299Y-81519967D01*
X68267951Y-81755632D01*
X68243951Y-82000689D01*
X36804365Y-82000689D01*
X36830467Y-81914646D01*
X36850000Y-81716320D01*
X36850000Y-81156808D01*
X68727518Y-81156808D01*
X69500000Y-81929289D01*
X70272482Y-81156808D01*
X70197250Y-80955252D01*
X69980033Y-80839299D01*
X69744368Y-80767951D01*
X69499311Y-80743951D01*
X69254282Y-80768220D01*
X69018695Y-80839826D01*
X68802750Y-80955252D01*
X68727518Y-81156808D01*
X36850000Y-81156808D01*
X36850000Y-80783679D01*
X36830467Y-80585354D01*
X36753272Y-80330878D01*
X36627915Y-80096351D01*
X36459212Y-79890787D01*
X36253648Y-79722085D01*
X36075543Y-79626886D01*
X97250000Y-79626886D01*
X97250000Y-79873114D01*
X97298037Y-80114611D01*
X97392265Y-80342097D01*
X97529062Y-80546828D01*
X97703172Y-80720938D01*
X97907903Y-80857735D01*
X98135389Y-80951963D01*
X98376886Y-81000000D01*
X98623114Y-81000000D01*
X98864611Y-80951963D01*
X99092097Y-80857735D01*
X99296828Y-80720938D01*
X99470938Y-80546828D01*
X99607735Y-80342097D01*
X99701963Y-80114611D01*
X99750000Y-79873114D01*
X99750000Y-79716886D01*
X146000000Y-79716886D01*
X146000000Y-79963114D01*
X146048037Y-80204611D01*
X146142265Y-80432097D01*
X146279062Y-80636828D01*
X146453172Y-80810938D01*
X146657903Y-80947735D01*
X146885389Y-81041963D01*
X147126886Y-81090000D01*
X147373114Y-81090000D01*
X147614611Y-81041963D01*
X147842097Y-80947735D01*
X148046828Y-80810938D01*
X148220938Y-80636828D01*
X148357735Y-80432097D01*
X148451963Y-80204611D01*
X148500000Y-79963114D01*
X148500000Y-79716886D01*
X148451963Y-79475389D01*
X148357735Y-79247903D01*
X148220938Y-79043172D01*
X148046828Y-78869062D01*
X147842097Y-78732265D01*
X147614611Y-78638037D01*
X147373114Y-78590000D01*
X147126886Y-78590000D01*
X146885389Y-78638037D01*
X146657903Y-78732265D01*
X146453172Y-78869062D01*
X146279062Y-79043172D01*
X146142265Y-79247903D01*
X146048037Y-79475389D01*
X146000000Y-79716886D01*
X99750000Y-79716886D01*
X99750000Y-79626886D01*
X99701963Y-79385389D01*
X99607735Y-79157903D01*
X99470938Y-78953172D01*
X99296828Y-78779062D01*
X99092097Y-78642265D01*
X98864611Y-78548037D01*
X98623114Y-78500000D01*
X98376886Y-78500000D01*
X98135389Y-78548037D01*
X97907903Y-78642265D01*
X97703172Y-78779062D01*
X97529062Y-78953172D01*
X97392265Y-79157903D01*
X97298037Y-79385389D01*
X97250000Y-79626886D01*
X36075543Y-79626886D01*
X36019121Y-79596728D01*
X35764645Y-79519533D01*
X35500000Y-79493468D01*
X35235354Y-79519533D01*
X34980878Y-79596728D01*
X34746351Y-79722085D01*
X34540787Y-79890788D01*
X34372085Y-80096352D01*
X34246728Y-80330879D01*
X34169533Y-80585355D01*
X34150000Y-80783680D01*
X22975000Y-80783680D01*
X22975000Y-74258696D01*
X52550000Y-74258696D01*
X52550000Y-74741304D01*
X52644152Y-75214639D01*
X52828838Y-75660510D01*
X53096960Y-76061784D01*
X53438216Y-76403040D01*
X53839490Y-76671162D01*
X54285361Y-76855848D01*
X54758696Y-76950000D01*
X55241304Y-76950000D01*
X55608873Y-76876886D01*
X68250000Y-76876886D01*
X68250000Y-77123114D01*
X68298037Y-77364611D01*
X68392265Y-77592097D01*
X68529062Y-77796828D01*
X68703172Y-77970938D01*
X68907903Y-78107735D01*
X69135389Y-78201963D01*
X69376886Y-78250000D01*
X69623114Y-78250000D01*
X69864611Y-78201963D01*
X70092097Y-78107735D01*
X70296828Y-77970938D01*
X70470938Y-77796828D01*
X70607735Y-77592097D01*
X70696878Y-77376886D01*
X142750000Y-77376886D01*
X142750000Y-77623114D01*
X142798037Y-77864611D01*
X142892265Y-78092097D01*
X143029062Y-78296828D01*
X143203172Y-78470938D01*
X143407903Y-78607735D01*
X143635389Y-78701963D01*
X143876886Y-78750000D01*
X144123114Y-78750000D01*
X144364611Y-78701963D01*
X144592097Y-78607735D01*
X144796828Y-78470938D01*
X144970938Y-78296828D01*
X145107735Y-78092097D01*
X145201963Y-77864611D01*
X145250000Y-77623114D01*
X145250000Y-77376886D01*
X145201963Y-77135389D01*
X145107735Y-76907903D01*
X144970938Y-76703172D01*
X144796828Y-76529062D01*
X144592097Y-76392265D01*
X144364611Y-76298037D01*
X144123114Y-76250000D01*
X143876886Y-76250000D01*
X143635389Y-76298037D01*
X143407903Y-76392265D01*
X143203172Y-76529062D01*
X143029062Y-76703172D01*
X142892265Y-76907903D01*
X142798037Y-77135389D01*
X142750000Y-77376886D01*
X70696878Y-77376886D01*
X70701963Y-77364611D01*
X70750000Y-77123114D01*
X70750000Y-76876886D01*
X70701963Y-76635389D01*
X70607735Y-76407903D01*
X70470938Y-76203172D01*
X70296828Y-76029062D01*
X70092097Y-75892265D01*
X69864611Y-75798037D01*
X69623114Y-75750000D01*
X69376886Y-75750000D01*
X69135389Y-75798037D01*
X68907903Y-75892265D01*
X68703172Y-76029062D01*
X68529062Y-76203172D01*
X68392265Y-76407903D01*
X68298037Y-76635389D01*
X68250000Y-76876886D01*
X55608873Y-76876886D01*
X55714639Y-76855848D01*
X56160510Y-76671162D01*
X56561784Y-76403040D01*
X56903040Y-76061784D01*
X57171162Y-75660510D01*
X57355848Y-75214639D01*
X57450000Y-74741304D01*
X57450000Y-74258696D01*
X81550000Y-74258696D01*
X81550000Y-74741304D01*
X81644152Y-75214639D01*
X81828838Y-75660510D01*
X82096960Y-76061784D01*
X82438216Y-76403040D01*
X82839490Y-76671162D01*
X83285361Y-76855848D01*
X83758696Y-76950000D01*
X84241304Y-76950000D01*
X84714639Y-76855848D01*
X85160510Y-76671162D01*
X85561784Y-76403040D01*
X85903040Y-76061784D01*
X86171162Y-75660510D01*
X86355848Y-75214639D01*
X86450000Y-74741304D01*
X86450000Y-74258696D01*
X123800000Y-74258696D01*
X123800000Y-74741304D01*
X123894152Y-75214639D01*
X124078838Y-75660510D01*
X124346960Y-76061784D01*
X124688216Y-76403040D01*
X125089490Y-76671162D01*
X125535361Y-76855848D01*
X126008696Y-76950000D01*
X126491304Y-76950000D01*
X126964639Y-76855848D01*
X127410510Y-76671162D01*
X127811784Y-76403040D01*
X128153040Y-76061784D01*
X128421162Y-75660510D01*
X128605848Y-75214639D01*
X128700000Y-74741304D01*
X128700000Y-74258696D01*
X128605848Y-73785361D01*
X128421162Y-73339490D01*
X128153040Y-72938216D01*
X127811784Y-72596960D01*
X127410510Y-72328838D01*
X126964639Y-72144152D01*
X126491304Y-72050000D01*
X126008696Y-72050000D01*
X125535361Y-72144152D01*
X125089490Y-72328838D01*
X124688216Y-72596960D01*
X124346960Y-72938216D01*
X124078838Y-73339490D01*
X123894152Y-73785361D01*
X123800000Y-74258696D01*
X86450000Y-74258696D01*
X86355848Y-73785361D01*
X86171162Y-73339490D01*
X85903040Y-72938216D01*
X85561784Y-72596960D01*
X85160510Y-72328838D01*
X84714639Y-72144152D01*
X84241304Y-72050000D01*
X83758696Y-72050000D01*
X83285361Y-72144152D01*
X82839490Y-72328838D01*
X82438216Y-72596960D01*
X82096960Y-72938216D01*
X81828838Y-73339490D01*
X81644152Y-73785361D01*
X81550000Y-74258696D01*
X57450000Y-74258696D01*
X57355848Y-73785361D01*
X57171162Y-73339490D01*
X56903040Y-72938216D01*
X56561784Y-72596960D01*
X56160510Y-72328838D01*
X55714639Y-72144152D01*
X55241304Y-72050000D01*
X54758696Y-72050000D01*
X54285361Y-72144152D01*
X53839490Y-72328838D01*
X53438216Y-72596960D01*
X53096960Y-72938216D01*
X52828838Y-73339490D01*
X52644152Y-73785361D01*
X52550000Y-74258696D01*
X22975000Y-74258696D01*
X22975000Y-71631360D01*
X23015412Y-71728923D01*
X23414860Y-72326740D01*
X23923260Y-72835140D01*
X24521077Y-73234588D01*
X25185334Y-73509733D01*
X25890506Y-73650000D01*
X26609494Y-73650000D01*
X27314666Y-73509733D01*
X27978923Y-73234588D01*
X28576740Y-72835140D01*
X29085140Y-72326740D01*
X29484588Y-71728923D01*
X29759733Y-71064666D01*
X29900000Y-70359494D01*
X29900000Y-69640506D01*
X29865465Y-69466886D01*
X97250000Y-69466886D01*
X97250000Y-69713114D01*
X97298037Y-69954611D01*
X97392265Y-70182097D01*
X97529062Y-70386828D01*
X97703172Y-70560938D01*
X97907903Y-70697735D01*
X98135389Y-70791963D01*
X98376886Y-70840000D01*
X98623114Y-70840000D01*
X98864611Y-70791963D01*
X99092097Y-70697735D01*
X99296828Y-70560938D01*
X99470938Y-70386828D01*
X99607735Y-70182097D01*
X99701963Y-69954611D01*
X99750000Y-69713114D01*
X99750000Y-69497791D01*
X101650000Y-69497791D01*
X101650000Y-69862209D01*
X101721095Y-70219625D01*
X101860552Y-70556303D01*
X102063011Y-70859306D01*
X102320694Y-71116989D01*
X102623697Y-71319448D01*
X102960375Y-71458905D01*
X103317791Y-71530000D01*
X103682209Y-71530000D01*
X104039625Y-71458905D01*
X104376303Y-71319448D01*
X104679306Y-71116989D01*
X104936989Y-70859306D01*
X105139448Y-70556303D01*
X105278905Y-70219625D01*
X105350000Y-69862209D01*
X105350000Y-69497791D01*
X108150000Y-69497791D01*
X108150000Y-69862209D01*
X108221095Y-70219625D01*
X108360552Y-70556303D01*
X108563011Y-70859306D01*
X108820694Y-71116989D01*
X109123697Y-71319448D01*
X109460375Y-71458905D01*
X109817791Y-71530000D01*
X110182209Y-71530000D01*
X110539625Y-71458905D01*
X110876303Y-71319448D01*
X111029798Y-71216886D01*
X139500000Y-71216886D01*
X139500000Y-71463114D01*
X139548037Y-71704611D01*
X139642265Y-71932097D01*
X139779062Y-72136828D01*
X139953172Y-72310938D01*
X140157903Y-72447735D01*
X140385389Y-72541963D01*
X140626886Y-72590000D01*
X140873114Y-72590000D01*
X141114611Y-72541963D01*
X141342097Y-72447735D01*
X141546828Y-72310938D01*
X141720938Y-72136828D01*
X141857735Y-71932097D01*
X141951963Y-71704611D01*
X142000000Y-71463114D01*
X142000000Y-71216886D01*
X141951963Y-70975389D01*
X141857735Y-70747903D01*
X141720938Y-70543172D01*
X141546828Y-70369062D01*
X141506947Y-70342414D01*
X145650000Y-70342414D01*
X145650000Y-70657586D01*
X145711487Y-70966703D01*
X145832098Y-71257884D01*
X146007199Y-71519941D01*
X146230059Y-71742801D01*
X146492116Y-71917902D01*
X146783297Y-72038513D01*
X147092414Y-72100000D01*
X147407586Y-72100000D01*
X147716703Y-72038513D01*
X148007884Y-71917902D01*
X148269941Y-71742801D01*
X148492801Y-71519941D01*
X148667902Y-71257884D01*
X148788513Y-70966703D01*
X148850000Y-70657586D01*
X148850000Y-70342414D01*
X148788513Y-70033297D01*
X148667902Y-69742116D01*
X148492801Y-69480059D01*
X148362742Y-69350000D01*
X149147823Y-69350000D01*
X149147823Y-71650000D01*
X149156511Y-71738215D01*
X149182243Y-71823041D01*
X149224029Y-71901216D01*
X149280263Y-71969737D01*
X149348784Y-72025971D01*
X149426959Y-72067757D01*
X149511785Y-72093489D01*
X149550001Y-72097253D01*
X149550000Y-79022234D01*
X149529062Y-79043172D01*
X149392265Y-79247903D01*
X149298037Y-79475389D01*
X149250000Y-79716886D01*
X149250000Y-79963114D01*
X149298037Y-80204611D01*
X149392265Y-80432097D01*
X149529062Y-80636828D01*
X149703172Y-80810938D01*
X149907903Y-80947735D01*
X150135389Y-81041963D01*
X150376886Y-81090000D01*
X150623114Y-81090000D01*
X150864611Y-81041963D01*
X151092097Y-80947735D01*
X151296828Y-80810938D01*
X151470938Y-80636828D01*
X151607735Y-80432097D01*
X151701963Y-80204611D01*
X151750000Y-79963114D01*
X151750000Y-79827640D01*
X157750000Y-79827640D01*
X157750000Y-80172360D01*
X157817251Y-80510456D01*
X157949170Y-80828936D01*
X158140686Y-81115560D01*
X158384440Y-81359314D01*
X158671064Y-81550830D01*
X158989544Y-81682749D01*
X159327640Y-81750000D01*
X159672360Y-81750000D01*
X160010456Y-81682749D01*
X160328936Y-81550830D01*
X160615560Y-81359314D01*
X160859314Y-81115560D01*
X161050830Y-80828936D01*
X161182749Y-80510456D01*
X161250000Y-80172360D01*
X161250000Y-79827640D01*
X161182749Y-79489544D01*
X161050830Y-79171064D01*
X160859314Y-78884440D01*
X160615560Y-78640686D01*
X160328936Y-78449170D01*
X160010456Y-78317251D01*
X159672360Y-78250000D01*
X159327640Y-78250000D01*
X158989544Y-78317251D01*
X158671064Y-78449170D01*
X158384440Y-78640686D01*
X158140686Y-78884440D01*
X157949170Y-79171064D01*
X157817251Y-79489544D01*
X157750000Y-79827640D01*
X151750000Y-79827640D01*
X151750000Y-79716886D01*
X151701963Y-79475389D01*
X151607735Y-79247903D01*
X151470938Y-79043172D01*
X151450000Y-79022234D01*
X151450000Y-72102177D01*
X151900000Y-72102177D01*
X151988215Y-72093489D01*
X152073041Y-72067757D01*
X152151216Y-72025971D01*
X152219737Y-71969737D01*
X152275971Y-71901216D01*
X152317757Y-71823041D01*
X152343489Y-71738215D01*
X152352177Y-71650000D01*
X152352177Y-69350000D01*
X152343489Y-69261785D01*
X152317757Y-69176959D01*
X152275971Y-69098784D01*
X152219737Y-69030263D01*
X152151216Y-68974029D01*
X152073041Y-68932243D01*
X151988215Y-68906511D01*
X151900000Y-68897823D01*
X149600000Y-68897823D01*
X149511785Y-68906511D01*
X149426959Y-68932243D01*
X149348784Y-68974029D01*
X149280263Y-69030263D01*
X149224029Y-69098784D01*
X149182243Y-69176959D01*
X149156511Y-69261785D01*
X149147823Y-69350000D01*
X148362742Y-69350000D01*
X148269941Y-69257199D01*
X148007884Y-69082098D01*
X147716703Y-68961487D01*
X147407586Y-68900000D01*
X147092414Y-68900000D01*
X146783297Y-68961487D01*
X146492116Y-69082098D01*
X146230059Y-69257199D01*
X146007199Y-69480059D01*
X145832098Y-69742116D01*
X145711487Y-70033297D01*
X145650000Y-70342414D01*
X141506947Y-70342414D01*
X141342097Y-70232265D01*
X141114611Y-70138037D01*
X140873114Y-70090000D01*
X140626886Y-70090000D01*
X140385389Y-70138037D01*
X140157903Y-70232265D01*
X139953172Y-70369062D01*
X139779062Y-70543172D01*
X139642265Y-70747903D01*
X139548037Y-70975389D01*
X139500000Y-71216886D01*
X111029798Y-71216886D01*
X111179306Y-71116989D01*
X111436989Y-70859306D01*
X111639448Y-70556303D01*
X111778905Y-70219625D01*
X111850000Y-69862209D01*
X111850000Y-69497791D01*
X111778905Y-69140375D01*
X111639448Y-68803697D01*
X111436989Y-68500694D01*
X111179306Y-68243011D01*
X110876303Y-68040552D01*
X110539625Y-67901095D01*
X110182209Y-67830000D01*
X109817791Y-67830000D01*
X109460375Y-67901095D01*
X109123697Y-68040552D01*
X108820694Y-68243011D01*
X108563011Y-68500694D01*
X108360552Y-68803697D01*
X108221095Y-69140375D01*
X108150000Y-69497791D01*
X105350000Y-69497791D01*
X105278905Y-69140375D01*
X105139448Y-68803697D01*
X104936989Y-68500694D01*
X104679306Y-68243011D01*
X104376303Y-68040552D01*
X104039625Y-67901095D01*
X103682209Y-67830000D01*
X103317791Y-67830000D01*
X102960375Y-67901095D01*
X102623697Y-68040552D01*
X102320694Y-68243011D01*
X102063011Y-68500694D01*
X101860552Y-68803697D01*
X101721095Y-69140375D01*
X101650000Y-69497791D01*
X99750000Y-69497791D01*
X99750000Y-69466886D01*
X99701963Y-69225389D01*
X99607735Y-68997903D01*
X99470938Y-68793172D01*
X99296828Y-68619062D01*
X99092097Y-68482265D01*
X98864611Y-68388037D01*
X98623114Y-68340000D01*
X98376886Y-68340000D01*
X98135389Y-68388037D01*
X97907903Y-68482265D01*
X97703172Y-68619062D01*
X97529062Y-68793172D01*
X97392265Y-68997903D01*
X97298037Y-69225389D01*
X97250000Y-69466886D01*
X29865465Y-69466886D01*
X29759733Y-68935334D01*
X29484588Y-68271077D01*
X29085140Y-67673260D01*
X28576740Y-67164860D01*
X27978923Y-66765412D01*
X27881360Y-66725000D01*
X157618640Y-66725000D01*
X157521077Y-66765412D01*
%TD*%
M02*
