M48
; DRILL file {KiCad (5.1.6-0)} date Friday, July 07, 2023 at 05:58:44 PM
; FORMAT={-:-/ absolute / inch / decimal}
; #@! TF.CreationDate,2023-07-07T17:58:44-07:00
; #@! TF.GenerationSoftware,Kicad,Pcbnew,(5.1.6-0)
; #@! TF.FileFunction,Plated,1,2,PTH
FMAT,2
INCH
T1C0.0157
T2C0.0197
T3C0.0315
T4C0.0394
T5C0.0433
T6C0.0472
T7C0.0512
T8C0.0551
T9C0.0787
T10C0.1260
%
G90
G05
T1
X5.7972Y-3.6319
T2
X6.1752Y-2.7559
X6.2029Y-2.6891
X6.2029Y-2.8227
X6.2697Y-2.6614
X6.2697Y-2.8504
X6.3365Y-2.6891
X6.3365Y-2.8227
X6.3642Y-2.7559
X0.939Y-2.7559
X0.9667Y-2.6891
X0.9667Y-2.8227
X1.0335Y-2.6614
X1.0335Y-2.8504
X1.1003Y-2.6891
X1.1003Y-2.8227
X1.128Y-2.7559
X6.1752Y-4.5276
X6.2029Y-4.4607
X6.2029Y-4.5944
X6.2697Y-4.4331
X6.2697Y-4.622
X6.3365Y-4.4607
X6.3365Y-4.5944
X6.3642Y-4.5276
X0.939Y-4.5276
X0.9667Y-4.4607
X0.9667Y-4.5944
X1.0335Y-4.4331
X1.0335Y-4.622
X1.1003Y-4.4607
X1.1003Y-4.5944
X1.128Y-4.5276
T3
X5.5413Y-2.8087
X5.5413Y-3.2087
X2.7362Y-4.0551
X2.7362Y-4.252
X2.7362Y-3.0315
X2.7362Y-3.2283
X5.9252Y-3.7992
X5.9252Y-4.1992
X3.878Y-3.8126
X3.878Y-4.2126
X5.5413Y-3.724
X5.5413Y-4.124
X3.878Y-2.7398
X3.878Y-3.1398
X5.6693Y-4.0551
X5.6693Y-4.252
X5.6693Y-3.0512
X5.6693Y-3.248
X3.878Y-4.3406
X3.878Y-4.5374
X5.5413Y-4.252
X5.5413Y-4.4488
X5.9252Y-3.1433
X5.9252Y-3.5433
X5.5413Y-3.3366
X5.5413Y-3.5335
X3.878Y-3.2677
X3.878Y-3.4646
X5.7972Y-3.8618
X5.7972Y-4.2618
X5.7972Y-3.1433
X5.7972Y-3.5433
T4
X1.5748Y-3.7894
X1.6299Y-3.4941
T6
X5.7874Y-4.5079
X5.9252Y-4.5079
X5.7972Y-2.7756
X5.935Y-2.7756
T7
X6.2795Y-3.1496
X6.2795Y-3.3465
X6.2795Y-3.5433
X6.2795Y-3.7402
X6.2795Y-3.937
X6.2795Y-4.1339
X1.1122Y-3.3465
X1.1122Y-3.5433
X1.1122Y-3.7402
X1.1122Y-3.937
T8
X4.3307Y-2.7433
X4.3307Y-3.5433
X4.0748Y-3.7402
X4.0748Y-4.5402
X4.3307Y-3.7402
X4.3307Y-4.5402
X4.0748Y-2.7433
X4.0748Y-3.5433
T9
X4.9705Y-2.9331
X4.9705Y-3.3268
X3.3071Y-2.9331
X3.3071Y-3.3268
X2.1654Y-2.9331
X2.1654Y-3.3268
X4.9705Y-3.9567
X4.9705Y-4.3504
X3.3071Y-3.9567
X3.3071Y-4.3504
X2.1654Y-3.9567
X2.1654Y-4.3504
T10
X1.0335Y-2.7559
X1.0335Y-4.5276
X6.2697Y-2.7559
X6.2697Y-4.5276
T5
G00X1.3976Y-3.2126
M15
G01X1.3976Y-3.185
M16
G05
G00X1.3976Y-3.5079
M15
G01X1.3976Y-3.4803
M16
G05
G00X1.3976Y-3.8031
M15
G01X1.3976Y-3.7756
M16
G05
G00X1.3976Y-4.1969
M15
G01X1.3976Y-4.1693
M16
G05
T0
M30
